{
  "accessors": [
    {
      "bufferView": 0,
      "componentType": 5125,
      "count": 4836,
      "type": "SCALAR"
    },
    {
      "bufferView": 1,
      "componentType": 5126,
      "count": 1742,
      "max": [
        0.491736531257629,
        1.00000023841858,
        0.524075090885162
      ],
      "min": [
        -0.508263468742371,
        5.96046447753906e-08,
        -0.500000178813934
      ],
      "type": "VEC3"
    },
    {
      "bufferView": 2,
      "componentType": 5126,
      "count": 1742,
      "type": "VEC3"
    },
    {
      "bufferView": 3,
      "componentType": 5126,
      "count": 1742,
      "type": "VEC2"
    }
  ],
  "asset": {
    "generator": "Substance Painter 6.2.2",
    "version": "2.0"
  },
  "bufferViews": [
    {
      "buffer": 0,
      "byteLength": 19344,
      "target": 34963
    },
    {
      "buffer": 0,
      "byteLength": 20904,
      "byteOffset": 19344,
      "target": 34962
    },
    {
      "buffer": 0,
      "byteLength": 20904,
      "byteOffset": 40248,
      "target": 34962
    },
    {
      "buffer": 0,
      "byteLength": 13936,
      "byteOffset": 61152,
      "target": 34962
    }
  ],
  "buffers": [
    {
      "byteLength": 75088,
      "uri": "MeterBox_m.bin"
    }
  ],
  "images": [
    {
      "uri": "MeterBox_baseColor.png"
    },
    {
      "uri": "MeterBox_occlusionRoughnessMetallic.png"
    },
    {
      "uri": "MeterBox_normal.png"
    }
  ],
  "materials": [
    {
      "alphaMode": "OPAQUE",
      "name": "MeterBox",
      "normalTexture": {
        "index": 2
      },
      "occlusionTexture": {
        "index": 1
      },
      "pbrMetallicRoughness": {
        "baseColorTexture": {
          "index": 0
        },
        "metallicRoughnessTexture": {
          "index": 1
        }
      }
    }
  ],
  "meshes": [
    {
      "name": "MeterBox",
      "primitives": [
        {
          "attributes": {
            "NORMAL": 2,
            "POSITION": 1,
            "TEXCOORD_0": 3
          },
          "indices": 0,
          "material": 0,
          "mode": 4
        }
      ]
    }
  ],
  "nodes": [
    {
      "children": [
        1
      ],
      "name": "RootNode"
    },
    {
      "children": [
        2
      ],
      "name": "MeterBox",
      "rotation": [
        8.14603424714733e-08,
        0.0,
        0.0,
        1.0
      ]
    },
    {
      "mesh": 0,
      "name": "MeterBox"
    }
  ],
  "samplers": [
    {
      "magFilter": 9729,
      "minFilter": 9985,
      "wrapS": 10497,
      "wrapT": 10497
    }
  ],
  "scene": 0,
  "scenes": [
    {
      "name": "Scene",
      "nodes": [
        0
      ]
    }
  ],
  "textures": [
    {
      "sampler": 0,
      "source": 0
    },
    {
      "sampler": 0,
      "source": 1
    },
    {
      "sampler": 0,
      "source": 2
    }
  ]
}