{
  "accessors": [
    {
      "bufferView": 0,
      "componentType": 5125,
      "count": 4836,
      "type": "SCALAR"
    },
    {
      "bufferView": 1,
      "componentType": 5126,
      "count": 1742,
      "max": [
        0.817129254341125,
        1.00000011920929,
        0.780748426914215
      ],
      "min": [
        -0.817129135131836,
        -1.0,
        -0.780748426914215
      ],
      "type": "VEC3"
    },
    {
      "bufferView": 2,
      "componentType": 5126,
      "count": 1742,
      "type": "VEC3"
    },
    {
      "bufferView": 3,
      "componentType": 5126,
      "count": 1742,
      "type": "VEC2"
    }
  ],
  "asset": {
    "generator": "Substance Painter 2019.2.3",
    "version": "2.0"
  },
  "bufferViews": [
    {
      "buffer": 0,
      "byteLength": 19344,
      "target": 34963
    },
    {
      "buffer": 0,
      "byteLength": 20904,
      "byteOffset": 19344,
      "target": 34962
    },
    {
      "buffer": 0,
      "byteLength": 20904,
      "byteOffset": 40248,
      "target": 34962
    },
    {
      "buffer": 0,
      "byteLength": 13936,
      "byteOffset": 61152,
      "target": 34962
    }
  ],
  "buffers": [
    {
      "byteLength": 75088,
      "uri": "MeterBox.bin"
    }
  ],
  "images": [
    {
      "uri": "MeterBox_baseColor.png"
    },
    {
      "uri": "MeterBox_occlusionRoughnessMetallic.png"
    },
    {
      "uri": "MeterBox_normal.png"
    }
  ],
  "materials": [
    {
      "alphaMode": "OPAQUE",
      "name": "MeterBox",
      "normalTexture": {
        "index": 2
      },
      "occlusionTexture": {
        "index": 1
      },
      "pbrMetallicRoughness": {
        "baseColorTexture": {
          "index": 0
        },
        "metallicRoughnessTexture": {
          "index": 1
        }
      }
    }
  ],
  "meshes": [
    {
      "name": "MeterBox",
      "primitives": [
        {
          "attributes": {
            "NORMAL": 2,
            "POSITION": 1,
            "TEXCOORD_0": 3
          },
          "indices": 0,
          "material": 0,
          "mode": 4
        }
      ]
    }
  ],
  "nodes": [
    {
      "children": [
        1
      ],
      "name": "root",
      "scale": [
        0.640411138534546,
        0.640411138534546,
        0.640411138534546
      ],
      "translation": [
        0.00826340913772583,
        0.64041131734848,
        0.499999910593033
      ]
    },
    {
      "children": [
        2
      ],
      "name": "MeterBox"
    },
    {
      "mesh": 0,
      "name": "MeterBox"
    }
  ],
  "samplers": [
    {
      "magFilter": 9729,
      "minFilter": 9985,
      "wrapS": 10497,
      "wrapT": 10497
    }
  ],
  "scene": 0,
  "scenes": [
    {
      "name": "Scene",
      "nodes": [
        0
      ]
    }
  ],
  "textures": [
    {
      "sampler": 0,
      "source": 0
    },
    {
      "sampler": 0,
      "source": 1
    },
    {
      "sampler": 0,
      "source": 2
    }
  ]
}