{
  "accessors": [
    {
      "bufferView": 0,
      "componentType": 5125,
      "count": 12096,
      "type": "SCALAR"
    },
    {
      "bufferView": 1,
      "componentType": 5126,
      "count": 2374,
      "max": [
        0.166109547019005,
        0.0967678874731064,
        0.152409434318542
      ],
      "min": [
        -0.14515183866024,
        -0.0967678874731064,
        7.45058059692383e-09
      ],
      "type": "VEC3"
    },
    {
      "bufferView": 2,
      "componentType": 5126,
      "count": 2374,
      "type": "VEC3"
    },
    {
      "bufferView": 3,
      "componentType": 5126,
      "count": 2374,
      "type": "VEC2"
    }
  ],
  "asset": {
    "generator": "Substance Painter 6.2.2",
    "version": "2.0"
  },
  "bufferViews": [
    {
      "buffer": 0,
      "byteLength": 48384,
      "target": 34963
    },
    {
      "buffer": 0,
      "byteLength": 28488,
      "byteOffset": 48384,
      "target": 34962
    },
    {
      "buffer": 0,
      "byteLength": 28488,
      "byteOffset": 76872,
      "target": 34962
    },
    {
      "buffer": 0,
      "byteLength": 18992,
      "byteOffset": 105360,
      "target": 34962
    }
  ],
  "buffers": [
    {
      "byteLength": 124352,
      "uri": "Teapot.bin"
    }
  ],
  "images": [
    {
      "uri": "Teapot_baseColor.png"
    },
    {
      "uri": "Teapot_occlusionRoughnessMetallic.png"
    },
    {
      "uri": "Teapot_normal.png"
    }
  ],
  "materials": [
    {
      "alphaMode": "OPAQUE",
      "name": "Teapot",
      "normalTexture": {
        "index": 2
      },
      "occlusionTexture": {
        "index": 1
      },
      "pbrMetallicRoughness": {
        "baseColorTexture": {
          "index": 0
        },
        "metallicRoughnessTexture": {
          "index": 1
        }
      }
    }
  ],
  "meshes": [
    {
      "name": "Teapot001",
      "primitives": [
        {
          "attributes": {
            "NORMAL": 2,
            "POSITION": 1,
            "TEXCOORD_0": 3
          },
          "indices": 0,
          "material": 0,
          "mode": 4
        }
      ]
    }
  ],
  "nodes": [
    {
      "children": [
        1
      ],
      "name": "RootNode"
    },
    {
      "children": [
        2
      ],
      "name": "Teapot001",
      "rotation": [
        -0.70710676908493,
        0.0,
        0.0,
        0.70710676908493
      ],
      "translation": [
        0.000352144706994295,
        0.0,
        -3.68282162526157e-05
      ]
    },
    {
      "mesh": 0,
      "name": "Teapot001"
    }
  ],
  "samplers": [
    {
      "magFilter": 9729,
      "minFilter": 9985,
      "wrapS": 10497,
      "wrapT": 10497
    }
  ],
  "scene": 0,
  "scenes": [
    {
      "name": "Scene",
      "nodes": [
        0
      ]
    }
  ],
  "textures": [
    {
      "sampler": 0,
      "source": 0
    },
    {
      "sampler": 0,
      "source": 1
    },
    {
      "sampler": 0,
      "source": 2
    }
  ]
}