{
  "accessors": [
    {
      "bufferView": 0,
      "componentType": 5125,
      "count": 72,
      "type": "SCALAR"
    },
    {
      "bufferView": 1,
      "componentType": 5126,
      "count": 48,
      "max": [
        0.963716983795166,
        0.601843297481537,
        0.0334454886615276
      ],
      "min": [
        -0.967635273933411,
        -0.599476337432861,
        -0.0166217982769012
      ],
      "type": "VEC3"
    },
    {
      "bufferView": 2,
      "componentType": 5126,
      "count": 48,
      "type": "VEC3"
    },
    {
      "bufferView": 3,
      "componentType": 5126,
      "count": 48,
      "type": "VEC2"
    },
    {
      "bufferView": 4,
      "componentType": 5125,
      "count": 54336,
      "type": "SCALAR"
    },
    {
      "bufferView": 5,
      "componentType": 5126,
      "count": 12656,
      "max": [
        0.457475334405899,
        0.258658021688461,
        0.0295640304684639
      ],
      "min": [
        -0.467147082090378,
        -0.258803367614746,
        -0.00827549863606691
      ],
      "type": "VEC3"
    },
    {
      "bufferView": 6,
      "componentType": 5126,
      "count": 12656,
      "type": "VEC3"
    },
    {
      "bufferView": 7,
      "componentType": 5126,
      "count": 12656,
      "type": "VEC2"
    },
    {
      "bufferView": 8,
      "componentType": 5125,
      "count": 23202,
      "type": "SCALAR"
    },
    {
      "bufferView": 9,
      "componentType": 5126,
      "count": 9905,
      "max": [
        0.999977231025696,
        0.642664909362793,
        0.0368907116353512
      ],
      "min": [
        -1.0,
        -0.642688095569611,
        -0.0393058098852634
      ],
      "type": "VEC3"
    },
    {
      "bufferView": 10,
      "componentType": 5126,
      "count": 9905,
      "type": "VEC3"
    },
    {
      "bufferView": 11,
      "componentType": 5126,
      "count": 9905,
      "type": "VEC2"
    },
    {
      "bufferView": 12,
      "componentType": 5125,
      "count": 1146,
      "type": "SCALAR"
    },
    {
      "bufferView": 13,
      "componentType": 5126,
      "count": 500,
      "max": [
        0.948215126991272,
        0.592210054397583,
        0.0248261988162994
      ],
      "min": [
        -0.957982063293457,
        -0.583822071552277,
        -0.0193003006279469
      ],
      "type": "VEC3"
    },
    {
      "bufferView": 14,
      "componentType": 5126,
      "count": 500,
      "type": "VEC3"
    },
    {
      "bufferView": 15,
      "componentType": 5126,
      "count": 500,
      "type": "VEC2"
    },
    {
      "bufferView": 16,
      "componentType": 5125,
      "count": 8994,
      "type": "SCALAR"
    },
    {
      "bufferView": 17,
      "componentType": 5126,
      "count": 4769,
      "max": [
        0.972348213195801,
        0.62325119972229,
        0.0294027365744114
      ],
      "min": [
        -0.982115149497986,
        -0.6231330037117,
        -0.0254799202084541
      ],
      "type": "VEC3"
    },
    {
      "bufferView": 18,
      "componentType": 5126,
      "count": 4769,
      "type": "VEC3"
    },
    {
      "bufferView": 19,
      "componentType": 5126,
      "count": 4769,
      "type": "VEC2"
    },
    {
      "bufferView": 20,
      "componentType": 5125,
      "count": 144,
      "type": "SCALAR"
    },
    {
      "bufferView": 21,
      "componentType": 5126,
      "count": 64,
      "max": [
        0.916676580905914,
        -0.616977751255035,
        -0.0265386458486319
      ],
      "min": [
        -0.924858450889587,
        -0.621860027313232,
        -0.0267658699303865
      ],
      "type": "VEC3"
    },
    {
      "bufferView": 22,
      "componentType": 5126,
      "count": 64,
      "type": "VEC3"
    },
    {
      "bufferView": 23,
      "componentType": 5126,
      "count": 64,
      "type": "VEC2"
    },
    {
      "bufferView": 24,
      "componentType": 5125,
      "count": 624,
      "type": "SCALAR"
    },
    {
      "bufferView": 25,
      "componentType": 5126,
      "count": 218,
      "max": [
        0.980321526527405,
        -0.597125351428986,
        0.0370836183428764
      ],
      "min": [
        -0.980557382106781,
        -0.642641484737396,
        -0.0393058098852634
      ],
      "type": "VEC3"
    },
    {
      "bufferView": 26,
      "componentType": 5126,
      "count": 218,
      "type": "VEC3"
    },
    {
      "bufferView": 27,
      "componentType": 5126,
      "count": 218,
      "type": "VEC2"
    },
    {
      "bufferView": 28,
      "componentType": 5125,
      "count": 24165,
      "type": "SCALAR"
    },
    {
      "bufferView": 29,
      "componentType": 5126,
      "count": 16195,
      "max": [
        1.0,
        0.642688155174255,
        0.0393058098852634
      ],
      "min": [
        -0.999954402446747,
        -0.642643392086029,
        -0.0393011197447777
      ],
      "type": "VEC3"
    },
    {
      "bufferView": 30,
      "componentType": 5126,
      "count": 16195,
      "type": "VEC3"
    },
    {
      "bufferView": 31,
      "componentType": 5126,
      "count": 16195,
      "type": "VEC2"
    }
  ],
  "asset": {
    "generator": "Substance Painter 2019.3.0",
    "version": "2.0"
  },
  "bufferViews": [
    {
      "buffer": 0,
      "byteLength": 288,
      "target": 34963
    },
    {
      "buffer": 0,
      "byteLength": 576,
      "byteOffset": 288,
      "target": 34962
    },
    {
      "buffer": 0,
      "byteLength": 576,
      "byteOffset": 864,
      "target": 34962
    },
    {
      "buffer": 0,
      "byteLength": 384,
      "byteOffset": 1440,
      "target": 34962
    },
    {
      "buffer": 0,
      "byteLength": 217344,
      "byteOffset": 1824,
      "target": 34963
    },
    {
      "buffer": 0,
      "byteLength": 151872,
      "byteOffset": 219168,
      "target": 34962
    },
    {
      "buffer": 0,
      "byteLength": 151872,
      "byteOffset": 371040,
      "target": 34962
    },
    {
      "buffer": 0,
      "byteLength": 101248,
      "byteOffset": 522912,
      "target": 34962
    },
    {
      "buffer": 0,
      "byteLength": 92808,
      "byteOffset": 624160,
      "target": 34963
    },
    {
      "buffer": 0,
      "byteLength": 118860,
      "byteOffset": 716968,
      "target": 34962
    },
    {
      "buffer": 0,
      "byteLength": 118860,
      "byteOffset": 835828,
      "target": 34962
    },
    {
      "buffer": 0,
      "byteLength": 79240,
      "byteOffset": 954688,
      "target": 34962
    },
    {
      "buffer": 0,
      "byteLength": 4584,
      "byteOffset": 1033928,
      "target": 34963
    },
    {
      "buffer": 0,
      "byteLength": 6000,
      "byteOffset": 1038512,
      "target": 34962
    },
    {
      "buffer": 0,
      "byteLength": 6000,
      "byteOffset": 1044512,
      "target": 34962
    },
    {
      "buffer": 0,
      "byteLength": 4000,
      "byteOffset": 1050512,
      "target": 34962
    },
    {
      "buffer": 0,
      "byteLength": 35976,
      "byteOffset": 1054512,
      "target": 34963
    },
    {
      "buffer": 0,
      "byteLength": 57228,
      "byteOffset": 1090488,
      "target": 34962
    },
    {
      "buffer": 0,
      "byteLength": 57228,
      "byteOffset": 1147716,
      "target": 34962
    },
    {
      "buffer": 0,
      "byteLength": 38152,
      "byteOffset": 1204944,
      "target": 34962
    },
    {
      "buffer": 0,
      "byteLength": 576,
      "byteOffset": 1243096,
      "target": 34963
    },
    {
      "buffer": 0,
      "byteLength": 768,
      "byteOffset": 1243672,
      "target": 34962
    },
    {
      "buffer": 0,
      "byteLength": 768,
      "byteOffset": 1244440,
      "target": 34962
    },
    {
      "buffer": 0,
      "byteLength": 512,
      "byteOffset": 1245208,
      "target": 34962
    },
    {
      "buffer": 0,
      "byteLength": 2496,
      "byteOffset": 1245720,
      "target": 34963
    },
    {
      "buffer": 0,
      "byteLength": 2616,
      "byteOffset": 1248216,
      "target": 34962
    },
    {
      "buffer": 0,
      "byteLength": 2616,
      "byteOffset": 1250832,
      "target": 34962
    },
    {
      "buffer": 0,
      "byteLength": 1744,
      "byteOffset": 1253448,
      "target": 34962
    },
    {
      "buffer": 0,
      "byteLength": 96660,
      "byteOffset": 1255192,
      "target": 34963
    },
    {
      "buffer": 0,
      "byteLength": 194340,
      "byteOffset": 1351852,
      "target": 34962
    },
    {
      "buffer": 0,
      "byteLength": 194340,
      "byteOffset": 1546192,
      "target": 34962
    },
    {
      "buffer": 0,
      "byteLength": 129560,
      "byteOffset": 1740532,
      "target": 34962
    }
  ],
  "buffers": [
    {
      "byteLength": 1870092,
      "uri": "23_W_GlidingTriple121_v03.bin"
    }
  ],
  "images": [
    {
      "uri": "23_W_Black_baseColor.png"
    },
    {
      "uri": "23_W_Black_occlusionRoughnessMetallic.png"
    },
    {
      "uri": "23_W_Black_normal.png"
    },
    {
      "uri": "23_W_Black_emissive.png"
    },
    {
      "uri": "23_W_Exterior_baseColor.png"
    },
    {
      "uri": "23_W_Exterior_occlusionRoughnessMetallic.png"
    },
    {
      "uri": "23_W_Exterior_normal.png"
    },
    {
      "uri": "23_W_Exterior_emissive.png"
    },
    {
      "uri": "23_W_Fibrex_baseColor.png"
    },
    {
      "uri": "23_W_Fibrex_occlusionRoughnessMetallic.png"
    },
    {
      "uri": "23_W_Fibrex_normal.png"
    },
    {
      "uri": "23_W_Fibrex_emissive.png"
    },
    {
      "uri": "23_W_Glass_baseColor.png"
    },
    {
      "uri": "23_W_Glass_occlusionRoughnessMetallic.png"
    },
    {
      "uri": "23_W_Glass_normal.png"
    },
    {
      "uri": "23_W_Glass_emissive.png"
    },
    {
      "uri": "23_W_Gray_baseColor.png"
    },
    {
      "uri": "23_W_Gray_occlusionRoughnessMetallic.png"
    },
    {
      "uri": "23_W_Gray_normal.png"
    },
    {
      "uri": "23_W_Gray_emissive.png"
    },
    {
      "uri": "23_W_Hardware_baseColor.png"
    },
    {
      "uri": "23_W_Hardware_occlusionRoughnessMetallic.png"
    },
    {
      "uri": "23_W_Hardware_normal.png"
    },
    {
      "uri": "23_W_Hardware_emissive.png"
    },
    {
      "uri": "23_W_Interior_baseColor.png"
    },
    {
      "uri": "23_W_Interior_occlusionRoughnessMetallic.png"
    },
    {
      "uri": "23_W_Interior_normal.png"
    },
    {
      "uri": "23_W_Interior_emissive.png"
    },
    {
      "uri": "23_W_Spacers_baseColor.png"
    },
    {
      "uri": "23_W_Spacers_occlusionRoughnessMetallic.png"
    },
    {
      "uri": "23_W_Spacers_normal.png"
    },
    {
      "uri": "23_W_Spacers_emissive.png"
    }
  ],
  "materials": [
    {
      "alphaMode": "OPAQUE",
      "emissiveFactor": [
        1.0,
        1.0,
        1.0
      ],
      "emissiveTexture": {
        "index": 3
      },
      "name": "23_W_Black",
      "normalTexture": {
        "index": 2
      },
      "occlusionTexture": {
        "index": 1
      },
      "pbrMetallicRoughness": {
        "baseColorTexture": {
          "index": 0
        },
        "metallicRoughnessTexture": {
          "index": 1
        }
      }
    },
    {
      "alphaMode": "OPAQUE",
      "emissiveFactor": [
        1.0,
        1.0,
        1.0
      ],
      "emissiveTexture": {
        "index": 7
      },
      "name": "23_W_Exterior",
      "normalTexture": {
        "index": 6
      },
      "occlusionTexture": {
        "index": 5
      },
      "pbrMetallicRoughness": {
        "baseColorTexture": {
          "index": 4
        },
        "metallicRoughnessTexture": {
          "index": 5
        }
      }
    },
    {
      "alphaMode": "OPAQUE",
      "emissiveFactor": [
        1.0,
        1.0,
        1.0
      ],
      "emissiveTexture": {
        "index": 11
      },
      "name": "23_W_Fibrex",
      "normalTexture": {
        "index": 10
      },
      "occlusionTexture": {
        "index": 9
      },
      "pbrMetallicRoughness": {
        "baseColorTexture": {
          "index": 8
        },
        "metallicRoughnessTexture": {
          "index": 9
        }
      }
    },
    {
      "alphaMode": "BLEND",
      "emissiveFactor": [
        1.0,
        1.0,
        1.0
      ],
      "emissiveTexture": {
        "index": 15
      },
      "name": "23_W_Glass",
      "normalTexture": {
        "index": 14
      },
      "occlusionTexture": {
        "index": 13
      },
      "pbrMetallicRoughness": {
        "baseColorTexture": {
          "index": 12
        },
        "metallicRoughnessTexture": {
          "index": 13
        }
      }
    },
    {
      "alphaMode": "OPAQUE",
      "emissiveFactor": [
        1.0,
        1.0,
        1.0
      ],
      "emissiveTexture": {
        "index": 19
      },
      "name": "23_W_Gray",
      "normalTexture": {
        "index": 18
      },
      "occlusionTexture": {
        "index": 17
      },
      "pbrMetallicRoughness": {
        "baseColorTexture": {
          "index": 16
        },
        "metallicRoughnessTexture": {
          "index": 17
        }
      }
    },
    {
      "alphaMode": "OPAQUE",
      "emissiveFactor": [
        1.0,
        1.0,
        1.0
      ],
      "emissiveTexture": {
        "index": 23
      },
      "name": "23_W_Hardware",
      "normalTexture": {
        "index": 22
      },
      "occlusionTexture": {
        "index": 21
      },
      "pbrMetallicRoughness": {
        "baseColorTexture": {
          "index": 20
        },
        "metallicRoughnessTexture": {
          "index": 21
        }
      }
    },
    {
      "alphaMode": "OPAQUE",
      "emissiveFactor": [
        1.0,
        1.0,
        1.0
      ],
      "emissiveTexture": {
        "index": 27
      },
      "name": "23_W_Interior",
      "normalTexture": {
        "index": 26
      },
      "occlusionTexture": {
        "index": 25
      },
      "pbrMetallicRoughness": {
        "baseColorTexture": {
          "index": 24
        },
        "metallicRoughnessTexture": {
          "index": 25
        }
      }
    },
    {
      "alphaMode": "OPAQUE",
      "emissiveFactor": [
        1.0,
        1.0,
        1.0
      ],
      "emissiveTexture": {
        "index": 31
      },
      "name": "23_W_Spacers",
      "normalTexture": {
        "index": 30
      },
      "occlusionTexture": {
        "index": 29
      },
      "pbrMetallicRoughness": {
        "baseColorTexture": {
          "index": 28
        },
        "metallicRoughnessTexture": {
          "index": 29
        }
      }
    }
  ],
  "meshes": [
    {
      "name": "23_W_Glass",
      "primitives": [
        {
          "attributes": {
            "NORMAL": 2,
            "POSITION": 1,
            "TEXCOORD_0": 3
          },
          "indices": 0,
          "material": 3,
          "mode": 4
        }
      ]
    },
    {
      "name": "23_W_Hardware",
      "primitives": [
        {
          "attributes": {
            "NORMAL": 6,
            "POSITION": 5,
            "TEXCOORD_0": 7
          },
          "indices": 4,
          "material": 5,
          "mode": 4
        }
      ]
    },
    {
      "name": "23_W_Exterior",
      "primitives": [
        {
          "attributes": {
            "NORMAL": 10,
            "POSITION": 9,
            "TEXCOORD_0": 11
          },
          "indices": 8,
          "material": 1,
          "mode": 4
        }
      ]
    },
    {
      "name": "23_W_Spacers",
      "primitives": [
        {
          "attributes": {
            "NORMAL": 14,
            "POSITION": 13,
            "TEXCOORD_0": 15
          },
          "indices": 12,
          "material": 7,
          "mode": 4
        }
      ]
    },
    {
      "name": "23_W_Gray",
      "primitives": [
        {
          "attributes": {
            "NORMAL": 18,
            "POSITION": 17,
            "TEXCOORD_0": 19
          },
          "indices": 16,
          "material": 4,
          "mode": 4
        }
      ]
    },
    {
      "name": "23_W_Black",
      "primitives": [
        {
          "attributes": {
            "NORMAL": 22,
            "POSITION": 21,
            "TEXCOORD_0": 23
          },
          "indices": 20,
          "material": 0,
          "mode": 4
        }
      ]
    },
    {
      "name": "23_W_Fibrex",
      "primitives": [
        {
          "attributes": {
            "NORMAL": 26,
            "POSITION": 25,
            "TEXCOORD_0": 27
          },
          "indices": 24,
          "material": 2,
          "mode": 4
        }
      ]
    },
    {
      "name": "23_W_Interior",
      "primitives": [
        {
          "attributes": {
            "NORMAL": 30,
            "POSITION": 29,
            "TEXCOORD_0": 31
          },
          "indices": 28,
          "material": 6,
          "mode": 4
        }
      ]
    }
  ],
  "nodes": [
    {
      "children": [
        1,
        3,
        5,
        7,
        9,
        11,
        13,
        15
      ],
      "name": "root",
      "scale": [
        1.07398700714111,
        1.07398700714111,
        1.07398700714111
      ],
      "translation": [
        0.00548267364501953,
        0.690410375595093,
        -0.00170581415295601
      ]
    },
    {
      "children": [
        2
      ],
      "name": "23_W_Glass"
    },
    {
      "mesh": 0,
      "name": "23_W_Glass"
    },
    {
      "children": [
        4
      ],
      "name": "23_W_Hardware"
    },
    {
      "mesh": 1,
      "name": "23_W_Hardware"
    },
    {
      "children": [
        6
      ],
      "name": "23_W_Exterior"
    },
    {
      "mesh": 2,
      "name": "23_W_Exterior"
    },
    {
      "children": [
        8
      ],
      "name": "23_W_Spacers"
    },
    {
      "mesh": 3,
      "name": "23_W_Spacers"
    },
    {
      "children": [
        10
      ],
      "name": "23_W_Gray"
    },
    {
      "mesh": 4,
      "name": "23_W_Gray"
    },
    {
      "children": [
        12
      ],
      "name": "23_W_Black"
    },
    {
      "mesh": 5,
      "name": "23_W_Black"
    },
    {
      "children": [
        14
      ],
      "name": "23_W_Fibrex"
    },
    {
      "mesh": 6,
      "name": "23_W_Fibrex"
    },
    {
      "children": [
        16
      ],
      "name": "23_W_Interior"
    },
    {
      "mesh": 7,
      "name": "23_W_Interior"
    }
  ],
  "samplers": [
    {
      "magFilter": 9729,
      "minFilter": 9985,
      "wrapS": 10497,
      "wrapT": 10497
    }
  ],
  "scene": 0,
  "scenes": [
    {
      "name": "Scene",
      "nodes": [
        0
      ]
    }
  ],
  "textures": [
    {
      "sampler": 0,
      "source": 0
    },
    {
      "sampler": 0,
      "source": 1
    },
    {
      "sampler": 0,
      "source": 2
    },
    {
      "sampler": 0,
      "source": 3
    },
    {
      "sampler": 0,
      "source": 4
    },
    {
      "sampler": 0,
      "source": 5
    },
    {
      "sampler": 0,
      "source": 6
    },
    {
      "sampler": 0,
      "source": 7
    },
    {
      "sampler": 0,
      "source": 8
    },
    {
      "sampler": 0,
      "source": 9
    },
    {
      "sampler": 0,
      "source": 10
    },
    {
      "sampler": 0,
      "source": 11
    },
    {
      "sampler": 0,
      "source": 12
    },
    {
      "sampler": 0,
      "source": 13
    },
    {
      "sampler": 0,
      "source": 14
    },
    {
      "sampler": 0,
      "source": 15
    },
    {
      "sampler": 0,
      "source": 16
    },
    {
      "sampler": 0,
      "source": 17
    },
    {
      "sampler": 0,
      "source": 18
    },
    {
      "sampler": 0,
      "source": 19
    },
    {
      "sampler": 0,
      "source": 20
    },
    {
      "sampler": 0,
      "source": 21
    },
    {
      "sampler": 0,
      "source": 22
    },
    {
      "sampler": 0,
      "source": 23
    },
    {
      "sampler": 0,
      "source": 24
    },
    {
      "sampler": 0,
      "source": 25
    },
    {
      "sampler": 0,
      "source": 26
    },
    {
      "sampler": 0,
      "source": 27
    },
    {
      "sampler": 0,
      "source": 28
    },
    {
      "sampler": 0,
      "source": 29
    },
    {
      "sampler": 0,
      "source": 30
    },
    {
      "sampler": 0,
      "source": 31
    }
  ]
}