{
  "accessors": [
    {
      "bufferView": 0,
      "componentType": 5125,
      "count": 216,
      "type": "SCALAR"
    },
    {
      "bufferView": 1,
      "componentType": 5126,
      "count": 79,
      "max": [
        0.620024025440216,
        0.88102400302887,
        -0.0271162763237953
      ],
      "min": [
        -0.620024085044861,
        -0.871604323387146,
        -0.07046028226614
      ],
      "type": "VEC3"
    },
    {
      "bufferView": 2,
      "componentType": 5126,
      "count": 79,
      "type": "VEC3"
    },
    {
      "bufferView": 3,
      "componentType": 5126,
      "count": 79,
      "type": "VEC2"
    },
    {
      "bufferView": 4,
      "componentType": 5125,
      "count": 20406,
      "type": "SCALAR"
    },
    {
      "bufferView": 5,
      "componentType": 5126,
      "count": 6746,
      "max": [
        0.747164726257324,
        1.00000023841858,
        -0.0410285517573357
      ],
      "min": [
        -0.747164785861969,
        -1.0,
        -0.106017604470253
      ],
      "type": "VEC3"
    },
    {
      "bufferView": 6,
      "componentType": 5126,
      "count": 6746,
      "type": "VEC3"
    },
    {
      "bufferView": 7,
      "componentType": 5126,
      "count": 6746,
      "type": "VEC2"
    },
    {
      "bufferView": 8,
      "componentType": 5125,
      "count": 1830,
      "type": "SCALAR"
    },
    {
      "bufferView": 9,
      "componentType": 5126,
      "count": 758,
      "max": [
        0.617348372936249,
        0.870196104049683,
        -0.0336977913975716
      ],
      "min": [
        -0.617348611354828,
        -0.860776126384735,
        -0.0636106878519058
      ],
      "type": "VEC3"
    },
    {
      "bufferView": 10,
      "componentType": 5126,
      "count": 758,
      "type": "VEC3"
    },
    {
      "bufferView": 11,
      "componentType": 5126,
      "count": 758,
      "type": "VEC2"
    },
    {
      "bufferView": 12,
      "componentType": 5125,
      "count": 33246,
      "type": "SCALAR"
    },
    {
      "bufferView": 13,
      "componentType": 5126,
      "count": 11727,
      "max": [
        0.745676875114441,
        0.997980356216431,
        0.106017619371414
      ],
      "min": [
        -0.745677888393402,
        -0.997979700565338,
        -0.0740273743867874
      ],
      "type": "VEC3"
    },
    {
      "bufferView": 14,
      "componentType": 5126,
      "count": 11727,
      "type": "VEC3"
    },
    {
      "bufferView": 15,
      "componentType": 5126,
      "count": 11727,
      "type": "VEC2"
    }
  ],
  "asset": {
    "generator": "Substance Painter 2019.3.0",
    "version": "2.0"
  },
  "bufferViews": [
    {
      "buffer": 0,
      "byteLength": 864,
      "target": 34963
    },
    {
      "buffer": 0,
      "byteLength": 948,
      "byteOffset": 864,
      "target": 34962
    },
    {
      "buffer": 0,
      "byteLength": 948,
      "byteOffset": 1812,
      "target": 34962
    },
    {
      "buffer": 0,
      "byteLength": 632,
      "byteOffset": 2760,
      "target": 34962
    },
    {
      "buffer": 0,
      "byteLength": 81624,
      "byteOffset": 3392,
      "target": 34963
    },
    {
      "buffer": 0,
      "byteLength": 80952,
      "byteOffset": 85016,
      "target": 34962
    },
    {
      "buffer": 0,
      "byteLength": 80952,
      "byteOffset": 165968,
      "target": 34962
    },
    {
      "buffer": 0,
      "byteLength": 53968,
      "byteOffset": 246920,
      "target": 34962
    },
    {
      "buffer": 0,
      "byteLength": 7320,
      "byteOffset": 300888,
      "target": 34963
    },
    {
      "buffer": 0,
      "byteLength": 9096,
      "byteOffset": 308208,
      "target": 34962
    },
    {
      "buffer": 0,
      "byteLength": 9096,
      "byteOffset": 317304,
      "target": 34962
    },
    {
      "buffer": 0,
      "byteLength": 6064,
      "byteOffset": 326400,
      "target": 34962
    },
    {
      "buffer": 0,
      "byteLength": 132984,
      "byteOffset": 332464,
      "target": 34963
    },
    {
      "buffer": 0,
      "byteLength": 140724,
      "byteOffset": 465448,
      "target": 34962
    },
    {
      "buffer": 0,
      "byteLength": 140724,
      "byteOffset": 606172,
      "target": 34962
    },
    {
      "buffer": 0,
      "byteLength": 93816,
      "byteOffset": 746896,
      "target": 34962
    }
  ],
  "buffers": [
    {
      "byteLength": 840712,
      "uri": "03_Springline_v03_New.bin"
    }
  ],
  "images": [
    {
      "uri": "03_W_Exterior_baseColor.png"
    },
    {
      "uri": "03_W_Exterior_occlusionRoughnessMetallic.png"
    },
    {
      "uri": "03_W_Exterior_normal.png"
    },
    {
      "uri": "03_W_Exterior_emissive.png"
    },
    {
      "uri": "03_W_Glass_baseColor.png"
    },
    {
      "uri": "03_W_Glass_occlusionRoughnessMetallic.png"
    },
    {
      "uri": "03_W_Glass_normal.png"
    },
    {
      "uri": "03_W_Glass_emissive.png"
    },
    {
      "uri": "03_W_Interior_baseColor.png"
    },
    {
      "uri": "03_W_Interior_occlusionRoughnessMetallic.png"
    },
    {
      "uri": "03_W_Interior_normal.png"
    },
    {
      "uri": "03_W_Interior_emissive.png"
    },
    {
      "uri": "03_W_Spacer_baseColor.png"
    },
    {
      "uri": "03_W_Spacer_occlusionRoughnessMetallic.png"
    },
    {
      "uri": "03_W_Spacer_normal.png"
    },
    {
      "uri": "03_W_Spacer_emissive.png"
    }
  ],
  "materials": [
    {
      "alphaMode": "OPAQUE",
      "emissiveFactor": [
        1.0,
        1.0,
        1.0
      ],
      "emissiveTexture": {
        "index": 3
      },
      "name": "03_W_Exterior",
      "normalTexture": {
        "index": 2
      },
      "occlusionTexture": {
        "index": 1
      },
      "pbrMetallicRoughness": {
        "baseColorTexture": {
          "index": 0
        },
        "metallicRoughnessTexture": {
          "index": 1
        }
      }
    },
    {
      "alphaMode": "BLEND",
      "emissiveFactor": [
        1.0,
        1.0,
        1.0
      ],
      "emissiveTexture": {
        "index": 7
      },
      "name": "03_W_Glass",
      "normalTexture": {
        "index": 6
      },
      "occlusionTexture": {
        "index": 5
      },
      "pbrMetallicRoughness": {
        "baseColorTexture": {
          "index": 4
        },
        "metallicRoughnessTexture": {
          "index": 5
        }
      }
    },
    {
      "alphaMode": "OPAQUE",
      "emissiveFactor": [
        1.0,
        1.0,
        1.0
      ],
      "emissiveTexture": {
        "index": 11
      },
      "name": "03_W_Interior",
      "normalTexture": {
        "index": 10
      },
      "occlusionTexture": {
        "index": 9
      },
      "pbrMetallicRoughness": {
        "baseColorTexture": {
          "index": 8
        },
        "metallicRoughnessTexture": {
          "index": 9
        }
      }
    },
    {
      "alphaMode": "OPAQUE",
      "emissiveFactor": [
        1.0,
        1.0,
        1.0
      ],
      "emissiveTexture": {
        "index": 15
      },
      "name": "03_W_Spacer",
      "normalTexture": {
        "index": 14
      },
      "occlusionTexture": {
        "index": 13
      },
      "pbrMetallicRoughness": {
        "baseColorTexture": {
          "index": 12
        },
        "metallicRoughnessTexture": {
          "index": 13
        }
      }
    }
  ],
  "meshes": [
    {
      "name": "03_W_Glass",
      "primitives": [
        {
          "attributes": {
            "NORMAL": 2,
            "POSITION": 1,
            "TEXCOORD_0": 3
          },
          "indices": 0,
          "material": 1,
          "mode": 4
        }
      ]
    },
    {
      "name": "03_W_Exterior",
      "primitives": [
        {
          "attributes": {
            "NORMAL": 6,
            "POSITION": 5,
            "TEXCOORD_0": 7
          },
          "indices": 4,
          "material": 0,
          "mode": 4
        }
      ]
    },
    {
      "name": "03_W_Spacer",
      "primitives": [
        {
          "attributes": {
            "NORMAL": 10,
            "POSITION": 9,
            "TEXCOORD_0": 11
          },
          "indices": 8,
          "material": 3,
          "mode": 4
        }
      ]
    },
    {
      "name": "03_W_Interior",
      "primitives": [
        {
          "attributes": {
            "NORMAL": 14,
            "POSITION": 13,
            "TEXCOORD_0": 15
          },
          "indices": 12,
          "material": 2,
          "mode": 4
        }
      ]
    }
  ],
  "nodes": [
    {
      "children": [
        1,
        3,
        5,
        7
      ],
      "name": "root",
      "scale": [
        0.648889422416687,
        0.648889422416687,
        0.648889422416687
      ],
      "translation": [
        2.98023223876953e-08,
        0.648896992206573,
        0.0597973950207233
      ]
    },
    {
      "children": [
        2
      ],
      "name": "03_W_Glass"
    },
    {
      "mesh": 0,
      "name": "03_W_Glass"
    },
    {
      "children": [
        4
      ],
      "name": "03_W_Exterior"
    },
    {
      "mesh": 1,
      "name": "03_W_Exterior"
    },
    {
      "children": [
        6
      ],
      "name": "03_W_Spacer"
    },
    {
      "mesh": 2,
      "name": "03_W_Spacer"
    },
    {
      "children": [
        8
      ],
      "name": "03_W_Interior"
    },
    {
      "mesh": 3,
      "name": "03_W_Interior"
    }
  ],
  "samplers": [
    {
      "magFilter": 9729,
      "minFilter": 9985,
      "wrapS": 10497,
      "wrapT": 10497
    }
  ],
  "scene": 0,
  "scenes": [
    {
      "name": "Scene",
      "nodes": [
        0
      ]
    }
  ],
  "textures": [
    {
      "sampler": 0,
      "source": 0
    },
    {
      "sampler": 0,
      "source": 1
    },
    {
      "sampler": 0,
      "source": 2
    },
    {
      "sampler": 0,
      "source": 3
    },
    {
      "sampler": 0,
      "source": 4
    },
    {
      "sampler": 0,
      "source": 5
    },
    {
      "sampler": 0,
      "source": 6
    },
    {
      "sampler": 0,
      "source": 7
    },
    {
      "sampler": 0,
      "source": 8
    },
    {
      "sampler": 0,
      "source": 9
    },
    {
      "sampler": 0,
      "source": 10
    },
    {
      "sampler": 0,
      "source": 11
    },
    {
      "sampler": 0,
      "source": 12
    },
    {
      "sampler": 0,
      "source": 13
    },
    {
      "sampler": 0,
      "source": 14
    },
    {
      "sampler": 0,
      "source": 15
    }
  ]
}