{
  "accessors": [
    {
      "bufferView": 0,
      "componentType": 5125,
      "count": 1152,
      "type": "SCALAR"
    },
    {
      "bufferView": 1,
      "componentType": 5126,
      "count": 671,
      "max": [
        0.917871534824371,
        0.495694041252136,
        0.0711097568273544
      ],
      "min": [
        -0.905998349189758,
        -0.415911734104156,
        0.0236241240054369
      ],
      "type": "VEC3"
    },
    {
      "bufferView": 2,
      "componentType": 5126,
      "count": 671,
      "type": "VEC3"
    },
    {
      "bufferView": 3,
      "componentType": 5126,
      "count": 671,
      "type": "VEC2"
    },
    {
      "bufferView": 4,
      "componentType": 5125,
      "count": 12420,
      "type": "SCALAR"
    },
    {
      "bufferView": 5,
      "componentType": 5126,
      "count": 7208,
      "max": [
        1.00476169586182,
        0.585776209831238,
        0.0936058610677719
      ],
      "min": [
        -0.993342995643616,
        -0.580291569232941,
        0.0209429897367954
      ],
      "type": "VEC3"
    },
    {
      "bufferView": 6,
      "componentType": 5126,
      "count": 7208,
      "type": "VEC3"
    },
    {
      "bufferView": 7,
      "componentType": 5126,
      "count": 7208,
      "type": "VEC2"
    },
    {
      "bufferView": 8,
      "componentType": 5125,
      "count": 7896,
      "type": "SCALAR"
    },
    {
      "bufferView": 9,
      "componentType": 5126,
      "count": 4740,
      "max": [
        1.00661146640778,
        0.562816023826599,
        0.0912427008152008
      ],
      "min": [
        -0.991401255130768,
        -0.585776031017303,
        -0.0146389044821262
      ],
      "type": "VEC3"
    },
    {
      "bufferView": 10,
      "componentType": 5126,
      "count": 4740,
      "type": "VEC3"
    },
    {
      "bufferView": 11,
      "componentType": 5126,
      "count": 4740,
      "type": "VEC2"
    },
    {
      "bufferView": 12,
      "componentType": 5125,
      "count": 25950,
      "type": "SCALAR"
    },
    {
      "bufferView": 13,
      "componentType": 5126,
      "count": 15526,
      "max": [
        1.00471651554108,
        0.583007097244263,
        0.077155813574791
      ],
      "min": [
        -0.993388533592224,
        -0.585608065128326,
        -0.00574929639697075
      ],
      "type": "VEC3"
    },
    {
      "bufferView": 14,
      "componentType": 5126,
      "count": 15526,
      "type": "VEC3"
    },
    {
      "bufferView": 15,
      "componentType": 5126,
      "count": 15526,
      "type": "VEC2"
    },
    {
      "bufferView": 16,
      "componentType": 5125,
      "count": 288,
      "type": "SCALAR"
    },
    {
      "bufferView": 17,
      "componentType": 5126,
      "count": 192,
      "max": [
        0.919411540031433,
        0.496665835380554,
        0.0738570317625999
      ],
      "min": [
        -0.906924664974213,
        -0.416849195957184,
        0.0209162663668394
      ],
      "type": "VEC3"
    },
    {
      "bufferView": 18,
      "componentType": 5126,
      "count": 192,
      "type": "VEC3"
    },
    {
      "bufferView": 19,
      "componentType": 5126,
      "count": 192,
      "type": "VEC2"
    },
    {
      "bufferView": 20,
      "componentType": 5125,
      "count": 32394,
      "type": "SCALAR"
    },
    {
      "bufferView": 21,
      "componentType": 5126,
      "count": 8804,
      "max": [
        0.0694358497858047,
        0.109318017959595,
        0.116678342223167
      ],
      "min": [
        -0.0576228126883507,
        -0.128813236951828,
        0.0203186683356762
      ],
      "type": "VEC3"
    },
    {
      "bufferView": 22,
      "componentType": 5126,
      "count": 8804,
      "type": "VEC3"
    },
    {
      "bufferView": 23,
      "componentType": 5126,
      "count": 8804,
      "type": "VEC2"
    },
    {
      "bufferView": 24,
      "componentType": 5125,
      "count": 3954,
      "type": "SCALAR"
    },
    {
      "bufferView": 25,
      "componentType": 5126,
      "count": 1909,
      "max": [
        0.991053998470306,
        -0.54852831363678,
        0.0912337079644203
      ],
      "min": [
        -0.97601193189621,
        -0.585607707500458,
        -0.0146479047834873
      ],
      "type": "VEC3"
    },
    {
      "bufferView": 26,
      "componentType": 5126,
      "count": 1909,
      "type": "VEC3"
    },
    {
      "bufferView": 27,
      "componentType": 5126,
      "count": 1909,
      "type": "VEC2"
    }
  ],
  "asset": {
    "generator": "Substance Painter 2019.2.3",
    "version": "2.0"
  },
  "bufferViews": [
    {
      "buffer": 0,
      "byteLength": 4608,
      "target": 34963
    },
    {
      "buffer": 0,
      "byteLength": 8052,
      "byteOffset": 4608,
      "target": 34962
    },
    {
      "buffer": 0,
      "byteLength": 8052,
      "byteOffset": 12660,
      "target": 34962
    },
    {
      "buffer": 0,
      "byteLength": 5368,
      "byteOffset": 20712,
      "target": 34962
    },
    {
      "buffer": 0,
      "byteLength": 49680,
      "byteOffset": 26080,
      "target": 34963
    },
    {
      "buffer": 0,
      "byteLength": 86496,
      "byteOffset": 75760,
      "target": 34962
    },
    {
      "buffer": 0,
      "byteLength": 86496,
      "byteOffset": 162256,
      "target": 34962
    },
    {
      "buffer": 0,
      "byteLength": 57664,
      "byteOffset": 248752,
      "target": 34962
    },
    {
      "buffer": 0,
      "byteLength": 31584,
      "byteOffset": 306416,
      "target": 34963
    },
    {
      "buffer": 0,
      "byteLength": 56880,
      "byteOffset": 338000,
      "target": 34962
    },
    {
      "buffer": 0,
      "byteLength": 56880,
      "byteOffset": 394880,
      "target": 34962
    },
    {
      "buffer": 0,
      "byteLength": 37920,
      "byteOffset": 451760,
      "target": 34962
    },
    {
      "buffer": 0,
      "byteLength": 103800,
      "byteOffset": 489680,
      "target": 34963
    },
    {
      "buffer": 0,
      "byteLength": 186312,
      "byteOffset": 593480,
      "target": 34962
    },
    {
      "buffer": 0,
      "byteLength": 186312,
      "byteOffset": 779792,
      "target": 34962
    },
    {
      "buffer": 0,
      "byteLength": 124208,
      "byteOffset": 966104,
      "target": 34962
    },
    {
      "buffer": 0,
      "byteLength": 1152,
      "byteOffset": 1090312,
      "target": 34963
    },
    {
      "buffer": 0,
      "byteLength": 2304,
      "byteOffset": 1091464,
      "target": 34962
    },
    {
      "buffer": 0,
      "byteLength": 2304,
      "byteOffset": 1093768,
      "target": 34962
    },
    {
      "buffer": 0,
      "byteLength": 1536,
      "byteOffset": 1096072,
      "target": 34962
    },
    {
      "buffer": 0,
      "byteLength": 129576,
      "byteOffset": 1097608,
      "target": 34963
    },
    {
      "buffer": 0,
      "byteLength": 105648,
      "byteOffset": 1227184,
      "target": 34962
    },
    {
      "buffer": 0,
      "byteLength": 105648,
      "byteOffset": 1332832,
      "target": 34962
    },
    {
      "buffer": 0,
      "byteLength": 70432,
      "byteOffset": 1438480,
      "target": 34962
    },
    {
      "buffer": 0,
      "byteLength": 15816,
      "byteOffset": 1508912,
      "target": 34963
    },
    {
      "buffer": 0,
      "byteLength": 22908,
      "byteOffset": 1524728,
      "target": 34962
    },
    {
      "buffer": 0,
      "byteLength": 22908,
      "byteOffset": 1547636,
      "target": 34962
    },
    {
      "buffer": 0,
      "byteLength": 15272,
      "byteOffset": 1570544,
      "target": 34962
    }
  ],
  "buffers": [
    {
      "byteLength": 1585816,
      "uri": "12_D_Gliding_French_121_01.bin"
    }
  ],
  "images": [
    {
      "uri": "12_D_Exterior_baseColor.png"
    },
    {
      "uri": "12_D_Exterior_occlusionRoughnessMetallic.png"
    },
    {
      "uri": "12_D_Exterior_normal.png"
    },
    {
      "uri": "12_D_Exterior_emissive.png"
    },
    {
      "uri": "12_D_Glass_baseColor.png"
    },
    {
      "uri": "12_D_Glass_occlusionRoughnessMetallic.png"
    },
    {
      "uri": "12_D_Glass_normal.png"
    },
    {
      "uri": "12_D_Glass_emissive.png"
    },
    {
      "uri": "12_D_Gray_baseColor.png"
    },
    {
      "uri": "12_D_Gray_occlusionRoughnessMetallic.png"
    },
    {
      "uri": "12_D_Gray_normal.png"
    },
    {
      "uri": "12_D_Gray_emissive.png"
    },
    {
      "uri": "12_D_Hardware_baseColor.png"
    },
    {
      "uri": "12_D_Hardware_occlusionRoughnessMetallic.png"
    },
    {
      "uri": "12_D_Hardware_normal.png"
    },
    {
      "uri": "12_D_Hardware_emissive.png"
    },
    {
      "uri": "12_D_Interior_baseColor.png"
    },
    {
      "uri": "12_D_Interior_occlusionRoughnessMetallic.png"
    },
    {
      "uri": "12_D_Interior_normal.png"
    },
    {
      "uri": "12_D_Interior_emissive.png"
    },
    {
      "uri": "12_D_Sill_baseColor.png"
    },
    {
      "uri": "12_D_Sill_occlusionRoughnessMetallic.png"
    },
    {
      "uri": "12_D_Sill_normal.png"
    },
    {
      "uri": "12_D_Sill_emissive.png"
    },
    {
      "uri": "12_D_Spacers_baseColor.png"
    },
    {
      "uri": "12_D_Spacers_occlusionRoughnessMetallic.png"
    },
    {
      "uri": "12_D_Spacers_normal.png"
    },
    {
      "uri": "12_D_Spacers_emissive.png"
    }
  ],
  "materials": [
    {
      "alphaMode": "OPAQUE",
      "emissiveFactor": [
        1.0,
        1.0,
        1.0
      ],
      "emissiveTexture": {
        "index": 3
      },
      "name": "12_D_Exterior",
      "normalTexture": {
        "index": 2
      },
      "occlusionTexture": {
        "index": 1
      },
      "pbrMetallicRoughness": {
        "baseColorTexture": {
          "index": 0
        },
        "metallicRoughnessTexture": {
          "index": 1
        }
      }
    },
    {
      "alphaMode": "BLEND",
      "emissiveFactor": [
        1.0,
        1.0,
        1.0
      ],
      "emissiveTexture": {
        "index": 7
      },
      "name": "12_D_Glass",
      "normalTexture": {
        "index": 6
      },
      "occlusionTexture": {
        "index": 5
      },
      "pbrMetallicRoughness": {
        "baseColorTexture": {
          "index": 4
        },
        "metallicRoughnessTexture": {
          "index": 5
        }
      }
    },
    {
      "alphaMode": "OPAQUE",
      "emissiveFactor": [
        1.0,
        1.0,
        1.0
      ],
      "emissiveTexture": {
        "index": 11
      },
      "name": "12_D_Gray",
      "normalTexture": {
        "index": 10
      },
      "occlusionTexture": {
        "index": 9
      },
      "pbrMetallicRoughness": {
        "baseColorTexture": {
          "index": 8
        },
        "metallicRoughnessTexture": {
          "index": 9
        }
      }
    },
    {
      "alphaMode": "OPAQUE",
      "emissiveFactor": [
        1.0,
        1.0,
        1.0
      ],
      "emissiveTexture": {
        "index": 15
      },
      "name": "12_D_Hardware",
      "normalTexture": {
        "index": 14
      },
      "occlusionTexture": {
        "index": 13
      },
      "pbrMetallicRoughness": {
        "baseColorTexture": {
          "index": 12
        },
        "metallicRoughnessTexture": {
          "index": 13
        }
      }
    },
    {
      "alphaMode": "OPAQUE",
      "emissiveFactor": [
        1.0,
        1.0,
        1.0
      ],
      "emissiveTexture": {
        "index": 19
      },
      "name": "12_D_Interior",
      "normalTexture": {
        "index": 18
      },
      "occlusionTexture": {
        "index": 17
      },
      "pbrMetallicRoughness": {
        "baseColorTexture": {
          "index": 16
        },
        "metallicRoughnessTexture": {
          "index": 17
        }
      }
    },
    {
      "alphaMode": "OPAQUE",
      "emissiveFactor": [
        1.0,
        1.0,
        1.0
      ],
      "emissiveTexture": {
        "index": 23
      },
      "name": "12_D_Sill",
      "normalTexture": {
        "index": 22
      },
      "occlusionTexture": {
        "index": 21
      },
      "pbrMetallicRoughness": {
        "baseColorTexture": {
          "index": 20
        },
        "metallicRoughnessTexture": {
          "index": 21
        }
      }
    },
    {
      "alphaMode": "OPAQUE",
      "emissiveFactor": [
        1.0,
        1.0,
        1.0
      ],
      "emissiveTexture": {
        "index": 27
      },
      "name": "12_D_Spacers",
      "normalTexture": {
        "index": 26
      },
      "occlusionTexture": {
        "index": 25
      },
      "pbrMetallicRoughness": {
        "baseColorTexture": {
          "index": 24
        },
        "metallicRoughnessTexture": {
          "index": 25
        }
      }
    }
  ],
  "meshes": [
    {
      "name": "12_D_Spacers",
      "primitives": [
        {
          "attributes": {
            "NORMAL": 2,
            "POSITION": 1,
            "TEXCOORD_0": 3
          },
          "indices": 0,
          "material": 6,
          "mode": 4
        }
      ]
    },
    {
      "name": "12_D_Interior",
      "primitives": [
        {
          "attributes": {
            "NORMAL": 6,
            "POSITION": 5,
            "TEXCOORD_0": 7
          },
          "indices": 4,
          "material": 4,
          "mode": 4
        }
      ]
    },
    {
      "name": "12_D_Gray",
      "primitives": [
        {
          "attributes": {
            "NORMAL": 10,
            "POSITION": 9,
            "TEXCOORD_0": 11
          },
          "indices": 8,
          "material": 2,
          "mode": 4
        }
      ]
    },
    {
      "name": "12_D_Exterior",
      "primitives": [
        {
          "attributes": {
            "NORMAL": 14,
            "POSITION": 13,
            "TEXCOORD_0": 15
          },
          "indices": 12,
          "material": 0,
          "mode": 4
        }
      ]
    },
    {
      "name": "12_D_Glass",
      "primitives": [
        {
          "attributes": {
            "NORMAL": 18,
            "POSITION": 17,
            "TEXCOORD_0": 19
          },
          "indices": 16,
          "material": 1,
          "mode": 4
        }
      ]
    },
    {
      "name": "12_D_Hardware",
      "primitives": [
        {
          "attributes": {
            "NORMAL": 22,
            "POSITION": 21,
            "TEXCOORD_0": 23
          },
          "indices": 20,
          "material": 3,
          "mode": 4
        }
      ]
    },
    {
      "name": "12_D_Sill",
      "primitives": [
        {
          "attributes": {
            "NORMAL": 26,
            "POSITION": 25,
            "TEXCOORD_0": 27
          },
          "indices": 24,
          "material": 5,
          "mode": 4
        }
      ]
    }
  ],
  "nodes": [
    {
      "children": [
        1,
        3,
        5,
        7,
        9,
        11,
        13
      ],
      "name": "root",
      "scale": [
        1.80766820907593,
        1.80766820907593,
        1.80766820907593
      ],
      "translation": [
        -0.0101909637451172,
        1.05888819694519,
        -0.0787709057331085
      ]
    },
    {
      "children": [
        2
      ],
      "name": "12_D_Spacers"
    },
    {
      "mesh": 0,
      "name": "12_D_Spacers"
    },
    {
      "children": [
        4
      ],
      "name": "12_D_Interior"
    },
    {
      "mesh": 1,
      "name": "12_D_Interior"
    },
    {
      "children": [
        6
      ],
      "name": "12_D_Gray"
    },
    {
      "mesh": 2,
      "name": "12_D_Gray"
    },
    {
      "children": [
        8
      ],
      "name": "12_D_Exterior"
    },
    {
      "mesh": 3,
      "name": "12_D_Exterior"
    },
    {
      "children": [
        10
      ],
      "name": "12_D_Glass"
    },
    {
      "mesh": 4,
      "name": "12_D_Glass"
    },
    {
      "children": [
        12
      ],
      "name": "12_D_Hardware"
    },
    {
      "mesh": 5,
      "name": "12_D_Hardware"
    },
    {
      "children": [
        14
      ],
      "name": "12_D_Sill"
    },
    {
      "mesh": 6,
      "name": "12_D_Sill"
    }
  ],
  "samplers": [
    {
      "magFilter": 9729,
      "minFilter": 9985,
      "wrapS": 10497,
      "wrapT": 10497
    }
  ],
  "scene": 0,
  "scenes": [
    {
      "name": "Scene",
      "nodes": [
        0
      ]
    }
  ],
  "textures": [
    {
      "sampler": 0,
      "source": 0
    },
    {
      "sampler": 0,
      "source": 1
    },
    {
      "sampler": 0,
      "source": 2
    },
    {
      "sampler": 0,
      "source": 3
    },
    {
      "sampler": 0,
      "source": 4
    },
    {
      "sampler": 0,
      "source": 5
    },
    {
      "sampler": 0,
      "source": 6
    },
    {
      "sampler": 0,
      "source": 7
    },
    {
      "sampler": 0,
      "source": 8
    },
    {
      "sampler": 0,
      "source": 9
    },
    {
      "sampler": 0,
      "source": 10
    },
    {
      "sampler": 0,
      "source": 11
    },
    {
      "sampler": 0,
      "source": 12
    },
    {
      "sampler": 0,
      "source": 13
    },
    {
      "sampler": 0,
      "source": 14
    },
    {
      "sampler": 0,
      "source": 15
    },
    {
      "sampler": 0,
      "source": 16
    },
    {
      "sampler": 0,
      "source": 17
    },
    {
      "sampler": 0,
      "source": 18
    },
    {
      "sampler": 0,
      "source": 19
    },
    {
      "sampler": 0,
      "source": 20
    },
    {
      "sampler": 0,
      "source": 21
    },
    {
      "sampler": 0,
      "source": 22
    },
    {
      "sampler": 0,
      "source": 23
    },
    {
      "sampler": 0,
      "source": 24
    },
    {
      "sampler": 0,
      "source": 25
    },
    {
      "sampler": 0,
      "source": 26
    },
    {
      "sampler": 0,
      "source": 27
    }
  ]
}