{
  "accessors": [
    {
      "bufferView": 0,
      "componentType": 5125,
      "count": 1995,
      "type": "SCALAR"
    },
    {
      "bufferView": 1,
      "componentType": 5126,
      "count": 1915,
      "max": [
        0.416218549013138,
        0.975150644779205,
        0.037892933934927
      ],
      "min": [
        -0.416100293397903,
        -0.954879283905029,
        0.00785475131124258
      ],
      "type": "VEC3"
    },
    {
      "bufferView": 2,
      "componentType": 5126,
      "count": 1915,
      "type": "VEC3"
    },
    {
      "bufferView": 3,
      "componentType": 5126,
      "count": 1915,
      "type": "VEC2"
    },
    {
      "bufferView": 4,
      "componentType": 5125,
      "count": 18828,
      "type": "SCALAR"
    },
    {
      "bufferView": 5,
      "componentType": 5126,
      "count": 14241,
      "max": [
        0.443507522344589,
        0.971876323223114,
        0.0524722002446651
      ],
      "min": [
        -0.443383127450943,
        -1.0,
        -0.0918747261166573
      ],
      "type": "VEC3"
    },
    {
      "bufferView": 6,
      "componentType": 5126,
      "count": 14241,
      "type": "VEC3"
    },
    {
      "bufferView": 7,
      "componentType": 5126,
      "count": 14241,
      "type": "VEC2"
    },
    {
      "bufferView": 8,
      "componentType": 5125,
      "count": 3210,
      "type": "SCALAR"
    },
    {
      "bufferView": 9,
      "componentType": 5126,
      "count": 2809,
      "max": [
        0.422321319580078,
        -0.94943243265152,
        0.0540245287120342
      ],
      "min": [
        -0.422196865081787,
        -0.999999403953552,
        -0.0903223752975464
      ],
      "type": "VEC3"
    },
    {
      "bufferView": 10,
      "componentType": 5126,
      "count": 2809,
      "type": "VEC3"
    },
    {
      "bufferView": 11,
      "componentType": 5126,
      "count": 2809,
      "type": "VEC2"
    },
    {
      "bufferView": 12,
      "componentType": 5125,
      "count": 72,
      "type": "SCALAR"
    },
    {
      "bufferView": 13,
      "componentType": 5126,
      "count": 48,
      "max": [
        0.32598003745079,
        0.884338557720184,
        0.0289755184203386
      ],
      "min": [
        -0.3259057700634,
        -0.778560101985931,
        0.0111417211592197
      ],
      "type": "VEC3"
    },
    {
      "bufferView": 14,
      "componentType": 5126,
      "count": 48,
      "type": "VEC3"
    },
    {
      "bufferView": 15,
      "componentType": 5126,
      "count": 48,
      "type": "VEC2"
    },
    {
      "bufferView": 16,
      "componentType": 5125,
      "count": 22302,
      "type": "SCALAR"
    },
    {
      "bufferView": 17,
      "componentType": 5126,
      "count": 7155,
      "max": [
        0.398748517036438,
        0.831678032875061,
        0.0918747261166573
      ],
      "min": [
        -0.422123551368713,
        -0.839116156101227,
        -0.0502818450331688
      ],
      "type": "VEC3"
    },
    {
      "bufferView": 18,
      "componentType": 5126,
      "count": 7155,
      "type": "VEC3"
    },
    {
      "bufferView": 19,
      "componentType": 5126,
      "count": 7155,
      "type": "VEC2"
    },
    {
      "bufferView": 20,
      "componentType": 5125,
      "count": 10008,
      "type": "SCALAR"
    },
    {
      "bufferView": 21,
      "componentType": 5126,
      "count": 8638,
      "max": [
        0.44350790977478,
        1.00000011920929,
        0.0415476188063622
      ],
      "min": [
        -0.44350802898407,
        -0.996274948120117,
        -0.0843081101775169
      ],
      "type": "VEC3"
    },
    {
      "bufferView": 22,
      "componentType": 5126,
      "count": 8638,
      "type": "VEC3"
    },
    {
      "bufferView": 23,
      "componentType": 5126,
      "count": 8638,
      "type": "VEC2"
    },
    {
      "bufferView": 24,
      "componentType": 5125,
      "count": 3192,
      "type": "SCALAR"
    },
    {
      "bufferView": 25,
      "componentType": 5126,
      "count": 2306,
      "max": [
        0.44350802898407,
        1.00000011920929,
        0.0524724125862122
      ],
      "min": [
        -0.443383246660233,
        -0.996274948120117,
        -0.0462893769145012
      ],
      "type": "VEC3"
    },
    {
      "bufferView": 26,
      "componentType": 5126,
      "count": 2306,
      "type": "VEC3"
    },
    {
      "bufferView": 27,
      "componentType": 5126,
      "count": 2306,
      "type": "VEC2"
    }
  ],
  "asset": {
    "generator": "Substance Painter 2019.2.3",
    "version": "2.0"
  },
  "bufferViews": [
    {
      "buffer": 0,
      "byteLength": 7980,
      "target": 34963
    },
    {
      "buffer": 0,
      "byteLength": 22980,
      "byteOffset": 7980,
      "target": 34962
    },
    {
      "buffer": 0,
      "byteLength": 22980,
      "byteOffset": 30960,
      "target": 34962
    },
    {
      "buffer": 0,
      "byteLength": 15320,
      "byteOffset": 53940,
      "target": 34962
    },
    {
      "buffer": 0,
      "byteLength": 75312,
      "byteOffset": 69260,
      "target": 34963
    },
    {
      "buffer": 0,
      "byteLength": 170892,
      "byteOffset": 144572,
      "target": 34962
    },
    {
      "buffer": 0,
      "byteLength": 170892,
      "byteOffset": 315464,
      "target": 34962
    },
    {
      "buffer": 0,
      "byteLength": 113928,
      "byteOffset": 486356,
      "target": 34962
    },
    {
      "buffer": 0,
      "byteLength": 12840,
      "byteOffset": 600284,
      "target": 34963
    },
    {
      "buffer": 0,
      "byteLength": 33708,
      "byteOffset": 613124,
      "target": 34962
    },
    {
      "buffer": 0,
      "byteLength": 33708,
      "byteOffset": 646832,
      "target": 34962
    },
    {
      "buffer": 0,
      "byteLength": 22472,
      "byteOffset": 680540,
      "target": 34962
    },
    {
      "buffer": 0,
      "byteLength": 288,
      "byteOffset": 703012,
      "target": 34963
    },
    {
      "buffer": 0,
      "byteLength": 576,
      "byteOffset": 703300,
      "target": 34962
    },
    {
      "buffer": 0,
      "byteLength": 576,
      "byteOffset": 703876,
      "target": 34962
    },
    {
      "buffer": 0,
      "byteLength": 384,
      "byteOffset": 704452,
      "target": 34962
    },
    {
      "buffer": 0,
      "byteLength": 89208,
      "byteOffset": 704836,
      "target": 34963
    },
    {
      "buffer": 0,
      "byteLength": 85860,
      "byteOffset": 794044,
      "target": 34962
    },
    {
      "buffer": 0,
      "byteLength": 85860,
      "byteOffset": 879904,
      "target": 34962
    },
    {
      "buffer": 0,
      "byteLength": 57240,
      "byteOffset": 965764,
      "target": 34962
    },
    {
      "buffer": 0,
      "byteLength": 40032,
      "byteOffset": 1023004,
      "target": 34963
    },
    {
      "buffer": 0,
      "byteLength": 103656,
      "byteOffset": 1063036,
      "target": 34962
    },
    {
      "buffer": 0,
      "byteLength": 103656,
      "byteOffset": 1166692,
      "target": 34962
    },
    {
      "buffer": 0,
      "byteLength": 69104,
      "byteOffset": 1270348,
      "target": 34962
    },
    {
      "buffer": 0,
      "byteLength": 12768,
      "byteOffset": 1339452,
      "target": 34963
    },
    {
      "buffer": 0,
      "byteLength": 27672,
      "byteOffset": 1352220,
      "target": 34962
    },
    {
      "buffer": 0,
      "byteLength": 27672,
      "byteOffset": 1379892,
      "target": 34962
    },
    {
      "buffer": 0,
      "byteLength": 18448,
      "byteOffset": 1407564,
      "target": 34962
    }
  ],
  "buffers": [
    {
      "byteLength": 1426012,
      "uri": "11_D_FWAInswing_v03.bin"
    }
  ],
  "images": [
    {
      "uri": "11_D_Exterior_baseColor.png"
    },
    {
      "uri": "11_D_Exterior_occlusionRoughnessMetallic.png"
    },
    {
      "uri": "11_D_Exterior_normal.png"
    },
    {
      "uri": "11_D_Exterior_emissive.png"
    },
    {
      "uri": "11_D_Glass_baseColor.png"
    },
    {
      "uri": "11_D_Glass_occlusionRoughnessMetallic.png"
    },
    {
      "uri": "11_D_Glass_normal.png"
    },
    {
      "uri": "11_D_Glass_emissive.png"
    },
    {
      "uri": "11_D_Gray_baseColor.png"
    },
    {
      "uri": "11_D_Gray_occlusionRoughnessMetallic.png"
    },
    {
      "uri": "11_D_Gray_normal.png"
    },
    {
      "uri": "11_D_Gray_emissive.png"
    },
    {
      "uri": "11_D_Hardware_baseColor.png"
    },
    {
      "uri": "11_D_Hardware_occlusionRoughnessMetallic.png"
    },
    {
      "uri": "11_D_Hardware_normal.png"
    },
    {
      "uri": "11_D_Hardware_emissive.png"
    },
    {
      "uri": "11_D_Interior_baseColor.png"
    },
    {
      "uri": "11_D_Interior_occlusionRoughnessMetallic.png"
    },
    {
      "uri": "11_D_Interior_normal.png"
    },
    {
      "uri": "11_D_Interior_emissive.png"
    },
    {
      "uri": "11_D_Sill_baseColor.png"
    },
    {
      "uri": "11_D_Sill_occlusionRoughnessMetallic.png"
    },
    {
      "uri": "11_D_Sill_normal.png"
    },
    {
      "uri": "11_D_Sill_emissive.png"
    },
    {
      "uri": "11_D_Spacers_baseColor.png"
    },
    {
      "uri": "11_D_Spacers_occlusionRoughnessMetallic.png"
    },
    {
      "uri": "11_D_Spacers_normal.png"
    },
    {
      "uri": "11_D_Spacers_emissive.png"
    }
  ],
  "materials": [
    {
      "alphaMode": "OPAQUE",
      "emissiveFactor": [
        1.0,
        1.0,
        1.0
      ],
      "emissiveTexture": {
        "index": 3
      },
      "name": "11_D_Exterior",
      "normalTexture": {
        "index": 2
      },
      "occlusionTexture": {
        "index": 1
      },
      "pbrMetallicRoughness": {
        "baseColorTexture": {
          "index": 0
        },
        "metallicRoughnessTexture": {
          "index": 1
        }
      }
    },
    {
      "alphaMode": "BLEND",
      "emissiveFactor": [
        1.0,
        1.0,
        1.0
      ],
      "emissiveTexture": {
        "index": 7
      },
      "name": "11_D_Glass",
      "normalTexture": {
        "index": 6
      },
      "occlusionTexture": {
        "index": 5
      },
      "pbrMetallicRoughness": {
        "baseColorTexture": {
          "index": 4
        },
        "metallicRoughnessTexture": {
          "index": 5
        }
      }
    },
    {
      "alphaMode": "OPAQUE",
      "emissiveFactor": [
        1.0,
        1.0,
        1.0
      ],
      "emissiveTexture": {
        "index": 11
      },
      "name": "11_D_Gray",
      "normalTexture": {
        "index": 10
      },
      "occlusionTexture": {
        "index": 9
      },
      "pbrMetallicRoughness": {
        "baseColorTexture": {
          "index": 8
        },
        "metallicRoughnessTexture": {
          "index": 9
        }
      }
    },
    {
      "alphaMode": "OPAQUE",
      "emissiveFactor": [
        1.0,
        1.0,
        1.0
      ],
      "emissiveTexture": {
        "index": 15
      },
      "name": "11_D_Hardware",
      "normalTexture": {
        "index": 14
      },
      "occlusionTexture": {
        "index": 13
      },
      "pbrMetallicRoughness": {
        "baseColorTexture": {
          "index": 12
        },
        "metallicRoughnessTexture": {
          "index": 13
        }
      }
    },
    {
      "alphaMode": "OPAQUE",
      "emissiveFactor": [
        1.0,
        1.0,
        1.0
      ],
      "emissiveTexture": {
        "index": 19
      },
      "name": "11_D_Interior",
      "normalTexture": {
        "index": 18
      },
      "occlusionTexture": {
        "index": 17
      },
      "pbrMetallicRoughness": {
        "baseColorTexture": {
          "index": 16
        },
        "metallicRoughnessTexture": {
          "index": 17
        }
      }
    },
    {
      "alphaMode": "OPAQUE",
      "emissiveFactor": [
        1.0,
        1.0,
        1.0
      ],
      "emissiveTexture": {
        "index": 23
      },
      "name": "11_D_Sill",
      "normalTexture": {
        "index": 22
      },
      "occlusionTexture": {
        "index": 21
      },
      "pbrMetallicRoughness": {
        "baseColorTexture": {
          "index": 20
        },
        "metallicRoughnessTexture": {
          "index": 21
        }
      }
    },
    {
      "alphaMode": "OPAQUE",
      "emissiveFactor": [
        1.0,
        1.0,
        1.0
      ],
      "emissiveTexture": {
        "index": 27
      },
      "name": "11_D_Spacers",
      "normalTexture": {
        "index": 26
      },
      "occlusionTexture": {
        "index": 25
      },
      "pbrMetallicRoughness": {
        "baseColorTexture": {
          "index": 24
        },
        "metallicRoughnessTexture": {
          "index": 25
        }
      }
    }
  ],
  "meshes": [
    {
      "name": "11_D_Spacers",
      "primitives": [
        {
          "attributes": {
            "NORMAL": 2,
            "POSITION": 1,
            "TEXCOORD_0": 3
          },
          "indices": 0,
          "material": 6,
          "mode": 4
        }
      ]
    },
    {
      "name": "11_D_Gray",
      "primitives": [
        {
          "attributes": {
            "NORMAL": 6,
            "POSITION": 5,
            "TEXCOORD_0": 7
          },
          "indices": 4,
          "material": 2,
          "mode": 4
        }
      ]
    },
    {
      "name": "11_D_Sill",
      "primitives": [
        {
          "attributes": {
            "NORMAL": 10,
            "POSITION": 9,
            "TEXCOORD_0": 11
          },
          "indices": 8,
          "material": 5,
          "mode": 4
        }
      ]
    },
    {
      "name": "11_D_Glass",
      "primitives": [
        {
          "attributes": {
            "NORMAL": 14,
            "POSITION": 13,
            "TEXCOORD_0": 15
          },
          "indices": 12,
          "material": 1,
          "mode": 4
        }
      ]
    },
    {
      "name": "11_D_Hardware",
      "primitives": [
        {
          "attributes": {
            "NORMAL": 18,
            "POSITION": 17,
            "TEXCOORD_0": 19
          },
          "indices": 16,
          "material": 3,
          "mode": 4
        }
      ]
    },
    {
      "name": "11_D_Exterior",
      "primitives": [
        {
          "attributes": {
            "NORMAL": 22,
            "POSITION": 21,
            "TEXCOORD_0": 23
          },
          "indices": 20,
          "material": 0,
          "mode": 4
        }
      ]
    },
    {
      "name": "11_D_Interior",
      "primitives": [
        {
          "attributes": {
            "NORMAL": 26,
            "POSITION": 25,
            "TEXCOORD_0": 27
          },
          "indices": 24,
          "material": 4,
          "mode": 4
        }
      ]
    }
  ],
  "nodes": [
    {
      "children": [
        1,
        3,
        5,
        7,
        9,
        11,
        13
      ],
      "name": "root",
      "scale": [
        1.04432344436646,
        1.04432344436646,
        1.04432344436646
      ],
      "translation": [
        0.00080302357673645,
        1.04711639881134,
        0.0178661793470383
      ]
    },
    {
      "children": [
        2
      ],
      "name": "11_D_Spacers"
    },
    {
      "mesh": 0,
      "name": "11_D_Spacers"
    },
    {
      "children": [
        4
      ],
      "name": "11_D_Gray"
    },
    {
      "mesh": 1,
      "name": "11_D_Gray"
    },
    {
      "children": [
        6
      ],
      "name": "11_D_Sill"
    },
    {
      "mesh": 2,
      "name": "11_D_Sill"
    },
    {
      "children": [
        8
      ],
      "name": "11_D_Glass"
    },
    {
      "mesh": 3,
      "name": "11_D_Glass"
    },
    {
      "children": [
        10
      ],
      "name": "11_D_Hardware"
    },
    {
      "mesh": 4,
      "name": "11_D_Hardware"
    },
    {
      "children": [
        12
      ],
      "name": "11_D_Exterior"
    },
    {
      "mesh": 5,
      "name": "11_D_Exterior"
    },
    {
      "children": [
        14
      ],
      "name": "11_D_Interior"
    },
    {
      "mesh": 6,
      "name": "11_D_Interior"
    }
  ],
  "samplers": [
    {
      "magFilter": 9729,
      "minFilter": 9985,
      "wrapS": 10497,
      "wrapT": 10497
    }
  ],
  "scene": 0,
  "scenes": [
    {
      "name": "Scene",
      "nodes": [
        0
      ]
    }
  ],
  "textures": [
    {
      "sampler": 0,
      "source": 0
    },
    {
      "sampler": 0,
      "source": 1
    },
    {
      "sampler": 0,
      "source": 2
    },
    {
      "sampler": 0,
      "source": 3
    },
    {
      "sampler": 0,
      "source": 4
    },
    {
      "sampler": 0,
      "source": 5
    },
    {
      "sampler": 0,
      "source": 6
    },
    {
      "sampler": 0,
      "source": 7
    },
    {
      "sampler": 0,
      "source": 8
    },
    {
      "sampler": 0,
      "source": 9
    },
    {
      "sampler": 0,
      "source": 10
    },
    {
      "sampler": 0,
      "source": 11
    },
    {
      "sampler": 0,
      "source": 12
    },
    {
      "sampler": 0,
      "source": 13
    },
    {
      "sampler": 0,
      "source": 14
    },
    {
      "sampler": 0,
      "source": 15
    },
    {
      "sampler": 0,
      "source": 16
    },
    {
      "sampler": 0,
      "source": 17
    },
    {
      "sampler": 0,
      "source": 18
    },
    {
      "sampler": 0,
      "source": 19
    },
    {
      "sampler": 0,
      "source": 20
    },
    {
      "sampler": 0,
      "source": 21
    },
    {
      "sampler": 0,
      "source": 22
    },
    {
      "sampler": 0,
      "source": 23
    },
    {
      "sampler": 0,
      "source": 24
    },
    {
      "sampler": 0,
      "source": 25
    },
    {
      "sampler": 0,
      "source": 26
    },
    {
      "sampler": 0,
      "source": 27
    }
  ]
}