{
  "accessors": [
    {
      "bufferView": 0,
      "componentType": 5125,
      "count": 97728,
      "type": "SCALAR"
    },
    {
      "bufferView": 1,
      "componentType": 5126,
      "count": 64724,
      "max": [
        0.96856278181076,
        0.123035222291946,
        0.0631170123815536
      ],
      "min": [
        -0.960697650909424,
        -0.135335013270378,
        -0.0290929656475782
      ],
      "type": "VEC3"
    },
    {
      "bufferView": 2,
      "componentType": 5126,
      "count": 64724,
      "type": "VEC3"
    },
    {
      "bufferView": 3,
      "componentType": 5126,
      "count": 64724,
      "type": "VEC2"
    },
    {
      "bufferView": 4,
      "componentType": 5125,
      "count": 24021,
      "type": "SCALAR"
    },
    {
      "bufferView": 5,
      "componentType": 5126,
      "count": 13103,
      "max": [
        0.988704681396484,
        0.696226298809052,
        0.0398064367473125
      ],
      "min": [
        -0.988705039024353,
        -0.688833475112915,
        -0.0379547029733658
      ],
      "type": "VEC3"
    },
    {
      "bufferView": 6,
      "componentType": 5126,
      "count": 13103,
      "type": "VEC3"
    },
    {
      "bufferView": 7,
      "componentType": 5126,
      "count": 13103,
      "type": "VEC2"
    },
    {
      "bufferView": 8,
      "componentType": 5125,
      "count": 1938,
      "type": "SCALAR"
    },
    {
      "bufferView": 9,
      "componentType": 5126,
      "count": 949,
      "max": [
        0.913050055503845,
        0.600894033908844,
        0.0194329190999269
      ],
      "min": [
        -0.912552833557129,
        -0.521297216415405,
        -0.028232641518116
      ],
      "type": "VEC3"
    },
    {
      "bufferView": 10,
      "componentType": 5126,
      "count": 949,
      "type": "VEC3"
    },
    {
      "bufferView": 11,
      "componentType": 5126,
      "count": 949,
      "type": "VEC2"
    },
    {
      "bufferView": 12,
      "componentType": 5125,
      "count": 4506,
      "type": "SCALAR"
    },
    {
      "bufferView": 13,
      "componentType": 5126,
      "count": 2237,
      "max": [
        0.984427273273468,
        -0.670308232307434,
        0.0428659729659557
      ],
      "min": [
        -0.984427690505981,
        -0.707423567771912,
        -0.0631170123815536
      ],
      "type": "VEC3"
    },
    {
      "bufferView": 14,
      "componentType": 5126,
      "count": 2237,
      "type": "VEC3"
    },
    {
      "bufferView": 15,
      "componentType": 5126,
      "count": 2237,
      "type": "VEC2"
    },
    {
      "bufferView": 16,
      "componentType": 5125,
      "count": 216,
      "type": "SCALAR"
    },
    {
      "bufferView": 17,
      "componentType": 5126,
      "count": 144,
      "max": [
        0.913982689380646,
        0.60193133354187,
        0.0220966674387455
      ],
      "min": [
        -0.913470149040222,
        -0.522242546081543,
        -0.0308951586484909
      ],
      "type": "VEC3"
    },
    {
      "bufferView": 18,
      "componentType": 5126,
      "count": 144,
      "type": "VEC3"
    },
    {
      "bufferView": 19,
      "componentType": 5126,
      "count": 144,
      "type": "VEC2"
    },
    {
      "bufferView": 20,
      "componentType": 5125,
      "count": 17982,
      "type": "SCALAR"
    },
    {
      "bufferView": 21,
      "componentType": 5126,
      "count": 9710,
      "max": [
        1.00000011920929,
        0.70742279291153,
        0.0428661927580833
      ],
      "min": [
        -1.0,
        -0.704688370227814,
        -0.0320255905389786
      ],
      "type": "VEC3"
    },
    {
      "bufferView": 22,
      "componentType": 5126,
      "count": 9710,
      "type": "VEC3"
    },
    {
      "bufferView": 23,
      "componentType": 5126,
      "count": 9710,
      "type": "VEC2"
    },
    {
      "bufferView": 24,
      "componentType": 5125,
      "count": 21426,
      "type": "SCALAR"
    },
    {
      "bufferView": 25,
      "componentType": 5126,
      "count": 12430,
      "max": [
        1.0,
        0.707423567771912,
        0.0246948804706335
      ],
      "min": [
        -1.0,
        -0.70469057559967,
        -0.0575615614652634
      ],
      "type": "VEC3"
    },
    {
      "bufferView": 26,
      "componentType": 5126,
      "count": 12430,
      "type": "VEC3"
    },
    {
      "bufferView": 27,
      "componentType": 5126,
      "count": 12430,
      "type": "VEC2"
    }
  ],
  "asset": {
    "generator": "Substance Painter 2019.2.3",
    "version": "2.0"
  },
  "bufferViews": [
    {
      "buffer": 0,
      "byteLength": 390912,
      "target": 34963
    },
    {
      "buffer": 0,
      "byteLength": 776688,
      "byteOffset": 390912,
      "target": 34962
    },
    {
      "buffer": 0,
      "byteLength": 776688,
      "byteOffset": 1167600,
      "target": 34962
    },
    {
      "buffer": 0,
      "byteLength": 517792,
      "byteOffset": 1944288,
      "target": 34962
    },
    {
      "buffer": 0,
      "byteLength": 96084,
      "byteOffset": 2462080,
      "target": 34963
    },
    {
      "buffer": 0,
      "byteLength": 157236,
      "byteOffset": 2558164,
      "target": 34962
    },
    {
      "buffer": 0,
      "byteLength": 157236,
      "byteOffset": 2715400,
      "target": 34962
    },
    {
      "buffer": 0,
      "byteLength": 104824,
      "byteOffset": 2872636,
      "target": 34962
    },
    {
      "buffer": 0,
      "byteLength": 7752,
      "byteOffset": 2977460,
      "target": 34963
    },
    {
      "buffer": 0,
      "byteLength": 11388,
      "byteOffset": 2985212,
      "target": 34962
    },
    {
      "buffer": 0,
      "byteLength": 11388,
      "byteOffset": 2996600,
      "target": 34962
    },
    {
      "buffer": 0,
      "byteLength": 7592,
      "byteOffset": 3007988,
      "target": 34962
    },
    {
      "buffer": 0,
      "byteLength": 18024,
      "byteOffset": 3015580,
      "target": 34963
    },
    {
      "buffer": 0,
      "byteLength": 26844,
      "byteOffset": 3033604,
      "target": 34962
    },
    {
      "buffer": 0,
      "byteLength": 26844,
      "byteOffset": 3060448,
      "target": 34962
    },
    {
      "buffer": 0,
      "byteLength": 17896,
      "byteOffset": 3087292,
      "target": 34962
    },
    {
      "buffer": 0,
      "byteLength": 864,
      "byteOffset": 3105188,
      "target": 34963
    },
    {
      "buffer": 0,
      "byteLength": 1728,
      "byteOffset": 3106052,
      "target": 34962
    },
    {
      "buffer": 0,
      "byteLength": 1728,
      "byteOffset": 3107780,
      "target": 34962
    },
    {
      "buffer": 0,
      "byteLength": 1152,
      "byteOffset": 3109508,
      "target": 34962
    },
    {
      "buffer": 0,
      "byteLength": 71928,
      "byteOffset": 3110660,
      "target": 34963
    },
    {
      "buffer": 0,
      "byteLength": 116520,
      "byteOffset": 3182588,
      "target": 34962
    },
    {
      "buffer": 0,
      "byteLength": 116520,
      "byteOffset": 3299108,
      "target": 34962
    },
    {
      "buffer": 0,
      "byteLength": 77680,
      "byteOffset": 3415628,
      "target": 34962
    },
    {
      "buffer": 0,
      "byteLength": 85704,
      "byteOffset": 3493308,
      "target": 34963
    },
    {
      "buffer": 0,
      "byteLength": 149160,
      "byteOffset": 3579012,
      "target": 34962
    },
    {
      "buffer": 0,
      "byteLength": 149160,
      "byteOffset": 3728172,
      "target": 34962
    },
    {
      "buffer": 0,
      "byteLength": 99440,
      "byteOffset": 3877332,
      "target": 34962
    }
  ],
  "buffers": [
    {
      "byteLength": 3976772,
      "uri": "13_D_FWAGlidingTriple_v02.bin"
    }
  ],
  "images": [
    {
      "uri": "13_D_Exterior_baseColor.png"
    },
    {
      "uri": "13_D_Exterior_occlusionRoughnessMetallic.png"
    },
    {
      "uri": "13_D_Exterior_normal.png"
    },
    {
      "uri": "13_D_Exterior_emissive.png"
    },
    {
      "uri": "13_D_Glass_baseColor.png"
    },
    {
      "uri": "13_D_Glass_occlusionRoughnessMetallic.png"
    },
    {
      "uri": "13_D_Glass_normal.png"
    },
    {
      "uri": "13_D_Glass_emissive.png"
    },
    {
      "uri": "13_D_Gray_baseColor.png"
    },
    {
      "uri": "13_D_Gray_occlusionRoughnessMetallic.png"
    },
    {
      "uri": "13_D_Gray_normal.png"
    },
    {
      "uri": "13_D_Gray_emissive.png"
    },
    {
      "uri": "13_D_Hardware_baseColor.png"
    },
    {
      "uri": "13_D_Hardware_occlusionRoughnessMetallic.png"
    },
    {
      "uri": "13_D_Hardware_normal.png"
    },
    {
      "uri": "13_D_Hardware_emissive.png"
    },
    {
      "uri": "13_D_Interior_baseColor.png"
    },
    {
      "uri": "13_D_Interior_occlusionRoughnessMetallic.png"
    },
    {
      "uri": "13_D_Interior_normal.png"
    },
    {
      "uri": "13_D_Interior_emissive.png"
    },
    {
      "uri": "13_D_Sill_baseColor.png"
    },
    {
      "uri": "13_D_Sill_occlusionRoughnessMetallic.png"
    },
    {
      "uri": "13_D_Sill_normal.png"
    },
    {
      "uri": "13_D_Sill_emissive.png"
    },
    {
      "uri": "13_D_Spacers_baseColor.png"
    },
    {
      "uri": "13_D_Spacers_occlusionRoughnessMetallic.png"
    },
    {
      "uri": "13_D_Spacers_normal.png"
    },
    {
      "uri": "13_D_Spacers_emissive.png"
    }
  ],
  "materials": [
    {
      "alphaMode": "OPAQUE",
      "emissiveFactor": [
        1.0,
        1.0,
        1.0
      ],
      "emissiveTexture": {
        "index": 3
      },
      "name": "13_D_Exterior",
      "normalTexture": {
        "index": 2
      },
      "occlusionTexture": {
        "index": 1
      },
      "pbrMetallicRoughness": {
        "baseColorTexture": {
          "index": 0
        },
        "metallicRoughnessTexture": {
          "index": 1
        }
      }
    },
    {
      "alphaMode": "BLEND",
      "emissiveFactor": [
        1.0,
        1.0,
        1.0
      ],
      "emissiveTexture": {
        "index": 7
      },
      "name": "13_D_Glass",
      "normalTexture": {
        "index": 6
      },
      "occlusionTexture": {
        "index": 5
      },
      "pbrMetallicRoughness": {
        "baseColorTexture": {
          "index": 4
        },
        "metallicRoughnessTexture": {
          "index": 5
        }
      }
    },
    {
      "alphaMode": "OPAQUE",
      "emissiveFactor": [
        1.0,
        1.0,
        1.0
      ],
      "emissiveTexture": {
        "index": 11
      },
      "name": "13_D_Gray",
      "normalTexture": {
        "index": 10
      },
      "occlusionTexture": {
        "index": 9
      },
      "pbrMetallicRoughness": {
        "baseColorTexture": {
          "index": 8
        },
        "metallicRoughnessTexture": {
          "index": 9
        }
      }
    },
    {
      "alphaMode": "OPAQUE",
      "emissiveFactor": [
        1.0,
        1.0,
        1.0
      ],
      "emissiveTexture": {
        "index": 15
      },
      "name": "13_D_Hardware",
      "normalTexture": {
        "index": 14
      },
      "occlusionTexture": {
        "index": 13
      },
      "pbrMetallicRoughness": {
        "baseColorTexture": {
          "index": 12
        },
        "metallicRoughnessTexture": {
          "index": 13
        }
      }
    },
    {
      "alphaMode": "OPAQUE",
      "emissiveFactor": [
        1.0,
        1.0,
        1.0
      ],
      "emissiveTexture": {
        "index": 19
      },
      "name": "13_D_Interior",
      "normalTexture": {
        "index": 18
      },
      "occlusionTexture": {
        "index": 17
      },
      "pbrMetallicRoughness": {
        "baseColorTexture": {
          "index": 16
        },
        "metallicRoughnessTexture": {
          "index": 17
        }
      }
    },
    {
      "alphaMode": "OPAQUE",
      "emissiveFactor": [
        1.0,
        1.0,
        1.0
      ],
      "emissiveTexture": {
        "index": 23
      },
      "name": "13_D_Sill",
      "normalTexture": {
        "index": 22
      },
      "occlusionTexture": {
        "index": 21
      },
      "pbrMetallicRoughness": {
        "baseColorTexture": {
          "index": 20
        },
        "metallicRoughnessTexture": {
          "index": 21
        }
      }
    },
    {
      "alphaMode": "OPAQUE",
      "emissiveFactor": [
        1.0,
        1.0,
        1.0
      ],
      "emissiveTexture": {
        "index": 27
      },
      "name": "13_D_Spacers",
      "normalTexture": {
        "index": 26
      },
      "occlusionTexture": {
        "index": 25
      },
      "pbrMetallicRoughness": {
        "baseColorTexture": {
          "index": 24
        },
        "metallicRoughnessTexture": {
          "index": 25
        }
      }
    }
  ],
  "meshes": [
    {
      "name": "13_D_Hardware",
      "primitives": [
        {
          "attributes": {
            "NORMAL": 2,
            "POSITION": 1,
            "TEXCOORD_0": 3
          },
          "indices": 0,
          "material": 3,
          "mode": 4
        }
      ]
    },
    {
      "name": "13_D_Gray",
      "primitives": [
        {
          "attributes": {
            "NORMAL": 6,
            "POSITION": 5,
            "TEXCOORD_0": 7
          },
          "indices": 4,
          "material": 2,
          "mode": 4
        }
      ]
    },
    {
      "name": "13_D_Spacers",
      "primitives": [
        {
          "attributes": {
            "NORMAL": 10,
            "POSITION": 9,
            "TEXCOORD_0": 11
          },
          "indices": 8,
          "material": 6,
          "mode": 4
        }
      ]
    },
    {
      "name": "13_D_Sill",
      "primitives": [
        {
          "attributes": {
            "NORMAL": 14,
            "POSITION": 13,
            "TEXCOORD_0": 15
          },
          "indices": 12,
          "material": 5,
          "mode": 4
        }
      ]
    },
    {
      "name": "13_D_Glass",
      "primitives": [
        {
          "attributes": {
            "NORMAL": 18,
            "POSITION": 17,
            "TEXCOORD_0": 19
          },
          "indices": 16,
          "material": 1,
          "mode": 4
        }
      ]
    },
    {
      "name": "13_D_Interior",
      "primitives": [
        {
          "attributes": {
            "NORMAL": 22,
            "POSITION": 21,
            "TEXCOORD_0": 23
          },
          "indices": 20,
          "material": 4,
          "mode": 4
        }
      ]
    },
    {
      "name": "13_D_Exterior",
      "primitives": [
        {
          "attributes": {
            "NORMAL": 26,
            "POSITION": 25,
            "TEXCOORD_0": 27
          },
          "indices": 24,
          "material": 0,
          "mode": 4
        }
      ]
    }
  ],
  "nodes": [
    {
      "children": [
        1,
        3,
        5,
        7,
        9,
        11,
        13
      ],
      "name": "root",
      "scale": [
        147.721832275391,
        147.721832275391,
        147.721832275391
      ],
      "translation": [
        0.0,
        104.097793579102,
        10.0260133743286
      ]
    },
    {
      "children": [
        2
      ],
      "name": "13_D_Hardware"
    },
    {
      "mesh": 0,
      "name": "13_D_Hardware"
    },
    {
      "children": [
        4
      ],
      "name": "13_D_Gray"
    },
    {
      "mesh": 1,
      "name": "13_D_Gray"
    },
    {
      "children": [
        6
      ],
      "name": "13_D_Spacers"
    },
    {
      "mesh": 2,
      "name": "13_D_Spacers"
    },
    {
      "children": [
        8
      ],
      "name": "13_D_Sill"
    },
    {
      "mesh": 3,
      "name": "13_D_Sill"
    },
    {
      "children": [
        10
      ],
      "name": "13_D_Glass"
    },
    {
      "mesh": 4,
      "name": "13_D_Glass"
    },
    {
      "children": [
        12
      ],
      "name": "13_D_Interior"
    },
    {
      "mesh": 5,
      "name": "13_D_Interior"
    },
    {
      "children": [
        14
      ],
      "name": "13_D_Exterior"
    },
    {
      "mesh": 6,
      "name": "13_D_Exterior"
    }
  ],
  "samplers": [
    {
      "magFilter": 9729,
      "minFilter": 9985,
      "wrapS": 10497,
      "wrapT": 10497
    }
  ],
  "scene": 0,
  "scenes": [
    {
      "name": "Scene",
      "nodes": [
        0
      ]
    }
  ],
  "textures": [
    {
      "sampler": 0,
      "source": 0
    },
    {
      "sampler": 0,
      "source": 1
    },
    {
      "sampler": 0,
      "source": 2
    },
    {
      "sampler": 0,
      "source": 3
    },
    {
      "sampler": 0,
      "source": 4
    },
    {
      "sampler": 0,
      "source": 5
    },
    {
      "sampler": 0,
      "source": 6
    },
    {
      "sampler": 0,
      "source": 7
    },
    {
      "sampler": 0,
      "source": 8
    },
    {
      "sampler": 0,
      "source": 9
    },
    {
      "sampler": 0,
      "source": 10
    },
    {
      "sampler": 0,
      "source": 11
    },
    {
      "sampler": 0,
      "source": 12
    },
    {
      "sampler": 0,
      "source": 13
    },
    {
      "sampler": 0,
      "source": 14
    },
    {
      "sampler": 0,
      "source": 15
    },
    {
      "sampler": 0,
      "source": 16
    },
    {
      "sampler": 0,
      "source": 17
    },
    {
      "sampler": 0,
      "source": 18
    },
    {
      "sampler": 0,
      "source": 19
    },
    {
      "sampler": 0,
      "source": 20
    },
    {
      "sampler": 0,
      "source": 21
    },
    {
      "sampler": 0,
      "source": 22
    },
    {
      "sampler": 0,
      "source": 23
    },
    {
      "sampler": 0,
      "source": 24
    },
    {
      "sampler": 0,
      "source": 25
    },
    {
      "sampler": 0,
      "source": 26
    },
    {
      "sampler": 0,
      "source": 27
    }
  ]
}