{
    "asset": {
        "version": "2.0",
        "generator": "Open Asset Import Library (assimp v3.1.151580502)"
    },
    "accessors": [
        {
            "bufferView": 0,
            "byteOffset": 0,
            "componentType": 5126,
            "count": 1248,
            "type": "VEC3",
            "max": [
                0.7322338223457336,
                0.8628449440002441,
                0.03235921263694763
            ],
            "min": [
                -0.7449129223823547,
                -0.7311134934425354,
                -0.04436327517032623
            ]
        },
        {
            "bufferView": 1,
            "byteOffset": 0,
            "componentType": 5126,
            "count": 1248,
            "type": "VEC3",
            "max": [
                1.0,
                1.0,
                1.0
            ],
            "min": [
                -1.0,
                -1.0,
                -1.0
            ]
        },
        {
            "bufferView": 2,
            "byteOffset": 0,
            "componentType": 5126,
            "count": 1248,
            "type": "VEC2",
            "max": [
                0.9187901616096497,
                0.9980079531669617
            ],
            "min": [
                0.0018339124508202077,
                0.001991868019104004
            ]
        },
        {
            "bufferView": 3,
            "byteOffset": 0,
            "componentType": 5123,
            "count": 1248,
            "type": "SCALAR",
            "max": [
                1247.0
            ],
            "min": [
                0.0
            ]
        },
        {
            "bufferView": 4,
            "byteOffset": 0,
            "componentType": 5126,
            "count": 14580,
            "type": "VEC3",
            "max": [
                0.7951109409332275,
                0.19304504990577699,
                0.098817840218544
            ],
            "min": [
                0.7270458936691284,
                -0.1891821175813675,
                -0.043604977428913119
            ]
        },
        {
            "bufferView": 5,
            "byteOffset": 0,
            "componentType": 5126,
            "count": 14580,
            "type": "VEC3",
            "max": [
                1.0,
                1.0,
                1.0
            ],
            "min": [
                -1.0,
                -1.0,
                -1.0
            ]
        },
        {
            "bufferView": 6,
            "byteOffset": 0,
            "componentType": 5126,
            "count": 14580,
            "type": "VEC2",
            "max": [
                0.9980079531669617,
                0.9980840086936951
            ],
            "min": [
                0.0019920319318771364,
                0.04007977247238159
            ]
        },
        {
            "bufferView": 7,
            "byteOffset": 0,
            "componentType": 5123,
            "count": 14580,
            "type": "SCALAR",
            "max": [
                14579.0
            ],
            "min": [
                0.0
            ]
        },
        {
            "bufferView": 8,
            "byteOffset": 0,
            "componentType": 5126,
            "count": 18093,
            "type": "VEC3",
            "max": [
                0.8689667582511902,
                1.0000001192092896,
                0.04004738852381706
            ],
            "min": [
                -0.8689666986465454,
                -0.9955751299858093,
                -0.09003403782844544
            ]
        },
        {
            "bufferView": 9,
            "byteOffset": 0,
            "componentType": 5126,
            "count": 18093,
            "type": "VEC3",
            "max": [
                1.0,
                1.0,
                1.0
            ],
            "min": [
                -1.0,
                -1.0,
                -1.0
            ]
        },
        {
            "bufferView": 10,
            "byteOffset": 0,
            "componentType": 5126,
            "count": 18093,
            "type": "VEC2",
            "max": [
                0.9786558151245117,
                0.9795091152191162
            ],
            "min": [
                0.019329428672790529,
                0.02250760793685913
            ]
        },
        {
            "bufferView": 11,
            "byteOffset": 0,
            "componentType": 5126,
            "count": 18093,
            "type": "VEC2",
            "max": [
                0.9786558151245117,
                0.9795091152191162
            ],
            "min": [
                0.019329428672790529,
                0.02250760793685913
            ]
        },
        {
            "bufferView": 12,
            "byteOffset": 0,
            "componentType": 5123,
            "count": 18093,
            "type": "SCALAR",
            "max": [
                18092.0
            ],
            "min": [
                0.0
            ]
        },
        {
            "bufferView": 13,
            "byteOffset": 0,
            "componentType": 5126,
            "count": 9528,
            "type": "VEC3",
            "max": [
                0.8529598712921143,
                0.9822974801063538,
                0.06391208618879318
            ],
            "min": [
                -0.8467696309089661,
                -0.9706075191497803,
                -0.05902305245399475
            ]
        },
        {
            "bufferView": 14,
            "byteOffset": 0,
            "componentType": 5126,
            "count": 9528,
            "type": "VEC3",
            "max": [
                1.0,
                1.0,
                1.0
            ],
            "min": [
                -1.0,
                -1.0,
                -1.0
            ]
        },
        {
            "bufferView": 15,
            "byteOffset": 0,
            "componentType": 5126,
            "count": 9528,
            "type": "VEC2",
            "max": [
                0.9762369394302368,
                0.9762737154960632
            ],
            "min": [
                0.023725390434265138,
                0.023726344108581544
            ]
        },
        {
            "bufferView": 16,
            "byteOffset": 0,
            "componentType": 5126,
            "count": 9528,
            "type": "VEC2",
            "max": [
                0.9762369394302368,
                0.9762737154960632
            ],
            "min": [
                0.023725390434265138,
                0.023726344108581544
            ]
        },
        {
            "bufferView": 17,
            "byteOffset": 0,
            "componentType": 5123,
            "count": 9528,
            "type": "SCALAR",
            "max": [
                9527.0
            ],
            "min": [
                0.0
            ]
        },
        {
            "bufferView": 18,
            "byteOffset": 0,
            "componentType": 5126,
            "count": 14223,
            "type": "VEC3",
            "max": [
                0.8689667582511902,
                1.0000001192092896,
                0.06875014305114746
            ],
            "min": [
                -0.8689664006233215,
                -0.9956762194633484,
                -0.04965978115797043
            ]
        },
        {
            "bufferView": 19,
            "byteOffset": 0,
            "componentType": 5126,
            "count": 14223,
            "type": "VEC3",
            "max": [
                1.0,
                1.0,
                1.0
            ],
            "min": [
                -1.0,
                -1.0,
                -1.0
            ]
        },
        {
            "bufferView": 20,
            "byteOffset": 0,
            "componentType": 5126,
            "count": 14223,
            "type": "VEC2",
            "max": [
                0.929328441619873,
                0.977752149105072
            ],
            "min": [
                0.021145999431610109,
                0.022247731685638429
            ]
        },
        {
            "bufferView": 21,
            "byteOffset": 0,
            "componentType": 5126,
            "count": 14223,
            "type": "VEC2",
            "max": [
                0.929328441619873,
                0.977752149105072
            ],
            "min": [
                0.021145999431610109,
                0.022247731685638429
            ]
        },
        {
            "bufferView": 22,
            "byteOffset": 0,
            "componentType": 5123,
            "count": 14223,
            "type": "SCALAR",
            "max": [
                14222.0
            ],
            "min": [
                0.0
            ]
        },
        {
            "bufferView": 23,
            "byteOffset": 0,
            "componentType": 5126,
            "count": 5442,
            "type": "VEC3",
            "max": [
                0.8689660429954529,
                -0.9274837970733643,
                0.06874998658895493
            ],
            "min": [
                -0.8689664006233215,
                -1.0,
                -0.098817840218544
            ]
        },
        {
            "bufferView": 24,
            "byteOffset": 0,
            "componentType": 5126,
            "count": 5442,
            "type": "VEC3",
            "max": [
                1.0,
                1.0,
                1.0
            ],
            "min": [
                -1.0,
                -1.0,
                -1.0
            ]
        },
        {
            "bufferView": 25,
            "byteOffset": 0,
            "componentType": 5126,
            "count": 5442,
            "type": "VEC2",
            "max": [
                0.9818649291992188,
                0.9735826849937439
            ],
            "min": [
                0.030089639127254487,
                0.03464782238006592
            ]
        },
        {
            "bufferView": 26,
            "byteOffset": 0,
            "componentType": 5126,
            "count": 5442,
            "type": "VEC2",
            "max": [
                0.9818649291992188,
                0.9735826849937439
            ],
            "min": [
                0.030089639127254487,
                0.03464782238006592
            ]
        },
        {
            "bufferView": 27,
            "byteOffset": 0,
            "componentType": 5123,
            "count": 5442,
            "type": "SCALAR",
            "max": [
                5441.0
            ],
            "min": [
                0.0
            ]
        },
        {
            "bufferView": 28,
            "byteOffset": 0,
            "componentType": 5126,
            "count": 144,
            "type": "VEC3",
            "max": [
                0.7345480918884277,
                0.8714245557785034,
                0.03604348003864288
            ],
            "min": [
                -0.748777449131012,
                -0.7326757311820984,
                -0.04872302711009979
            ]
        },
        {
            "bufferView": 29,
            "byteOffset": 0,
            "componentType": 5126,
            "count": 144,
            "type": "VEC3",
            "max": [
                1.0,
                1.0,
                1.0
            ],
            "min": [
                -1.0,
                -1.0,
                -1.0
            ]
        },
        {
            "bufferView": 30,
            "byteOffset": 0,
            "componentType": 5126,
            "count": 144,
            "type": "VEC2",
            "max": [
                0.9795383214950562,
                0.9796634912490845
            ],
            "min": [
                0.02033647894859314,
                0.018395304679870607
            ]
        },
        {
            "bufferView": 31,
            "byteOffset": 0,
            "componentType": 5126,
            "count": 144,
            "type": "VEC2",
            "max": [
                0.9795383214950562,
                0.9796634912490845
            ],
            "min": [
                0.02033647894859314,
                0.018395304679870607
            ]
        },
        {
            "bufferView": 32,
            "byteOffset": 0,
            "componentType": 5123,
            "count": 144,
            "type": "SCALAR",
            "max": [
                143.0
            ],
            "min": [
                0.0
            ]
        }
    ],
    "buffers": [
        {
            "byteLength": 2530216,
            "uri": "D:/Jobs/Andersen_GLTF/_Assets_All/004/_Export/glTF/04_D_Agliding.bin"
        }
    ],
    "bufferViews": [
        {
            "buffer": 0,
            "byteOffset": 0,
            "byteLength": 14976,
            "target": 34962
        },
        {
            "buffer": 0,
            "byteOffset": 14976,
            "byteLength": 14976,
            "target": 34962
        },
        {
            "buffer": 0,
            "byteOffset": 29952,
            "byteLength": 9984,
            "target": 34962
        },
        {
            "buffer": 0,
            "byteOffset": 39936,
            "byteLength": 2496,
            "target": 34963
        },
        {
            "buffer": 0,
            "byteOffset": 42432,
            "byteLength": 174960,
            "target": 34962
        },
        {
            "buffer": 0,
            "byteOffset": 217392,
            "byteLength": 174960,
            "target": 34962
        },
        {
            "buffer": 0,
            "byteOffset": 392352,
            "byteLength": 116640,
            "target": 34962
        },
        {
            "buffer": 0,
            "byteOffset": 508992,
            "byteLength": 29160,
            "target": 34963
        },
        {
            "buffer": 0,
            "byteOffset": 538152,
            "byteLength": 217116,
            "target": 34962
        },
        {
            "buffer": 0,
            "byteOffset": 755268,
            "byteLength": 217116,
            "target": 34962
        },
        {
            "buffer": 0,
            "byteOffset": 972384,
            "byteLength": 144744,
            "target": 34962
        },
        {
            "buffer": 0,
            "byteOffset": 1117128,
            "byteLength": 144744,
            "target": 34962
        },
        {
            "buffer": 0,
            "byteOffset": 1261872,
            "byteLength": 36186,
            "target": 34963
        },
        {
            "buffer": 0,
            "byteOffset": 1298060,
            "byteLength": 114336,
            "target": 34962
        },
        {
            "buffer": 0,
            "byteOffset": 1412396,
            "byteLength": 114336,
            "target": 34962
        },
        {
            "buffer": 0,
            "byteOffset": 1526732,
            "byteLength": 76224,
            "target": 34962
        },
        {
            "buffer": 0,
            "byteOffset": 1602956,
            "byteLength": 76224,
            "target": 34962
        },
        {
            "buffer": 0,
            "byteOffset": 1679180,
            "byteLength": 19056,
            "target": 34963
        },
        {
            "buffer": 0,
            "byteOffset": 1698236,
            "byteLength": 170676,
            "target": 34962
        },
        {
            "buffer": 0,
            "byteOffset": 1868912,
            "byteLength": 170676,
            "target": 34962
        },
        {
            "buffer": 0,
            "byteOffset": 2039588,
            "byteLength": 113784,
            "target": 34962
        },
        {
            "buffer": 0,
            "byteOffset": 2153372,
            "byteLength": 113784,
            "target": 34962
        },
        {
            "buffer": 0,
            "byteOffset": 2267156,
            "byteLength": 28446,
            "target": 34963
        },
        {
            "buffer": 0,
            "byteOffset": 2295604,
            "byteLength": 65304,
            "target": 34962
        },
        {
            "buffer": 0,
            "byteOffset": 2360908,
            "byteLength": 65304,
            "target": 34962
        },
        {
            "buffer": 0,
            "byteOffset": 2426212,
            "byteLength": 43536,
            "target": 34962
        },
        {
            "buffer": 0,
            "byteOffset": 2469748,
            "byteLength": 43536,
            "target": 34962
        },
        {
            "buffer": 0,
            "byteOffset": 2513284,
            "byteLength": 10884,
            "target": 34963
        },
        {
            "buffer": 0,
            "byteOffset": 2524168,
            "byteLength": 1728,
            "target": 34962
        },
        {
            "buffer": 0,
            "byteOffset": 2525896,
            "byteLength": 1728,
            "target": 34962
        },
        {
            "buffer": 0,
            "byteOffset": 2527624,
            "byteLength": 1152,
            "target": 34962
        },
        {
            "buffer": 0,
            "byteOffset": 2528776,
            "byteLength": 1152,
            "target": 34962
        },
        {
            "buffer": 0,
            "byteOffset": 2529928,
            "byteLength": 288,
            "target": 34963
        }
    ],
    "materials": [
        {
            "name": "04_D_Spacer2",
            "pbrMetallicRoughness": {
                "baseColorFactor": [
                    0.16978123784065247,
                    0.16690635681152345,
                    0.1529633104801178,
                    1.0
                ],
                "metallicFactor": 0.0
            }
        },
        {
            "name": "04_D_Hardware",
            "pbrMetallicRoughness": {
                "baseColorFactor": [
                    0.09563194960355759,
                    0.15025804936885835,
                    0.2585204839706421,
                    1.0
                ],
                "metallicFactor": 0.0
            }
        },
        {
            "name": "04_D_Exterior",
            "pbrMetallicRoughness": {
                "baseColorFactor": [
                    0.04761010408401489,
                    0.06749989092350006,
                    0.05628842115402222,
                    1.0
                ],
                "metallicFactor": 0.0
            }
        },
        {
            "name": "04_D_Gray",
            "pbrMetallicRoughness": {
                "baseColorFactor": [
                    0.21308551728725434,
                    0.26222825050354006,
                    0.34294795989990237,
                    1.0
                ],
                "metallicFactor": 0.0
            }
        },
        {
            "name": "04_D_Interior",
            "pbrMetallicRoughness": {
                "baseColorFactor": [
                    0.5551090240478516,
                    0.28904807567596438,
                    0.08756919950246811,
                    1.0
                ],
                "metallicFactor": 0.0
            }
        },
        {
            "name": "04_D_Sill",
            "pbrMetallicRoughness": {
                "baseColorFactor": [
                    0.042289089411497119,
                    0.04358501359820366,
                    0.04761010408401489,
                    1.0
                ],
                "metallicFactor": 0.0
            }
        },
        {
            "name": "04_D_Glass",
            "pbrMetallicRoughness": {
                "baseColorFactor": [
                    0.800000011920929,
                    0.800000011920929,
                    0.800000011920929,
                    1.0
                ],
                "metallicFactor": 0.0
            }
        }
    ],
    "meshes": [
        {
            "name": "04_D_Spacers",
            "primitives": [
                {
                    "mode": 4,
                    "material": 0,
                    "indices": 3,
                    "attributes": {
                        "POSITION": 0,
                        "NORMAL": 1,
                        "TEXCOORD_0": 2
                    }
                }
            ]
        },
        {
            "name": "04_D_Hardware",
            "primitives": [
                {
                    "mode": 4,
                    "material": 1,
                    "indices": 7,
                    "attributes": {
                        "POSITION": 4,
                        "NORMAL": 5,
                        "TEXCOORD_0": 6
                    }
                }
            ]
        },
        {
            "name": "04_D_Exterior",
            "primitives": [
                {
                    "mode": 4,
                    "material": 2,
                    "indices": 12,
                    "attributes": {
                        "POSITION": 8,
                        "NORMAL": 9,
                        "TEXCOORD_0": 10,
                        "TEXCOORD_1": 11
                    }
                }
            ]
        },
        {
            "name": "04_D_Gray",
            "primitives": [
                {
                    "mode": 4,
                    "material": 3,
                    "indices": 17,
                    "attributes": {
                        "POSITION": 13,
                        "NORMAL": 14,
                        "TEXCOORD_0": 15,
                        "TEXCOORD_1": 16
                    }
                }
            ]
        },
        {
            "name": "04_D_Interior",
            "primitives": [
                {
                    "mode": 4,
                    "material": 4,
                    "indices": 22,
                    "attributes": {
                        "POSITION": 18,
                        "NORMAL": 19,
                        "TEXCOORD_0": 20,
                        "TEXCOORD_1": 21
                    }
                }
            ]
        },
        {
            "name": "04_D_Sill",
            "primitives": [
                {
                    "mode": 4,
                    "material": 5,
                    "indices": 27,
                    "attributes": {
                        "POSITION": 23,
                        "NORMAL": 24,
                        "TEXCOORD_0": 25,
                        "TEXCOORD_1": 26
                    }
                }
            ]
        },
        {
            "name": "04_D_Glass",
            "primitives": [
                {
                    "mode": 4,
                    "material": 6,
                    "indices": 32,
                    "attributes": {
                        "POSITION": 28,
                        "NORMAL": 29,
                        "TEXCOORD_0": 30,
                        "TEXCOORD_1": 31
                    }
                }
            ]
        }
    ],
    "nodes": [
        {
            "matrix": [
                104.3661117553711,
                0.0,
                0.0,
                0.0,
                0.0,
                104.3661117553711,
                0.0,
                0.0,
                0.0,
                0.0,
                104.3661117553711,
                0.0,
                -9.00482177734375,
                104.55982971191406,
                0.5982885360717773,
                1.0
            ],
            "children": [
                1,
                2,
                3,
                4,
                5,
                6,
                7
            ]
        },
        {
            "name": "04_D_Spacers",
            "mesh": 0
        },
        {
            "name": "04_D_Hardware",
            "mesh": 1
        },
        {
            "name": "04_D_Exterior",
            "mesh": 2
        },
        {
            "name": "04_D_Gray",
            "mesh": 3
        },
        {
            "name": "04_D_Interior",
            "mesh": 4
        },
        {
            "name": "04_D_Sill",
            "mesh": 5
        },
        {
            "name": "04_D_Glass",
            "mesh": 6
        }
    ],
    "scenes": [
        {
            "nodes": [
                0
            ]
        }
    ],
    "scene": 0
}