{
  "accessors": [
    {
      "bufferView": 0,
      "componentType": 5125,
      "count": 1248,
      "type": "SCALAR"
    },
    {
      "bufferView": 1,
      "componentType": 5126,
      "count": 659,
      "max": [
        0.732233822345734,
        0.862844944000244,
        0.0323592126369476
      ],
      "min": [
        -0.744912922382355,
        -0.731113493442535,
        -0.0443632751703262
      ],
      "type": "VEC3"
    },
    {
      "bufferView": 2,
      "componentType": 5126,
      "count": 659,
      "type": "VEC3"
    },
    {
      "bufferView": 3,
      "componentType": 5126,
      "count": 659,
      "type": "VEC2"
    },
    {
      "bufferView": 4,
      "componentType": 5125,
      "count": 14580,
      "type": "SCALAR"
    },
    {
      "bufferView": 5,
      "componentType": 5126,
      "count": 13621,
      "max": [
        0.795110940933228,
        0.193045049905777,
        0.098817840218544
      ],
      "min": [
        0.727045893669128,
        -0.189182117581367,
        -0.0436049774289131
      ],
      "type": "VEC3"
    },
    {
      "bufferView": 6,
      "componentType": 5126,
      "count": 13621,
      "type": "VEC3"
    },
    {
      "bufferView": 7,
      "componentType": 5126,
      "count": 13621,
      "type": "VEC2"
    },
    {
      "bufferView": 8,
      "componentType": 5125,
      "count": 18093,
      "type": "SCALAR"
    },
    {
      "bufferView": 9,
      "componentType": 5126,
      "count": 10356,
      "max": [
        0.86896675825119,
        1.00000011920929,
        0.0400473885238171
      ],
      "min": [
        -0.868966698646545,
        -0.995575129985809,
        -0.0900340378284454
      ],
      "type": "VEC3"
    },
    {
      "bufferView": 10,
      "componentType": 5126,
      "count": 10356,
      "type": "VEC3"
    },
    {
      "bufferView": 11,
      "componentType": 5126,
      "count": 10356,
      "type": "VEC2"
    },
    {
      "bufferView": 12,
      "componentType": 5125,
      "count": 9528,
      "type": "SCALAR"
    },
    {
      "bufferView": 13,
      "componentType": 5126,
      "count": 6089,
      "max": [
        0.852959871292114,
        0.982297480106354,
        0.0639120861887932
      ],
      "min": [
        -0.846769630908966,
        -0.97060751914978,
        -0.0590230524539948
      ],
      "type": "VEC3"
    },
    {
      "bufferView": 14,
      "componentType": 5126,
      "count": 6089,
      "type": "VEC3"
    },
    {
      "bufferView": 15,
      "componentType": 5126,
      "count": 6089,
      "type": "VEC2"
    },
    {
      "bufferView": 16,
      "componentType": 5125,
      "count": 14223,
      "type": "SCALAR"
    },
    {
      "bufferView": 17,
      "componentType": 5126,
      "count": 8243,
      "max": [
        0.86896675825119,
        1.00000011920929,
        0.0687501430511475
      ],
      "min": [
        -0.868966400623322,
        -0.995676219463348,
        -0.0496597811579704
      ],
      "type": "VEC3"
    },
    {
      "bufferView": 18,
      "componentType": 5126,
      "count": 8243,
      "type": "VEC3"
    },
    {
      "bufferView": 19,
      "componentType": 5126,
      "count": 8243,
      "type": "VEC2"
    },
    {
      "bufferView": 20,
      "componentType": 5125,
      "count": 5442,
      "type": "SCALAR"
    },
    {
      "bufferView": 21,
      "componentType": 5126,
      "count": 3281,
      "max": [
        0.868966042995453,
        -0.927483797073364,
        0.0687499865889549
      ],
      "min": [
        -0.868966400623322,
        -1.0,
        -0.098817840218544
      ],
      "type": "VEC3"
    },
    {
      "bufferView": 22,
      "componentType": 5126,
      "count": 3281,
      "type": "VEC3"
    },
    {
      "bufferView": 23,
      "componentType": 5126,
      "count": 3281,
      "type": "VEC2"
    },
    {
      "bufferView": 24,
      "componentType": 5125,
      "count": 144,
      "type": "SCALAR"
    },
    {
      "bufferView": 25,
      "componentType": 5126,
      "count": 96,
      "max": [
        0.734548091888428,
        0.871424555778503,
        0.0360434800386429
      ],
      "min": [
        -0.748777449131012,
        -0.732675731182098,
        -0.0487230271100998
      ],
      "type": "VEC3"
    },
    {
      "bufferView": 26,
      "componentType": 5126,
      "count": 96,
      "type": "VEC3"
    },
    {
      "bufferView": 27,
      "componentType": 5126,
      "count": 96,
      "type": "VEC2"
    }
  ],
  "asset": {
    "generator": "Substance Painter 2019.2.3",
    "version": "2.0"
  },
  "bufferViews": [
    {
      "buffer": 0,
      "byteLength": 4992,
      "target": 34963
    },
    {
      "buffer": 0,
      "byteLength": 7908,
      "byteOffset": 4992,
      "target": 34962
    },
    {
      "buffer": 0,
      "byteLength": 7908,
      "byteOffset": 12900,
      "target": 34962
    },
    {
      "buffer": 0,
      "byteLength": 5272,
      "byteOffset": 20808,
      "target": 34962
    },
    {
      "buffer": 0,
      "byteLength": 58320,
      "byteOffset": 26080,
      "target": 34963
    },
    {
      "buffer": 0,
      "byteLength": 163452,
      "byteOffset": 84400,
      "target": 34962
    },
    {
      "buffer": 0,
      "byteLength": 163452,
      "byteOffset": 247852,
      "target": 34962
    },
    {
      "buffer": 0,
      "byteLength": 108968,
      "byteOffset": 411304,
      "target": 34962
    },
    {
      "buffer": 0,
      "byteLength": 72372,
      "byteOffset": 520272,
      "target": 34963
    },
    {
      "buffer": 0,
      "byteLength": 124272,
      "byteOffset": 592644,
      "target": 34962
    },
    {
      "buffer": 0,
      "byteLength": 124272,
      "byteOffset": 716916,
      "target": 34962
    },
    {
      "buffer": 0,
      "byteLength": 82848,
      "byteOffset": 841188,
      "target": 34962
    },
    {
      "buffer": 0,
      "byteLength": 38112,
      "byteOffset": 924036,
      "target": 34963
    },
    {
      "buffer": 0,
      "byteLength": 73068,
      "byteOffset": 962148,
      "target": 34962
    },
    {
      "buffer": 0,
      "byteLength": 73068,
      "byteOffset": 1035216,
      "target": 34962
    },
    {
      "buffer": 0,
      "byteLength": 48712,
      "byteOffset": 1108284,
      "target": 34962
    },
    {
      "buffer": 0,
      "byteLength": 56892,
      "byteOffset": 1156996,
      "target": 34963
    },
    {
      "buffer": 0,
      "byteLength": 98916,
      "byteOffset": 1213888,
      "target": 34962
    },
    {
      "buffer": 0,
      "byteLength": 98916,
      "byteOffset": 1312804,
      "target": 34962
    },
    {
      "buffer": 0,
      "byteLength": 65944,
      "byteOffset": 1411720,
      "target": 34962
    },
    {
      "buffer": 0,
      "byteLength": 21768,
      "byteOffset": 1477664,
      "target": 34963
    },
    {
      "buffer": 0,
      "byteLength": 39372,
      "byteOffset": 1499432,
      "target": 34962
    },
    {
      "buffer": 0,
      "byteLength": 39372,
      "byteOffset": 1538804,
      "target": 34962
    },
    {
      "buffer": 0,
      "byteLength": 26248,
      "byteOffset": 1578176,
      "target": 34962
    },
    {
      "buffer": 0,
      "byteLength": 576,
      "byteOffset": 1604424,
      "target": 34963
    },
    {
      "buffer": 0,
      "byteLength": 1152,
      "byteOffset": 1605000,
      "target": 34962
    },
    {
      "buffer": 0,
      "byteLength": 1152,
      "byteOffset": 1606152,
      "target": 34962
    },
    {
      "buffer": 0,
      "byteLength": 768,
      "byteOffset": 1607304,
      "target": 34962
    }
  ],
  "buffers": [
    {
      "byteLength": 1608072,
      "uri": "04_D_Agliding_v02.bin"
    }
  ],
  "images": [
    {
      "uri": "04_D_Exterior_baseColor.png"
    },
    {
      "uri": "04_D_Exterior_occlusionRoughnessMetallic.png"
    },
    {
      "uri": "04_D_Exterior_normal.png"
    },
    {
      "uri": "04_D_Exterior_emissive.png"
    },
    {
      "uri": "04_D_Glass_baseColor.png"
    },
    {
      "uri": "04_D_Glass_occlusionRoughnessMetallic.png"
    },
    {
      "uri": "04_D_Glass_normal.png"
    },
    {
      "uri": "04_D_Glass_emissive.png"
    },
    {
      "uri": "04_D_Gray_baseColor.png"
    },
    {
      "uri": "04_D_Gray_occlusionRoughnessMetallic.png"
    },
    {
      "uri": "04_D_Gray_normal.png"
    },
    {
      "uri": "04_D_Gray_emissive.png"
    },
    {
      "uri": "04_D_Hardware_baseColor.png"
    },
    {
      "uri": "04_D_Hardware_occlusionRoughnessMetallic.png"
    },
    {
      "uri": "04_D_Hardware_normal.png"
    },
    {
      "uri": "04_D_Hardware_emissive.png"
    },
    {
      "uri": "04_D_Interior_baseColor.png"
    },
    {
      "uri": "04_D_Interior_occlusionRoughnessMetallic.png"
    },
    {
      "uri": "04_D_Interior_normal.png"
    },
    {
      "uri": "04_D_Interior_emissive.png"
    },
    {
      "uri": "04_D_Sill_baseColor.png"
    },
    {
      "uri": "04_D_Sill_occlusionRoughnessMetallic.png"
    },
    {
      "uri": "04_D_Sill_normal.png"
    },
    {
      "uri": "04_D_Sill_emissive.png"
    },
    {
      "uri": "04_D_Spacer_baseColor.png"
    },
    {
      "uri": "04_D_Spacer_occlusionRoughnessMetallic.png"
    },
    {
      "uri": "04_D_Spacer_normal.png"
    }
  ],
  "materials": [
    {
      "alphaMode": "OPAQUE",
      "emissiveFactor": [
        1.0,
        1.0,
        1.0
      ],
      "emissiveTexture": {
        "index": 3
      },
      "name": "04_D_Exterior",
      "normalTexture": {
        "index": 2
      },
      "occlusionTexture": {
        "index": 1
      },
      "pbrMetallicRoughness": {
        "baseColorTexture": {
          "index": 0
        },
        "metallicRoughnessTexture": {
          "index": 1
        }
      }
    },
    {
      "alphaMode": "BLEND",
      "emissiveFactor": [
        1.0,
        1.0,
        1.0
      ],
      "emissiveTexture": {
        "index": 7
      },
      "name": "04_D_Glass",
      "normalTexture": {
        "index": 6
      },
      "occlusionTexture": {
        "index": 5
      },
      "pbrMetallicRoughness": {
        "baseColorTexture": {
          "index": 4
        },
        "metallicRoughnessTexture": {
          "index": 5
        }
      }
    },
    {
      "alphaMode": "OPAQUE",
      "emissiveFactor": [
        1.0,
        1.0,
        1.0
      ],
      "emissiveTexture": {
        "index": 11
      },
      "name": "04_D_Gray",
      "normalTexture": {
        "index": 10
      },
      "occlusionTexture": {
        "index": 9
      },
      "pbrMetallicRoughness": {
        "baseColorTexture": {
          "index": 8
        },
        "metallicRoughnessTexture": {
          "index": 9
        }
      }
    },
    {
      "alphaMode": "OPAQUE",
      "emissiveFactor": [
        1.0,
        1.0,
        1.0
      ],
      "emissiveTexture": {
        "index": 15
      },
      "name": "04_D_Hardware",
      "normalTexture": {
        "index": 14
      },
      "occlusionTexture": {
        "index": 13
      },
      "pbrMetallicRoughness": {
        "baseColorTexture": {
          "index": 12
        },
        "metallicRoughnessTexture": {
          "index": 13
        }
      }
    },
    {
      "alphaMode": "OPAQUE",
      "emissiveFactor": [
        1.0,
        1.0,
        1.0
      ],
      "emissiveTexture": {
        "index": 19
      },
      "name": "04_D_Interior",
      "normalTexture": {
        "index": 18
      },
      "occlusionTexture": {
        "index": 17
      },
      "pbrMetallicRoughness": {
        "baseColorTexture": {
          "index": 16
        },
        "metallicRoughnessTexture": {
          "index": 17
        }
      }
    },
    {
      "alphaMode": "OPAQUE",
      "emissiveFactor": [
        1.0,
        1.0,
        1.0
      ],
      "emissiveTexture": {
        "index": 23
      },
      "name": "04_D_Sill",
      "normalTexture": {
        "index": 22
      },
      "occlusionTexture": {
        "index": 21
      },
      "pbrMetallicRoughness": {
        "baseColorTexture": {
          "index": 20
        },
        "metallicRoughnessTexture": {
          "index": 21
        }
      }
    },
    {
      "alphaMode": "OPAQUE",
      "name": "04_D_Spacer",
      "normalTexture": {
        "index": 26
      },
      "occlusionTexture": {
        "index": 25
      },
      "pbrMetallicRoughness": {
        "baseColorTexture": {
          "index": 24
        },
        "metallicRoughnessTexture": {
          "index": 25
        }
      }
    }
  ],
  "meshes": [
    {
      "name": "04_D_Spacers",
      "primitives": [
        {
          "attributes": {
            "NORMAL": 2,
            "POSITION": 1,
            "TEXCOORD_0": 3
          },
          "indices": 0,
          "material": 6,
          "mode": 4
        }
      ]
    },
    {
      "name": "04_D_Hardware",
      "primitives": [
        {
          "attributes": {
            "NORMAL": 6,
            "POSITION": 5,
            "TEXCOORD_0": 7
          },
          "indices": 4,
          "material": 3,
          "mode": 4
        }
      ]
    },
    {
      "name": "04_D_Exterior",
      "primitives": [
        {
          "attributes": {
            "NORMAL": 10,
            "POSITION": 9,
            "TEXCOORD_0": 11
          },
          "indices": 8,
          "material": 0,
          "mode": 4
        }
      ]
    },
    {
      "name": "04_D_Gray",
      "primitives": [
        {
          "attributes": {
            "NORMAL": 14,
            "POSITION": 13,
            "TEXCOORD_0": 15
          },
          "indices": 12,
          "material": 2,
          "mode": 4
        }
      ]
    },
    {
      "name": "04_D_Interior",
      "primitives": [
        {
          "attributes": {
            "NORMAL": 18,
            "POSITION": 17,
            "TEXCOORD_0": 19
          },
          "indices": 16,
          "material": 4,
          "mode": 4
        }
      ]
    },
    {
      "name": "04_D_Sill",
      "primitives": [
        {
          "attributes": {
            "NORMAL": 22,
            "POSITION": 21,
            "TEXCOORD_0": 23
          },
          "indices": 20,
          "material": 5,
          "mode": 4
        }
      ]
    },
    {
      "name": "04_D_Glass",
      "primitives": [
        {
          "attributes": {
            "NORMAL": 26,
            "POSITION": 25,
            "TEXCOORD_0": 27
          },
          "indices": 24,
          "material": 1,
          "mode": 4
        }
      ]
    }
  ],
  "nodes": [
    {
      "children": [
        1,
        3,
        5,
        7,
        9,
        11,
        13
      ],
      "name": "root",
      "scale": [
        104.366111755371,
        104.366111755371,
        104.366111755371
      ],
      "translation": [
        -9.00482177734375,
        104.559829711914,
        0.598288536071777
      ]
    },
    {
      "children": [
        2
      ],
      "name": "04_D_Spacers"
    },
    {
      "mesh": 0,
      "name": "04_D_Spacers"
    },
    {
      "children": [
        4
      ],
      "name": "04_D_Hardware"
    },
    {
      "mesh": 1,
      "name": "04_D_Hardware"
    },
    {
      "children": [
        6
      ],
      "name": "04_D_Exterior"
    },
    {
      "mesh": 2,
      "name": "04_D_Exterior"
    },
    {
      "children": [
        8
      ],
      "name": "04_D_Gray"
    },
    {
      "mesh": 3,
      "name": "04_D_Gray"
    },
    {
      "children": [
        10
      ],
      "name": "04_D_Interior"
    },
    {
      "mesh": 4,
      "name": "04_D_Interior"
    },
    {
      "children": [
        12
      ],
      "name": "04_D_Sill"
    },
    {
      "mesh": 5,
      "name": "04_D_Sill"
    },
    {
      "children": [
        14
      ],
      "name": "04_D_Glass"
    },
    {
      "mesh": 6,
      "name": "04_D_Glass"
    }
  ],
  "samplers": [
    {
      "magFilter": 9729,
      "minFilter": 9985,
      "wrapS": 10497,
      "wrapT": 10497
    }
  ],
  "scene": 0,
  "scenes": [
    {
      "name": "Scene",
      "nodes": [
        0
      ]
    }
  ],
  "textures": [
    {
      "sampler": 0,
      "source": 0
    },
    {
      "sampler": 0,
      "source": 1
    },
    {
      "sampler": 0,
      "source": 2
    },
    {
      "sampler": 0,
      "source": 3
    },
    {
      "sampler": 0,
      "source": 4
    },
    {
      "sampler": 0,
      "source": 5
    },
    {
      "sampler": 0,
      "source": 6
    },
    {
      "sampler": 0,
      "source": 7
    },
    {
      "sampler": 0,
      "source": 8
    },
    {
      "sampler": 0,
      "source": 9
    },
    {
      "sampler": 0,
      "source": 10
    },
    {
      "sampler": 0,
      "source": 11
    },
    {
      "sampler": 0,
      "source": 12
    },
    {
      "sampler": 0,
      "source": 13
    },
    {
      "sampler": 0,
      "source": 14
    },
    {
      "sampler": 0,
      "source": 15
    },
    {
      "sampler": 0,
      "source": 16
    },
    {
      "sampler": 0,
      "source": 17
    },
    {
      "sampler": 0,
      "source": 18
    },
    {
      "sampler": 0,
      "source": 19
    },
    {
      "sampler": 0,
      "source": 20
    },
    {
      "sampler": 0,
      "source": 21
    },
    {
      "sampler": 0,
      "source": 22
    },
    {
      "sampler": 0,
      "source": 23
    },
    {
      "sampler": 0,
      "source": 24
    },
    {
      "sampler": 0,
      "source": 25
    },
    {
      "sampler": 0,
      "source": 26
    }
  ]
}