{"asset":{"version":"2.0","generator":"babylon.js glTF exporter for 3dsmax 2021 v20201123.8"},"scene":0,"scenes":[{"nodes":[0]}],"nodes":[{"children":[1,2,3,4,5,6],"scale":[1.2,1.2,1.2],"name":"root"},{"mesh":0,"name":"Glass"},{"mesh":1,"name":"Corner"},{"translation":[0.05599021,0.127453476,0.0557777733],"rotation":[-0.5,-0.5,0.5,-0.5],"name":"PhysCamera001.Target"},{"translation":[0.451107055,0.0,-0.7917609],"name":"USD001"},{"name":"Default light"},{"camera":0,"translation":[-0.447333336,0.5247064,0.4633589],"rotation":[-0.245178133,-0.414324582,-0.116944358,0.8686466],"scale":[1.0,1.0,0.99999994],"name":"PhysCamera001"}],"cameras":[{"perspective":{"yfov":0.4707094,"zfar":10000.0,"znear":0.1},"type":"perspective","name":"PhysCamera001"}],"meshes":[{"primitives":[{"attributes":{"POSITION":1,"NORMAL":2,"TEXCOORD_0":3},"indices":0,"material":0}],"name":"Glass"},{"primitives":[{"attributes":{"POSITION":5,"NORMAL":6,"TEXCOORD_0":7},"indices":4,"material":1}],"name":"Corner"}],"accessors":[{"bufferView":0,"componentType":5123,"count":846,"type":"SCALAR","name":"accessorIndices"},{"bufferView":1,"componentType":5126,"count":846,"max":[0.04324009,0.274424672,0.03515215],"min":[-0.122998379,0.108186245,0.009957348],"type":"VEC3","name":"accessorPositions"},{"bufferView":1,"byteOffset":10152,"componentType":5126,"count":846,"type":"VEC3","name":"accessorNormals"},{"bufferView":2,"componentType":5126,"count":846,"type":"VEC2","name":"accessorUVs"},{"bufferView":0,"byteOffset":1692,"componentType":5125,"count":407019,"type":"SCALAR","name":"accessorIndices"},{"bufferView":1,"byteOffset":20304,"componentType":5126,"count":407019,"max":[0.127381548,0.274424762,0.0587984435],"min":[-0.123046353,-9.488449E-06,-0.086685054],"type":"VEC3","name":"accessorPositions"},{"bufferView":1,"byteOffset":4904532,"componentType":5126,"count":407019,"type":"VEC3","name":"accessorNormals"},{"bufferView":2,"byteOffset":6768,"componentType":5126,"count":407019,"type":"VEC2","name":"accessorUVs"}],"bufferViews":[{"buffer":0,"byteLength":1629768,"name":"bufferViewScalar"},{"buffer":0,"byteOffset":1629768,"byteLength":9788760,"byteStride":12,"name":"bufferViewFloatVec3"},{"buffer":0,"byteOffset":11418528,"byteLength":3262920,"byteStride":8,"name":"bufferViewFloatVec2"}],"buffers":[{"uri":"DG_Corner_V2.bin","byteLength":14681448}],"materials":[{"pbrMetallicRoughness":{"baseColorFactor":[1.0,1.0,1.0,0.170000017],"metallicRoughnessTexture":{"index":1}},"normalTexture":{"index":0,"scale":3.0},"alphaMode":"BLEND","doubleSided":true,"name":"DG_Corner_Glass"},{"pbrMetallicRoughness":{"baseColorTexture":{"index":2},"metallicRoughnessTexture":{"index":3}},"name":"DG_Corner_V2"}],"textures":[{"sampler":0,"source":0,"name":"DG_Corner_V2_Glass_Normal.png"},{"sampler":0,"source":1,"name":"DG_Corner_V2_Glass_RoughnessDG_Corner_V2_Glass_Metallic.png"},{"sampler":0,"source":2,"name":"DG_Corner_V2_BaseColor_Merged.png"},{"sampler":0,"source":3,"name":"DG_Corner_V2_Roughness_MergedDG_Corner_V2_Metallic_Merged.png"}],"images":[{"uri":"../glTF/DG_Corner_V2_Glass_Normal.png"},{"uri":"../glTF/DG_Corner_V2_Glass_RoughnessDG_Corner_V2_Glass_Metallic.png"},{"uri":"../glTF/DG_Corner_V2_BaseColor_Merged.png"},{"uri":"../glTF/DG_Corner_V2_Roughness_MergedDG_Corner_V2_Metallic_Merged.png"}],"samplers":[{"magFilter":9729,"minFilter":9987}]}