{"asset":{"version":"2.0","generator":"babylon.js glTF exporter for 3dsmax 2021 v20201123.8"},"scene":0,"scenes":[{"nodes":[0]}],"nodes":[{"children":[1,3,4,5],"scale":[1.2,1.2,1.2],"name":"root"},{"children":[2],"mesh":0,"name":"Glass"},{"mesh":1,"translation":[0.002824707,0.123252809,0.02958494],"rotation":[0.0,4.440892E-16,0.0,1.0],"name":"Decal"},{"mesh":2,"name":"Corner"},{"translation":[0.05599021,0.127453476,0.0557777733],"rotation":[-0.5,-0.5,0.5,-0.5],"name":"PhysCamera001.Target"},{"name":"Default light"}],"meshes":[{"primitives":[{"attributes":{"POSITION":1,"NORMAL":2,"TEXCOORD_0":3},"indices":0,"material":0}],"name":"Glass"},{"primitives":[{"attributes":{"POSITION":5,"NORMAL":6,"TEXCOORD_0":7},"indices":4,"material":1}],"name":"Decal"},{"primitives":[{"attributes":{"POSITION":9,"NORMAL":10,"TEXCOORD_0":11},"indices":8,"material":2}],"name":"Corner"}],"accessors":[{"bufferView":0,"componentType":5123,"count":846,"type":"SCALAR","name":"accessorIndices"},{"bufferView":1,"componentType":5126,"count":846,"max":[0.04324009,0.274424672,0.03515215],"min":[-0.122998379,0.108186245,0.009957348],"type":"VEC3","name":"accessorPositions"},{"bufferView":1,"byteOffset":10152,"componentType":5126,"count":846,"type":"VEC3","name":"accessorNormals"},{"bufferView":2,"componentType":5126,"count":846,"type":"VEC2","name":"accessorUVs"},{"bufferView":0,"byteOffset":1692,"componentType":5123,"count":6,"type":"SCALAR","name":"accessorIndices"},{"bufferView":1,"byteOffset":20304,"componentType":5126,"count":6,"max":[0.0125590255,0.0123098381,5.979538E-07],"min":[-0.0125590255,-0.0123098381,5.865097E-07],"type":"VEC3","name":"accessorPositions"},{"bufferView":1,"byteOffset":20376,"componentType":5126,"count":6,"type":"VEC3","name":"accessorNormals"},{"bufferView":2,"byteOffset":6768,"componentType":5126,"count":6,"type":"VEC2","name":"accessorUVs"},{"bufferView":0,"byteOffset":1704,"componentType":5125,"count":407019,"type":"SCALAR","name":"accessorIndices"},{"bufferView":1,"byteOffset":20448,"componentType":5126,"count":407019,"max":[0.127381548,0.274424762,0.0587984435],"min":[-0.123046353,-9.488449E-06,-0.086685054],"type":"VEC3","name":"accessorPositions"},{"bufferView":1,"byteOffset":4904676,"componentType":5126,"count":407019,"type":"VEC3","name":"accessorNormals"},{"bufferView":2,"byteOffset":6816,"componentType":5126,"count":407019,"type":"VEC2","name":"accessorUVs"}],"bufferViews":[{"buffer":0,"byteLength":1629780,"name":"bufferViewScalar"},{"buffer":0,"byteOffset":1629780,"byteLength":9788904,"byteStride":12,"name":"bufferViewFloatVec3"},{"buffer":0,"byteOffset":11418684,"byteLength":3262968,"byteStride":8,"name":"bufferViewFloatVec2"}],"buffers":[{"uri":"DG_Corner_V2.bin","byteLength":14681652}],"materials":[{"pbrMetallicRoughness":{"baseColorFactor":[1.0,1.0,1.0,0.0500000119],"baseColorTexture":{"index":2},"metallicRoughnessTexture":{"index":1}},"normalTexture":{"index":0,"scale":0.8},"occlusionTexture":{"index":1},"alphaMode":"BLEND","doubleSided":true,"name":"DG_Corner_Glass"},{"pbrMetallicRoughness":{"baseColorFactor":[1.0,1.0,1.0,0.0],"metallicRoughnessTexture":{"index":4}},"normalTexture":{"index":3},"emissiveFactor":[0.314159274,0.314159244,0.314159334],"alphaMode":"BLEND","name":"Decal"},{"pbrMetallicRoughness":{"baseColorTexture":{"index":7},"metallicRoughnessTexture":{"index":6}},"normalTexture":{"index":5},"occlusionTexture":{"index":6},"name":"DG_Corner_V2"}],"textures":[{"sampler":0,"source":0,"name":"DG_Corner_V2_Glass_Normal.png"},{"sampler":0,"source":1,"name":"DG_Corner_V2_Glass_AODG_Corner_V2_Glass_RoughnessDG_Corner_V2_Glass_Metallic.png"},{"sampler":0,"source":2,"name":"DG_Corner_V2_Glass_BaseColor_DG_Corner_V2_Glass_Opacity_alpha_Map__79.png"},{"sampler":0,"source":3,"name":"DG_Corner_Decal_Logo.png"},{"sampler":0,"source":4,"name":"DG_Corner_Decal_Logo0.png"},{"sampler":0,"source":5,"name":"DG_Corner_V2_Normal_Merged.png"},{"sampler":0,"source":6,"name":"DG_Corner_V2_AO_MergedDG_Corner_V2_Roughness_MergedDG_Corner_V2_Metallic_Merged.png"},{"sampler":0,"source":7,"name":"DG_Corner_V2_BaseColor_Merged.png"}],"images":[{"uri":"../glTF/DG_Corner_V2_Glass_Normal.png"},{"uri":"../glTF/DG_Corner_V2_Glass_AODG_Corner_V2_Glass_RoughnessDG_Corner_V2_Glass_Metallic.png"},{"uri":"../glTF/DG_Corner_V2_Glass_BaseColor_DG_Corner_V2_Glass_Opacity_alpha_Map__79.png"},{"uri":"../glTF/DG_Corner_Decal_Logo.png"},{"uri":"../glTF/DG_Corner_Decal_Logo0.png"},{"uri":"../glTF/DG_Corner_V2_Normal_Merged.png"},{"uri":"../glTF/DG_Corner_V2_AO_MergedDG_Corner_V2_Roughness_MergedDG_Corner_V2_Metallic_Merged.png"},{"uri":"../glTF/DG_Corner_V2_BaseColor_Merged.png"}],"samplers":[{"magFilter":9729,"minFilter":9987}]}