{
  "accessors": [
    {
      "bufferView": 0,
      "componentType": 5125,
      "count": 52296,
      "type": "SCALAR"
    },
    {
      "bufferView": 1,
      "componentType": 5126,
      "count": 12360,
      "max": [
        0.461943209171295,
        0.265042424201965,
        0.0319687724113464
      ],
      "min": [
        -0.461779326200485,
        -0.254396885633469,
        -0.00666105514392257
      ],
      "type": "VEC3"
    },
    {
      "bufferView": 2,
      "componentType": 5126,
      "count": 12360,
      "type": "VEC3"
    },
    {
      "bufferView": 3,
      "componentType": 5126,
      "count": 12360,
      "type": "VEC2"
    },
    {
      "bufferView": 4,
      "componentType": 5125,
      "count": 72,
      "type": "SCALAR"
    },
    {
      "bufferView": 5,
      "componentType": 5126,
      "count": 48,
      "max": [
        0.947661817073822,
        0.589008808135986,
        0.0336636416614056
      ],
      "min": [
        -0.945852339267731,
        -0.597514808177948,
        -0.0261123534291983
      ],
      "type": "VEC3"
    },
    {
      "bufferView": 6,
      "componentType": 5126,
      "count": 48,
      "type": "VEC3"
    },
    {
      "bufferView": 7,
      "componentType": 5126,
      "count": 48,
      "type": "VEC2"
    },
    {
      "bufferView": 8,
      "componentType": 5125,
      "count": 1080,
      "type": "SCALAR"
    },
    {
      "bufferView": 9,
      "componentType": 5126,
      "count": 624,
      "max": [
        0.945363461971283,
        0.586870014667511,
        0.0304869301617146
      ],
      "min": [
        -0.944661796092987,
        -0.575478136539459,
        -0.0212767124176025
      ],
      "type": "VEC3"
    },
    {
      "bufferView": 10,
      "componentType": 5126,
      "count": 624,
      "type": "VEC3"
    },
    {
      "bufferView": 11,
      "componentType": 5126,
      "count": 624,
      "type": "VEC2"
    },
    {
      "bufferView": 12,
      "componentType": 5125,
      "count": 8316,
      "type": "SCALAR"
    },
    {
      "bufferView": 13,
      "componentType": 5126,
      "count": 5391,
      "max": [
        0.977134764194489,
        0.617953956127167,
        0.0367628075182438
      ],
      "min": [
        -0.977081716060638,
        -0.620001494884491,
        -0.0284221153706312
      ],
      "type": "VEC3"
    },
    {
      "bufferView": 14,
      "componentType": 5126,
      "count": 5391,
      "type": "VEC3"
    },
    {
      "bufferView": 15,
      "componentType": 5126,
      "count": 5391,
      "type": "VEC2"
    },
    {
      "bufferView": 16,
      "componentType": 5125,
      "count": 11208,
      "type": "SCALAR"
    },
    {
      "bufferView": 17,
      "componentType": 5126,
      "count": 7356,
      "max": [
        0.999972462654114,
        0.640792369842529,
        0.0455654263496399
      ],
      "min": [
        -1.0,
        -0.640820264816284,
        -0.0484737083315849
      ],
      "type": "VEC3"
    },
    {
      "bufferView": 18,
      "componentType": 5126,
      "count": 7356,
      "type": "VEC3"
    },
    {
      "bufferView": 19,
      "componentType": 5126,
      "count": 7356,
      "type": "VEC2"
    },
    {
      "bufferView": 20,
      "componentType": 5125,
      "count": 10548,
      "type": "SCALAR"
    },
    {
      "bufferView": 21,
      "componentType": 5126,
      "count": 5415,
      "max": [
        1.00000011920929,
        0.640820264816284,
        0.0484737120568752
      ],
      "min": [
        -0.999947130680084,
        -0.640765428543091,
        -0.00940284971147776
      ],
      "type": "VEC3"
    },
    {
      "bufferView": 22,
      "componentType": 5126,
      "count": 5415,
      "type": "VEC3"
    },
    {
      "bufferView": 23,
      "componentType": 5126,
      "count": 5415,
      "type": "VEC2"
    }
  ],
  "asset": {
    "generator": "Substance Painter 2019.3.0",
    "version": "2.0"
  },
  "bufferViews": [
    {
      "buffer": 0,
      "byteLength": 209184,
      "target": 34963
    },
    {
      "buffer": 0,
      "byteLength": 148320,
      "byteOffset": 209184,
      "target": 34962
    },
    {
      "buffer": 0,
      "byteLength": 148320,
      "byteOffset": 357504,
      "target": 34962
    },
    {
      "buffer": 0,
      "byteLength": 98880,
      "byteOffset": 505824,
      "target": 34962
    },
    {
      "buffer": 0,
      "byteLength": 288,
      "byteOffset": 604704,
      "target": 34963
    },
    {
      "buffer": 0,
      "byteLength": 576,
      "byteOffset": 604992,
      "target": 34962
    },
    {
      "buffer": 0,
      "byteLength": 576,
      "byteOffset": 605568,
      "target": 34962
    },
    {
      "buffer": 0,
      "byteLength": 384,
      "byteOffset": 606144,
      "target": 34962
    },
    {
      "buffer": 0,
      "byteLength": 4320,
      "byteOffset": 606528,
      "target": 34963
    },
    {
      "buffer": 0,
      "byteLength": 7488,
      "byteOffset": 610848,
      "target": 34962
    },
    {
      "buffer": 0,
      "byteLength": 7488,
      "byteOffset": 618336,
      "target": 34962
    },
    {
      "buffer": 0,
      "byteLength": 4992,
      "byteOffset": 625824,
      "target": 34962
    },
    {
      "buffer": 0,
      "byteLength": 33264,
      "byteOffset": 630816,
      "target": 34963
    },
    {
      "buffer": 0,
      "byteLength": 64692,
      "byteOffset": 664080,
      "target": 34962
    },
    {
      "buffer": 0,
      "byteLength": 64692,
      "byteOffset": 728772,
      "target": 34962
    },
    {
      "buffer": 0,
      "byteLength": 43128,
      "byteOffset": 793464,
      "target": 34962
    },
    {
      "buffer": 0,
      "byteLength": 44832,
      "byteOffset": 836592,
      "target": 34963
    },
    {
      "buffer": 0,
      "byteLength": 88272,
      "byteOffset": 881424,
      "target": 34962
    },
    {
      "buffer": 0,
      "byteLength": 88272,
      "byteOffset": 969696,
      "target": 34962
    },
    {
      "buffer": 0,
      "byteLength": 58848,
      "byteOffset": 1057968,
      "target": 34962
    },
    {
      "buffer": 0,
      "byteLength": 42192,
      "byteOffset": 1116816,
      "target": 34963
    },
    {
      "buffer": 0,
      "byteLength": 64980,
      "byteOffset": 1159008,
      "target": 34962
    },
    {
      "buffer": 0,
      "byteLength": 64980,
      "byteOffset": 1223988,
      "target": 34962
    },
    {
      "buffer": 0,
      "byteLength": 43320,
      "byteOffset": 1288968,
      "target": 34962
    }
  ],
  "buffers": [
    {
      "byteLength": 1332288,
      "uri": "08_W_GlidingTriple121_v04.bin"
    }
  ],
  "images": [
    {
      "uri": "08_W_Exterior_baseColor.png"
    },
    {
      "uri": "08_W_Exterior_occlusionRoughnessMetallic.png"
    },
    {
      "uri": "08_W_Exterior_normal.png"
    },
    {
      "uri": "08_W_Exterior_emissive.png"
    },
    {
      "uri": "08_W_Glass_baseColor.png"
    },
    {
      "uri": "08_W_Glass_occlusionRoughnessMetallic.png"
    },
    {
      "uri": "08_W_Glass_normal.png"
    },
    {
      "uri": "08_W_Glass_emissive.png"
    },
    {
      "uri": "08_W_Gray_baseColor.png"
    },
    {
      "uri": "08_W_Gray_occlusionRoughnessMetallic.png"
    },
    {
      "uri": "08_W_Gray_normal.png"
    },
    {
      "uri": "08_W_Gray_emissive.png"
    },
    {
      "uri": "08_W_Hardware_baseColor.png"
    },
    {
      "uri": "08_W_Hardware_occlusionRoughnessMetallic.png"
    },
    {
      "uri": "08_W_Hardware_normal.png"
    },
    {
      "uri": "08_W_Hardware_emissive.png"
    },
    {
      "uri": "08_W_Interior_baseColor.png"
    },
    {
      "uri": "08_W_Interior_occlusionRoughnessMetallic.png"
    },
    {
      "uri": "08_W_Interior_normal.png"
    },
    {
      "uri": "08_W_Interior_emissive.png"
    },
    {
      "uri": "08_W_Spacers_baseColor.png"
    },
    {
      "uri": "08_W_Spacers_occlusionRoughnessMetallic.png"
    },
    {
      "uri": "08_W_Spacers_normal.png"
    },
    {
      "uri": "08_W_Spacers_emissive.png"
    }
  ],
  "materials": [
    {
      "alphaMode": "OPAQUE",
      "emissiveFactor": [
        1.0,
        1.0,
        1.0
      ],
      "emissiveTexture": {
        "index": 3
      },
      "name": "08_W_Exterior",
      "normalTexture": {
        "index": 2
      },
      "occlusionTexture": {
        "index": 1
      },
      "pbrMetallicRoughness": {
        "baseColorTexture": {
          "index": 0
        },
        "metallicRoughnessTexture": {
          "index": 1
        }
      }
    },
    {
      "alphaMode": "BLEND",
      "emissiveFactor": [
        1.0,
        1.0,
        1.0
      ],
      "emissiveTexture": {
        "index": 7
      },
      "name": "08_W_Glass",
      "normalTexture": {
        "index": 6
      },
      "occlusionTexture": {
        "index": 5
      },
      "pbrMetallicRoughness": {
        "baseColorTexture": {
          "index": 4
        },
        "metallicRoughnessTexture": {
          "index": 5
        }
      }
    },
    {
      "alphaMode": "OPAQUE",
      "emissiveFactor": [
        1.0,
        1.0,
        1.0
      ],
      "emissiveTexture": {
        "index": 11
      },
      "name": "08_W_Gray",
      "normalTexture": {
        "index": 10
      },
      "occlusionTexture": {
        "index": 9
      },
      "pbrMetallicRoughness": {
        "baseColorTexture": {
          "index": 8
        },
        "metallicRoughnessTexture": {
          "index": 9
        }
      }
    },
    {
      "alphaMode": "OPAQUE",
      "emissiveFactor": [
        1.0,
        1.0,
        1.0
      ],
      "emissiveTexture": {
        "index": 15
      },
      "name": "08_W_Hardware",
      "normalTexture": {
        "index": 14
      },
      "occlusionTexture": {
        "index": 13
      },
      "pbrMetallicRoughness": {
        "baseColorTexture": {
          "index": 12
        },
        "metallicRoughnessTexture": {
          "index": 13
        }
      }
    },
    {
      "alphaMode": "OPAQUE",
      "emissiveFactor": [
        1.0,
        1.0,
        1.0
      ],
      "emissiveTexture": {
        "index": 19
      },
      "name": "08_W_Interior",
      "normalTexture": {
        "index": 18
      },
      "occlusionTexture": {
        "index": 17
      },
      "pbrMetallicRoughness": {
        "baseColorTexture": {
          "index": 16
        },
        "metallicRoughnessTexture": {
          "index": 17
        }
      }
    },
    {
      "alphaMode": "OPAQUE",
      "emissiveFactor": [
        1.0,
        1.0,
        1.0
      ],
      "emissiveTexture": {
        "index": 23
      },
      "name": "08_W_Spacers",
      "normalTexture": {
        "index": 22
      },
      "occlusionTexture": {
        "index": 21
      },
      "pbrMetallicRoughness": {
        "baseColorTexture": {
          "index": 20
        },
        "metallicRoughnessTexture": {
          "index": 21
        }
      }
    }
  ],
  "meshes": [
    {
      "name": "08_W_Hardware",
      "primitives": [
        {
          "attributes": {
            "NORMAL": 2,
            "POSITION": 1,
            "TEXCOORD_0": 3
          },
          "indices": 0,
          "material": 3,
          "mode": 4
        }
      ]
    },
    {
      "name": "08_W_Glass",
      "primitives": [
        {
          "attributes": {
            "NORMAL": 6,
            "POSITION": 5,
            "TEXCOORD_0": 7
          },
          "indices": 4,
          "material": 1,
          "mode": 4
        }
      ]
    },
    {
      "name": "08_W_Spacer",
      "primitives": [
        {
          "attributes": {
            "NORMAL": 10,
            "POSITION": 9,
            "TEXCOORD_0": 11
          },
          "indices": 8,
          "material": 5,
          "mode": 4
        }
      ]
    },
    {
      "name": "08_W_Gray",
      "primitives": [
        {
          "attributes": {
            "NORMAL": 14,
            "POSITION": 13,
            "TEXCOORD_0": 15
          },
          "indices": 12,
          "material": 2,
          "mode": 4
        }
      ]
    },
    {
      "name": "08_W_Exterior",
      "primitives": [
        {
          "attributes": {
            "NORMAL": 18,
            "POSITION": 17,
            "TEXCOORD_0": 19
          },
          "indices": 16,
          "material": 0,
          "mode": 4
        }
      ]
    },
    {
      "name": "08_W_Interior",
      "primitives": [
        {
          "attributes": {
            "NORMAL": 22,
            "POSITION": 21,
            "TEXCOORD_0": 23
          },
          "indices": 20,
          "material": 4,
          "mode": 4
        }
      ]
    }
  ],
  "nodes": [
    {
      "children": [
        1,
        3,
        5,
        7,
        9,
        11
      ],
      "name": "root",
      "scale": [
        1.07800483703613,
        1.07800483703613,
        1.07800483703613
      ],
      "translation": [
        -0.0281015634536743,
        0.690746903419495,
        -0.00746772065758705
      ]
    },
    {
      "children": [
        2
      ],
      "name": "08_W_Hardware"
    },
    {
      "mesh": 0,
      "name": "08_W_Hardware"
    },
    {
      "children": [
        4
      ],
      "name": "08_W_Glass"
    },
    {
      "mesh": 1,
      "name": "08_W_Glass"
    },
    {
      "children": [
        6
      ],
      "name": "08_W_Spacer"
    },
    {
      "mesh": 2,
      "name": "08_W_Spacer"
    },
    {
      "children": [
        8
      ],
      "name": "08_W_Gray"
    },
    {
      "mesh": 3,
      "name": "08_W_Gray"
    },
    {
      "children": [
        10
      ],
      "name": "08_W_Exterior"
    },
    {
      "mesh": 4,
      "name": "08_W_Exterior"
    },
    {
      "children": [
        12
      ],
      "name": "08_W_Interior"
    },
    {
      "mesh": 5,
      "name": "08_W_Interior"
    }
  ],
  "samplers": [
    {
      "magFilter": 9729,
      "minFilter": 9985,
      "wrapS": 10497,
      "wrapT": 10497
    }
  ],
  "scene": 0,
  "scenes": [
    {
      "name": "Scene",
      "nodes": [
        0
      ]
    }
  ],
  "textures": [
    {
      "sampler": 0,
      "source": 0
    },
    {
      "sampler": 0,
      "source": 1
    },
    {
      "sampler": 0,
      "source": 2
    },
    {
      "sampler": 0,
      "source": 3
    },
    {
      "sampler": 0,
      "source": 4
    },
    {
      "sampler": 0,
      "source": 5
    },
    {
      "sampler": 0,
      "source": 6
    },
    {
      "sampler": 0,
      "source": 7
    },
    {
      "sampler": 0,
      "source": 8
    },
    {
      "sampler": 0,
      "source": 9
    },
    {
      "sampler": 0,
      "source": 10
    },
    {
      "sampler": 0,
      "source": 11
    },
    {
      "sampler": 0,
      "source": 12
    },
    {
      "sampler": 0,
      "source": 13
    },
    {
      "sampler": 0,
      "source": 14
    },
    {
      "sampler": 0,
      "source": 15
    },
    {
      "sampler": 0,
      "source": 16
    },
    {
      "sampler": 0,
      "source": 17
    },
    {
      "sampler": 0,
      "source": 18
    },
    {
      "sampler": 0,
      "source": 19
    },
    {
      "sampler": 0,
      "source": 20
    },
    {
      "sampler": 0,
      "source": 21
    },
    {
      "sampler": 0,
      "source": 22
    },
    {
      "sampler": 0,
      "source": 23
    }
  ]
}