{
  "accessors": [
    {
      "bufferView": 0,
      "componentType": 5125,
      "count": 9537,
      "type": "SCALAR"
    },
    {
      "bufferView": 1,
      "componentType": 5126,
      "count": 4983,
      "max": [
        1.59549725055695,
        4.07999420166016,
        0.137193366885185
      ],
      "min": [
        -1.59579491615295,
        -0.999932944774628,
        -0.179500758647919
      ],
      "type": "VEC3"
    },
    {
      "bufferView": 2,
      "componentType": 5126,
      "count": 4983,
      "type": "VEC3"
    },
    {
      "bufferView": 3,
      "componentType": 5126,
      "count": 4983,
      "type": "VEC2"
    },
    {
      "bufferView": 4,
      "componentType": 5125,
      "count": 5346,
      "type": "SCALAR"
    },
    {
      "bufferView": 5,
      "componentType": 5126,
      "count": 2856,
      "max": [
        1.59549725055695,
        4.07915782928467,
        0.145631745457649
      ],
      "min": [
        -1.59579491615295,
        -1.00000560283661,
        -0.179500758647919
      ],
      "type": "VEC3"
    },
    {
      "bufferView": 6,
      "componentType": 5126,
      "count": 2856,
      "type": "VEC3"
    },
    {
      "bufferView": 7,
      "componentType": 5126,
      "count": 2856,
      "type": "VEC2"
    },
    {
      "bufferView": 8,
      "componentType": 5125,
      "count": 8172,
      "type": "SCALAR"
    },
    {
      "bufferView": 9,
      "componentType": 5126,
      "count": 4644,
      "max": [
        1.56890916824341,
        4.05617046356201,
        0.0935283601284027
      ],
      "min": [
        -1.56918859481812,
        -0.929152369499207,
        -0.0975720137357712
      ],
      "type": "VEC3"
    },
    {
      "bufferView": 10,
      "componentType": 5126,
      "count": 4644,
      "type": "VEC3"
    },
    {
      "bufferView": 11,
      "componentType": 5126,
      "count": 4644,
      "type": "VEC2"
    },
    {
      "bufferView": 12,
      "componentType": 5125,
      "count": 197652,
      "type": "SCALAR"
    },
    {
      "bufferView": 13,
      "componentType": 5126,
      "count": 37899,
      "max": [
        1.09383165836334,
        2.13360023498535,
        0.204191267490387
      ],
      "min": [
        -1.04786372184753,
        -0.827291369438171,
        -0.0425406359136105
      ],
      "type": "VEC3"
    },
    {
      "bufferView": 14,
      "componentType": 5126,
      "count": 37899,
      "type": "VEC3"
    },
    {
      "bufferView": 15,
      "componentType": 5126,
      "count": 37899,
      "type": "VEC2"
    },
    {
      "bufferView": 16,
      "componentType": 5125,
      "count": 11307,
      "type": "SCALAR"
    },
    {
      "bufferView": 17,
      "componentType": 5126,
      "count": 5980,
      "max": [
        1.59549725055695,
        4.07975769042969,
        0.145631745457649
      ],
      "min": [
        -1.59579491615295,
        -1.00000560283661,
        -0.109247542917728
      ],
      "type": "VEC3"
    },
    {
      "bufferView": 18,
      "componentType": 5126,
      "count": 5980,
      "type": "VEC3"
    },
    {
      "bufferView": 19,
      "componentType": 5126,
      "count": 5980,
      "type": "VEC2"
    },
    {
      "bufferView": 20,
      "componentType": 5125,
      "count": 7848,
      "type": "SCALAR"
    },
    {
      "bufferView": 21,
      "componentType": 5126,
      "count": 4688,
      "max": [
        1.57029139995575,
        4.02629089355469,
        0.0855264216661453
      ],
      "min": [
        -1.56978905200958,
        -0.939081847667694,
        -0.0837505161762238
      ],
      "type": "VEC3"
    },
    {
      "bufferView": 22,
      "componentType": 5126,
      "count": 4688,
      "type": "VEC3"
    },
    {
      "bufferView": 23,
      "componentType": 5126,
      "count": 4688,
      "type": "VEC2"
    },
    {
      "bufferView": 24,
      "componentType": 5125,
      "count": 720,
      "type": "SCALAR"
    },
    {
      "bufferView": 25,
      "componentType": 5126,
      "count": 320,
      "max": [
        1.41823673248291,
        3.89204001426697,
        0.0815072879195213
      ],
      "min": [
        -1.41249656677246,
        -0.773023843765259,
        -0.0926435589790344
      ],
      "type": "VEC3"
    },
    {
      "bufferView": 26,
      "componentType": 5126,
      "count": 320,
      "type": "VEC3"
    },
    {
      "bufferView": 27,
      "componentType": 5126,
      "count": 320,
      "type": "VEC2"
    },
    {
      "bufferView": 28,
      "componentType": 5125,
      "count": 48,
      "type": "SCALAR"
    },
    {
      "bufferView": 29,
      "componentType": 5126,
      "count": 32,
      "max": [
        1.45146989822388,
        3.9163806438446,
        0.0935518965125084
      ],
      "min": [
        -1.42501068115234,
        -0.794147610664368,
        -0.102007620036602
      ],
      "type": "VEC3"
    },
    {
      "bufferView": 30,
      "componentType": 5126,
      "count": 32,
      "type": "VEC3"
    },
    {
      "bufferView": 31,
      "componentType": 5126,
      "count": 32,
      "type": "VEC2"
    }
  ],
  "asset": {
    "generator": "Substance Painter 2019.2.1",
    "version": "2.0"
  },
  "bufferViews": [
    {
      "buffer": 0,
      "byteLength": 38148,
      "target": 34963
    },
    {
      "buffer": 0,
      "byteLength": 59796,
      "byteOffset": 38148,
      "target": 34962
    },
    {
      "buffer": 0,
      "byteLength": 59796,
      "byteOffset": 97944,
      "target": 34962
    },
    {
      "buffer": 0,
      "byteLength": 39864,
      "byteOffset": 157740,
      "target": 34962
    },
    {
      "buffer": 0,
      "byteLength": 21384,
      "byteOffset": 197604,
      "target": 34963
    },
    {
      "buffer": 0,
      "byteLength": 34272,
      "byteOffset": 218988,
      "target": 34962
    },
    {
      "buffer": 0,
      "byteLength": 34272,
      "byteOffset": 253260,
      "target": 34962
    },
    {
      "buffer": 0,
      "byteLength": 22848,
      "byteOffset": 287532,
      "target": 34962
    },
    {
      "buffer": 0,
      "byteLength": 32688,
      "byteOffset": 310380,
      "target": 34963
    },
    {
      "buffer": 0,
      "byteLength": 55728,
      "byteOffset": 343068,
      "target": 34962
    },
    {
      "buffer": 0,
      "byteLength": 55728,
      "byteOffset": 398796,
      "target": 34962
    },
    {
      "buffer": 0,
      "byteLength": 37152,
      "byteOffset": 454524,
      "target": 34962
    },
    {
      "buffer": 0,
      "byteLength": 790608,
      "byteOffset": 491676,
      "target": 34963
    },
    {
      "buffer": 0,
      "byteLength": 454788,
      "byteOffset": 1282284,
      "target": 34962
    },
    {
      "buffer": 0,
      "byteLength": 454788,
      "byteOffset": 1737072,
      "target": 34962
    },
    {
      "buffer": 0,
      "byteLength": 303192,
      "byteOffset": 2191860,
      "target": 34962
    },
    {
      "buffer": 0,
      "byteLength": 45228,
      "byteOffset": 2495052,
      "target": 34963
    },
    {
      "buffer": 0,
      "byteLength": 71760,
      "byteOffset": 2540280,
      "target": 34962
    },
    {
      "buffer": 0,
      "byteLength": 71760,
      "byteOffset": 2612040,
      "target": 34962
    },
    {
      "buffer": 0,
      "byteLength": 47840,
      "byteOffset": 2683800,
      "target": 34962
    },
    {
      "buffer": 0,
      "byteLength": 31392,
      "byteOffset": 2731640,
      "target": 34963
    },
    {
      "buffer": 0,
      "byteLength": 56256,
      "byteOffset": 2763032,
      "target": 34962
    },
    {
      "buffer": 0,
      "byteLength": 56256,
      "byteOffset": 2819288,
      "target": 34962
    },
    {
      "buffer": 0,
      "byteLength": 37504,
      "byteOffset": 2875544,
      "target": 34962
    },
    {
      "buffer": 0,
      "byteLength": 2880,
      "byteOffset": 2913048,
      "target": 34963
    },
    {
      "buffer": 0,
      "byteLength": 3840,
      "byteOffset": 2915928,
      "target": 34962
    },
    {
      "buffer": 0,
      "byteLength": 3840,
      "byteOffset": 2919768,
      "target": 34962
    },
    {
      "buffer": 0,
      "byteLength": 2560,
      "byteOffset": 2923608,
      "target": 34962
    },
    {
      "buffer": 0,
      "byteLength": 192,
      "byteOffset": 2926168,
      "target": 34963
    },
    {
      "buffer": 0,
      "byteLength": 384,
      "byteOffset": 2926360,
      "target": 34962
    },
    {
      "buffer": 0,
      "byteLength": 384,
      "byteOffset": 2926744,
      "target": 34962
    },
    {
      "buffer": 0,
      "byteLength": 256,
      "byteOffset": 2927128,
      "target": 34962
    }
  ],
  "buffers": [
    {
      "byteLength": 2927384,
      "uri": "01_Window.bin"
    }
  ],
  "images": [
    {
      "uri": "01_W_Exterior_baseColor.png"
    },
    {
      "uri": "01_W_Exterior_occlusionRoughnessMetallic.png"
    },
    {
      "uri": "01_W_Exterior_normal.png"
    },
    {
      "uri": "01_W_Exterior_emissive.png"
    },
    {
      "uri": "01_W_Fibrex_baseColor.png"
    },
    {
      "uri": "01_W_Fibrex_occlusionRoughnessMetallic.png"
    },
    {
      "uri": "01_W_Fibrex_normal.png"
    },
    {
      "uri": "01_W_Fibrex_emissive.png"
    },
    {
      "uri": "01_W_Glass_baseColor.png"
    },
    {
      "uri": "01_W_Glass_occlusionRoughnessMetallic.png"
    },
    {
      "uri": "01_W_Glass_normal.png"
    },
    {
      "uri": "01_W_Glass_emissive.png"
    },
    {
      "uri": "01_W_Gray_baseColor.png"
    },
    {
      "uri": "01_W_Gray_occlusionRoughnessMetallic.png"
    },
    {
      "uri": "01_W_Gray_normal.png"
    },
    {
      "uri": "01_W_Gray_emissive.png"
    },
    {
      "uri": "01_W_Hardware_baseColor.png"
    },
    {
      "uri": "01_W_Hardware_occlusionRoughnessMetallic.png"
    },
    {
      "uri": "01_W_Hardware_normal.png"
    },
    {
      "uri": "01_W_Hardware_emissive.png"
    },
    {
      "uri": "01_W_Interior_baseColor.png"
    },
    {
      "uri": "01_W_Interior_occlusionRoughnessMetallic.png"
    },
    {
      "uri": "01_W_Interior_normal.png"
    },
    {
      "uri": "01_W_Interior_emissive.png"
    },
    {
      "uri": "01_W_Sandtone_baseColor.png"
    },
    {
      "uri": "01_W_Sandtone_occlusionRoughnessMetallic.png"
    },
    {
      "uri": "01_W_Sandtone_normal.png"
    },
    {
      "uri": "01_W_Sandtone_emissive.png"
    },
    {
      "uri": "01_W_Spacer_baseColor.png"
    },
    {
      "uri": "01_W_Spacer_occlusionRoughnessMetallic.png"
    },
    {
      "uri": "01_W_Spacer_normal.png"
    },
    {
      "uri": "01_W_Spacer_emissive.png"
    }
  ],
  "materials": [
    {
      "alphaMode": "OPAQUE",
      "emissiveFactor": [
        1.0,
        1.0,
        1.0
      ],
      "emissiveTexture": {
        "index": 3
      },
      "name": "01_W_Exterior",
      "normalTexture": {
        "index": 2
      },
      "occlusionTexture": {
        "index": 1
      },
      "pbrMetallicRoughness": {
        "baseColorTexture": {
          "index": 0
        },
        "metallicRoughnessTexture": {
          "index": 1
        }
      }
    },
    {
      "alphaMode": "OPAQUE",
      "emissiveFactor": [
        1.0,
        1.0,
        1.0
      ],
      "emissiveTexture": {
        "index": 7
      },
      "name": "01_W_Fibrex",
      "normalTexture": {
        "index": 6
      },
      "occlusionTexture": {
        "index": 5
      },
      "pbrMetallicRoughness": {
        "baseColorTexture": {
          "index": 4
        },
        "metallicRoughnessTexture": {
          "index": 5
        }
      }
    },
    {
      "alphaMode": "BLEND",
      "emissiveFactor": [
        1.0,
        1.0,
        1.0
      ],
      "emissiveTexture": {
        "index": 11
      },
      "name": "01_W_Glass",
      "normalTexture": {
        "index": 10
      },
      "occlusionTexture": {
        "index": 9
      },
      "pbrMetallicRoughness": {
        "baseColorTexture": {
          "index": 8
        },
        "metallicRoughnessTexture": {
          "index": 9
        }
      }
    },
    {
      "alphaMode": "OPAQUE",
      "emissiveFactor": [
        1.0,
        1.0,
        1.0
      ],
      "emissiveTexture": {
        "index": 15
      },
      "name": "01_W_Gray",
      "normalTexture": {
        "index": 14
      },
      "occlusionTexture": {
        "index": 13
      },
      "pbrMetallicRoughness": {
        "baseColorTexture": {
          "index": 12
        },
        "metallicRoughnessTexture": {
          "index": 13
        }
      }
    },
    {
      "alphaMode": "OPAQUE",
      "emissiveFactor": [
        1.0,
        1.0,
        1.0
      ],
      "emissiveTexture": {
        "index": 19
      },
      "name": "01_W_Hardware",
      "normalTexture": {
        "index": 18
      },
      "occlusionTexture": {
        "index": 17
      },
      "pbrMetallicRoughness": {
        "baseColorTexture": {
          "index": 16
        },
        "metallicRoughnessTexture": {
          "index": 17
        }
      }
    },
    {
      "alphaMode": "OPAQUE",
      "emissiveFactor": [
        1.0,
        1.0,
        1.0
      ],
      "emissiveTexture": {
        "index": 23
      },
      "name": "01_W_Interior",
      "normalTexture": {
        "index": 22
      },
      "occlusionTexture": {
        "index": 21
      },
      "pbrMetallicRoughness": {
        "baseColorTexture": {
          "index": 20
        },
        "metallicRoughnessTexture": {
          "index": 21
        }
      }
    },
    {
      "alphaMode": "OPAQUE",
      "emissiveFactor": [
        1.0,
        1.0,
        1.0
      ],
      "emissiveTexture": {
        "index": 27
      },
      "name": "01_W_Sandtone",
      "normalTexture": {
        "index": 26
      },
      "occlusionTexture": {
        "index": 25
      },
      "pbrMetallicRoughness": {
        "baseColorTexture": {
          "index": 24
        },
        "metallicRoughnessTexture": {
          "index": 25
        }
      }
    },
    {
      "alphaMode": "OPAQUE",
      "emissiveFactor": [
        1.0,
        1.0,
        1.0
      ],
      "emissiveTexture": {
        "index": 31
      },
      "name": "01_W_Spacer",
      "normalTexture": {
        "index": 30
      },
      "occlusionTexture": {
        "index": 29
      },
      "pbrMetallicRoughness": {
        "baseColorTexture": {
          "index": 28
        },
        "metallicRoughnessTexture": {
          "index": 29
        }
      }
    }
  ],
  "meshes": [
    {
      "name": "01_W_Exterior",
      "primitives": [
        {
          "attributes": {
            "NORMAL": 2,
            "POSITION": 1,
            "TEXCOORD_0": 3
          },
          "indices": 0,
          "material": 0,
          "mode": 4
        }
      ]
    },
    {
      "name": "01_W_Fibrex",
      "primitives": [
        {
          "attributes": {
            "NORMAL": 6,
            "POSITION": 5,
            "TEXCOORD_0": 7
          },
          "indices": 4,
          "material": 1,
          "mode": 4
        }
      ]
    },
    {
      "name": "01_W_Gray",
      "primitives": [
        {
          "attributes": {
            "NORMAL": 10,
            "POSITION": 9,
            "TEXCOORD_0": 11
          },
          "indices": 8,
          "material": 3,
          "mode": 4
        }
      ]
    },
    {
      "name": "01_W_Hardware",
      "primitives": [
        {
          "attributes": {
            "NORMAL": 14,
            "POSITION": 13,
            "TEXCOORD_0": 15
          },
          "indices": 12,
          "material": 4,
          "mode": 4
        }
      ]
    },
    {
      "name": "01_W_Interior",
      "primitives": [
        {
          "attributes": {
            "NORMAL": 18,
            "POSITION": 17,
            "TEXCOORD_0": 19
          },
          "indices": 16,
          "material": 5,
          "mode": 4
        }
      ]
    },
    {
      "name": "01_W_Sandtone",
      "primitives": [
        {
          "attributes": {
            "NORMAL": 22,
            "POSITION": 21,
            "TEXCOORD_0": 23
          },
          "indices": 20,
          "material": 6,
          "mode": 4
        }
      ]
    },
    {
      "name": "01_W_Spacer",
      "primitives": [
        {
          "attributes": {
            "NORMAL": 26,
            "POSITION": 25,
            "TEXCOORD_0": 27
          },
          "indices": 24,
          "material": 7,
          "mode": 4
        }
      ]
    },
    {
      "name": "01_W_Glass",
      "primitives": [
        {
          "attributes": {
            "NORMAL": 30,
            "POSITION": 29,
            "TEXCOORD_0": 31
          },
          "indices": 28,
          "material": 2,
          "mode": 4
        }
      ]
    }
  ],
  "nodes": [
    {
      "children": [
        1,
        3,
        5,
        7,
        9,
        11,
        13,
        15
      ],
      "name": "root",
      "scale": [
        27.4793834686279,
        27.4793834686279,
        27.4793834686279
      ],
      "translation": [
        -0.002655029296875,
        27.479284286499,
        0.220285534858704
      ]
    },
    {
      "children": [
        2
      ],
      "name": "01_W_Exterior"
    },
    {
      "mesh": 0,
      "name": "01_W_Exterior"
    },
    {
      "children": [
        4
      ],
      "name": "01_W_Fibrex"
    },
    {
      "mesh": 1,
      "name": "01_W_Fibrex"
    },
    {
      "children": [
        6
      ],
      "name": "01_W_Gray"
    },
    {
      "mesh": 2,
      "name": "01_W_Gray"
    },
    {
      "children": [
        8
      ],
      "name": "01_W_Hardware"
    },
    {
      "mesh": 3,
      "name": "01_W_Hardware"
    },
    {
      "children": [
        10
      ],
      "name": "01_W_Interior"
    },
    {
      "mesh": 4,
      "name": "01_W_Interior"
    },
    {
      "children": [
        12
      ],
      "name": "01_W_Sandtone"
    },
    {
      "mesh": 5,
      "name": "01_W_Sandtone"
    },
    {
      "children": [
        14
      ],
      "name": "01_W_Spacer"
    },
    {
      "mesh": 6,
      "name": "01_W_Spacer"
    },
    {
      "children": [
        16
      ],
      "name": "01_W_Glass"
    },
    {
      "mesh": 7,
      "name": "01_W_Glass"
    }
  ],
  "samplers": [
    {
      "magFilter": 9729,
      "minFilter": 9985,
      "wrapS": 10497,
      "wrapT": 10497
    }
  ],
  "scene": 0,
  "scenes": [
    {
      "name": "Scene",
      "nodes": [
        0
      ]
    }
  ],
  "textures": [
    {
      "sampler": 0,
      "source": 0
    },
    {
      "sampler": 0,
      "source": 1
    },
    {
      "sampler": 0,
      "source": 2
    },
    {
      "sampler": 0,
      "source": 3
    },
    {
      "sampler": 0,
      "source": 4
    },
    {
      "sampler": 0,
      "source": 5
    },
    {
      "sampler": 0,
      "source": 6
    },
    {
      "sampler": 0,
      "source": 7
    },
    {
      "sampler": 0,
      "source": 8
    },
    {
      "sampler": 0,
      "source": 9
    },
    {
      "sampler": 0,
      "source": 10
    },
    {
      "sampler": 0,
      "source": 11
    },
    {
      "sampler": 0,
      "source": 12
    },
    {
      "sampler": 0,
      "source": 13
    },
    {
      "sampler": 0,
      "source": 14
    },
    {
      "sampler": 0,
      "source": 15
    },
    {
      "sampler": 0,
      "source": 16
    },
    {
      "sampler": 0,
      "source": 17
    },
    {
      "sampler": 0,
      "source": 18
    },
    {
      "sampler": 0,
      "source": 19
    },
    {
      "sampler": 0,
      "source": 20
    },
    {
      "sampler": 0,
      "source": 21
    },
    {
      "sampler": 0,
      "source": 22
    },
    {
      "sampler": 0,
      "source": 23
    },
    {
      "sampler": 0,
      "source": 24
    },
    {
      "sampler": 0,
      "source": 25
    },
    {
      "sampler": 0,
      "source": 26
    },
    {
      "sampler": 0,
      "source": 27
    },
    {
      "sampler": 0,
      "source": 28
    },
    {
      "sampler": 0,
      "source": 29
    },
    {
      "sampler": 0,
      "source": 30
    },
    {
      "sampler": 0,
      "source": 31
    }
  ]
}