{
  "accessors": [
    {
      "bufferView": 0,
      "componentType": 5125,
      "count": 4020,
      "type": "SCALAR"
    },
    {
      "bufferView": 1,
      "componentType": 5126,
      "count": 3085,
      "max": [
        0.875350415706635,
        -0.944902777671814,
        0.0556496270000935
      ],
      "min": [
        -0.874986469745636,
        -1.0,
        -0.101540744304657
      ],
      "type": "VEC3"
    },
    {
      "bufferView": 2,
      "componentType": 5126,
      "count": 3085,
      "type": "VEC3"
    },
    {
      "bufferView": 3,
      "componentType": 5126,
      "count": 3085,
      "type": "VEC2"
    },
    {
      "bufferView": 4,
      "componentType": 5125,
      "count": 576,
      "type": "SCALAR"
    },
    {
      "bufferView": 5,
      "componentType": 5126,
      "count": 432,
      "max": [
        0.749871253967285,
        0.865178287029266,
        0.0220319572836161
      ],
      "min": [
        -0.74950760602951,
        -0.753298044204712,
        0.0107265254482627
      ],
      "type": "VEC3"
    },
    {
      "bufferView": 6,
      "componentType": 5126,
      "count": 432,
      "type": "VEC3"
    },
    {
      "bufferView": 7,
      "componentType": 5126,
      "count": 432,
      "type": "VEC2"
    },
    {
      "bufferView": 8,
      "componentType": 5125,
      "count": 11205,
      "type": "SCALAR"
    },
    {
      "bufferView": 9,
      "componentType": 5126,
      "count": 4799,
      "max": [
        0.875374853610992,
        0.999390721321106,
        0.0545260980725288
      ],
      "min": [
        -0.875010788440704,
        -0.995913207530975,
        -0.0571429580450058
      ],
      "type": "VEC3"
    },
    {
      "bufferView": 10,
      "componentType": 5126,
      "count": 4799,
      "type": "VEC3"
    },
    {
      "bufferView": 11,
      "componentType": 5126,
      "count": 4799,
      "type": "VEC2"
    },
    {
      "bufferView": 12,
      "componentType": 5125,
      "count": 8109,
      "type": "SCALAR"
    },
    {
      "bufferView": 13,
      "componentType": 5126,
      "count": 4111,
      "max": [
        0.875010371208191,
        1.0,
        0.0133631741628051
      ],
      "min": [
        -0.875374853610992,
        -0.995887696743011,
        -0.0980111435055733
      ],
      "type": "VEC3"
    },
    {
      "bufferView": 14,
      "componentType": 5126,
      "count": 4111,
      "type": "VEC3"
    },
    {
      "bufferView": 15,
      "componentType": 5126,
      "count": 4111,
      "type": "VEC2"
    },
    {
      "bufferView": 16,
      "componentType": 5125,
      "count": 36378,
      "type": "SCALAR"
    },
    {
      "bufferView": 17,
      "componentType": 5126,
      "count": 11688,
      "max": [
        0.844505488872528,
        0.80624121427536,
        0.101540744304657
      ],
      "min": [
        -0.861194729804993,
        -0.856350243091583,
        -0.0691855624318123
      ],
      "type": "VEC3"
    },
    {
      "bufferView": 18,
      "componentType": 5126,
      "count": 11688,
      "type": "VEC3"
    },
    {
      "bufferView": 19,
      "componentType": 5126,
      "count": 11688,
      "type": "VEC2"
    },
    {
      "bufferView": 20,
      "componentType": 5125,
      "count": 24,
      "type": "SCALAR"
    },
    {
      "bufferView": 21,
      "componentType": 5126,
      "count": 16,
      "max": [
        0.751205325126648,
        0.883005261421204,
        0.0270498748868704
      ],
      "min": [
        -0.758491575717926,
        -0.762193441390991,
        0.00597679195925593
      ],
      "type": "VEC3"
    },
    {
      "bufferView": 22,
      "componentType": 5126,
      "count": 16,
      "type": "VEC3"
    },
    {
      "bufferView": 23,
      "componentType": 5126,
      "count": 16,
      "type": "VEC2"
    }
  ],
  "asset": {
    "generator": "Substance Painter 2019.2.3",
    "version": "2.0"
  },
  "bufferViews": [
    {
      "buffer": 0,
      "byteLength": 16080,
      "target": 34963
    },
    {
      "buffer": 0,
      "byteLength": 37020,
      "byteOffset": 16080,
      "target": 34962
    },
    {
      "buffer": 0,
      "byteLength": 37020,
      "byteOffset": 53100,
      "target": 34962
    },
    {
      "buffer": 0,
      "byteLength": 24680,
      "byteOffset": 90120,
      "target": 34962
    },
    {
      "buffer": 0,
      "byteLength": 2304,
      "byteOffset": 114800,
      "target": 34963
    },
    {
      "buffer": 0,
      "byteLength": 5184,
      "byteOffset": 117104,
      "target": 34962
    },
    {
      "buffer": 0,
      "byteLength": 5184,
      "byteOffset": 122288,
      "target": 34962
    },
    {
      "buffer": 0,
      "byteLength": 3456,
      "byteOffset": 127472,
      "target": 34962
    },
    {
      "buffer": 0,
      "byteLength": 44820,
      "byteOffset": 130928,
      "target": 34963
    },
    {
      "buffer": 0,
      "byteLength": 57588,
      "byteOffset": 175748,
      "target": 34962
    },
    {
      "buffer": 0,
      "byteLength": 57588,
      "byteOffset": 233336,
      "target": 34962
    },
    {
      "buffer": 0,
      "byteLength": 38392,
      "byteOffset": 290924,
      "target": 34962
    },
    {
      "buffer": 0,
      "byteLength": 32436,
      "byteOffset": 329316,
      "target": 34963
    },
    {
      "buffer": 0,
      "byteLength": 49332,
      "byteOffset": 361752,
      "target": 34962
    },
    {
      "buffer": 0,
      "byteLength": 49332,
      "byteOffset": 411084,
      "target": 34962
    },
    {
      "buffer": 0,
      "byteLength": 32888,
      "byteOffset": 460416,
      "target": 34962
    },
    {
      "buffer": 0,
      "byteLength": 145512,
      "byteOffset": 493304,
      "target": 34963
    },
    {
      "buffer": 0,
      "byteLength": 140256,
      "byteOffset": 638816,
      "target": 34962
    },
    {
      "buffer": 0,
      "byteLength": 140256,
      "byteOffset": 779072,
      "target": 34962
    },
    {
      "buffer": 0,
      "byteLength": 93504,
      "byteOffset": 919328,
      "target": 34962
    },
    {
      "buffer": 0,
      "byteLength": 96,
      "byteOffset": 1012832,
      "target": 34963
    },
    {
      "buffer": 0,
      "byteLength": 192,
      "byteOffset": 1012928,
      "target": 34962
    },
    {
      "buffer": 0,
      "byteLength": 192,
      "byteOffset": 1013120,
      "target": 34962
    },
    {
      "buffer": 0,
      "byteLength": 128,
      "byteOffset": 1013312,
      "target": 34962
    }
  ],
  "buffers": [
    {
      "byteLength": 1013440,
      "uri": "02_D_FrenchwoodInswingPatio_v02.bin"
    }
  ],
  "images": [
    {
      "uri": "02_D_Exterior_baseColor.png"
    },
    {
      "uri": "02_D_Exterior_occlusionRoughnessMetallic.png"
    },
    {
      "uri": "02_D_Exterior_normal.png"
    },
    {
      "uri": "02_D_Glass_baseColor.png"
    },
    {
      "uri": "02_D_Glass_occlusionRoughnessMetallic.png"
    },
    {
      "uri": "02_D_Glass_normal.png"
    },
    {
      "uri": "02_D_Hardware_baseColor.png"
    },
    {
      "uri": "02_D_Hardware_occlusionRoughnessMetallic.png"
    },
    {
      "uri": "02_D_Hardware_normal.png"
    },
    {
      "uri": "02_D_Interior_baseColor.png"
    },
    {
      "uri": "02_D_Interior_occlusionRoughnessMetallic.png"
    },
    {
      "uri": "02_D_Interior_normal.png"
    },
    {
      "uri": "02_D_Sill_baseColor.png"
    },
    {
      "uri": "02_D_Sill_occlusionRoughnessMetallic.png"
    },
    {
      "uri": "02_D_Sill_normal.png"
    },
    {
      "uri": "02_D_Spacers_baseColor.png"
    },
    {
      "uri": "02_D_Spacers_occlusionRoughnessMetallic.png"
    },
    {
      "uri": "02_D_Spacers_normal.png"
    }
  ],
  "materials": [
    {
      "alphaMode": "OPAQUE",
      "name": "02_D_Exterior",
      "normalTexture": {
        "index": 2
      },
      "occlusionTexture": {
        "index": 1
      },
      "pbrMetallicRoughness": {
        "baseColorTexture": {
          "index": 0
        },
        "metallicRoughnessTexture": {
          "index": 1
        }
      }
    },
    {
      "alphaMode": "BLEND",
      "name": "02_D_Glass",
      "normalTexture": {
        "index": 5
      },
      "occlusionTexture": {
        "index": 4
      },
      "pbrMetallicRoughness": {
        "baseColorTexture": {
          "index": 3
        },
        "metallicRoughnessTexture": {
          "index": 4
        }
      }
    },
    {
      "alphaMode": "OPAQUE",
      "name": "02_D_Hardware",
      "normalTexture": {
        "index": 8
      },
      "occlusionTexture": {
        "index": 7
      },
      "pbrMetallicRoughness": {
        "baseColorTexture": {
          "index": 6
        },
        "metallicRoughnessTexture": {
          "index": 7
        }
      }
    },
    {
      "alphaMode": "OPAQUE",
      "name": "02_D_Interior",
      "normalTexture": {
        "index": 11
      },
      "occlusionTexture": {
        "index": 10
      },
      "pbrMetallicRoughness": {
        "baseColorTexture": {
          "index": 9
        },
        "metallicRoughnessTexture": {
          "index": 10
        }
      }
    },
    {
      "alphaMode": "OPAQUE",
      "name": "02_D_Sill",
      "normalTexture": {
        "index": 14
      },
      "occlusionTexture": {
        "index": 13
      },
      "pbrMetallicRoughness": {
        "baseColorTexture": {
          "index": 12
        },
        "metallicRoughnessTexture": {
          "index": 13
        }
      }
    },
    {
      "alphaMode": "OPAQUE",
      "name": "02_D_Spacers",
      "normalTexture": {
        "index": 17
      },
      "occlusionTexture": {
        "index": 16
      },
      "pbrMetallicRoughness": {
        "baseColorTexture": {
          "index": 15
        },
        "metallicRoughnessTexture": {
          "index": 16
        }
      }
    }
  ],
  "meshes": [
    {
      "name": "02_D_Sill",
      "primitives": [
        {
          "attributes": {
            "NORMAL": 2,
            "POSITION": 1,
            "TEXCOORD_0": 3
          },
          "indices": 0,
          "material": 4,
          "mode": 4
        }
      ]
    },
    {
      "name": "02_D_Spacer",
      "primitives": [
        {
          "attributes": {
            "NORMAL": 6,
            "POSITION": 5,
            "TEXCOORD_0": 7
          },
          "indices": 4,
          "material": 5,
          "mode": 4
        }
      ]
    },
    {
      "name": "02_D_Interior",
      "primitives": [
        {
          "attributes": {
            "NORMAL": 10,
            "POSITION": 9,
            "TEXCOORD_0": 11
          },
          "indices": 8,
          "material": 3,
          "mode": 4
        }
      ]
    },
    {
      "name": "02_D_Exterior",
      "primitives": [
        {
          "attributes": {
            "NORMAL": 14,
            "POSITION": 13,
            "TEXCOORD_0": 15
          },
          "indices": 12,
          "material": 0,
          "mode": 4
        }
      ]
    },
    {
      "name": "02_D_Hardware",
      "primitives": [
        {
          "attributes": {
            "NORMAL": 18,
            "POSITION": 17,
            "TEXCOORD_0": 19
          },
          "indices": 16,
          "material": 2,
          "mode": 4
        }
      ]
    },
    {
      "name": "02_D_Glass",
      "primitives": [
        {
          "attributes": {
            "NORMAL": 22,
            "POSITION": 21,
            "TEXCOORD_0": 23
          },
          "indices": 20,
          "material": 1,
          "mode": 4
        }
      ]
    }
  ],
  "nodes": [
    {
      "children": [
        1,
        3,
        5,
        7,
        9,
        11
      ],
      "name": "root",
      "scale": [
        1.05573427677155,
        1.05573427677155,
        1.05573427677155
      ],
      "translation": [
        -0.0248796343803406,
        1.05573284626007,
        0.0309183895587921
      ]
    },
    {
      "children": [
        2
      ],
      "name": "02_D_Sill"
    },
    {
      "mesh": 0,
      "name": "02_D_Sill"
    },
    {
      "children": [
        4
      ],
      "name": "02_D_Spacer"
    },
    {
      "mesh": 1,
      "name": "02_D_Spacer"
    },
    {
      "children": [
        6
      ],
      "name": "02_D_Interior"
    },
    {
      "mesh": 2,
      "name": "02_D_Interior"
    },
    {
      "children": [
        8
      ],
      "name": "02_D_Exterior"
    },
    {
      "mesh": 3,
      "name": "02_D_Exterior"
    },
    {
      "children": [
        10
      ],
      "name": "02_D_Hardware"
    },
    {
      "mesh": 4,
      "name": "02_D_Hardware"
    },
    {
      "children": [
        12
      ],
      "name": "02_D_Glass"
    },
    {
      "mesh": 5,
      "name": "02_D_Glass"
    }
  ],
  "samplers": [
    {
      "magFilter": 9729,
      "minFilter": 9985,
      "wrapS": 10497,
      "wrapT": 10497
    }
  ],
  "scene": 0,
  "scenes": [
    {
      "name": "Scene",
      "nodes": [
        0
      ]
    }
  ],
  "textures": [
    {
      "sampler": 0,
      "source": 0
    },
    {
      "sampler": 0,
      "source": 1
    },
    {
      "sampler": 0,
      "source": 2
    },
    {
      "sampler": 0,
      "source": 3
    },
    {
      "sampler": 0,
      "source": 4
    },
    {
      "sampler": 0,
      "source": 5
    },
    {
      "sampler": 0,
      "source": 6
    },
    {
      "sampler": 0,
      "source": 7
    },
    {
      "sampler": 0,
      "source": 8
    },
    {
      "sampler": 0,
      "source": 9
    },
    {
      "sampler": 0,
      "source": 10
    },
    {
      "sampler": 0,
      "source": 11
    },
    {
      "sampler": 0,
      "source": 12
    },
    {
      "sampler": 0,
      "source": 13
    },
    {
      "sampler": 0,
      "source": 14
    },
    {
      "sampler": 0,
      "source": 15
    },
    {
      "sampler": 0,
      "source": 16
    },
    {
      "sampler": 0,
      "source": 17
    }
  ]
}