{
  "accessors": [
    {
      "bufferView": 0,
      "componentType": 5125,
      "count": 24,
      "type": "SCALAR"
    },
    {
      "bufferView": 1,
      "componentType": 5126,
      "count": 16,
      "max": [
        0.751206278800964,
        0.88300633430481,
        0.0270503237843513
      ],
      "min": [
        -0.758492469787598,
        -0.762194275856018,
        0.00597695261240005
      ],
      "type": "VEC3"
    },
    {
      "bufferView": 2,
      "componentType": 5126,
      "count": 16,
      "type": "VEC3"
    },
    {
      "bufferView": 3,
      "componentType": 5126,
      "count": 16,
      "type": "VEC2"
    },
    {
      "bufferView": 4,
      "componentType": 5125,
      "count": 4020,
      "type": "SCALAR"
    },
    {
      "bufferView": 5,
      "componentType": 5126,
      "count": 2386,
      "max": [
        0.87535148859024,
        -0.944902658462524,
        0.0556495487689972
      ],
      "min": [
        -0.874987483024597,
        -1.0,
        -0.101540997624397
      ],
      "type": "VEC3"
    },
    {
      "bufferView": 6,
      "componentType": 5126,
      "count": 2386,
      "type": "VEC3"
    },
    {
      "bufferView": 7,
      "componentType": 5126,
      "count": 2386,
      "type": "VEC2"
    },
    {
      "bufferView": 8,
      "componentType": 5125,
      "count": 576,
      "type": "SCALAR"
    },
    {
      "bufferView": 9,
      "componentType": 5126,
      "count": 334,
      "max": [
        0.749872088432312,
        0.865178823471069,
        0.0220322143286467
      ],
      "min": [
        -0.749508559703827,
        -0.753299355506897,
        0.0107263717800379
      ],
      "type": "VEC3"
    },
    {
      "bufferView": 10,
      "componentType": 5126,
      "count": 334,
      "type": "VEC3"
    },
    {
      "bufferView": 11,
      "componentType": 5126,
      "count": 334,
      "type": "VEC2"
    },
    {
      "bufferView": 12,
      "componentType": 5125,
      "count": 36570,
      "type": "SCALAR"
    },
    {
      "bufferView": 13,
      "componentType": 5126,
      "count": 12406,
      "max": [
        0.844521403312683,
        0.806210517883301,
        0.101540982723236
      ],
      "min": [
        -0.861470222473145,
        -0.856958508491516,
        -0.0691855177283287
      ],
      "type": "VEC3"
    },
    {
      "bufferView": 14,
      "componentType": 5126,
      "count": 12406,
      "type": "VEC3"
    },
    {
      "bufferView": 15,
      "componentType": 5126,
      "count": 12406,
      "type": "VEC2"
    },
    {
      "bufferView": 16,
      "componentType": 5125,
      "count": 9894,
      "type": "SCALAR"
    },
    {
      "bufferView": 17,
      "componentType": 5126,
      "count": 6175,
      "max": [
        0.875011444091797,
        0.999999761581421,
        0.0266278050839901
      ],
      "min": [
        -0.875375866889954,
        -0.995890021324158,
        -0.0980111956596375
      ],
      "type": "VEC3"
    },
    {
      "bufferView": 18,
      "componentType": 5126,
      "count": 6175,
      "type": "VEC3"
    },
    {
      "bufferView": 19,
      "componentType": 5126,
      "count": 6175,
      "type": "VEC2"
    },
    {
      "bufferView": 20,
      "componentType": 5125,
      "count": 10773,
      "type": "SCALAR"
    },
    {
      "bufferView": 21,
      "componentType": 5126,
      "count": 4610,
      "max": [
        0.875375866889954,
        0.999388575553894,
        0.0545259565114975
      ],
      "min": [
        -0.87501186132431,
        -0.995917677879333,
        -0.0571432150900364
      ],
      "type": "VEC3"
    },
    {
      "bufferView": 22,
      "componentType": 5126,
      "count": 4610,
      "type": "VEC3"
    },
    {
      "bufferView": 23,
      "componentType": 5126,
      "count": 4610,
      "type": "VEC2"
    }
  ],
  "asset": {
    "generator": "Substance Painter 2019.3.0",
    "version": "2.0"
  },
  "bufferViews": [
    {
      "buffer": 0,
      "byteLength": 96,
      "target": 34963
    },
    {
      "buffer": 0,
      "byteLength": 192,
      "byteOffset": 96,
      "target": 34962
    },
    {
      "buffer": 0,
      "byteLength": 192,
      "byteOffset": 288,
      "target": 34962
    },
    {
      "buffer": 0,
      "byteLength": 128,
      "byteOffset": 480,
      "target": 34962
    },
    {
      "buffer": 0,
      "byteLength": 16080,
      "byteOffset": 608,
      "target": 34963
    },
    {
      "buffer": 0,
      "byteLength": 28632,
      "byteOffset": 16688,
      "target": 34962
    },
    {
      "buffer": 0,
      "byteLength": 28632,
      "byteOffset": 45320,
      "target": 34962
    },
    {
      "buffer": 0,
      "byteLength": 19088,
      "byteOffset": 73952,
      "target": 34962
    },
    {
      "buffer": 0,
      "byteLength": 2304,
      "byteOffset": 93040,
      "target": 34963
    },
    {
      "buffer": 0,
      "byteLength": 4008,
      "byteOffset": 95344,
      "target": 34962
    },
    {
      "buffer": 0,
      "byteLength": 4008,
      "byteOffset": 99352,
      "target": 34962
    },
    {
      "buffer": 0,
      "byteLength": 2672,
      "byteOffset": 103360,
      "target": 34962
    },
    {
      "buffer": 0,
      "byteLength": 146280,
      "byteOffset": 106032,
      "target": 34963
    },
    {
      "buffer": 0,
      "byteLength": 148872,
      "byteOffset": 252312,
      "target": 34962
    },
    {
      "buffer": 0,
      "byteLength": 148872,
      "byteOffset": 401184,
      "target": 34962
    },
    {
      "buffer": 0,
      "byteLength": 99248,
      "byteOffset": 550056,
      "target": 34962
    },
    {
      "buffer": 0,
      "byteLength": 39576,
      "byteOffset": 649304,
      "target": 34963
    },
    {
      "buffer": 0,
      "byteLength": 74100,
      "byteOffset": 688880,
      "target": 34962
    },
    {
      "buffer": 0,
      "byteLength": 74100,
      "byteOffset": 762980,
      "target": 34962
    },
    {
      "buffer": 0,
      "byteLength": 49400,
      "byteOffset": 837080,
      "target": 34962
    },
    {
      "buffer": 0,
      "byteLength": 43092,
      "byteOffset": 886480,
      "target": 34963
    },
    {
      "buffer": 0,
      "byteLength": 55320,
      "byteOffset": 929572,
      "target": 34962
    },
    {
      "buffer": 0,
      "byteLength": 55320,
      "byteOffset": 984892,
      "target": 34962
    },
    {
      "buffer": 0,
      "byteLength": 36880,
      "byteOffset": 1040212,
      "target": 34962
    }
  ],
  "buffers": [
    {
      "byteLength": 1077092,
      "uri": "02_D_FrenchwoodInswingPatio_v04.bin"
    }
  ],
  "images": [
    {
      "uri": "02_D_Exterior_baseColor.png"
    },
    {
      "uri": "02_D_Exterior_occlusionRoughnessMetallic.png"
    },
    {
      "uri": "02_D_Exterior_normal.png"
    },
    {
      "uri": "02_D_Exterior_emissive.png"
    },
    {
      "uri": "02_D_Glass_baseColor.png"
    },
    {
      "uri": "02_D_Glass_occlusionRoughnessMetallic.png"
    },
    {
      "uri": "02_D_Glass_normal.png"
    },
    {
      "uri": "02_D_Glass_emissive.png"
    },
    {
      "uri": "02_D_Hardware_baseColor.png"
    },
    {
      "uri": "02_D_Hardware_occlusionRoughnessMetallic.png"
    },
    {
      "uri": "02_D_Hardware_normal.png"
    },
    {
      "uri": "02_D_Hardware_emissive.png"
    },
    {
      "uri": "02_D_Interior_baseColor.png"
    },
    {
      "uri": "02_D_Interior_occlusionRoughnessMetallic.png"
    },
    {
      "uri": "02_D_Interior_normal.png"
    },
    {
      "uri": "02_D_Interior_emissive.png"
    },
    {
      "uri": "02_D_Sill_baseColor.png"
    },
    {
      "uri": "02_D_Sill_occlusionRoughnessMetallic.png"
    },
    {
      "uri": "02_D_Sill_normal.png"
    },
    {
      "uri": "02_D_Sill_emissive.png"
    },
    {
      "uri": "02_D_Spacers_baseColor.png"
    },
    {
      "uri": "02_D_Spacers_occlusionRoughnessMetallic.png"
    },
    {
      "uri": "02_D_Spacers_normal.png"
    },
    {
      "uri": "02_D_Spacers_emissive.png"
    }
  ],
  "materials": [
    {
      "alphaMode": "OPAQUE",
      "emissiveFactor": [
        1.0,
        1.0,
        1.0
      ],
      "emissiveTexture": {
        "index": 3
      },
      "name": "02_D_Exterior",
      "normalTexture": {
        "index": 2
      },
      "occlusionTexture": {
        "index": 1
      },
      "pbrMetallicRoughness": {
        "baseColorTexture": {
          "index": 0
        },
        "metallicRoughnessTexture": {
          "index": 1
        }
      }
    },
    {
      "alphaMode": "BLEND",
      "emissiveFactor": [
        1.0,
        1.0,
        1.0
      ],
      "emissiveTexture": {
        "index": 7
      },
      "name": "02_D_Glass",
      "normalTexture": {
        "index": 6
      },
      "occlusionTexture": {
        "index": 5
      },
      "pbrMetallicRoughness": {
        "baseColorTexture": {
          "index": 4
        },
        "metallicRoughnessTexture": {
          "index": 5
        }
      }
    },
    {
      "alphaMode": "OPAQUE",
      "emissiveFactor": [
        1.0,
        1.0,
        1.0
      ],
      "emissiveTexture": {
        "index": 11
      },
      "name": "02_D_Hardware",
      "normalTexture": {
        "index": 10
      },
      "occlusionTexture": {
        "index": 9
      },
      "pbrMetallicRoughness": {
        "baseColorTexture": {
          "index": 8
        },
        "metallicRoughnessTexture": {
          "index": 9
        }
      }
    },
    {
      "alphaMode": "OPAQUE",
      "emissiveFactor": [
        1.0,
        1.0,
        1.0
      ],
      "emissiveTexture": {
        "index": 15
      },
      "name": "02_D_Interior",
      "normalTexture": {
        "index": 14
      },
      "occlusionTexture": {
        "index": 13
      },
      "pbrMetallicRoughness": {
        "baseColorTexture": {
          "index": 12
        },
        "metallicRoughnessTexture": {
          "index": 13
        }
      }
    },
    {
      "alphaMode": "OPAQUE",
      "emissiveFactor": [
        1.0,
        1.0,
        1.0
      ],
      "emissiveTexture": {
        "index": 19
      },
      "name": "02_D_Sill",
      "normalTexture": {
        "index": 18
      },
      "occlusionTexture": {
        "index": 17
      },
      "pbrMetallicRoughness": {
        "baseColorTexture": {
          "index": 16
        },
        "metallicRoughnessTexture": {
          "index": 17
        }
      }
    },
    {
      "alphaMode": "OPAQUE",
      "emissiveFactor": [
        1.0,
        1.0,
        1.0
      ],
      "emissiveTexture": {
        "index": 23
      },
      "name": "02_D_Spacers",
      "normalTexture": {
        "index": 22
      },
      "occlusionTexture": {
        "index": 21
      },
      "pbrMetallicRoughness": {
        "baseColorTexture": {
          "index": 20
        },
        "metallicRoughnessTexture": {
          "index": 21
        }
      }
    }
  ],
  "meshes": [
    {
      "name": "02_D_Glass",
      "primitives": [
        {
          "attributes": {
            "NORMAL": 2,
            "POSITION": 1,
            "TEXCOORD_0": 3
          },
          "indices": 0,
          "material": 1,
          "mode": 4
        }
      ]
    },
    {
      "name": "02_D_Sill",
      "primitives": [
        {
          "attributes": {
            "NORMAL": 6,
            "POSITION": 5,
            "TEXCOORD_0": 7
          },
          "indices": 4,
          "material": 4,
          "mode": 4
        }
      ]
    },
    {
      "name": "02_D_Spacer",
      "primitives": [
        {
          "attributes": {
            "NORMAL": 10,
            "POSITION": 9,
            "TEXCOORD_0": 11
          },
          "indices": 8,
          "material": 5,
          "mode": 4
        }
      ]
    },
    {
      "name": "02_D_Hardware",
      "primitives": [
        {
          "attributes": {
            "NORMAL": 14,
            "POSITION": 13,
            "TEXCOORD_0": 15
          },
          "indices": 12,
          "material": 2,
          "mode": 4
        }
      ]
    },
    {
      "name": "02_D_Exterior",
      "primitives": [
        {
          "attributes": {
            "NORMAL": 18,
            "POSITION": 17,
            "TEXCOORD_0": 19
          },
          "indices": 16,
          "material": 0,
          "mode": 4
        }
      ]
    },
    {
      "name": "02_D_Interior",
      "primitives": [
        {
          "attributes": {
            "NORMAL": 22,
            "POSITION": 21,
            "TEXCOORD_0": 23
          },
          "indices": 20,
          "material": 3,
          "mode": 4
        }
      ]
    }
  ],
  "nodes": [
    {
      "children": [
        1,
        3,
        5,
        7,
        9,
        11
      ],
      "name": "root",
      "scale": [
        1.05057668685913,
        1.05057668685913,
        1.05057668685913
      ],
      "translation": [
        -0.0247581005096436,
        1.05057537555695,
        0.0307675376534462
      ]
    },
    {
      "children": [
        2
      ],
      "name": "02_D_Glass"
    },
    {
      "mesh": 0,
      "name": "02_D_Glass"
    },
    {
      "children": [
        4
      ],
      "name": "02_D_Sill"
    },
    {
      "mesh": 1,
      "name": "02_D_Sill"
    },
    {
      "children": [
        6
      ],
      "name": "02_D_Spacer"
    },
    {
      "mesh": 2,
      "name": "02_D_Spacer"
    },
    {
      "children": [
        8
      ],
      "name": "02_D_Hardware"
    },
    {
      "mesh": 3,
      "name": "02_D_Hardware"
    },
    {
      "children": [
        10
      ],
      "name": "02_D_Exterior"
    },
    {
      "mesh": 4,
      "name": "02_D_Exterior"
    },
    {
      "children": [
        12
      ],
      "name": "02_D_Interior"
    },
    {
      "mesh": 5,
      "name": "02_D_Interior"
    }
  ],
  "samplers": [
    {
      "magFilter": 9729,
      "minFilter": 9985,
      "wrapS": 10497,
      "wrapT": 10497
    }
  ],
  "scene": 0,
  "scenes": [
    {
      "name": "Scene",
      "nodes": [
        0
      ]
    }
  ],
  "textures": [
    {
      "sampler": 0,
      "source": 0
    },
    {
      "sampler": 0,
      "source": 1
    },
    {
      "sampler": 0,
      "source": 2
    },
    {
      "sampler": 0,
      "source": 3
    },
    {
      "sampler": 0,
      "source": 4
    },
    {
      "sampler": 0,
      "source": 5
    },
    {
      "sampler": 0,
      "source": 6
    },
    {
      "sampler": 0,
      "source": 7
    },
    {
      "sampler": 0,
      "source": 8
    },
    {
      "sampler": 0,
      "source": 9
    },
    {
      "sampler": 0,
      "source": 10
    },
    {
      "sampler": 0,
      "source": 11
    },
    {
      "sampler": 0,
      "source": 12
    },
    {
      "sampler": 0,
      "source": 13
    },
    {
      "sampler": 0,
      "source": 14
    },
    {
      "sampler": 0,
      "source": 15
    },
    {
      "sampler": 0,
      "source": 16
    },
    {
      "sampler": 0,
      "source": 17
    },
    {
      "sampler": 0,
      "source": 18
    },
    {
      "sampler": 0,
      "source": 19
    },
    {
      "sampler": 0,
      "source": 20
    },
    {
      "sampler": 0,
      "source": 21
    },
    {
      "sampler": 0,
      "source": 22
    },
    {
      "sampler": 0,
      "source": 23
    }
  ]
}