{
    "asset": {
        "version": "2.0",
        "generator": "Open Asset Import Library (assimp v3.1.151580502)"
    },
    "accessors": [
        {
            "bufferView": 0,
            "byteOffset": 0,
            "componentType": 5126,
            "count": 4020,
            "type": "VEC3",
            "max": [
                0.8753504157066345,
                -0.9449027180671692,
                0.05564962700009346
            ],
            "min": [
                -0.874986469745636,
                -1.0,
                -0.10154075175523758
            ]
        },
        {
            "bufferView": 1,
            "byteOffset": 0,
            "componentType": 5126,
            "count": 4020,
            "type": "VEC3",
            "max": [
                1.0,
                1.0,
                1.0
            ],
            "min": [
                -1.0,
                -1.0,
                -1.0
            ]
        },
        {
            "bufferView": 2,
            "byteOffset": 0,
            "componentType": 5126,
            "count": 4020,
            "type": "VEC2",
            "max": [
                0.922141969203949,
                0.962952733039856
            ],
            "min": [
                0.04091724753379822,
                0.028225421905517579
            ]
        },
        {
            "bufferView": 3,
            "byteOffset": 0,
            "componentType": 5126,
            "count": 4020,
            "type": "VEC2",
            "max": [
                0.922141969203949,
                0.962952733039856
            ],
            "min": [
                0.04091724753379822,
                0.028225421905517579
            ]
        },
        {
            "bufferView": 4,
            "byteOffset": 0,
            "componentType": 5123,
            "count": 4020,
            "type": "SCALAR",
            "max": [
                4019.0
            ],
            "min": [
                0.0
            ]
        },
        {
            "bufferView": 5,
            "byteOffset": 0,
            "componentType": 5126,
            "count": 576,
            "type": "VEC3",
            "max": [
                0.7498712539672852,
                0.8651784062385559,
                0.022031959146261216
            ],
            "min": [
                -0.7495076060295105,
                -0.7532979846000671,
                0.010726524516940117
            ]
        },
        {
            "bufferView": 6,
            "byteOffset": 0,
            "componentType": 5126,
            "count": 576,
            "type": "VEC3",
            "max": [
                1.0,
                1.0,
                1.0
            ],
            "min": [
                -1.0,
                -1.0,
                -1.0
            ]
        },
        {
            "bufferView": 7,
            "byteOffset": 0,
            "componentType": 5126,
            "count": 576,
            "type": "VEC2",
            "max": [
                0.734619140625,
                0.9935362339019775
            ],
            "min": [
                0.24324166774749757,
                0.0053182244300842289
            ]
        },
        {
            "bufferView": 8,
            "byteOffset": 0,
            "componentType": 5126,
            "count": 576,
            "type": "VEC2",
            "max": [
                0.734619140625,
                0.9935362339019775
            ],
            "min": [
                0.24324166774749757,
                0.0053182244300842289
            ]
        },
        {
            "bufferView": 9,
            "byteOffset": 0,
            "componentType": 5123,
            "count": 576,
            "type": "SCALAR",
            "max": [
                575.0
            ],
            "min": [
                0.0
            ]
        },
        {
            "bufferView": 10,
            "byteOffset": 0,
            "componentType": 5126,
            "count": 11205,
            "type": "VEC3",
            "max": [
                0.8753749132156372,
                0.9993909001350403,
                0.05452609807252884
            ],
            "min": [
                -0.8750107884407044,
                -0.9959131479263306,
                -0.0571429617702961
            ]
        },
        {
            "bufferView": 11,
            "byteOffset": 0,
            "componentType": 5126,
            "count": 11205,
            "type": "VEC3",
            "max": [
                1.0,
                1.0,
                1.0
            ],
            "min": [
                -1.0,
                -1.0,
                -1.0
            ]
        },
        {
            "bufferView": 12,
            "byteOffset": 0,
            "componentType": 5126,
            "count": 11205,
            "type": "VEC2",
            "max": [
                0.9922999143600464,
                0.902741551399231
            ],
            "min": [
                0.040236085653305057,
                0.012519359588623047
            ]
        },
        {
            "bufferView": 13,
            "byteOffset": 0,
            "componentType": 5126,
            "count": 11205,
            "type": "VEC2",
            "max": [
                0.9922999143600464,
                0.902741551399231
            ],
            "min": [
                0.040236085653305057,
                0.011226534843444825
            ]
        },
        {
            "bufferView": 14,
            "byteOffset": 0,
            "componentType": 5123,
            "count": 11205,
            "type": "SCALAR",
            "max": [
                11204.0
            ],
            "min": [
                0.0
            ]
        },
        {
            "bufferView": 15,
            "byteOffset": 0,
            "componentType": 5126,
            "count": 8109,
            "type": "VEC3",
            "max": [
                0.8750104308128357,
                1.0,
                0.013363172300159932
            ],
            "min": [
                -0.8753748536109924,
                -0.9958876967430115,
                -0.09801114350557327
            ]
        },
        {
            "bufferView": 16,
            "byteOffset": 0,
            "componentType": 5126,
            "count": 8109,
            "type": "VEC3",
            "max": [
                1.0,
                1.0,
                1.0
            ],
            "min": [
                -1.0,
                -1.0,
                -1.0
            ]
        },
        {
            "bufferView": 17,
            "byteOffset": 0,
            "componentType": 5126,
            "count": 8109,
            "type": "VEC2",
            "max": [
                0.869084358215332,
                0.9763749837875366
            ],
            "min": [
                0.08276402950286865,
                0.015595316886901856
            ]
        },
        {
            "bufferView": 18,
            "byteOffset": 0,
            "componentType": 5126,
            "count": 8109,
            "type": "VEC2",
            "max": [
                0.869084358215332,
                0.9763749837875366
            ],
            "min": [
                0.08276402950286865,
                0.015595316886901856
            ]
        },
        {
            "bufferView": 19,
            "byteOffset": 0,
            "componentType": 5123,
            "count": 8109,
            "type": "SCALAR",
            "max": [
                8108.0
            ],
            "min": [
                0.0
            ]
        },
        {
            "bufferView": 20,
            "byteOffset": 0,
            "componentType": 5126,
            "count": 36378,
            "type": "VEC3",
            "max": [
                0.8445054888725281,
                0.8062413334846497,
                0.10154075175523758
            ],
            "min": [
                -0.8611947298049927,
                -0.8563501834869385,
                -0.06918556988239289
            ]
        },
        {
            "bufferView": 21,
            "byteOffset": 0,
            "componentType": 5126,
            "count": 36378,
            "type": "VEC3",
            "max": [
                1.0,
                1.0,
                1.0
            ],
            "min": [
                -1.0,
                -1.0,
                -1.0
            ]
        },
        {
            "bufferView": 22,
            "byteOffset": 0,
            "componentType": 5126,
            "count": 36378,
            "type": "VEC2",
            "max": [
                0.9889811873435974,
                0.9863508939743042
            ],
            "min": [
                0.00982123613357544,
                0.009867489337921143
            ]
        },
        {
            "bufferView": 23,
            "byteOffset": 0,
            "componentType": 5123,
            "count": 36378,
            "type": "SCALAR",
            "max": [
                36377.0
            ],
            "min": [
                0.0
            ]
        },
        {
            "bufferView": 24,
            "byteOffset": 0,
            "componentType": 5126,
            "count": 24,
            "type": "VEC3",
            "max": [
                0.7512053847312927,
                0.8830054402351379,
                0.027049874886870385
            ],
            "min": [
                -0.7584916353225708,
                -0.7621933817863464,
                0.005976791027933359
            ]
        },
        {
            "bufferView": 25,
            "byteOffset": 0,
            "componentType": 5126,
            "count": 24,
            "type": "VEC3",
            "max": [
                1.618264633407307e-7,
                7.725886064235965e-8,
                1.0
            ],
            "min": [
                -1.5965638056059107e-7,
                -6.070339964026062e-8,
                -1.0
            ]
        },
        {
            "bufferView": 26,
            "byteOffset": 0,
            "componentType": 5126,
            "count": 24,
            "type": "VEC2",
            "max": [
                0.9649425745010376,
                0.8452757596969605
            ],
            "min": [
                0.02882772870361805,
                0.2888185977935791
            ]
        },
        {
            "bufferView": 27,
            "byteOffset": 0,
            "componentType": 5126,
            "count": 24,
            "type": "VEC2",
            "max": [
                0.9649425745010376,
                0.8452757596969605
            ],
            "min": [
                0.02882772870361805,
                0.2888185977935791
            ]
        },
        {
            "bufferView": 28,
            "byteOffset": 0,
            "componentType": 5123,
            "count": 24,
            "type": "SCALAR",
            "max": [
                23.0
            ],
            "min": [
                0.0
            ]
        }
    ],
    "buffers": [
        {
            "byteLength": 2242084,
            "uri": "D:/Jobs/Andersen_GLTF/_Assets_All/002/_Export/glTF_Meter/02_D_FrenchwoodInswingPatio_v02.bin"
        }
    ],
    "bufferViews": [
        {
            "buffer": 0,
            "byteOffset": 0,
            "byteLength": 48240,
            "target": 34962
        },
        {
            "buffer": 0,
            "byteOffset": 48240,
            "byteLength": 48240,
            "target": 34962
        },
        {
            "buffer": 0,
            "byteOffset": 96480,
            "byteLength": 32160,
            "target": 34962
        },
        {
            "buffer": 0,
            "byteOffset": 128640,
            "byteLength": 32160,
            "target": 34962
        },
        {
            "buffer": 0,
            "byteOffset": 160800,
            "byteLength": 8040,
            "target": 34963
        },
        {
            "buffer": 0,
            "byteOffset": 168840,
            "byteLength": 6912,
            "target": 34962
        },
        {
            "buffer": 0,
            "byteOffset": 175752,
            "byteLength": 6912,
            "target": 34962
        },
        {
            "buffer": 0,
            "byteOffset": 182664,
            "byteLength": 4608,
            "target": 34962
        },
        {
            "buffer": 0,
            "byteOffset": 187272,
            "byteLength": 4608,
            "target": 34962
        },
        {
            "buffer": 0,
            "byteOffset": 191880,
            "byteLength": 1152,
            "target": 34963
        },
        {
            "buffer": 0,
            "byteOffset": 193032,
            "byteLength": 134460,
            "target": 34962
        },
        {
            "buffer": 0,
            "byteOffset": 327492,
            "byteLength": 134460,
            "target": 34962
        },
        {
            "buffer": 0,
            "byteOffset": 461952,
            "byteLength": 89640,
            "target": 34962
        },
        {
            "buffer": 0,
            "byteOffset": 551592,
            "byteLength": 89640,
            "target": 34962
        },
        {
            "buffer": 0,
            "byteOffset": 641232,
            "byteLength": 22410,
            "target": 34963
        },
        {
            "buffer": 0,
            "byteOffset": 663644,
            "byteLength": 97308,
            "target": 34962
        },
        {
            "buffer": 0,
            "byteOffset": 760952,
            "byteLength": 97308,
            "target": 34962
        },
        {
            "buffer": 0,
            "byteOffset": 858260,
            "byteLength": 64872,
            "target": 34962
        },
        {
            "buffer": 0,
            "byteOffset": 923132,
            "byteLength": 64872,
            "target": 34962
        },
        {
            "buffer": 0,
            "byteOffset": 988004,
            "byteLength": 16218,
            "target": 34963
        },
        {
            "buffer": 0,
            "byteOffset": 1004224,
            "byteLength": 436536,
            "target": 34962
        },
        {
            "buffer": 0,
            "byteOffset": 1440760,
            "byteLength": 436536,
            "target": 34962
        },
        {
            "buffer": 0,
            "byteOffset": 1877296,
            "byteLength": 291024,
            "target": 34962
        },
        {
            "buffer": 0,
            "byteOffset": 2168320,
            "byteLength": 72756,
            "target": 34963
        },
        {
            "buffer": 0,
            "byteOffset": 2241076,
            "byteLength": 288,
            "target": 34962
        },
        {
            "buffer": 0,
            "byteOffset": 2241364,
            "byteLength": 288,
            "target": 34962
        },
        {
            "buffer": 0,
            "byteOffset": 2241652,
            "byteLength": 192,
            "target": 34962
        },
        {
            "buffer": 0,
            "byteOffset": 2241844,
            "byteLength": 192,
            "target": 34962
        },
        {
            "buffer": 0,
            "byteOffset": 2242036,
            "byteLength": 48,
            "target": 34963
        }
    ],
    "materials": [
        {
            "name": "02_D_Sill",
            "pbrMetallicRoughness": {
                "baseColorFactor": [
                    0.027450982481241227,
                    0.33725491166114809,
                    0.27450981736183169,
                    1.0
                ],
                "metallicFactor": 0.0
            }
        },
        {
            "name": "02_D_Spacers",
            "pbrMetallicRoughness": {
                "baseColorFactor": [
                    0.250980406999588,
                    0.6823529601097107,
                    0.9843137860298157,
                    1.0
                ],
                "metallicFactor": 0.0
            }
        },
        {
            "name": "02_D_Interior",
            "pbrMetallicRoughness": {
                "baseColorFactor": [
                    0.4784314036369324,
                    0.16862745583057404,
                    0.0,
                    1.0
                ],
                "metallicFactor": 0.0
            }
        },
        {
            "name": "02_D_Exterior",
            "pbrMetallicRoughness": {
                "baseColorFactor": [
                    0.4000000059604645,
                    0.4000000059604645,
                    0.4000000059604645,
                    1.0
                ],
                "metallicFactor": 0.0
            }
        },
        {
            "name": "02_D_Hardware",
            "pbrMetallicRoughness": {
                "baseColorFactor": [
                    0.8941177129745483,
                    0.07058823853731156,
                    0.6313725709915161,
                    1.0
                ],
                "metallicFactor": 0.0
            }
        },
        {
            "name": "02_D_Glass",
            "pbrMetallicRoughness": {
                "baseColorFactor": [
                    0.9725490808486939,
                    0.0,
                    0.0,
                    1.0
                ],
                "metallicFactor": 0.0
            }
        }
    ],
    "meshes": [
        {
            "name": "02_D_Sill",
            "primitives": [
                {
                    "mode": 4,
                    "material": 0,
                    "indices": 4,
                    "attributes": {
                        "POSITION": 0,
                        "NORMAL": 1,
                        "TEXCOORD_0": 2,
                        "TEXCOORD_1": 3
                    }
                }
            ]
        },
        {
            "name": "02_D_Spacer",
            "primitives": [
                {
                    "mode": 4,
                    "material": 1,
                    "indices": 9,
                    "attributes": {
                        "POSITION": 5,
                        "NORMAL": 6,
                        "TEXCOORD_0": 7,
                        "TEXCOORD_1": 8
                    }
                }
            ]
        },
        {
            "name": "02_D_Interior",
            "primitives": [
                {
                    "mode": 4,
                    "material": 2,
                    "indices": 14,
                    "attributes": {
                        "POSITION": 10,
                        "NORMAL": 11,
                        "TEXCOORD_0": 12,
                        "TEXCOORD_1": 13
                    }
                }
            ]
        },
        {
            "name": "02_D_Exterior",
            "primitives": [
                {
                    "mode": 4,
                    "material": 3,
                    "indices": 19,
                    "attributes": {
                        "POSITION": 15,
                        "NORMAL": 16,
                        "TEXCOORD_0": 17,
                        "TEXCOORD_1": 18
                    }
                }
            ]
        },
        {
            "name": "02_D_Hardware",
            "primitives": [
                {
                    "mode": 4,
                    "material": 4,
                    "indices": 23,
                    "attributes": {
                        "POSITION": 20,
                        "NORMAL": 21,
                        "TEXCOORD_0": 22
                    }
                }
            ]
        },
        {
            "name": "02_D_Glass",
            "primitives": [
                {
                    "mode": 4,
                    "material": 5,
                    "indices": 28,
                    "attributes": {
                        "POSITION": 24,
                        "NORMAL": 25,
                        "TEXCOORD_0": 26,
                        "TEXCOORD_1": 27
                    }
                }
            ]
        }
    ],
    "nodes": [
        {
            "matrix": [
                105.05779266357422,
                0.0,
                0.0,
                0.0,
                0.0,
                105.05779266357422,
                0.0,
                0.0,
                0.0,
                0.0,
                105.05779266357422,
                0.0,
                -2.4758148193359377,
                105.05764770507813,
                3.0767383575439455,
                1.0
            ],
            "children": [
                1,
                2,
                3,
                4,
                5,
                6
            ]
        },
        {
            "name": "02_D_Sill",
            "mesh": 0
        },
        {
            "name": "02_D_Spacer",
            "mesh": 1
        },
        {
            "name": "02_D_Interior",
            "mesh": 2
        },
        {
            "name": "02_D_Exterior",
            "mesh": 3
        },
        {
            "name": "02_D_Hardware",
            "mesh": 4
        },
        {
            "name": "02_D_Glass",
            "mesh": 5
        }
    ],
    "scenes": [
        {
            "nodes": [
                0
            ]
        }
    ],
    "scene": 0
}