{
  "accessors": [
    {
      "bufferView": 0,
      "componentType": 5125,
      "count": 24,
      "type": "SCALAR"
    },
    {
      "bufferView": 1,
      "componentType": 5126,
      "count": 16,
      "max": [
        0.751205503940582,
        0.883005380630493,
        0.0270502306520939
      ],
      "min": [
        -0.758491635322571,
        -0.762193381786346,
        0.00597687950357795
      ],
      "type": "VEC3"
    },
    {
      "bufferView": 2,
      "componentType": 5126,
      "count": 16,
      "type": "VEC3"
    },
    {
      "bufferView": 3,
      "componentType": 5126,
      "count": 16,
      "type": "VEC2"
    },
    {
      "bufferView": 4,
      "componentType": 5125,
      "count": 4020,
      "type": "SCALAR"
    },
    {
      "bufferView": 5,
      "componentType": 5126,
      "count": 2745,
      "max": [
        0.875350594520569,
        -0.944902718067169,
        0.0556495487689972
      ],
      "min": [
        -0.874986469745636,
        -1.0,
        -0.101540826261044
      ],
      "type": "VEC3"
    },
    {
      "bufferView": 6,
      "componentType": 5126,
      "count": 2745,
      "type": "VEC3"
    },
    {
      "bufferView": 7,
      "componentType": 5126,
      "count": 2745,
      "type": "VEC2"
    },
    {
      "bufferView": 8,
      "componentType": 5125,
      "count": 576,
      "type": "SCALAR"
    },
    {
      "bufferView": 9,
      "componentType": 5126,
      "count": 411,
      "max": [
        0.749871373176575,
        0.865178525447845,
        0.0220323670655489
      ],
      "min": [
        -0.749507546424866,
        -0.753297984600067,
        0.010726542212069
      ],
      "type": "VEC3"
    },
    {
      "bufferView": 10,
      "componentType": 5126,
      "count": 411,
      "type": "VEC3"
    },
    {
      "bufferView": 11,
      "componentType": 5126,
      "count": 411,
      "type": "VEC2"
    },
    {
      "bufferView": 12,
      "componentType": 5125,
      "count": 11205,
      "type": "SCALAR"
    },
    {
      "bufferView": 13,
      "componentType": 5126,
      "count": 4799,
      "max": [
        0.875375032424927,
        0.99939101934433,
        0.0545260384678841
      ],
      "min": [
        -0.875010788440704,
        -0.995913147926331,
        -0.0571430251002312
      ],
      "type": "VEC3"
    },
    {
      "bufferView": 14,
      "componentType": 5126,
      "count": 4799,
      "type": "VEC3"
    },
    {
      "bufferView": 15,
      "componentType": 5126,
      "count": 4799,
      "type": "VEC2"
    },
    {
      "bufferView": 16,
      "componentType": 5125,
      "count": 8109,
      "type": "SCALAR"
    },
    {
      "bufferView": 17,
      "componentType": 5126,
      "count": 4111,
      "max": [
        0.875010550022125,
        1.00000011920929,
        0.013363660313189
      ],
      "min": [
        -0.875374913215637,
        -0.995887696743011,
        -0.0980110242962837
      ],
      "type": "VEC3"
    },
    {
      "bufferView": 18,
      "componentType": 5126,
      "count": 4111,
      "type": "VEC3"
    },
    {
      "bufferView": 19,
      "componentType": 5126,
      "count": 4111,
      "type": "VEC2"
    },
    {
      "bufferView": 20,
      "componentType": 5125,
      "count": 36378,
      "type": "SCALAR"
    },
    {
      "bufferView": 21,
      "componentType": 5126,
      "count": 11688,
      "max": [
        0.844505667686462,
        0.806241512298584,
        0.101540818810463
      ],
      "min": [
        -0.861194670200348,
        -0.856350183486938,
        -0.0691855102777481
      ],
      "type": "VEC3"
    },
    {
      "bufferView": 22,
      "componentType": 5126,
      "count": 11688,
      "type": "VEC3"
    },
    {
      "bufferView": 23,
      "componentType": 5126,
      "count": 11688,
      "type": "VEC2"
    }
  ],
  "asset": {
    "generator": "Substance Painter 2019.2.3",
    "version": "2.0"
  },
  "bufferViews": [
    {
      "buffer": 0,
      "byteLength": 96,
      "target": 34963
    },
    {
      "buffer": 0,
      "byteLength": 192,
      "byteOffset": 96,
      "target": 34962
    },
    {
      "buffer": 0,
      "byteLength": 192,
      "byteOffset": 288,
      "target": 34962
    },
    {
      "buffer": 0,
      "byteLength": 128,
      "byteOffset": 480,
      "target": 34962
    },
    {
      "buffer": 0,
      "byteLength": 16080,
      "byteOffset": 608,
      "target": 34963
    },
    {
      "buffer": 0,
      "byteLength": 32940,
      "byteOffset": 16688,
      "target": 34962
    },
    {
      "buffer": 0,
      "byteLength": 32940,
      "byteOffset": 49628,
      "target": 34962
    },
    {
      "buffer": 0,
      "byteLength": 21960,
      "byteOffset": 82568,
      "target": 34962
    },
    {
      "buffer": 0,
      "byteLength": 2304,
      "byteOffset": 104528,
      "target": 34963
    },
    {
      "buffer": 0,
      "byteLength": 4932,
      "byteOffset": 106832,
      "target": 34962
    },
    {
      "buffer": 0,
      "byteLength": 4932,
      "byteOffset": 111764,
      "target": 34962
    },
    {
      "buffer": 0,
      "byteLength": 3288,
      "byteOffset": 116696,
      "target": 34962
    },
    {
      "buffer": 0,
      "byteLength": 44820,
      "byteOffset": 119984,
      "target": 34963
    },
    {
      "buffer": 0,
      "byteLength": 57588,
      "byteOffset": 164804,
      "target": 34962
    },
    {
      "buffer": 0,
      "byteLength": 57588,
      "byteOffset": 222392,
      "target": 34962
    },
    {
      "buffer": 0,
      "byteLength": 38392,
      "byteOffset": 279980,
      "target": 34962
    },
    {
      "buffer": 0,
      "byteLength": 32436,
      "byteOffset": 318372,
      "target": 34963
    },
    {
      "buffer": 0,
      "byteLength": 49332,
      "byteOffset": 350808,
      "target": 34962
    },
    {
      "buffer": 0,
      "byteLength": 49332,
      "byteOffset": 400140,
      "target": 34962
    },
    {
      "buffer": 0,
      "byteLength": 32888,
      "byteOffset": 449472,
      "target": 34962
    },
    {
      "buffer": 0,
      "byteLength": 145512,
      "byteOffset": 482360,
      "target": 34963
    },
    {
      "buffer": 0,
      "byteLength": 140256,
      "byteOffset": 627872,
      "target": 34962
    },
    {
      "buffer": 0,
      "byteLength": 140256,
      "byteOffset": 768128,
      "target": 34962
    },
    {
      "buffer": 0,
      "byteLength": 93504,
      "byteOffset": 908384,
      "target": 34962
    }
  ],
  "buffers": [
    {
      "byteLength": 1001888,
      "uri": "02_D_FrenchwoodInswingPatio_v02.bin"
    }
  ],
  "images": [
    {
      "uri": "02_D_Exterior_baseColor.png"
    },
    {
      "uri": "02_D_Exterior_occlusionRoughnessMetallic.png"
    },
    {
      "uri": "02_D_Exterior_normal.png"
    },
    {
      "uri": "02_D_Glass_baseColor.png"
    },
    {
      "uri": "02_D_Glass_occlusionRoughnessMetallic.png"
    },
    {
      "uri": "02_D_Glass_normal.png"
    },
    {
      "uri": "02_D_Hardware_baseColor.png"
    },
    {
      "uri": "02_D_Hardware_occlusionRoughnessMetallic.png"
    },
    {
      "uri": "02_D_Hardware_normal.png"
    },
    {
      "uri": "02_D_Interior_baseColor.png"
    },
    {
      "uri": "02_D_Interior_occlusionRoughnessMetallic.png"
    },
    {
      "uri": "02_D_Interior_normal.png"
    },
    {
      "uri": "02_D_Sill_baseColor.png"
    },
    {
      "uri": "02_D_Sill_occlusionRoughnessMetallic.png"
    },
    {
      "uri": "02_D_Sill_normal.png"
    },
    {
      "uri": "02_D_Spacers_baseColor.png"
    },
    {
      "uri": "02_D_Spacers_occlusionRoughnessMetallic.png"
    },
    {
      "uri": "02_D_Spacers_normal.png"
    }
  ],
  "materials": [
    {
      "alphaMode": "OPAQUE",
      "name": "02_D_Exterior",
      "normalTexture": {
        "index": 2
      },
      "occlusionTexture": {
        "index": 1
      },
      "pbrMetallicRoughness": {
        "baseColorTexture": {
          "index": 0
        },
        "metallicRoughnessTexture": {
          "index": 1
        }
      }
    },
    {
      "alphaMode": "OPAQUE",
      "name": "02_D_Glass",
      "normalTexture": {
        "index": 5
      },
      "occlusionTexture": {
        "index": 4
      },
      "pbrMetallicRoughness": {
        "baseColorTexture": {
          "index": 3
        },
        "metallicRoughnessTexture": {
          "index": 4
        }
      }
    },
    {
      "alphaMode": "OPAQUE",
      "name": "02_D_Hardware",
      "normalTexture": {
        "index": 8
      },
      "occlusionTexture": {
        "index": 7
      },
      "pbrMetallicRoughness": {
        "baseColorTexture": {
          "index": 6
        },
        "metallicRoughnessTexture": {
          "index": 7
        }
      }
    },
    {
      "alphaMode": "OPAQUE",
      "name": "02_D_Interior",
      "normalTexture": {
        "index": 11
      },
      "occlusionTexture": {
        "index": 10
      },
      "pbrMetallicRoughness": {
        "baseColorTexture": {
          "index": 9
        },
        "metallicRoughnessTexture": {
          "index": 10
        }
      }
    },
    {
      "alphaMode": "OPAQUE",
      "name": "02_D_Sill",
      "normalTexture": {
        "index": 14
      },
      "occlusionTexture": {
        "index": 13
      },
      "pbrMetallicRoughness": {
        "baseColorTexture": {
          "index": 12
        },
        "metallicRoughnessTexture": {
          "index": 13
        }
      }
    },
    {
      "alphaMode": "OPAQUE",
      "name": "02_D_Spacers",
      "normalTexture": {
        "index": 17
      },
      "occlusionTexture": {
        "index": 16
      },
      "pbrMetallicRoughness": {
        "baseColorTexture": {
          "index": 15
        },
        "metallicRoughnessTexture": {
          "index": 16
        }
      }
    }
  ],
  "meshes": [
    {
      "name": "02_D_Glass",
      "primitives": [
        {
          "attributes": {
            "NORMAL": 2,
            "POSITION": 1,
            "TEXCOORD_0": 3
          },
          "indices": 0,
          "material": 1,
          "mode": 4
        }
      ]
    },
    {
      "name": "02_D_Sill",
      "primitives": [
        {
          "attributes": {
            "NORMAL": 6,
            "POSITION": 5,
            "TEXCOORD_0": 7
          },
          "indices": 4,
          "material": 4,
          "mode": 4
        }
      ]
    },
    {
      "name": "02_D_Spacer",
      "primitives": [
        {
          "attributes": {
            "NORMAL": 10,
            "POSITION": 9,
            "TEXCOORD_0": 11
          },
          "indices": 8,
          "material": 5,
          "mode": 4
        }
      ]
    },
    {
      "name": "02_D_Interior",
      "primitives": [
        {
          "attributes": {
            "NORMAL": 14,
            "POSITION": 13,
            "TEXCOORD_0": 15
          },
          "indices": 12,
          "material": 3,
          "mode": 4
        }
      ]
    },
    {
      "name": "02_D_Exterior",
      "primitives": [
        {
          "attributes": {
            "NORMAL": 18,
            "POSITION": 17,
            "TEXCOORD_0": 19
          },
          "indices": 16,
          "material": 0,
          "mode": 4
        }
      ]
    },
    {
      "name": "02_D_Hardware",
      "primitives": [
        {
          "attributes": {
            "NORMAL": 22,
            "POSITION": 21,
            "TEXCOORD_0": 23
          },
          "indices": 20,
          "material": 2,
          "mode": 4
        }
      ]
    }
  ],
  "nodes": [
    {
      "children": [
        1,
        3,
        5,
        7,
        9,
        11
      ],
      "name": "root",
      "scale": [
        41.3613319396973,
        41.3613319396973,
        41.3613319396973
      ],
      "translation": [
        -0.9747314453125,
        41.3612747192383,
        1.21131730079651
      ]
    },
    {
      "children": [
        2
      ],
      "name": "02_D_Glass"
    },
    {
      "mesh": 0,
      "name": "02_D_Glass"
    },
    {
      "children": [
        4
      ],
      "name": "02_D_Sill"
    },
    {
      "mesh": 1,
      "name": "02_D_Sill"
    },
    {
      "children": [
        6
      ],
      "name": "02_D_Spacer"
    },
    {
      "mesh": 2,
      "name": "02_D_Spacer"
    },
    {
      "children": [
        8
      ],
      "name": "02_D_Interior"
    },
    {
      "mesh": 3,
      "name": "02_D_Interior"
    },
    {
      "children": [
        10
      ],
      "name": "02_D_Exterior"
    },
    {
      "mesh": 4,
      "name": "02_D_Exterior"
    },
    {
      "children": [
        12
      ],
      "name": "02_D_Hardware"
    },
    {
      "mesh": 5,
      "name": "02_D_Hardware"
    }
  ],
  "samplers": [
    {
      "magFilter": 9729,
      "minFilter": 9985,
      "wrapS": 10497,
      "wrapT": 10497
    }
  ],
  "scene": 0,
  "scenes": [
    {
      "name": "Scene",
      "nodes": [
        0
      ]
    }
  ],
  "textures": [
    {
      "sampler": 0,
      "source": 0
    },
    {
      "sampler": 0,
      "source": 1
    },
    {
      "sampler": 0,
      "source": 2
    },
    {
      "sampler": 0,
      "source": 3
    },
    {
      "sampler": 0,
      "source": 4
    },
    {
      "sampler": 0,
      "source": 5
    },
    {
      "sampler": 0,
      "source": 6
    },
    {
      "sampler": 0,
      "source": 7
    },
    {
      "sampler": 0,
      "source": 8
    },
    {
      "sampler": 0,
      "source": 9
    },
    {
      "sampler": 0,
      "source": 10
    },
    {
      "sampler": 0,
      "source": 11
    },
    {
      "sampler": 0,
      "source": 12
    },
    {
      "sampler": 0,
      "source": 13
    },
    {
      "sampler": 0,
      "source": 14
    },
    {
      "sampler": 0,
      "source": 15
    },
    {
      "sampler": 0,
      "source": 16
    },
    {
      "sampler": 0,
      "source": 17
    }
  ]
}