{
  "accessors": [
    {
      "bufferView": 0,
      "componentType": 5125,
      "count": 24,
      "type": "SCALAR"
    },
    {
      "bufferView": 1,
      "componentType": 5126,
      "count": 16,
      "max": [
        0.751205384731293,
        0.883005321025848,
        0.0270499922335148
      ],
      "min": [
        -0.758491635322571,
        -0.762193441390991,
        0.00597691582515836
      ],
      "type": "VEC3"
    },
    {
      "bufferView": 2,
      "componentType": 5126,
      "count": 16,
      "type": "VEC3"
    },
    {
      "bufferView": 3,
      "componentType": 5126,
      "count": 16,
      "type": "VEC2"
    },
    {
      "bufferView": 4,
      "componentType": 5125,
      "count": 4020,
      "type": "SCALAR"
    },
    {
      "bufferView": 5,
      "componentType": 5126,
      "count": 3040,
      "max": [
        0.875350415706635,
        -0.944902777671814,
        0.0556496270000935
      ],
      "min": [
        -0.874986469745636,
        -1.0,
        -0.101540751755238
      ],
      "type": "VEC3"
    },
    {
      "bufferView": 6,
      "componentType": 5126,
      "count": 3040,
      "type": "VEC3"
    },
    {
      "bufferView": 7,
      "componentType": 5126,
      "count": 3040,
      "type": "VEC2"
    },
    {
      "bufferView": 8,
      "componentType": 5125,
      "count": 576,
      "type": "SCALAR"
    },
    {
      "bufferView": 9,
      "componentType": 5126,
      "count": 427,
      "max": [
        0.749871253967285,
        0.865178346633911,
        0.0220321360975504
      ],
      "min": [
        -0.74950760602951,
        -0.753298044204712,
        0.0107265738770366
      ],
      "type": "VEC3"
    },
    {
      "bufferView": 10,
      "componentType": 5126,
      "count": 427,
      "type": "VEC3"
    },
    {
      "bufferView": 11,
      "componentType": 5126,
      "count": 427,
      "type": "VEC2"
    },
    {
      "bufferView": 12,
      "componentType": 5125,
      "count": 11205,
      "type": "SCALAR"
    },
    {
      "bufferView": 13,
      "componentType": 5126,
      "count": 4799,
      "max": [
        0.875374913215637,
        0.999390840530396,
        0.0545260980725288
      ],
      "min": [
        -0.875010788440704,
        -0.99591326713562,
        -0.0571429431438446
      ],
      "type": "VEC3"
    },
    {
      "bufferView": 14,
      "componentType": 5126,
      "count": 4799,
      "type": "VEC3"
    },
    {
      "bufferView": 15,
      "componentType": 5126,
      "count": 4799,
      "type": "VEC2"
    },
    {
      "bufferView": 16,
      "componentType": 5125,
      "count": 8109,
      "type": "SCALAR"
    },
    {
      "bufferView": 17,
      "componentType": 5126,
      "count": 4111,
      "max": [
        0.875010430812836,
        1.0,
        0.0133634079247713
      ],
      "min": [
        -0.875374853610992,
        -0.995887756347656,
        -0.0980109497904778
      ],
      "type": "VEC3"
    },
    {
      "bufferView": 18,
      "componentType": 5126,
      "count": 4111,
      "type": "VEC3"
    },
    {
      "bufferView": 19,
      "componentType": 5126,
      "count": 4111,
      "type": "VEC2"
    },
    {
      "bufferView": 20,
      "componentType": 5125,
      "count": 36378,
      "type": "SCALAR"
    },
    {
      "bufferView": 21,
      "componentType": 5126,
      "count": 11688,
      "max": [
        0.844505488872528,
        0.806241273880005,
        0.101540751755238
      ],
      "min": [
        -0.861194729804993,
        -0.856350243091583,
        -0.0691855698823929
      ],
      "type": "VEC3"
    },
    {
      "bufferView": 22,
      "componentType": 5126,
      "count": 11688,
      "type": "VEC3"
    },
    {
      "bufferView": 23,
      "componentType": 5126,
      "count": 11688,
      "type": "VEC2"
    }
  ],
  "asset": {
    "generator": "Substance Painter 2019.2.3",
    "version": "2.0"
  },
  "bufferViews": [
    {
      "buffer": 0,
      "byteLength": 96,
      "target": 34963
    },
    {
      "buffer": 0,
      "byteLength": 192,
      "byteOffset": 96,
      "target": 34962
    },
    {
      "buffer": 0,
      "byteLength": 192,
      "byteOffset": 288,
      "target": 34962
    },
    {
      "buffer": 0,
      "byteLength": 128,
      "byteOffset": 480,
      "target": 34962
    },
    {
      "buffer": 0,
      "byteLength": 16080,
      "byteOffset": 608,
      "target": 34963
    },
    {
      "buffer": 0,
      "byteLength": 36480,
      "byteOffset": 16688,
      "target": 34962
    },
    {
      "buffer": 0,
      "byteLength": 36480,
      "byteOffset": 53168,
      "target": 34962
    },
    {
      "buffer": 0,
      "byteLength": 24320,
      "byteOffset": 89648,
      "target": 34962
    },
    {
      "buffer": 0,
      "byteLength": 2304,
      "byteOffset": 113968,
      "target": 34963
    },
    {
      "buffer": 0,
      "byteLength": 5124,
      "byteOffset": 116272,
      "target": 34962
    },
    {
      "buffer": 0,
      "byteLength": 5124,
      "byteOffset": 121396,
      "target": 34962
    },
    {
      "buffer": 0,
      "byteLength": 3416,
      "byteOffset": 126520,
      "target": 34962
    },
    {
      "buffer": 0,
      "byteLength": 44820,
      "byteOffset": 129936,
      "target": 34963
    },
    {
      "buffer": 0,
      "byteLength": 57588,
      "byteOffset": 174756,
      "target": 34962
    },
    {
      "buffer": 0,
      "byteLength": 57588,
      "byteOffset": 232344,
      "target": 34962
    },
    {
      "buffer": 0,
      "byteLength": 38392,
      "byteOffset": 289932,
      "target": 34962
    },
    {
      "buffer": 0,
      "byteLength": 32436,
      "byteOffset": 328324,
      "target": 34963
    },
    {
      "buffer": 0,
      "byteLength": 49332,
      "byteOffset": 360760,
      "target": 34962
    },
    {
      "buffer": 0,
      "byteLength": 49332,
      "byteOffset": 410092,
      "target": 34962
    },
    {
      "buffer": 0,
      "byteLength": 32888,
      "byteOffset": 459424,
      "target": 34962
    },
    {
      "buffer": 0,
      "byteLength": 145512,
      "byteOffset": 492312,
      "target": 34963
    },
    {
      "buffer": 0,
      "byteLength": 140256,
      "byteOffset": 637824,
      "target": 34962
    },
    {
      "buffer": 0,
      "byteLength": 140256,
      "byteOffset": 778080,
      "target": 34962
    },
    {
      "buffer": 0,
      "byteLength": 93504,
      "byteOffset": 918336,
      "target": 34962
    }
  ],
  "buffers": [
    {
      "byteLength": 1011840,
      "uri": "02_D_FrenchwoodInswingPatio_v02.bin"
    }
  ],
  "images": [
    {
      "uri": "02_D_Exterior_baseColor.png"
    },
    {
      "uri": "02_D_Exterior_occlusionRoughnessMetallic.png"
    },
    {
      "uri": "02_D_Exterior_normal.png"
    },
    {
      "uri": "02_D_Exterior_emissive.png"
    },
    {
      "uri": "02_D_Glass_baseColor.png"
    },
    {
      "uri": "02_D_Glass_occlusionRoughnessMetallic.png"
    },
    {
      "uri": "02_D_Glass_normal.png"
    },
    {
      "uri": "02_D_Glass_emissive.png"
    },
    {
      "uri": "02_D_Hardware_baseColor.png"
    },
    {
      "uri": "02_D_Hardware_occlusionRoughnessMetallic.png"
    },
    {
      "uri": "02_D_Hardware_normal.png"
    },
    {
      "uri": "02_D_Hardware_emissive.png"
    },
    {
      "uri": "02_D_Interior_baseColor.png"
    },
    {
      "uri": "02_D_Interior_occlusionRoughnessMetallic.png"
    },
    {
      "uri": "02_D_Interior_normal.png"
    },
    {
      "uri": "02_D_Interior_emissive.png"
    },
    {
      "uri": "02_D_Sill_baseColor.png"
    },
    {
      "uri": "02_D_Sill_occlusionRoughnessMetallic.png"
    },
    {
      "uri": "02_D_Sill_normal.png"
    },
    {
      "uri": "02_D_Sill_emissive.png"
    },
    {
      "uri": "02_D_Spacers_baseColor.png"
    },
    {
      "uri": "02_D_Spacers_occlusionRoughnessMetallic.png"
    },
    {
      "uri": "02_D_Spacers_normal.png"
    },
    {
      "uri": "02_D_Spacers_emissive.png"
    }
  ],
  "materials": [
    {
      "alphaMode": "OPAQUE",
      "emissiveFactor": [
        1.0,
        1.0,
        1.0
      ],
      "emissiveTexture": {
        "index": 3
      },
      "name": "02_D_Exterior",
      "normalTexture": {
        "index": 2
      },
      "occlusionTexture": {
        "index": 1
      },
      "pbrMetallicRoughness": {
        "baseColorTexture": {
          "index": 0
        },
        "metallicRoughnessTexture": {
          "index": 1
        }
      }
    },
    {
      "alphaMode": "BLEND",
      "emissiveFactor": [
        1.0,
        1.0,
        1.0
      ],
      "emissiveTexture": {
        "index": 7
      },
      "name": "02_D_Glass",
      "normalTexture": {
        "index": 6
      },
      "occlusionTexture": {
        "index": 5
      },
      "pbrMetallicRoughness": {
        "baseColorTexture": {
          "index": 4
        },
        "metallicRoughnessTexture": {
          "index": 5
        }
      }
    },
    {
      "alphaMode": "OPAQUE",
      "emissiveFactor": [
        1.0,
        1.0,
        1.0
      ],
      "emissiveTexture": {
        "index": 11
      },
      "name": "02_D_Hardware",
      "normalTexture": {
        "index": 10
      },
      "occlusionTexture": {
        "index": 9
      },
      "pbrMetallicRoughness": {
        "baseColorTexture": {
          "index": 8
        },
        "metallicRoughnessTexture": {
          "index": 9
        }
      }
    },
    {
      "alphaMode": "OPAQUE",
      "emissiveFactor": [
        1.0,
        1.0,
        1.0
      ],
      "emissiveTexture": {
        "index": 15
      },
      "name": "02_D_Interior",
      "normalTexture": {
        "index": 14
      },
      "occlusionTexture": {
        "index": 13
      },
      "pbrMetallicRoughness": {
        "baseColorTexture": {
          "index": 12
        },
        "metallicRoughnessTexture": {
          "index": 13
        }
      }
    },
    {
      "alphaMode": "OPAQUE",
      "emissiveFactor": [
        1.0,
        1.0,
        1.0
      ],
      "emissiveTexture": {
        "index": 19
      },
      "name": "02_D_Sill",
      "normalTexture": {
        "index": 18
      },
      "occlusionTexture": {
        "index": 17
      },
      "pbrMetallicRoughness": {
        "baseColorTexture": {
          "index": 16
        },
        "metallicRoughnessTexture": {
          "index": 17
        }
      }
    },
    {
      "alphaMode": "OPAQUE",
      "emissiveFactor": [
        1.0,
        1.0,
        1.0
      ],
      "emissiveTexture": {
        "index": 23
      },
      "name": "02_D_Spacers",
      "normalTexture": {
        "index": 22
      },
      "occlusionTexture": {
        "index": 21
      },
      "pbrMetallicRoughness": {
        "baseColorTexture": {
          "index": 20
        },
        "metallicRoughnessTexture": {
          "index": 21
        }
      }
    }
  ],
  "meshes": [
    {
      "name": "02_D_Glass",
      "primitives": [
        {
          "attributes": {
            "NORMAL": 2,
            "POSITION": 1,
            "TEXCOORD_0": 3
          },
          "indices": 0,
          "material": 1,
          "mode": 4
        }
      ]
    },
    {
      "name": "02_D_Sill",
      "primitives": [
        {
          "attributes": {
            "NORMAL": 6,
            "POSITION": 5,
            "TEXCOORD_0": 7
          },
          "indices": 4,
          "material": 4,
          "mode": 4
        }
      ]
    },
    {
      "name": "02_D_Spacer",
      "primitives": [
        {
          "attributes": {
            "NORMAL": 10,
            "POSITION": 9,
            "TEXCOORD_0": 11
          },
          "indices": 8,
          "material": 5,
          "mode": 4
        }
      ]
    },
    {
      "name": "02_D_Interior",
      "primitives": [
        {
          "attributes": {
            "NORMAL": 14,
            "POSITION": 13,
            "TEXCOORD_0": 15
          },
          "indices": 12,
          "material": 3,
          "mode": 4
        }
      ]
    },
    {
      "name": "02_D_Exterior",
      "primitives": [
        {
          "attributes": {
            "NORMAL": 18,
            "POSITION": 17,
            "TEXCOORD_0": 19
          },
          "indices": 16,
          "material": 0,
          "mode": 4
        }
      ]
    },
    {
      "name": "02_D_Hardware",
      "primitives": [
        {
          "attributes": {
            "NORMAL": 22,
            "POSITION": 21,
            "TEXCOORD_0": 23
          },
          "indices": 20,
          "material": 2,
          "mode": 4
        }
      ]
    }
  ],
  "nodes": [
    {
      "children": [
        1,
        3,
        5,
        7,
        9,
        11
      ],
      "name": "root",
      "scale": [
        105.057792663574,
        105.057792663574,
        105.057792663574
      ],
      "translation": [
        -2.47581481933594,
        105.057655334473,
        3.07673835754395
      ]
    },
    {
      "children": [
        2
      ],
      "name": "02_D_Glass"
    },
    {
      "mesh": 0,
      "name": "02_D_Glass"
    },
    {
      "children": [
        4
      ],
      "name": "02_D_Sill"
    },
    {
      "mesh": 1,
      "name": "02_D_Sill"
    },
    {
      "children": [
        6
      ],
      "name": "02_D_Spacer"
    },
    {
      "mesh": 2,
      "name": "02_D_Spacer"
    },
    {
      "children": [
        8
      ],
      "name": "02_D_Interior"
    },
    {
      "mesh": 3,
      "name": "02_D_Interior"
    },
    {
      "children": [
        10
      ],
      "name": "02_D_Exterior"
    },
    {
      "mesh": 4,
      "name": "02_D_Exterior"
    },
    {
      "children": [
        12
      ],
      "name": "02_D_Hardware"
    },
    {
      "mesh": 5,
      "name": "02_D_Hardware"
    }
  ],
  "samplers": [
    {
      "magFilter": 9729,
      "minFilter": 9985,
      "wrapS": 10497,
      "wrapT": 10497
    }
  ],
  "scene": 0,
  "scenes": [
    {
      "name": "Scene",
      "nodes": [
        0
      ]
    }
  ],
  "textures": [
    {
      "sampler": 0,
      "source": 0
    },
    {
      "sampler": 0,
      "source": 1
    },
    {
      "sampler": 0,
      "source": 2
    },
    {
      "sampler": 0,
      "source": 3
    },
    {
      "sampler": 0,
      "source": 4
    },
    {
      "sampler": 0,
      "source": 5
    },
    {
      "sampler": 0,
      "source": 6
    },
    {
      "sampler": 0,
      "source": 7
    },
    {
      "sampler": 0,
      "source": 8
    },
    {
      "sampler": 0,
      "source": 9
    },
    {
      "sampler": 0,
      "source": 10
    },
    {
      "sampler": 0,
      "source": 11
    },
    {
      "sampler": 0,
      "source": 12
    },
    {
      "sampler": 0,
      "source": 13
    },
    {
      "sampler": 0,
      "source": 14
    },
    {
      "sampler": 0,
      "source": 15
    },
    {
      "sampler": 0,
      "source": 16
    },
    {
      "sampler": 0,
      "source": 17
    },
    {
      "sampler": 0,
      "source": 18
    },
    {
      "sampler": 0,
      "source": 19
    },
    {
      "sampler": 0,
      "source": 20
    },
    {
      "sampler": 0,
      "source": 21
    },
    {
      "sampler": 0,
      "source": 22
    },
    {
      "sampler": 0,
      "source": 23
    }
  ]
}