{
  "accessors": [
    {
      "bufferView": 0,
      "componentType": 5125,
      "count": 24,
      "type": "SCALAR"
    },
    {
      "bufferView": 1,
      "componentType": 5126,
      "count": 16,
      "max": [
        0.751205444335938,
        0.883005380630493,
        0.0270500089973211
      ],
      "min": [
        -0.758491575717926,
        -0.762193441390991,
        0.00597685901448131
      ],
      "type": "VEC3"
    },
    {
      "bufferView": 2,
      "componentType": 5126,
      "count": 16,
      "type": "VEC3"
    },
    {
      "bufferView": 3,
      "componentType": 5126,
      "count": 16,
      "type": "VEC2"
    },
    {
      "bufferView": 4,
      "componentType": 5125,
      "count": 4020,
      "type": "SCALAR"
    },
    {
      "bufferView": 5,
      "componentType": 5126,
      "count": 2723,
      "max": [
        0.875350534915924,
        -0.944902777671814,
        0.0556495636701584
      ],
      "min": [
        -0.874986469745636,
        -1.0,
        -0.101540818810463
      ],
      "type": "VEC3"
    },
    {
      "bufferView": 6,
      "componentType": 5126,
      "count": 2723,
      "type": "VEC3"
    },
    {
      "bufferView": 7,
      "componentType": 5126,
      "count": 2723,
      "type": "VEC2"
    },
    {
      "bufferView": 8,
      "componentType": 5125,
      "count": 576,
      "type": "SCALAR"
    },
    {
      "bufferView": 9,
      "componentType": 5126,
      "count": 407,
      "max": [
        0.74987131357193,
        0.865178346633911,
        0.0220321509987116
      ],
      "min": [
        -0.749507546424866,
        -0.753298044204712,
        0.0107265179976821
      ],
      "type": "VEC3"
    },
    {
      "bufferView": 10,
      "componentType": 5126,
      "count": 407,
      "type": "VEC3"
    },
    {
      "bufferView": 11,
      "componentType": 5126,
      "count": 407,
      "type": "VEC2"
    },
    {
      "bufferView": 12,
      "componentType": 5125,
      "count": 11205,
      "type": "SCALAR"
    },
    {
      "bufferView": 13,
      "componentType": 5126,
      "count": 4799,
      "max": [
        0.875374972820282,
        0.999390840530396,
        0.0545260347425938
      ],
      "min": [
        -0.87501072883606,
        -0.995913207530975,
        -0.0571430064737797
      ],
      "type": "VEC3"
    },
    {
      "bufferView": 14,
      "componentType": 5126,
      "count": 4799,
      "type": "VEC3"
    },
    {
      "bufferView": 15,
      "componentType": 5126,
      "count": 4799,
      "type": "VEC2"
    },
    {
      "bufferView": 16,
      "componentType": 5125,
      "count": 8109,
      "type": "SCALAR"
    },
    {
      "bufferView": 17,
      "componentType": 5126,
      "count": 4111,
      "max": [
        0.87501049041748,
        1.00000011920929,
        0.013363428413868
      ],
      "min": [
        -0.875374853610992,
        -0.995887756347656,
        -0.0980110168457031
      ],
      "type": "VEC3"
    },
    {
      "bufferView": 18,
      "componentType": 5126,
      "count": 4111,
      "type": "VEC3"
    },
    {
      "bufferView": 19,
      "componentType": 5126,
      "count": 4111,
      "type": "VEC2"
    },
    {
      "bufferView": 20,
      "componentType": 5125,
      "count": 36378,
      "type": "SCALAR"
    },
    {
      "bufferView": 21,
      "componentType": 5126,
      "count": 11688,
      "max": [
        0.844505608081818,
        0.80624133348465,
        0.101540818810463
      ],
      "min": [
        -0.861194729804993,
        -0.856350243091583,
        -0.0691855028271675
      ],
      "type": "VEC3"
    },
    {
      "bufferView": 22,
      "componentType": 5126,
      "count": 11688,
      "type": "VEC3"
    },
    {
      "bufferView": 23,
      "componentType": 5126,
      "count": 11688,
      "type": "VEC2"
    }
  ],
  "asset": {
    "generator": "Substance Painter 2019.2.3",
    "version": "2.0"
  },
  "bufferViews": [
    {
      "buffer": 0,
      "byteLength": 96,
      "target": 34963
    },
    {
      "buffer": 0,
      "byteLength": 192,
      "byteOffset": 96,
      "target": 34962
    },
    {
      "buffer": 0,
      "byteLength": 192,
      "byteOffset": 288,
      "target": 34962
    },
    {
      "buffer": 0,
      "byteLength": 128,
      "byteOffset": 480,
      "target": 34962
    },
    {
      "buffer": 0,
      "byteLength": 16080,
      "byteOffset": 608,
      "target": 34963
    },
    {
      "buffer": 0,
      "byteLength": 32676,
      "byteOffset": 16688,
      "target": 34962
    },
    {
      "buffer": 0,
      "byteLength": 32676,
      "byteOffset": 49364,
      "target": 34962
    },
    {
      "buffer": 0,
      "byteLength": 21784,
      "byteOffset": 82040,
      "target": 34962
    },
    {
      "buffer": 0,
      "byteLength": 2304,
      "byteOffset": 103824,
      "target": 34963
    },
    {
      "buffer": 0,
      "byteLength": 4884,
      "byteOffset": 106128,
      "target": 34962
    },
    {
      "buffer": 0,
      "byteLength": 4884,
      "byteOffset": 111012,
      "target": 34962
    },
    {
      "buffer": 0,
      "byteLength": 3256,
      "byteOffset": 115896,
      "target": 34962
    },
    {
      "buffer": 0,
      "byteLength": 44820,
      "byteOffset": 119152,
      "target": 34963
    },
    {
      "buffer": 0,
      "byteLength": 57588,
      "byteOffset": 163972,
      "target": 34962
    },
    {
      "buffer": 0,
      "byteLength": 57588,
      "byteOffset": 221560,
      "target": 34962
    },
    {
      "buffer": 0,
      "byteLength": 38392,
      "byteOffset": 279148,
      "target": 34962
    },
    {
      "buffer": 0,
      "byteLength": 32436,
      "byteOffset": 317540,
      "target": 34963
    },
    {
      "buffer": 0,
      "byteLength": 49332,
      "byteOffset": 349976,
      "target": 34962
    },
    {
      "buffer": 0,
      "byteLength": 49332,
      "byteOffset": 399308,
      "target": 34962
    },
    {
      "buffer": 0,
      "byteLength": 32888,
      "byteOffset": 448640,
      "target": 34962
    },
    {
      "buffer": 0,
      "byteLength": 145512,
      "byteOffset": 481528,
      "target": 34963
    },
    {
      "buffer": 0,
      "byteLength": 140256,
      "byteOffset": 627040,
      "target": 34962
    },
    {
      "buffer": 0,
      "byteLength": 140256,
      "byteOffset": 767296,
      "target": 34962
    },
    {
      "buffer": 0,
      "byteLength": 93504,
      "byteOffset": 907552,
      "target": 34962
    }
  ],
  "buffers": [
    {
      "byteLength": 1001056,
      "uri": "02_D_FrenchwoodInswingPatio_v02.bin"
    }
  ],
  "images": [
    {
      "uri": "02_D_Exterior_baseColor.png"
    },
    {
      "uri": "02_D_Exterior_occlusionRoughnessMetallic.png"
    },
    {
      "uri": "02_D_Exterior_normal.png"
    },
    {
      "uri": "02_D_Exterior_emissive.png"
    },
    {
      "uri": "02_D_Glass_baseColor.png"
    },
    {
      "uri": "02_D_Glass_occlusionRoughnessMetallic.png"
    },
    {
      "uri": "02_D_Glass_normal.png"
    },
    {
      "uri": "02_D_Glass_emissive.png"
    },
    {
      "uri": "02_D_Hardware_baseColor.png"
    },
    {
      "uri": "02_D_Hardware_occlusionRoughnessMetallic.png"
    },
    {
      "uri": "02_D_Hardware_normal.png"
    },
    {
      "uri": "02_D_Hardware_emissive.png"
    },
    {
      "uri": "02_D_Interior_baseColor.png"
    },
    {
      "uri": "02_D_Interior_occlusionRoughnessMetallic.png"
    },
    {
      "uri": "02_D_Interior_normal.png"
    },
    {
      "uri": "02_D_Interior_emissive.png"
    },
    {
      "uri": "02_D_Sill_baseColor.png"
    },
    {
      "uri": "02_D_Sill_occlusionRoughnessMetallic.png"
    },
    {
      "uri": "02_D_Sill_normal.png"
    },
    {
      "uri": "02_D_Sill_emissive.png"
    },
    {
      "uri": "02_D_Spacers_baseColor.png"
    },
    {
      "uri": "02_D_Spacers_occlusionRoughnessMetallic.png"
    },
    {
      "uri": "02_D_Spacers_normal.png"
    },
    {
      "uri": "02_D_Spacers_emissive.png"
    }
  ],
  "materials": [
    {
      "alphaMode": "OPAQUE",
      "emissiveFactor": [
        1.0,
        1.0,
        1.0
      ],
      "emissiveTexture": {
        "index": 3
      },
      "name": "02_D_Exterior",
      "normalTexture": {
        "index": 2
      },
      "occlusionTexture": {
        "index": 1
      },
      "pbrMetallicRoughness": {
        "baseColorTexture": {
          "index": 0
        },
        "metallicRoughnessTexture": {
          "index": 1
        }
      }
    },
    {
      "alphaMode": "BLEND",
      "emissiveFactor": [
        1.0,
        1.0,
        1.0
      ],
      "emissiveTexture": {
        "index": 7
      },
      "name": "02_D_Glass",
      "normalTexture": {
        "index": 6
      },
      "occlusionTexture": {
        "index": 5
      },
      "pbrMetallicRoughness": {
        "baseColorTexture": {
          "index": 4
        },
        "metallicRoughnessTexture": {
          "index": 5
        }
      }
    },
    {
      "alphaMode": "OPAQUE",
      "emissiveFactor": [
        1.0,
        1.0,
        1.0
      ],
      "emissiveTexture": {
        "index": 11
      },
      "name": "02_D_Hardware",
      "normalTexture": {
        "index": 10
      },
      "occlusionTexture": {
        "index": 9
      },
      "pbrMetallicRoughness": {
        "baseColorTexture": {
          "index": 8
        },
        "metallicRoughnessTexture": {
          "index": 9
        }
      }
    },
    {
      "alphaMode": "OPAQUE",
      "emissiveFactor": [
        1.0,
        1.0,
        1.0
      ],
      "emissiveTexture": {
        "index": 15
      },
      "name": "02_D_Interior",
      "normalTexture": {
        "index": 14
      },
      "occlusionTexture": {
        "index": 13
      },
      "pbrMetallicRoughness": {
        "baseColorTexture": {
          "index": 12
        },
        "metallicRoughnessTexture": {
          "index": 13
        }
      }
    },
    {
      "alphaMode": "OPAQUE",
      "emissiveFactor": [
        1.0,
        1.0,
        1.0
      ],
      "emissiveTexture": {
        "index": 19
      },
      "name": "02_D_Sill",
      "normalTexture": {
        "index": 18
      },
      "occlusionTexture": {
        "index": 17
      },
      "pbrMetallicRoughness": {
        "baseColorTexture": {
          "index": 16
        },
        "metallicRoughnessTexture": {
          "index": 17
        }
      }
    },
    {
      "alphaMode": "OPAQUE",
      "emissiveFactor": [
        1.0,
        1.0,
        1.0
      ],
      "emissiveTexture": {
        "index": 23
      },
      "name": "02_D_Spacers",
      "normalTexture": {
        "index": 22
      },
      "occlusionTexture": {
        "index": 21
      },
      "pbrMetallicRoughness": {
        "baseColorTexture": {
          "index": 20
        },
        "metallicRoughnessTexture": {
          "index": 21
        }
      }
    }
  ],
  "meshes": [
    {
      "name": "02_D_Glass",
      "primitives": [
        {
          "attributes": {
            "NORMAL": 2,
            "POSITION": 1,
            "TEXCOORD_0": 3
          },
          "indices": 0,
          "material": 1,
          "mode": 4
        }
      ]
    },
    {
      "name": "02_D_Sill",
      "primitives": [
        {
          "attributes": {
            "NORMAL": 6,
            "POSITION": 5,
            "TEXCOORD_0": 7
          },
          "indices": 4,
          "material": 4,
          "mode": 4
        }
      ]
    },
    {
      "name": "02_D_Spacer",
      "primitives": [
        {
          "attributes": {
            "NORMAL": 10,
            "POSITION": 9,
            "TEXCOORD_0": 11
          },
          "indices": 8,
          "material": 5,
          "mode": 4
        }
      ]
    },
    {
      "name": "02_D_Interior",
      "primitives": [
        {
          "attributes": {
            "NORMAL": 14,
            "POSITION": 13,
            "TEXCOORD_0": 15
          },
          "indices": 12,
          "material": 3,
          "mode": 4
        }
      ]
    },
    {
      "name": "02_D_Exterior",
      "primitives": [
        {
          "attributes": {
            "NORMAL": 18,
            "POSITION": 17,
            "TEXCOORD_0": 19
          },
          "indices": 16,
          "material": 0,
          "mode": 4
        }
      ]
    },
    {
      "name": "02_D_Hardware",
      "primitives": [
        {
          "attributes": {
            "NORMAL": 22,
            "POSITION": 21,
            "TEXCOORD_0": 23
          },
          "indices": 20,
          "material": 2,
          "mode": 4
        }
      ]
    }
  ],
  "nodes": [
    {
      "children": [
        1,
        3,
        5,
        7,
        9,
        11
      ],
      "name": "root",
      "scale": [
        41.3613357543945,
        41.3613357543945,
        41.3613357543945
      ],
      "translation": [
        -0.9747314453125,
        41.3612785339355,
        1.21131706237793
      ]
    },
    {
      "children": [
        2
      ],
      "name": "02_D_Glass"
    },
    {
      "mesh": 0,
      "name": "02_D_Glass"
    },
    {
      "children": [
        4
      ],
      "name": "02_D_Sill"
    },
    {
      "mesh": 1,
      "name": "02_D_Sill"
    },
    {
      "children": [
        6
      ],
      "name": "02_D_Spacer"
    },
    {
      "mesh": 2,
      "name": "02_D_Spacer"
    },
    {
      "children": [
        8
      ],
      "name": "02_D_Interior"
    },
    {
      "mesh": 3,
      "name": "02_D_Interior"
    },
    {
      "children": [
        10
      ],
      "name": "02_D_Exterior"
    },
    {
      "mesh": 4,
      "name": "02_D_Exterior"
    },
    {
      "children": [
        12
      ],
      "name": "02_D_Hardware"
    },
    {
      "mesh": 5,
      "name": "02_D_Hardware"
    }
  ],
  "samplers": [
    {
      "magFilter": 9729,
      "minFilter": 9985,
      "wrapS": 10497,
      "wrapT": 10497
    }
  ],
  "scene": 0,
  "scenes": [
    {
      "name": "Scene",
      "nodes": [
        0
      ]
    }
  ],
  "textures": [
    {
      "sampler": 0,
      "source": 0
    },
    {
      "sampler": 0,
      "source": 1
    },
    {
      "sampler": 0,
      "source": 2
    },
    {
      "sampler": 0,
      "source": 3
    },
    {
      "sampler": 0,
      "source": 4
    },
    {
      "sampler": 0,
      "source": 5
    },
    {
      "sampler": 0,
      "source": 6
    },
    {
      "sampler": 0,
      "source": 7
    },
    {
      "sampler": 0,
      "source": 8
    },
    {
      "sampler": 0,
      "source": 9
    },
    {
      "sampler": 0,
      "source": 10
    },
    {
      "sampler": 0,
      "source": 11
    },
    {
      "sampler": 0,
      "source": 12
    },
    {
      "sampler": 0,
      "source": 13
    },
    {
      "sampler": 0,
      "source": 14
    },
    {
      "sampler": 0,
      "source": 15
    },
    {
      "sampler": 0,
      "source": 16
    },
    {
      "sampler": 0,
      "source": 17
    },
    {
      "sampler": 0,
      "source": 18
    },
    {
      "sampler": 0,
      "source": 19
    },
    {
      "sampler": 0,
      "source": 20
    },
    {
      "sampler": 0,
      "source": 21
    },
    {
      "sampler": 0,
      "source": 22
    },
    {
      "sampler": 0,
      "source": 23
    }
  ]
}