{"accessors":[{"bufferView":0,"componentType":5121,"count":24,"max":[23],"min":[0],"type":"SCALAR"},{"bufferView":1,"componentType":5126,"count":24,"max":[76.44416809082031,5.918550968170166,-24.983291625976562],"min":[-82.16127014160156,3.704659938812256,-197.82424926757812],"type":"VEC3"},{"bufferView":2,"componentType":5126,"count":24,"max":[1.618264633407307e-07,1.0,5.5184912639560935e-08],"min":[-1.5965633792802691e-07,-1.0,-6.070339964026061e-08],"type":"VEC3"},{"bufferView":3,"componentType":5126,"count":24,"max":[1.0,0.006732332520186901,1.590224343317459e-07,-1.0],"min":[-0.9999807476997375,-0.006206399295479059,-1.618264633407307e-07,-1.0],"type":"VEC4"},{"bufferView":4,"componentType":5126,"count":24,"max":[0.9649425745010376,0.8452757596969604],"min":[0.02882772870361805,0.2888185977935791],"type":"VEC2"},{"bufferView":5,"componentType":5126,"count":24,"max":[0.9649425745010376,0.8452757596969604],"min":[0.02882772870361805,0.2888185977935791],"type":"VEC2"},{"bufferView":6,"componentType":5123,"count":4020,"max":[3941],"min":[0],"type":"SCALAR"},{"bufferView":7,"componentType":5126,"count":3942,"max":[89.486572265625,8.923165321350098,0.0001404285430908203],"min":[-94.39996337890625,-7.590909004211426,-5.78825569152832],"type":"VEC3"},{"bufferView":8,"componentType":5126,"count":3942,"max":[1.0,1.0,1.0],"min":[-1.0,-1.0,-1.0],"type":"VEC3"},{"bufferView":9,"componentType":5126,"count":3942,"max":[1.0,1.0,1.0,1.0],"min":[-0.9999994039535522,-1.0,-1.0,-1.0],"type":"VEC4"},{"bufferView":10,"componentType":5126,"count":3942,"max":[0.922141969203949,0.962952733039856],"min":[0.04091724753379822,0.028225421905517578],"type":"VEC2"},{"bufferView":11,"componentType":5126,"count":3942,"max":[0.922141969203949,0.962952733039856],"min":[0.04091724753379822,0.028225421905517578],"type":"VEC2"},{"bufferView":12,"componentType":5123,"count":576,"max":[542],"min":[0],"type":"SCALAR"},{"bufferView":13,"componentType":5126,"count":543,"max":[76.30400848388672,5.391386032104492,-25.917823791503906],"min":[-81.2174301147461,4.203648567199707,-195.95138549804688],"type":"VEC3"},{"bufferView":14,"componentType":5126,"count":543,"max":[1.0,1.0,1.0],"min":[-1.0,-1.0,-1.0],"type":"VEC3"},{"bufferView":15,"componentType":5126,"count":543,"max":[1.0,1.0,1.0,1.0],"min":[-1.0,-1.0,-1.0,-1.0],"type":"VEC4"},{"bufferView":16,"componentType":5126,"count":543,"max":[0.734619140625,0.9935362339019775],"min":[0.24324166774749756,0.0053182244300842285],"type":"VEC2"},{"bufferView":17,"componentType":5126,"count":543,"max":[0.734619140625,0.9935362339019775],"min":[0.24324166774749756,0.0053182244300842285],"type":"VEC2"},{"bufferView":18,"componentType":5123,"count":11205,"max":[4812],"min":[0],"type":"SCALAR"},{"bufferView":19,"componentType":5126,"count":4813,"max":[89.48914337158203,8.805130004882812,-0.42920684814453125],"min":[-94.40251922607422,-2.9265732765197754,-210.05145263671875],"type":"VEC3"},{"bufferView":20,"componentType":5126,"count":4813,"max":[1.0,1.0,1.0],"min":[-1.0,-1.0,-1.0],"type":"VEC3"},{"bufferView":21,"componentType":5126,"count":4813,"max":[1.0,1.0,1.0,1.0],"min":[-0.8611195683479309,-1.0,-1.0,-1.0],"type":"VEC4"},{"bufferView":22,"componentType":5126,"count":4813,"max":[0.9922999143600464,0.902741551399231],"min":[0.040236085653305054,0.012519359588623047],"type":"VEC2"},{"bufferView":23,"componentType":5126,"count":4813,"max":[0.9922999143600464,0.902741551399231],"min":[0.040236085653305054,0.011226534843444824],"type":"VEC2"},{"bufferView":24,"componentType":5123,"count":8109,"max":[4108],"min":[0],"type":"SCALAR"},{"bufferView":25,"componentType":5126,"count":4109,"max":[89.45085144042969,4.480668544769287,-0.431884765625],"min":[-94.44076538085938,-7.2200751304626465,-210.11544799804688],"type":"VEC3"},{"bufferView":26,"componentType":5126,"count":4109,"max":[1.0,1.0,1.0],"min":[-1.0,-1.0,-1.0],"type":"VEC3"},{"bufferView":27,"componentType":5126,"count":4109,"max":[1.0,1.0,1.0,1.0],"min":[-0.8594089150428772,-1.0,-1.0,-1.0],"type":"VEC4"},{"bufferView":28,"componentType":5126,"count":4109,"max":[0.869084358215332,0.9763749837875366],"min":[0.08276402950286865,0.015595316886901855],"type":"VEC2"},{"bufferView":29,"componentType":5126,"count":4109,"max":[0.869084358215332,0.9763749837875366],"min":[0.08276402950286865,0.015595316886901855],"type":"VEC2"},{"bufferView":30,"componentType":5123,"count":36378,"max":[11687],"min":[0],"type":"SCALAR"},{"bufferView":31,"componentType":5126,"count":11688,"max":[86.2460708618164,13.744385719299316,-15.091384887695312],"min":[-92.95103454589844,-4.191744804382324,-189.75958251953125],"type":"VEC3"},{"bufferView":32,"componentType":5126,"count":11688,"max":[1.0,1.0,1.0],"min":[-1.0,-1.0,-1.0],"type":"VEC3"},{"bufferView":33,"componentType":5126,"count":11688,"max":[1.0,1.0,1.0,1.0],"min":[-1.0,-1.0,-1.0,-1.0],"type":"VEC4"},{"bufferView":34,"componentType":5126,"count":11688,"max":[0.9889811873435974,0.9863508939743042],"min":[0.00982123613357544,0.009867489337921143],"type":"VEC2"}],"asset":{"generator":"Soft8Soft Verge3D for 3ds Max plug-in","version":"2.0"},"bufferViews":[{"buffer":0,"byteLength":24,"byteOffset":0,"target":34963},{"buffer":0,"byteLength":288,"byteOffset":24,"target":34962},{"buffer":0,"byteLength":288,"byteOffset":312,"target":34962},{"buffer":0,"byteLength":384,"byteOffset":600,"target":34962},{"buffer":0,"byteLength":192,"byteOffset":984,"target":34962},{"buffer":0,"byteLength":192,"byteOffset":1176,"target":34962},{"buffer":0,"byteLength":8040,"byteOffset":1368,"target":34963},{"buffer":0,"byteLength":47304,"byteOffset":9408,"target":34962},{"buffer":0,"byteLength":47304,"byteOffset":56712,"target":34962},{"buffer":0,"byteLength":63072,"byteOffset":104016,"target":34962},{"buffer":0,"byteLength":31536,"byteOffset":167088,"target":34962},{"buffer":0,"byteLength":31536,"byteOffset":198624,"target":34962},{"buffer":0,"byteLength":1152,"byteOffset":230160,"target":34963},{"buffer":0,"byteLength":6516,"byteOffset":231312,"target":34962},{"buffer":0,"byteLength":6516,"byteOffset":237828,"target":34962},{"buffer":0,"byteLength":8688,"byteOffset":244344,"target":34962},{"buffer":0,"byteLength":4344,"byteOffset":253032,"target":34962},{"buffer":0,"byteLength":4344,"byteOffset":257376,"target":34962},{"buffer":0,"byteLength":22410,"byteOffset":261720,"target":34963},{"buffer":0,"byteLength":57756,"byteOffset":284132,"target":34962},{"buffer":0,"byteLength":57756,"byteOffset":341888,"target":34962},{"buffer":0,"byteLength":77008,"byteOffset":399644,"target":34962},{"buffer":0,"byteLength":38504,"byteOffset":476652,"target":34962},{"buffer":0,"byteLength":38504,"byteOffset":515156,"target":34962},{"buffer":0,"byteLength":16218,"byteOffset":553660,"target":34963},{"buffer":0,"byteLength":49308,"byteOffset":569880,"target":34962},{"buffer":0,"byteLength":49308,"byteOffset":619188,"target":34962},{"buffer":0,"byteLength":65744,"byteOffset":668496,"target":34962},{"buffer":0,"byteLength":32872,"byteOffset":734240,"target":34962},{"buffer":0,"byteLength":32872,"byteOffset":767112,"target":34962},{"buffer":0,"byteLength":72756,"byteOffset":799984,"target":34963},{"buffer":0,"byteLength":140256,"byteOffset":872740,"target":34962},{"buffer":0,"byteLength":140256,"byteOffset":1012996,"target":34962},{"buffer":0,"byteLength":187008,"byteOffset":1153252,"target":34962},{"buffer":0,"byteLength":93504,"byteOffset":1340260,"target":34962}],"buffers":[{"byteLength":1433764,"uri":"02_D_FrenchwoodInswingPatio_v02.bin"}],"cameras":[{"extensions":{"S8S_v3d_camera_data":{"controls":"ORBIT","enablePan":true,"moveSpeed":1,"orbitMaxDistance":10000,"orbitMaxPolarAngle":3.141592653589793,"orbitMinDistance":0,"orbitMinPolarAngle":0,"orbitTarget":[0,0,0],"rotateSpeed":1,"viewportFitInitialAspect":1.3333333730697632,"viewportFitType":"VERTICAL"}},"name":"__DEFAULT__","orthographic":{"xmag":258.4022904158319,"ymag":193.8017120361328,"zfar":2996.92333984375,"znear":-3003.07666015625},"type":"orthographic"}],"extensions":{"S8S_v3d_data":{"lights":[{"color":[1,1,1],"intensity":1,"name":"__DEFAULT__","profile":"max","type":"point"},{"color":[0.0,0.0,0.0],"intensity":1,"name":"__AMBIENT__","profile":"max","type":"ambient"}]}},"extensionsUsed":["S8S_v3d_material_data","S8S_v3d_camera_data","S8S_v3d_data","S8S_v3d_node_data","S8S_v3d_scene_data"],"materials":[{"doubleSided":false,"emissiveFactor":[0,0,0],"extensions":{"S8S_v3d_material_data":{"depthWrite":true,"nodeGraph":{"edges":[{"fromNode":1,"fromOutput":0,"toInput":0,"toNode":0},{"fromNode":1,"fromOutput":1,"toInput":1,"toNode":0}],"nodes":[{"inputs":[[1,1,1,1]],"is_active_output":true,"name":"MaxOutput","outputs":[],"type":"OUTPUT_MAX"},{"IOR":1.5,"inputFactors":[0,0,0,0,0,0,0,0,0,0,0,0],"inputs":[[0.9725490808486938,0.0,0.0,1.0],[0.9725490808486938,0.0,0.0,1.0],[0.0,0.0,0.0,1.0],0.10000000149011612,1.0,[0.0,0.0,0.0,1.0],1.0,[0,0,0,0],[0,0,0],[0,0,0,0],[0,0,0,0],0],"is_active_output":false,"name":"02_D_Glass","outputs":[[0,0,0,0]],"selfIllumColorOn":false,"type":"MATERIAL_MAX"}]},"profile":"max","useShadeless":false}},"name":"02_D_Glass"},{"doubleSided":false,"emissiveFactor":[0,0,0],"extensions":{"S8S_v3d_material_data":{"depthWrite":true,"nodeGraph":{"edges":[{"fromNode":1,"fromOutput":0,"toInput":0,"toNode":0},{"fromNode":1,"fromOutput":1,"toInput":1,"toNode":0}],"nodes":[{"inputs":[[1,1,1,1]],"is_active_output":true,"name":"MaxOutput","outputs":[],"type":"OUTPUT_MAX"},{"IOR":1.5,"inputFactors":[0,0,0,0,0,0,0,0,0,0,0,0],"inputs":[[0.027450982481241226,0.33725491166114807,0.27450981736183167,1.0],[0.027450982481241226,0.33725491166114807,0.27450981736183167,1.0],[0.0,0.0,0.0,1.0],0.10000000149011612,1.0,[0.0,0.0,0.0,1.0],1.0,[0,0,0,0],[0,0,0],[0,0,0,0],[0,0,0,0],0],"is_active_output":false,"name":"02_D_Sill","outputs":[[0,0,0,0]],"selfIllumColorOn":false,"type":"MATERIAL_MAX"}]},"profile":"max","useShadeless":false}},"name":"02_D_Sill"},{"doubleSided":false,"emissiveFactor":[0,0,0],"extensions":{"S8S_v3d_material_data":{"depthWrite":true,"nodeGraph":{"edges":[{"fromNode":1,"fromOutput":0,"toInput":0,"toNode":0},{"fromNode":1,"fromOutput":1,"toInput":1,"toNode":0}],"nodes":[{"inputs":[[1,1,1,1]],"is_active_output":true,"name":"MaxOutput","outputs":[],"type":"OUTPUT_MAX"},{"IOR":1.5,"inputFactors":[0,0,0,0,0,0,0,0,0,0,0,0],"inputs":[[0.250980406999588,0.6823529601097107,0.9843137860298157,1.0],[0.250980406999588,0.6823529601097107,0.9843137860298157,1.0],[0.0,0.0,0.0,1.0],0.10000000149011612,1.0,[0.0,0.0,0.0,1.0],1.0,[0,0,0,0],[0,0,0],[0,0,0,0],[0,0,0,0],0],"is_active_output":false,"name":"02_D_Spacers","outputs":[[0,0,0,0]],"selfIllumColorOn":false,"type":"MATERIAL_MAX"}]},"profile":"max","useShadeless":false}},"name":"02_D_Spacers"},{"doubleSided":false,"emissiveFactor":[0,0,0],"extensions":{"S8S_v3d_material_data":{"depthWrite":true,"nodeGraph":{"edges":[{"fromNode":1,"fromOutput":0,"toInput":0,"toNode":0},{"fromNode":1,"fromOutput":1,"toInput":1,"toNode":0}],"nodes":[{"inputs":[[1,1,1,1]],"is_active_output":true,"name":"MaxOutput","outputs":[],"type":"OUTPUT_MAX"},{"IOR":1.5,"inputFactors":[0,0,0,0,0,0,0,0,0,0,0,0],"inputs":[[0.4784314036369324,0.16862745583057404,0.0,1.0],[0.4784314036369324,0.16862745583057404,0.0,1.0],[0.0,0.0,0.0,1.0],0.10000000149011612,1.0,[0.0,0.0,0.0,1.0],1.0,[0,0,0,0],[0,0,0],[0,0,0,0],[0,0,0,0],0],"is_active_output":false,"name":"02_D_Interior","outputs":[[0,0,0,0]],"selfIllumColorOn":false,"type":"MATERIAL_MAX"}]},"profile":"max","useShadeless":false}},"name":"02_D_Interior"},{"doubleSided":false,"emissiveFactor":[0,0,0],"extensions":{"S8S_v3d_material_data":{"depthWrite":true,"nodeGraph":{"edges":[{"fromNode":1,"fromOutput":0,"toInput":0,"toNode":0},{"fromNode":1,"fromOutput":1,"toInput":1,"toNode":0}],"nodes":[{"inputs":[[1,1,1,1]],"is_active_output":true,"name":"MaxOutput","outputs":[],"type":"OUTPUT_MAX"},{"IOR":1.5,"inputFactors":[0,0,0,0,0,0,0,0,0,0,0,0],"inputs":[[0.4000000059604645,0.4000000059604645,0.4000000059604645,1.0],[0.4000000059604645,0.4000000059604645,0.4000000059604645,1.0],[0.0,0.0,0.0,1.0],0.10000000149011612,1.0,[0.0,0.0,0.0,1.0],1.0,[0,0,0,0],[0,0,0],[0,0,0,0],[0,0,0,0],0],"is_active_output":false,"name":"02_D_Exterior","outputs":[[0,0,0,0]],"selfIllumColorOn":false,"type":"MATERIAL_MAX"}]},"profile":"max","useShadeless":false}},"name":"02_D_Exterior"},{"doubleSided":false,"emissiveFactor":[0,0,0],"extensions":{"S8S_v3d_material_data":{"depthWrite":true,"nodeGraph":{"edges":[{"fromNode":1,"fromOutput":0,"toInput":0,"toNode":0},{"fromNode":1,"fromOutput":1,"toInput":1,"toNode":0}],"nodes":[{"inputs":[[1,1,1,1]],"is_active_output":true,"name":"MaxOutput","outputs":[],"type":"OUTPUT_MAX"},{"IOR":1.5,"inputFactors":[0,0,0,0,0,0,0,0,0,0,0,0],"inputs":[[0.8941177129745483,0.07058823853731155,0.6313725709915161,1.0],[0.8941177129745483,0.07058823853731155,0.6313725709915161,1.0],[0.0,0.0,0.0,1.0],0.10000000149011612,1.0,[0.0,0.0,0.0,1.0],1.0,[0,0,0,0],[0,0,0],[0,0,0,0],[0,0,0,0],0],"is_active_output":false,"name":"02_D_Hardware","outputs":[[0,0,0,0]],"selfIllumColorOn":false,"type":"MATERIAL_MAX"}]},"profile":"max","useShadeless":false}},"name":"02_D_Hardware"},{"extensions":{"S8S_v3d_material_data":{"depthWrite":true,"nodeGraph":{"edges":[],"nodes":[{"inputs":[[0.0,0.0,0.0,1]],"is_active_output":true,"name":"World Output","outputs":[],"type":"OUTPUT_MAX"}]},"profile":"max","useShadeless":false}},"name":"Verge3D_Environment"}],"meshes":[{"name":"02_D_Glass","primitives":[{"attributes":{"NORMAL":2,"POSITION":1,"TANGENT":3,"TEXCOORD_0":4,"TEXCOORD_1":5},"indices":0,"material":0,"mode":4}]},{"name":"02_D_Sill","primitives":[{"attributes":{"NORMAL":8,"POSITION":7,"TANGENT":9,"TEXCOORD_0":10,"TEXCOORD_1":11},"indices":6,"material":1,"mode":4}]},{"name":"02_D_Spacer","primitives":[{"attributes":{"NORMAL":14,"POSITION":13,"TANGENT":15,"TEXCOORD_0":16,"TEXCOORD_1":17},"indices":12,"material":2,"mode":4}]},{"name":"02_D_Interior","primitives":[{"attributes":{"NORMAL":20,"POSITION":19,"TANGENT":21,"TEXCOORD_0":22,"TEXCOORD_1":23},"indices":18,"material":3,"mode":4}]},{"name":"02_D_Exterior","primitives":[{"attributes":{"NORMAL":26,"POSITION":25,"TANGENT":27,"TEXCOORD_0":28,"TEXCOORD_1":29},"indices":24,"material":4,"mode":4}]},{"name":"02_D_Hardware","primitives":[{"attributes":{"NORMAL":32,"POSITION":31,"TANGENT":33,"TEXCOORD_0":34},"indices":30,"material":5,"mode":4}]}],"nodes":[{"extensions":{"S8S_v3d_node_data":{"frustumCulling":true,"hidden":false,"renderOrder":0,"useCastShadows":true,"useShadows":true}},"extras":{"customProps":{"MapChannel:1":"UVChannel_1","MapChannel:2":"map1"}},"mesh":0,"name":"02_D_Glass","rotation":[0.7071068286895752,0.0,-0.0,0.7071067690849304]},{"extensions":{"S8S_v3d_node_data":{"frustumCulling":true,"hidden":false,"renderOrder":0,"useCastShadows":true,"useShadows":true}},"extras":{"customProps":{"MapChannel:1":"UVChannel_1","MapChannel:2":"map1"}},"mesh":1,"name":"02_D_Sill","rotation":[0.7071068286895752,0.0,-0.0,0.7071067690849304]},{"extensions":{"S8S_v3d_node_data":{"frustumCulling":true,"hidden":false,"renderOrder":0,"useCastShadows":true,"useShadows":true}},"extras":{"customProps":{"MapChannel:1":"UVChannel_1","MapChannel:2":"map1"}},"mesh":2,"name":"02_D_Spacer","rotation":[0.7071068286895752,0.0,-0.0,0.7071067690849304]},{"extensions":{"S8S_v3d_node_data":{"frustumCulling":true,"hidden":false,"renderOrder":0,"useCastShadows":true,"useShadows":true}},"extras":{"customProps":{"MapChannel:1":"UVChannel_1","MapChannel:2":"map1"}},"mesh":3,"name":"02_D_Interior","rotation":[0.7071068286895752,0.0,-0.0,0.7071067690849304]},{"extensions":{"S8S_v3d_node_data":{"frustumCulling":true,"hidden":false,"renderOrder":0,"useCastShadows":true,"useShadows":true}},"extras":{"customProps":{"MapChannel:1":"UVChannel_1","MapChannel:2":"map1"}},"mesh":4,"name":"02_D_Exterior","rotation":[0.7071068286895752,0.0,-0.0,0.7071067690849304]},{"extensions":{"S8S_v3d_node_data":{"frustumCulling":true,"hidden":false,"renderOrder":0,"useCastShadows":true,"useShadows":true}},"extras":{"customProps":{"babylonjs_GUID":"51ad3f86-3515-4836-a079-3a0467bdc630"}},"mesh":5,"name":"02_D_Hardware","rotation":[0.7071068286895752,0.0,-0.0,0.7071067094802856]},{"camera":0,"children":[7],"name":"__DEFAULT_CAMERA__","rotation":[-2.1855694143368964e-08,0.0,0.0,1.0],"scale":[1.0,1.0,1.0],"translation":[18.3662109375,134.71766662597656,5.888696250622161e-06]},{"extensions":{"S8S_v3d_node_data":{"light":0}},"name":"__DEFAULT_LIGHT__","rotation":[3.774895063202166e-08,0.0,0.0,1.0],"scale":[1.0,1.0,1.0],"translation":[525.2889404296875,787.9334106445312,1050.577880859375]}],"scene":0,"scenes":[{"extensions":{"S8S_v3d_scene_data":{"aaMethod":"AUTO","light":1,"postprocessing":[],"shadowMap":{"renderReverseSided":false,"renderSingleSided":true,"type":"PCFPOISSON"},"worldMaterial":6}},"extras":{"animFrameRate":30},"name":"Scene","nodes":[0,1,2,3,4,5,6]}]}
