{
  "accessors": [
    {
      "bufferView": 0,
      "componentType": 5125,
      "count": 33552,
      "type": "SCALAR"
    },
    {
      "bufferView": 1,
      "componentType": 5126,
      "count": 6778,
      "max": [
        0.212762072682381,
        -0.508461177349091,
        0.0244798213243484
      ],
      "min": [
        -0.505703449249268,
        -0.932615637779236,
        -0.0366341322660446
      ],
      "type": "VEC3"
    },
    {
      "bufferView": 2,
      "componentType": 5126,
      "count": 6778,
      "type": "VEC3"
    },
    {
      "bufferView": 3,
      "componentType": 5126,
      "count": 6778,
      "type": "VEC2"
    },
    {
      "bufferView": 4,
      "componentType": 5125,
      "count": 2082,
      "type": "SCALAR"
    },
    {
      "bufferView": 5,
      "componentType": 5126,
      "count": 1516,
      "max": [
        0.56922310590744,
        0.999999165534973,
        -0.0492608249187469
      ],
      "min": [
        -0.568316161632538,
        -0.960887670516968,
        -0.203596130013466
      ],
      "type": "VEC3"
    },
    {
      "bufferView": 6,
      "componentType": 5126,
      "count": 1516,
      "type": "VEC3"
    },
    {
      "bufferView": 7,
      "componentType": 5126,
      "count": 1516,
      "type": "VEC2"
    },
    {
      "bufferView": 8,
      "componentType": 5125,
      "count": 540,
      "type": "SCALAR"
    },
    {
      "bufferView": 9,
      "componentType": 5126,
      "count": 327,
      "max": [
        0.452242314815521,
        0.874843120574951,
        -0.119261279702187
      ],
      "min": [
        -0.452723920345306,
        -0.868684113025665,
        -0.145201712846756
      ],
      "type": "VEC3"
    },
    {
      "bufferView": 10,
      "componentType": 5126,
      "count": 327,
      "type": "VEC3"
    },
    {
      "bufferView": 11,
      "componentType": 5126,
      "count": 327,
      "type": "VEC2"
    },
    {
      "bufferView": 12,
      "componentType": 5125,
      "count": 24,
      "type": "SCALAR"
    },
    {
      "bufferView": 13,
      "componentType": 5126,
      "count": 16,
      "max": [
        0.446411311626434,
        0.873266339302063,
        -0.112070873379707
      ],
      "min": [
        -0.440745264291763,
        -0.865479648113251,
        -0.156527742743492
      ],
      "type": "VEC3"
    },
    {
      "bufferView": 14,
      "componentType": 5126,
      "count": 16,
      "type": "VEC3"
    },
    {
      "bufferView": 15,
      "componentType": 5126,
      "count": 16,
      "type": "VEC2"
    },
    {
      "bufferView": 16,
      "componentType": 5125,
      "count": 18507,
      "type": "SCALAR"
    },
    {
      "bufferView": 17,
      "componentType": 5126,
      "count": 11997,
      "max": [
        0.581368565559387,
        1.00000011920929,
        -0.0258715450763702
      ],
      "min": [
        -0.581404805183411,
        -0.99999988079071,
        -0.203950002789497
      ],
      "type": "VEC3"
    },
    {
      "bufferView": 18,
      "componentType": 5126,
      "count": 11997,
      "type": "VEC3"
    },
    {
      "bufferView": 19,
      "componentType": 5126,
      "count": 11997,
      "type": "VEC2"
    },
    {
      "bufferView": 20,
      "componentType": 5125,
      "count": 9483,
      "type": "SCALAR"
    },
    {
      "bufferView": 21,
      "componentType": 5126,
      "count": 6125,
      "max": [
        0.581404745578766,
        0.99999988079071,
        0.00227437913417816
      ],
      "min": [
        -0.581404745578766,
        -1.0,
        -0.168009325861931
      ],
      "type": "VEC3"
    },
    {
      "bufferView": 22,
      "componentType": 5126,
      "count": 6125,
      "type": "VEC3"
    },
    {
      "bufferView": 23,
      "componentType": 5126,
      "count": 6125,
      "type": "VEC2"
    }
  ],
  "asset": {
    "generator": "Substance Painter 2019.2.3",
    "version": "2.0"
  },
  "bufferViews": [
    {
      "buffer": 0,
      "byteLength": 134208,
      "target": 34963
    },
    {
      "buffer": 0,
      "byteLength": 81336,
      "byteOffset": 134208,
      "target": 34962
    },
    {
      "buffer": 0,
      "byteLength": 81336,
      "byteOffset": 215544,
      "target": 34962
    },
    {
      "buffer": 0,
      "byteLength": 54224,
      "byteOffset": 296880,
      "target": 34962
    },
    {
      "buffer": 0,
      "byteLength": 8328,
      "byteOffset": 351104,
      "target": 34963
    },
    {
      "buffer": 0,
      "byteLength": 18192,
      "byteOffset": 359432,
      "target": 34962
    },
    {
      "buffer": 0,
      "byteLength": 18192,
      "byteOffset": 377624,
      "target": 34962
    },
    {
      "buffer": 0,
      "byteLength": 12128,
      "byteOffset": 395816,
      "target": 34962
    },
    {
      "buffer": 0,
      "byteLength": 2160,
      "byteOffset": 407944,
      "target": 34963
    },
    {
      "buffer": 0,
      "byteLength": 3924,
      "byteOffset": 410104,
      "target": 34962
    },
    {
      "buffer": 0,
      "byteLength": 3924,
      "byteOffset": 414028,
      "target": 34962
    },
    {
      "buffer": 0,
      "byteLength": 2616,
      "byteOffset": 417952,
      "target": 34962
    },
    {
      "buffer": 0,
      "byteLength": 96,
      "byteOffset": 420568,
      "target": 34963
    },
    {
      "buffer": 0,
      "byteLength": 192,
      "byteOffset": 420664,
      "target": 34962
    },
    {
      "buffer": 0,
      "byteLength": 192,
      "byteOffset": 420856,
      "target": 34962
    },
    {
      "buffer": 0,
      "byteLength": 128,
      "byteOffset": 421048,
      "target": 34962
    },
    {
      "buffer": 0,
      "byteLength": 74028,
      "byteOffset": 421176,
      "target": 34963
    },
    {
      "buffer": 0,
      "byteLength": 143964,
      "byteOffset": 495204,
      "target": 34962
    },
    {
      "buffer": 0,
      "byteLength": 143964,
      "byteOffset": 639168,
      "target": 34962
    },
    {
      "buffer": 0,
      "byteLength": 95976,
      "byteOffset": 783132,
      "target": 34962
    },
    {
      "buffer": 0,
      "byteLength": 37932,
      "byteOffset": 879108,
      "target": 34963
    },
    {
      "buffer": 0,
      "byteLength": 73500,
      "byteOffset": 917040,
      "target": 34962
    },
    {
      "buffer": 0,
      "byteLength": 73500,
      "byteOffset": 990540,
      "target": 34962
    },
    {
      "buffer": 0,
      "byteLength": 49000,
      "byteOffset": 1064040,
      "target": 34962
    }
  ],
  "buffers": [
    {
      "byteLength": 1113040,
      "uri": "18_W_CasementSingle_v01.bin"
    }
  ],
  "images": [
    {
      "uri": "18_W_Exterior_baseColor.png"
    },
    {
      "uri": "18_W_Exterior_occlusionRoughnessMetallic.png"
    },
    {
      "uri": "18_W_Exterior_normal.png"
    },
    {
      "uri": "18_W_Exterior_emissive.png"
    },
    {
      "uri": "18_W_Glass_baseColor.png"
    },
    {
      "uri": "18_W_Glass_occlusionRoughnessMetallic.png"
    },
    {
      "uri": "18_W_Glass_normal.png"
    },
    {
      "uri": "18_W_Glass_emissive.png"
    },
    {
      "uri": "18_W_Gray_baseColor.png"
    },
    {
      "uri": "18_W_Gray_occlusionRoughnessMetallic.png"
    },
    {
      "uri": "18_W_Gray_normal.png"
    },
    {
      "uri": "18_W_Gray_emissive.png"
    },
    {
      "uri": "18_W_Hardware_baseColor.png"
    },
    {
      "uri": "18_W_Hardware_occlusionRoughnessMetallic.png"
    },
    {
      "uri": "18_W_Hardware_normal.png"
    },
    {
      "uri": "18_W_Hardware_emissive.png"
    },
    {
      "uri": "18_W_Interior_baseColor.png"
    },
    {
      "uri": "18_W_Interior_occlusionRoughnessMetallic.png"
    },
    {
      "uri": "18_W_Interior_normal.png"
    },
    {
      "uri": "18_W_Interior_emissive.png"
    },
    {
      "uri": "18_W_Spacers_baseColor.png"
    },
    {
      "uri": "18_W_Spacers_occlusionRoughnessMetallic.png"
    },
    {
      "uri": "18_W_Spacers_normal.png"
    },
    {
      "uri": "18_W_Spacers_emissive.png"
    }
  ],
  "materials": [
    {
      "alphaMode": "OPAQUE",
      "emissiveFactor": [
        1.0,
        1.0,
        1.0
      ],
      "emissiveTexture": {
        "index": 3
      },
      "name": "18_W_Exterior",
      "normalTexture": {
        "index": 2
      },
      "occlusionTexture": {
        "index": 1
      },
      "pbrMetallicRoughness": {
        "baseColorTexture": {
          "index": 0
        },
        "metallicRoughnessTexture": {
          "index": 1
        }
      }
    },
    {
      "alphaMode": "BLEND",
      "emissiveFactor": [
        1.0,
        1.0,
        1.0
      ],
      "emissiveTexture": {
        "index": 7
      },
      "name": "18_W_Glass",
      "normalTexture": {
        "index": 6
      },
      "occlusionTexture": {
        "index": 5
      },
      "pbrMetallicRoughness": {
        "baseColorTexture": {
          "index": 4
        },
        "metallicRoughnessTexture": {
          "index": 5
        }
      }
    },
    {
      "alphaMode": "OPAQUE",
      "emissiveFactor": [
        1.0,
        1.0,
        1.0
      ],
      "emissiveTexture": {
        "index": 11
      },
      "name": "18_W_Gray",
      "normalTexture": {
        "index": 10
      },
      "occlusionTexture": {
        "index": 9
      },
      "pbrMetallicRoughness": {
        "baseColorTexture": {
          "index": 8
        },
        "metallicRoughnessTexture": {
          "index": 9
        }
      }
    },
    {
      "alphaMode": "OPAQUE",
      "emissiveFactor": [
        1.0,
        1.0,
        1.0
      ],
      "emissiveTexture": {
        "index": 15
      },
      "name": "18_W_Hardware",
      "normalTexture": {
        "index": 14
      },
      "occlusionTexture": {
        "index": 13
      },
      "pbrMetallicRoughness": {
        "baseColorTexture": {
          "index": 12
        },
        "metallicRoughnessTexture": {
          "index": 13
        }
      }
    },
    {
      "alphaMode": "OPAQUE",
      "emissiveFactor": [
        1.0,
        1.0,
        1.0
      ],
      "emissiveTexture": {
        "index": 19
      },
      "name": "18_W_Interior",
      "normalTexture": {
        "index": 18
      },
      "occlusionTexture": {
        "index": 17
      },
      "pbrMetallicRoughness": {
        "baseColorTexture": {
          "index": 16
        },
        "metallicRoughnessTexture": {
          "index": 17
        }
      }
    },
    {
      "alphaMode": "OPAQUE",
      "emissiveFactor": [
        1.0,
        1.0,
        1.0
      ],
      "emissiveTexture": {
        "index": 23
      },
      "name": "18_W_Spacers",
      "normalTexture": {
        "index": 22
      },
      "occlusionTexture": {
        "index": 21
      },
      "pbrMetallicRoughness": {
        "baseColorTexture": {
          "index": 20
        },
        "metallicRoughnessTexture": {
          "index": 21
        }
      }
    }
  ],
  "meshes": [
    {
      "name": "18_W_Hardware",
      "primitives": [
        {
          "attributes": {
            "NORMAL": 2,
            "POSITION": 1,
            "TEXCOORD_0": 3
          },
          "indices": 0,
          "material": 3,
          "mode": 4
        }
      ]
    },
    {
      "name": "18_W_Gray",
      "primitives": [
        {
          "attributes": {
            "NORMAL": 6,
            "POSITION": 5,
            "TEXCOORD_0": 7
          },
          "indices": 4,
          "material": 2,
          "mode": 4
        }
      ]
    },
    {
      "name": "18_W_Spacers",
      "primitives": [
        {
          "attributes": {
            "NORMAL": 10,
            "POSITION": 9,
            "TEXCOORD_0": 11
          },
          "indices": 8,
          "material": 5,
          "mode": 4
        }
      ]
    },
    {
      "name": "18_W_Glass",
      "primitives": [
        {
          "attributes": {
            "NORMAL": 14,
            "POSITION": 13,
            "TEXCOORD_0": 15
          },
          "indices": 12,
          "material": 1,
          "mode": 4
        }
      ]
    },
    {
      "name": "18_W_Exterior",
      "primitives": [
        {
          "attributes": {
            "NORMAL": 18,
            "POSITION": 17,
            "TEXCOORD_0": 19
          },
          "indices": 16,
          "material": 0,
          "mode": 4
        }
      ]
    },
    {
      "name": "18_W_Interior",
      "primitives": [
        {
          "attributes": {
            "NORMAL": 22,
            "POSITION": 21,
            "TEXCOORD_0": 23
          },
          "indices": 20,
          "material": 4,
          "mode": 4
        }
      ]
    }
  ],
  "nodes": [
    {
      "children": [
        1,
        3,
        5,
        7,
        9,
        11
      ],
      "name": "root",
      "scale": [
        0.664296984672546,
        0.664296984672546,
        0.664296984672546
      ],
      "translation": [
        0.0,
        0.663954555988312,
        0.0597463771700859
      ]
    },
    {
      "children": [
        2
      ],
      "name": "18_W_Hardware"
    },
    {
      "mesh": 0,
      "name": "18_W_Hardware"
    },
    {
      "children": [
        4
      ],
      "name": "18_W_Gray"
    },
    {
      "mesh": 1,
      "name": "18_W_Gray"
    },
    {
      "children": [
        6
      ],
      "name": "18_W_Spacers"
    },
    {
      "mesh": 2,
      "name": "18_W_Spacers"
    },
    {
      "children": [
        8
      ],
      "name": "18_W_Glass"
    },
    {
      "mesh": 3,
      "name": "18_W_Glass"
    },
    {
      "children": [
        10
      ],
      "name": "18_W_Exterior"
    },
    {
      "mesh": 4,
      "name": "18_W_Exterior"
    },
    {
      "children": [
        12
      ],
      "name": "18_W_Interior"
    },
    {
      "mesh": 5,
      "name": "18_W_Interior"
    }
  ],
  "samplers": [
    {
      "magFilter": 9729,
      "minFilter": 9985,
      "wrapS": 10497,
      "wrapT": 10497
    }
  ],
  "scene": 0,
  "scenes": [
    {
      "name": "Scene",
      "nodes": [
        0
      ]
    }
  ],
  "textures": [
    {
      "sampler": 0,
      "source": 0
    },
    {
      "sampler": 0,
      "source": 1
    },
    {
      "sampler": 0,
      "source": 2
    },
    {
      "sampler": 0,
      "source": 3
    },
    {
      "sampler": 0,
      "source": 4
    },
    {
      "sampler": 0,
      "source": 5
    },
    {
      "sampler": 0,
      "source": 6
    },
    {
      "sampler": 0,
      "source": 7
    },
    {
      "sampler": 0,
      "source": 8
    },
    {
      "sampler": 0,
      "source": 9
    },
    {
      "sampler": 0,
      "source": 10
    },
    {
      "sampler": 0,
      "source": 11
    },
    {
      "sampler": 0,
      "source": 12
    },
    {
      "sampler": 0,
      "source": 13
    },
    {
      "sampler": 0,
      "source": 14
    },
    {
      "sampler": 0,
      "source": 15
    },
    {
      "sampler": 0,
      "source": 16
    },
    {
      "sampler": 0,
      "source": 17
    },
    {
      "sampler": 0,
      "source": 18
    },
    {
      "sampler": 0,
      "source": 19
    },
    {
      "sampler": 0,
      "source": 20
    },
    {
      "sampler": 0,
      "source": 21
    },
    {
      "sampler": 0,
      "source": 22
    },
    {
      "sampler": 0,
      "source": 23
    }
  ]
}