{
  "accessors": [
    {
      "bufferView": 0,
      "componentType": 5125,
      "count": 61896,
      "type": "SCALAR"
    },
    {
      "bufferView": 1,
      "componentType": 5126,
      "count": 11414,
      "max": [
        0.947628557682037,
        -0.120873712003231,
        0.0841063484549522
      ],
      "min": [
        -0.94526731967926,
        -0.523270428180695,
        0.0244240909814835
      ],
      "type": "VEC3"
    },
    {
      "bufferView": 2,
      "componentType": 5126,
      "count": 11414,
      "type": "VEC3"
    },
    {
      "bufferView": 3,
      "componentType": 5126,
      "count": 11414,
      "type": "VEC2"
    },
    {
      "bufferView": 4,
      "componentType": 5125,
      "count": 4344,
      "type": "SCALAR"
    },
    {
      "bufferView": 5,
      "componentType": 5126,
      "count": 3534,
      "max": [
        0.999999940395355,
        0.569036841392517,
        0.0626039206981659
      ],
      "min": [
        -0.999767899513245,
        -0.57078218460083,
        -0.0573751702904701
      ],
      "type": "VEC3"
    },
    {
      "bufferView": 6,
      "componentType": 5126,
      "count": 3534,
      "type": "VEC3"
    },
    {
      "bufferView": 7,
      "componentType": 5126,
      "count": 3534,
      "type": "VEC2"
    },
    {
      "bufferView": 8,
      "componentType": 5125,
      "count": 360,
      "type": "SCALAR"
    },
    {
      "bufferView": 9,
      "componentType": 5126,
      "count": 220,
      "max": [
        0.894144594669342,
        0.468080312013626,
        -0.0254618693143129
      ],
      "min": [
        -0.901491820812225,
        -0.468948930501938,
        -0.0437943153083324
      ],
      "type": "VEC3"
    },
    {
      "bufferView": 10,
      "componentType": 5126,
      "count": 220,
      "type": "VEC3"
    },
    {
      "bufferView": 11,
      "componentType": 5126,
      "count": 220,
      "type": "VEC2"
    },
    {
      "bufferView": 12,
      "componentType": 5125,
      "count": 678,
      "type": "SCALAR"
    },
    {
      "bufferView": 13,
      "componentType": 5126,
      "count": 408,
      "max": [
        0.99963641166687,
        -0.479521900415421,
        0.0626038536429405
      ],
      "min": [
        -0.999767899513245,
        -0.57078218460083,
        -0.0827732980251312
      ],
      "type": "VEC3"
    },
    {
      "bufferView": 14,
      "componentType": 5126,
      "count": 408,
      "type": "VEC3"
    },
    {
      "bufferView": 15,
      "componentType": 5126,
      "count": 408,
      "type": "VEC2"
    },
    {
      "bufferView": 16,
      "componentType": 5125,
      "count": 11763,
      "type": "SCALAR"
    },
    {
      "bufferView": 17,
      "componentType": 5126,
      "count": 9464,
      "max": [
        0.999999940395355,
        0.570782124996185,
        0.0414286516606808
      ],
      "min": [
        -1.0,
        -0.57078218460083,
        -0.0841063559055328
      ],
      "type": "VEC3"
    },
    {
      "bufferView": 18,
      "componentType": 5126,
      "count": 9464,
      "type": "VEC3"
    },
    {
      "bufferView": 19,
      "componentType": 5126,
      "count": 9464,
      "type": "VEC2"
    },
    {
      "bufferView": 20,
      "componentType": 5125,
      "count": 24,
      "type": "SCALAR"
    },
    {
      "bufferView": 21,
      "componentType": 5126,
      "count": 16,
      "max": [
        0.932706594467163,
        0.504728734493256,
        -0.0210177358239889
      ],
      "min": [
        -0.931885004043579,
        -0.467378079891205,
        -0.0481626950204372
      ],
      "type": "VEC3"
    },
    {
      "bufferView": 22,
      "componentType": 5126,
      "count": 16,
      "type": "VEC3"
    },
    {
      "bufferView": 23,
      "componentType": 5126,
      "count": 16,
      "type": "VEC2"
    }
  ],
  "asset": {
    "generator": "Substance Painter 2019.2.3",
    "version": "2.0"
  },
  "bufferViews": [
    {
      "buffer": 0,
      "byteLength": 247584,
      "target": 34963
    },
    {
      "buffer": 0,
      "byteLength": 136968,
      "byteOffset": 247584,
      "target": 34962
    },
    {
      "buffer": 0,
      "byteLength": 136968,
      "byteOffset": 384552,
      "target": 34962
    },
    {
      "buffer": 0,
      "byteLength": 91312,
      "byteOffset": 521520,
      "target": 34962
    },
    {
      "buffer": 0,
      "byteLength": 17376,
      "byteOffset": 612832,
      "target": 34963
    },
    {
      "buffer": 0,
      "byteLength": 42408,
      "byteOffset": 630208,
      "target": 34962
    },
    {
      "buffer": 0,
      "byteLength": 42408,
      "byteOffset": 672616,
      "target": 34962
    },
    {
      "buffer": 0,
      "byteLength": 28272,
      "byteOffset": 715024,
      "target": 34962
    },
    {
      "buffer": 0,
      "byteLength": 1440,
      "byteOffset": 743296,
      "target": 34963
    },
    {
      "buffer": 0,
      "byteLength": 2640,
      "byteOffset": 744736,
      "target": 34962
    },
    {
      "buffer": 0,
      "byteLength": 2640,
      "byteOffset": 747376,
      "target": 34962
    },
    {
      "buffer": 0,
      "byteLength": 1760,
      "byteOffset": 750016,
      "target": 34962
    },
    {
      "buffer": 0,
      "byteLength": 2712,
      "byteOffset": 751776,
      "target": 34963
    },
    {
      "buffer": 0,
      "byteLength": 4896,
      "byteOffset": 754488,
      "target": 34962
    },
    {
      "buffer": 0,
      "byteLength": 4896,
      "byteOffset": 759384,
      "target": 34962
    },
    {
      "buffer": 0,
      "byteLength": 3264,
      "byteOffset": 764280,
      "target": 34962
    },
    {
      "buffer": 0,
      "byteLength": 47052,
      "byteOffset": 767544,
      "target": 34963
    },
    {
      "buffer": 0,
      "byteLength": 113568,
      "byteOffset": 814596,
      "target": 34962
    },
    {
      "buffer": 0,
      "byteLength": 113568,
      "byteOffset": 928164,
      "target": 34962
    },
    {
      "buffer": 0,
      "byteLength": 75712,
      "byteOffset": 1041732,
      "target": 34962
    },
    {
      "buffer": 0,
      "byteLength": 96,
      "byteOffset": 1117444,
      "target": 34963
    },
    {
      "buffer": 0,
      "byteLength": 192,
      "byteOffset": 1117540,
      "target": 34962
    },
    {
      "buffer": 0,
      "byteLength": 192,
      "byteOffset": 1117732,
      "target": 34962
    },
    {
      "buffer": 0,
      "byteLength": 128,
      "byteOffset": 1117924,
      "target": 34962
    }
  ],
  "buffers": [
    {
      "byteLength": 1118052,
      "uri": "24_W_Awning_v01.bin"
    }
  ],
  "images": [
    {
      "uri": "24_W_Exterior_baseColor.png"
    },
    {
      "uri": "24_W_Exterior_occlusionRoughnessMetallic.png"
    },
    {
      "uri": "24_W_Exterior_normal.png"
    },
    {
      "uri": "24_W_Exterior_emissive.png"
    },
    {
      "uri": "24_W_Fibrex_baseColor.png"
    },
    {
      "uri": "24_W_Fibrex_occlusionRoughnessMetallic.png"
    },
    {
      "uri": "24_W_Fibrex_normal.png"
    },
    {
      "uri": "24_W_Fibrex_emissive.png"
    },
    {
      "uri": "24_W_Glass_baseColor.png"
    },
    {
      "uri": "24_W_Glass_occlusionRoughnessMetallic.png"
    },
    {
      "uri": "24_W_Glass_normal.png"
    },
    {
      "uri": "24_W_Glass_emissive.png"
    },
    {
      "uri": "24_W_Hardware_baseColor.png"
    },
    {
      "uri": "24_W_Hardware_occlusionRoughnessMetallic.png"
    },
    {
      "uri": "24_W_Hardware_normal.png"
    },
    {
      "uri": "24_W_Hardware_emissive.png"
    },
    {
      "uri": "24_W_Interior_baseColor.png"
    },
    {
      "uri": "24_W_Interior_occlusionRoughnessMetallic.png"
    },
    {
      "uri": "24_W_Interior_normal.png"
    },
    {
      "uri": "24_W_Interior_emissive.png"
    },
    {
      "uri": "24_W_Spacers_baseColor.png"
    },
    {
      "uri": "24_W_Spacers_occlusionRoughnessMetallic.png"
    },
    {
      "uri": "24_W_Spacers_normal.png"
    },
    {
      "uri": "24_W_Spacers_emissive.png"
    }
  ],
  "materials": [
    {
      "alphaMode": "OPAQUE",
      "emissiveFactor": [
        1.0,
        1.0,
        1.0
      ],
      "emissiveTexture": {
        "index": 3
      },
      "name": "24_W_Exterior",
      "normalTexture": {
        "index": 2
      },
      "occlusionTexture": {
        "index": 1
      },
      "pbrMetallicRoughness": {
        "baseColorTexture": {
          "index": 0
        },
        "metallicRoughnessTexture": {
          "index": 1
        }
      }
    },
    {
      "alphaMode": "OPAQUE",
      "emissiveFactor": [
        1.0,
        1.0,
        1.0
      ],
      "emissiveTexture": {
        "index": 7
      },
      "name": "24_W_Fibrex",
      "normalTexture": {
        "index": 6
      },
      "occlusionTexture": {
        "index": 5
      },
      "pbrMetallicRoughness": {
        "baseColorTexture": {
          "index": 4
        },
        "metallicRoughnessTexture": {
          "index": 5
        }
      }
    },
    {
      "alphaMode": "BLEND",
      "emissiveFactor": [
        1.0,
        1.0,
        1.0
      ],
      "emissiveTexture": {
        "index": 11
      },
      "name": "24_W_Glass",
      "normalTexture": {
        "index": 10
      },
      "occlusionTexture": {
        "index": 9
      },
      "pbrMetallicRoughness": {
        "baseColorTexture": {
          "index": 8
        },
        "metallicRoughnessTexture": {
          "index": 9
        }
      }
    },
    {
      "alphaMode": "OPAQUE",
      "emissiveFactor": [
        1.0,
        1.0,
        1.0
      ],
      "emissiveTexture": {
        "index": 15
      },
      "name": "24_W_Hardware",
      "normalTexture": {
        "index": 14
      },
      "occlusionTexture": {
        "index": 13
      },
      "pbrMetallicRoughness": {
        "baseColorTexture": {
          "index": 12
        },
        "metallicRoughnessTexture": {
          "index": 13
        }
      }
    },
    {
      "alphaMode": "OPAQUE",
      "emissiveFactor": [
        1.0,
        1.0,
        1.0
      ],
      "emissiveTexture": {
        "index": 19
      },
      "name": "24_W_Interior",
      "normalTexture": {
        "index": 18
      },
      "occlusionTexture": {
        "index": 17
      },
      "pbrMetallicRoughness": {
        "baseColorTexture": {
          "index": 16
        },
        "metallicRoughnessTexture": {
          "index": 17
        }
      }
    },
    {
      "alphaMode": "OPAQUE",
      "emissiveFactor": [
        1.0,
        1.0,
        1.0
      ],
      "emissiveTexture": {
        "index": 23
      },
      "name": "24_W_Spacers",
      "normalTexture": {
        "index": 22
      },
      "occlusionTexture": {
        "index": 21
      },
      "pbrMetallicRoughness": {
        "baseColorTexture": {
          "index": 20
        },
        "metallicRoughnessTexture": {
          "index": 21
        }
      }
    }
  ],
  "meshes": [
    {
      "name": "24_W_Hardware",
      "primitives": [
        {
          "attributes": {
            "NORMAL": 2,
            "POSITION": 1,
            "TEXCOORD_0": 3
          },
          "indices": 0,
          "material": 3,
          "mode": 4
        }
      ]
    },
    {
      "name": "24_W_Interior",
      "primitives": [
        {
          "attributes": {
            "NORMAL": 6,
            "POSITION": 5,
            "TEXCOORD_0": 7
          },
          "indices": 4,
          "material": 4,
          "mode": 4
        }
      ]
    },
    {
      "name": "24_W_Spacers",
      "primitives": [
        {
          "attributes": {
            "NORMAL": 10,
            "POSITION": 9,
            "TEXCOORD_0": 11
          },
          "indices": 8,
          "material": 5,
          "mode": 4
        }
      ]
    },
    {
      "name": "24_W_Fibrex",
      "primitives": [
        {
          "attributes": {
            "NORMAL": 14,
            "POSITION": 13,
            "TEXCOORD_0": 15
          },
          "indices": 12,
          "material": 1,
          "mode": 4
        }
      ]
    },
    {
      "name": "24_W_Exterior",
      "primitives": [
        {
          "attributes": {
            "NORMAL": 18,
            "POSITION": 17,
            "TEXCOORD_0": 19
          },
          "indices": 16,
          "material": 0,
          "mode": 4
        }
      ]
    },
    {
      "name": "24_W_Glass",
      "primitives": [
        {
          "attributes": {
            "NORMAL": 22,
            "POSITION": 21,
            "TEXCOORD_0": 23
          },
          "indices": 20,
          "material": 2,
          "mode": 4
        }
      ]
    }
  ],
  "nodes": [
    {
      "children": [
        1,
        3,
        5,
        7,
        9,
        11
      ],
      "name": "root",
      "scale": [
        0.451929330825806,
        0.451929330825806,
        0.451929330825806
      ],
      "translation": [
        -0.00294461846351624,
        0.257802486419678,
        0.00220871344208717
      ]
    },
    {
      "children": [
        2
      ],
      "name": "24_W_Hardware"
    },
    {
      "mesh": 0,
      "name": "24_W_Hardware"
    },
    {
      "children": [
        4
      ],
      "name": "24_W_Interior"
    },
    {
      "mesh": 1,
      "name": "24_W_Interior"
    },
    {
      "children": [
        6
      ],
      "name": "24_W_Spacers"
    },
    {
      "mesh": 2,
      "name": "24_W_Spacers"
    },
    {
      "children": [
        8
      ],
      "name": "24_W_Fibrex"
    },
    {
      "mesh": 3,
      "name": "24_W_Fibrex"
    },
    {
      "children": [
        10
      ],
      "name": "24_W_Exterior"
    },
    {
      "mesh": 4,
      "name": "24_W_Exterior"
    },
    {
      "children": [
        12
      ],
      "name": "24_W_Glass"
    },
    {
      "mesh": 5,
      "name": "24_W_Glass"
    }
  ],
  "samplers": [
    {
      "magFilter": 9729,
      "minFilter": 9985,
      "wrapS": 10497,
      "wrapT": 10497
    }
  ],
  "scene": 0,
  "scenes": [
    {
      "name": "Scene",
      "nodes": [
        0
      ]
    }
  ],
  "textures": [
    {
      "sampler": 0,
      "source": 0
    },
    {
      "sampler": 0,
      "source": 1
    },
    {
      "sampler": 0,
      "source": 2
    },
    {
      "sampler": 0,
      "source": 3
    },
    {
      "sampler": 0,
      "source": 4
    },
    {
      "sampler": 0,
      "source": 5
    },
    {
      "sampler": 0,
      "source": 6
    },
    {
      "sampler": 0,
      "source": 7
    },
    {
      "sampler": 0,
      "source": 8
    },
    {
      "sampler": 0,
      "source": 9
    },
    {
      "sampler": 0,
      "source": 10
    },
    {
      "sampler": 0,
      "source": 11
    },
    {
      "sampler": 0,
      "source": 12
    },
    {
      "sampler": 0,
      "source": 13
    },
    {
      "sampler": 0,
      "source": 14
    },
    {
      "sampler": 0,
      "source": 15
    },
    {
      "sampler": 0,
      "source": 16
    },
    {
      "sampler": 0,
      "source": 17
    },
    {
      "sampler": 0,
      "source": 18
    },
    {
      "sampler": 0,
      "source": 19
    },
    {
      "sampler": 0,
      "source": 20
    },
    {
      "sampler": 0,
      "source": 21
    },
    {
      "sampler": 0,
      "source": 22
    },
    {
      "sampler": 0,
      "source": 23
    }
  ]
}