{
  "accessors": [
    {
      "bufferView": 0,
      "componentType": 5125,
      "count": 24,
      "type": "SCALAR"
    },
    {
      "bufferView": 1,
      "componentType": 5126,
      "count": 16,
      "max": [
        0.979057788848877,
        0.5047287940979,
        -0.088342159986496
      ],
      "min": [
        -0.8855339884758,
        -0.46737802028656,
        -0.115487270057201
      ],
      "type": "VEC3"
    },
    {
      "bufferView": 2,
      "componentType": 5126,
      "count": 16,
      "type": "VEC3"
    },
    {
      "bufferView": 3,
      "componentType": 5126,
      "count": 16,
      "type": "VEC2"
    },
    {
      "bufferView": 4,
      "componentType": 5125,
      "count": 61896,
      "type": "SCALAR"
    },
    {
      "bufferView": 5,
      "componentType": 5126,
      "count": 11407,
      "max": [
        0.993979632854462,
        -0.120873644948006,
        0.0167817529290915
      ],
      "min": [
        -0.898916244506836,
        -0.52327036857605,
        -0.0429005026817322
      ],
      "type": "VEC3"
    },
    {
      "bufferView": 6,
      "componentType": 5126,
      "count": 11407,
      "type": "VEC3"
    },
    {
      "bufferView": 7,
      "componentType": 5126,
      "count": 11407,
      "type": "VEC2"
    },
    {
      "bufferView": 8,
      "componentType": 5125,
      "count": 4344,
      "type": "SCALAR"
    },
    {
      "bufferView": 9,
      "componentType": 5126,
      "count": 2736,
      "max": [
        1.04635107517242,
        0.569036841392517,
        -0.00472049415111542
      ],
      "min": [
        -0.95341682434082,
        -0.570782124996185,
        -0.124699711799622
      ],
      "type": "VEC3"
    },
    {
      "bufferView": 10,
      "componentType": 5126,
      "count": 2736,
      "type": "VEC3"
    },
    {
      "bufferView": 11,
      "componentType": 5126,
      "count": 2736,
      "type": "VEC2"
    },
    {
      "bufferView": 12,
      "componentType": 5125,
      "count": 11775,
      "type": "SCALAR"
    },
    {
      "bufferView": 13,
      "componentType": 5126,
      "count": 8411,
      "max": [
        1.04635107517242,
        0.57078218460083,
        -0.0258959382772446
      ],
      "min": [
        -0.953648924827576,
        -0.570782124996185,
        -0.151430949568748
      ],
      "type": "VEC3"
    },
    {
      "bufferView": 14,
      "componentType": 5126,
      "count": 8411,
      "type": "VEC3"
    },
    {
      "bufferView": 15,
      "componentType": 5126,
      "count": 8411,
      "type": "VEC2"
    },
    {
      "bufferView": 16,
      "componentType": 5125,
      "count": 360,
      "type": "SCALAR"
    },
    {
      "bufferView": 17,
      "componentType": 5126,
      "count": 216,
      "max": [
        0.940495789051056,
        0.468080401420593,
        -0.0927864462137222
      ],
      "min": [
        -0.855140745639801,
        -0.468948841094971,
        -0.111118741333485
      ],
      "type": "VEC3"
    },
    {
      "bufferView": 18,
      "componentType": 5126,
      "count": 216,
      "type": "VEC3"
    },
    {
      "bufferView": 19,
      "componentType": 5126,
      "count": 216,
      "type": "VEC2"
    },
    {
      "bufferView": 20,
      "componentType": 5125,
      "count": 678,
      "type": "SCALAR"
    },
    {
      "bufferView": 21,
      "componentType": 5126,
      "count": 405,
      "max": [
        1.04598748683929,
        -0.479521840810776,
        -0.00472074747085571
      ],
      "min": [
        -0.95341682434082,
        -0.570782124996185,
        -0.150097891688347
      ],
      "type": "VEC3"
    },
    {
      "bufferView": 22,
      "componentType": 5126,
      "count": 405,
      "type": "VEC3"
    },
    {
      "bufferView": 23,
      "componentType": 5126,
      "count": 405,
      "type": "VEC2"
    }
  ],
  "asset": {
    "generator": "Substance Painter 2019.2.3",
    "version": "2.0"
  },
  "bufferViews": [
    {
      "buffer": 0,
      "byteLength": 96,
      "target": 34963
    },
    {
      "buffer": 0,
      "byteLength": 192,
      "byteOffset": 96,
      "target": 34962
    },
    {
      "buffer": 0,
      "byteLength": 192,
      "byteOffset": 288,
      "target": 34962
    },
    {
      "buffer": 0,
      "byteLength": 128,
      "byteOffset": 480,
      "target": 34962
    },
    {
      "buffer": 0,
      "byteLength": 247584,
      "byteOffset": 608,
      "target": 34963
    },
    {
      "buffer": 0,
      "byteLength": 136884,
      "byteOffset": 248192,
      "target": 34962
    },
    {
      "buffer": 0,
      "byteLength": 136884,
      "byteOffset": 385076,
      "target": 34962
    },
    {
      "buffer": 0,
      "byteLength": 91256,
      "byteOffset": 521960,
      "target": 34962
    },
    {
      "buffer": 0,
      "byteLength": 17376,
      "byteOffset": 613216,
      "target": 34963
    },
    {
      "buffer": 0,
      "byteLength": 32832,
      "byteOffset": 630592,
      "target": 34962
    },
    {
      "buffer": 0,
      "byteLength": 32832,
      "byteOffset": 663424,
      "target": 34962
    },
    {
      "buffer": 0,
      "byteLength": 21888,
      "byteOffset": 696256,
      "target": 34962
    },
    {
      "buffer": 0,
      "byteLength": 47100,
      "byteOffset": 718144,
      "target": 34963
    },
    {
      "buffer": 0,
      "byteLength": 100932,
      "byteOffset": 765244,
      "target": 34962
    },
    {
      "buffer": 0,
      "byteLength": 100932,
      "byteOffset": 866176,
      "target": 34962
    },
    {
      "buffer": 0,
      "byteLength": 67288,
      "byteOffset": 967108,
      "target": 34962
    },
    {
      "buffer": 0,
      "byteLength": 1440,
      "byteOffset": 1034396,
      "target": 34963
    },
    {
      "buffer": 0,
      "byteLength": 2592,
      "byteOffset": 1035836,
      "target": 34962
    },
    {
      "buffer": 0,
      "byteLength": 2592,
      "byteOffset": 1038428,
      "target": 34962
    },
    {
      "buffer": 0,
      "byteLength": 1728,
      "byteOffset": 1041020,
      "target": 34962
    },
    {
      "buffer": 0,
      "byteLength": 2712,
      "byteOffset": 1042748,
      "target": 34963
    },
    {
      "buffer": 0,
      "byteLength": 4860,
      "byteOffset": 1045460,
      "target": 34962
    },
    {
      "buffer": 0,
      "byteLength": 4860,
      "byteOffset": 1050320,
      "target": 34962
    },
    {
      "buffer": 0,
      "byteLength": 3240,
      "byteOffset": 1055180,
      "target": 34962
    }
  ],
  "buffers": [
    {
      "byteLength": 1058420,
      "uri": "24_W_Awning_v01.bin"
    }
  ],
  "images": [
    {
      "uri": "24_W_Exterior_baseColor.png"
    },
    {
      "uri": "24_W_Exterior_occlusionRoughnessMetallic.png"
    },
    {
      "uri": "24_W_Exterior_normal.png"
    },
    {
      "uri": "24_W_Exterior_emissive.png"
    },
    {
      "uri": "24_W_Fibrex_baseColor.png"
    },
    {
      "uri": "24_W_Fibrex_occlusionRoughnessMetallic.png"
    },
    {
      "uri": "24_W_Fibrex_normal.png"
    },
    {
      "uri": "24_W_Fibrex_emissive.png"
    },
    {
      "uri": "24_W_Glass_baseColor.png"
    },
    {
      "uri": "24_W_Glass_occlusionRoughnessMetallic.png"
    },
    {
      "uri": "24_W_Glass_normal.png"
    },
    {
      "uri": "24_W_Glass_emissive.png"
    },
    {
      "uri": "24_W_Hardware_baseColor.png"
    },
    {
      "uri": "24_W_Hardware_occlusionRoughnessMetallic.png"
    },
    {
      "uri": "24_W_Hardware_normal.png"
    },
    {
      "uri": "24_W_Hardware_emissive.png"
    },
    {
      "uri": "24_W_Interior_baseColor.png"
    },
    {
      "uri": "24_W_Interior_occlusionRoughnessMetallic.png"
    },
    {
      "uri": "24_W_Interior_normal.png"
    },
    {
      "uri": "24_W_Interior_emissive.png"
    },
    {
      "uri": "24_W_Spacers_baseColor.png"
    },
    {
      "uri": "24_W_Spacers_occlusionRoughnessMetallic.png"
    },
    {
      "uri": "24_W_Spacers_normal.png"
    },
    {
      "uri": "24_W_Spacers_emissive.png"
    }
  ],
  "materials": [
    {
      "alphaMode": "OPAQUE",
      "emissiveFactor": [
        1.0,
        1.0,
        1.0
      ],
      "emissiveTexture": {
        "index": 3
      },
      "name": "24_W_Exterior",
      "normalTexture": {
        "index": 2
      },
      "occlusionTexture": {
        "index": 1
      },
      "pbrMetallicRoughness": {
        "baseColorTexture": {
          "index": 0
        },
        "metallicRoughnessTexture": {
          "index": 1
        }
      }
    },
    {
      "alphaMode": "OPAQUE",
      "emissiveFactor": [
        1.0,
        1.0,
        1.0
      ],
      "emissiveTexture": {
        "index": 7
      },
      "name": "24_W_Fibrex",
      "normalTexture": {
        "index": 6
      },
      "occlusionTexture": {
        "index": 5
      },
      "pbrMetallicRoughness": {
        "baseColorTexture": {
          "index": 4
        },
        "metallicRoughnessTexture": {
          "index": 5
        }
      }
    },
    {
      "alphaMode": "BLEND",
      "emissiveFactor": [
        1.0,
        1.0,
        1.0
      ],
      "emissiveTexture": {
        "index": 11
      },
      "name": "24_W_Glass",
      "normalTexture": {
        "index": 10
      },
      "occlusionTexture": {
        "index": 9
      },
      "pbrMetallicRoughness": {
        "baseColorTexture": {
          "index": 8
        },
        "metallicRoughnessTexture": {
          "index": 9
        }
      }
    },
    {
      "alphaMode": "OPAQUE",
      "emissiveFactor": [
        1.0,
        1.0,
        1.0
      ],
      "emissiveTexture": {
        "index": 15
      },
      "name": "24_W_Hardware",
      "normalTexture": {
        "index": 14
      },
      "occlusionTexture": {
        "index": 13
      },
      "pbrMetallicRoughness": {
        "baseColorTexture": {
          "index": 12
        },
        "metallicRoughnessTexture": {
          "index": 13
        }
      }
    },
    {
      "alphaMode": "OPAQUE",
      "emissiveFactor": [
        1.0,
        1.0,
        1.0
      ],
      "emissiveTexture": {
        "index": 19
      },
      "name": "24_W_Interior",
      "normalTexture": {
        "index": 18
      },
      "occlusionTexture": {
        "index": 17
      },
      "pbrMetallicRoughness": {
        "baseColorTexture": {
          "index": 16
        },
        "metallicRoughnessTexture": {
          "index": 17
        }
      }
    },
    {
      "alphaMode": "OPAQUE",
      "emissiveFactor": [
        1.0,
        1.0,
        1.0
      ],
      "emissiveTexture": {
        "index": 23
      },
      "name": "24_W_Spacers",
      "normalTexture": {
        "index": 22
      },
      "occlusionTexture": {
        "index": 21
      },
      "pbrMetallicRoughness": {
        "baseColorTexture": {
          "index": 20
        },
        "metallicRoughnessTexture": {
          "index": 21
        }
      }
    }
  ],
  "meshes": [
    {
      "name": "24_W_Glass",
      "primitives": [
        {
          "attributes": {
            "NORMAL": 2,
            "POSITION": 1,
            "TEXCOORD_0": 3
          },
          "indices": 0,
          "material": 2,
          "mode": 4
        }
      ]
    },
    {
      "name": "24_W_Hardware",
      "primitives": [
        {
          "attributes": {
            "NORMAL": 6,
            "POSITION": 5,
            "TEXCOORD_0": 7
          },
          "indices": 4,
          "material": 3,
          "mode": 4
        }
      ]
    },
    {
      "name": "24_W_Interior",
      "primitives": [
        {
          "attributes": {
            "NORMAL": 10,
            "POSITION": 9,
            "TEXCOORD_0": 11
          },
          "indices": 8,
          "material": 4,
          "mode": 4
        }
      ]
    },
    {
      "name": "24_W_Exterior",
      "primitives": [
        {
          "attributes": {
            "NORMAL": 14,
            "POSITION": 13,
            "TEXCOORD_0": 15
          },
          "indices": 12,
          "material": 0,
          "mode": 4
        }
      ]
    },
    {
      "name": "24_W_Spacers",
      "primitives": [
        {
          "attributes": {
            "NORMAL": 18,
            "POSITION": 17,
            "TEXCOORD_0": 19
          },
          "indices": 16,
          "material": 5,
          "mode": 4
        }
      ]
    },
    {
      "name": "24_W_Fibrex",
      "primitives": [
        {
          "attributes": {
            "NORMAL": 22,
            "POSITION": 21,
            "TEXCOORD_0": 23
          },
          "indices": 20,
          "material": 1,
          "mode": 4
        }
      ]
    }
  ],
  "nodes": [
    {
      "children": [
        1,
        3,
        5,
        7,
        9,
        11
      ],
      "name": "root",
      "scale": [
        0.451929330825806,
        0.451929330825806,
        0.451929330825806
      ],
      "translation": [
        -0.0238920450210571,
        0.257802456617355,
        0.0326346717774868
      ]
    },
    {
      "children": [
        2
      ],
      "name": "24_W_Glass"
    },
    {
      "mesh": 0,
      "name": "24_W_Glass"
    },
    {
      "children": [
        4
      ],
      "name": "24_W_Hardware"
    },
    {
      "mesh": 1,
      "name": "24_W_Hardware"
    },
    {
      "children": [
        6
      ],
      "name": "24_W_Interior"
    },
    {
      "mesh": 2,
      "name": "24_W_Interior"
    },
    {
      "children": [
        8
      ],
      "name": "24_W_Exterior"
    },
    {
      "mesh": 3,
      "name": "24_W_Exterior"
    },
    {
      "children": [
        10
      ],
      "name": "24_W_Spacers"
    },
    {
      "mesh": 4,
      "name": "24_W_Spacers"
    },
    {
      "children": [
        12
      ],
      "name": "24_W_Fibrex"
    },
    {
      "mesh": 5,
      "name": "24_W_Fibrex"
    }
  ],
  "samplers": [
    {
      "magFilter": 9729,
      "minFilter": 9985,
      "wrapS": 10497,
      "wrapT": 10497
    }
  ],
  "scene": 0,
  "scenes": [
    {
      "name": "Scene",
      "nodes": [
        0
      ]
    }
  ],
  "textures": [
    {
      "sampler": 0,
      "source": 0
    },
    {
      "sampler": 0,
      "source": 1
    },
    {
      "sampler": 0,
      "source": 2
    },
    {
      "sampler": 0,
      "source": 3
    },
    {
      "sampler": 0,
      "source": 4
    },
    {
      "sampler": 0,
      "source": 5
    },
    {
      "sampler": 0,
      "source": 6
    },
    {
      "sampler": 0,
      "source": 7
    },
    {
      "sampler": 0,
      "source": 8
    },
    {
      "sampler": 0,
      "source": 9
    },
    {
      "sampler": 0,
      "source": 10
    },
    {
      "sampler": 0,
      "source": 11
    },
    {
      "sampler": 0,
      "source": 12
    },
    {
      "sampler": 0,
      "source": 13
    },
    {
      "sampler": 0,
      "source": 14
    },
    {
      "sampler": 0,
      "source": 15
    },
    {
      "sampler": 0,
      "source": 16
    },
    {
      "sampler": 0,
      "source": 17
    },
    {
      "sampler": 0,
      "source": 18
    },
    {
      "sampler": 0,
      "source": 19
    },
    {
      "sampler": 0,
      "source": 20
    },
    {
      "sampler": 0,
      "source": 21
    },
    {
      "sampler": 0,
      "source": 22
    },
    {
      "sampler": 0,
      "source": 23
    }
  ]
}