{
  "accessors": [
    {
      "bufferView": 0,
      "componentType": 5125,
      "count": 48,
      "type": "SCALAR"
    },
    {
      "bufferView": 1,
      "componentType": 5126,
      "count": 32,
      "max": [
        0.917176246643066,
        0.897502303123474,
        -0.0732358396053314
      ],
      "min": [
        -0.899278879165649,
        -0.879514634609222,
        -0.174646362662315
      ],
      "type": "VEC3"
    },
    {
      "bufferView": 2,
      "componentType": 5126,
      "count": 32,
      "type": "VEC3"
    },
    {
      "bufferView": 3,
      "componentType": 5126,
      "count": 32,
      "type": "VEC2"
    },
    {
      "bufferView": 4,
      "componentType": 5125,
      "count": 720,
      "type": "SCALAR"
    },
    {
      "bufferView": 5,
      "componentType": 5126,
      "count": 450,
      "max": [
        0.910631120204926,
        0.901968240737915,
        -0.0745628178119659
      ],
      "min": [
        -0.907430708408356,
        -0.871041536331177,
        -0.169584065675735
      ],
      "type": "VEC3"
    },
    {
      "bufferView": 6,
      "componentType": 5126,
      "count": 450,
      "type": "VEC3"
    },
    {
      "bufferView": 7,
      "componentType": 5126,
      "count": 450,
      "type": "VEC2"
    },
    {
      "bufferView": 8,
      "componentType": 5125,
      "count": 3816,
      "type": "SCALAR"
    },
    {
      "bufferView": 9,
      "componentType": 5126,
      "count": 2214,
      "max": [
        0.999905586242676,
        0.996269702911377,
        -0.0443006902933121
      ],
      "min": [
        -1.0,
        -0.996171057224274,
        -0.177624881267548
      ],
      "type": "VEC3"
    },
    {
      "bufferView": 10,
      "componentType": 5126,
      "count": 2214,
      "type": "VEC3"
    },
    {
      "bufferView": 11,
      "componentType": 5126,
      "count": 2214,
      "type": "VEC2"
    },
    {
      "bufferView": 12,
      "componentType": 5125,
      "count": 13074,
      "type": "SCALAR"
    },
    {
      "bufferView": 13,
      "componentType": 5126,
      "count": 3029,
      "max": [
        -0.0291119180619717,
        -0.0268905945122242,
        -0.076054111123085
      ],
      "min": [
        -0.0600199066102505,
        -0.190371870994568,
        -0.142834737896919
      ],
      "type": "VEC3"
    },
    {
      "bufferView": 14,
      "componentType": 5126,
      "count": 3029,
      "type": "VEC3"
    },
    {
      "bufferView": 15,
      "componentType": 5126,
      "count": 3029,
      "type": "VEC2"
    },
    {
      "bufferView": 16,
      "componentType": 5125,
      "count": 10653,
      "type": "SCALAR"
    },
    {
      "bufferView": 17,
      "componentType": 5126,
      "count": 6712,
      "max": [
        1.0,
        0.996220946311951,
        -0.049463301897049
      ],
      "min": [
        -0.999951660633087,
        -0.996269643306732,
        -0.21517938375473
      ],
      "type": "VEC3"
    },
    {
      "bufferView": 18,
      "componentType": 5126,
      "count": 6712,
      "type": "VEC3"
    },
    {
      "bufferView": 19,
      "componentType": 5126,
      "count": 6712,
      "type": "VEC2"
    }
  ],
  "asset": {
    "generator": "Substance Painter 2019.2.3",
    "version": "2.0"
  },
  "bufferViews": [
    {
      "buffer": 0,
      "byteLength": 192,
      "target": 34963
    },
    {
      "buffer": 0,
      "byteLength": 384,
      "byteOffset": 192,
      "target": 34962
    },
    {
      "buffer": 0,
      "byteLength": 384,
      "byteOffset": 576,
      "target": 34962
    },
    {
      "buffer": 0,
      "byteLength": 256,
      "byteOffset": 960,
      "target": 34962
    },
    {
      "buffer": 0,
      "byteLength": 2880,
      "byteOffset": 1216,
      "target": 34963
    },
    {
      "buffer": 0,
      "byteLength": 5400,
      "byteOffset": 4096,
      "target": 34962
    },
    {
      "buffer": 0,
      "byteLength": 5400,
      "byteOffset": 9496,
      "target": 34962
    },
    {
      "buffer": 0,
      "byteLength": 3600,
      "byteOffset": 14896,
      "target": 34962
    },
    {
      "buffer": 0,
      "byteLength": 15264,
      "byteOffset": 18496,
      "target": 34963
    },
    {
      "buffer": 0,
      "byteLength": 26568,
      "byteOffset": 33760,
      "target": 34962
    },
    {
      "buffer": 0,
      "byteLength": 26568,
      "byteOffset": 60328,
      "target": 34962
    },
    {
      "buffer": 0,
      "byteLength": 17712,
      "byteOffset": 86896,
      "target": 34962
    },
    {
      "buffer": 0,
      "byteLength": 52296,
      "byteOffset": 104608,
      "target": 34963
    },
    {
      "buffer": 0,
      "byteLength": 36348,
      "byteOffset": 156904,
      "target": 34962
    },
    {
      "buffer": 0,
      "byteLength": 36348,
      "byteOffset": 193252,
      "target": 34962
    },
    {
      "buffer": 0,
      "byteLength": 24232,
      "byteOffset": 229600,
      "target": 34962
    },
    {
      "buffer": 0,
      "byteLength": 42612,
      "byteOffset": 253832,
      "target": 34963
    },
    {
      "buffer": 0,
      "byteLength": 80544,
      "byteOffset": 296444,
      "target": 34962
    },
    {
      "buffer": 0,
      "byteLength": 80544,
      "byteOffset": 376988,
      "target": 34962
    },
    {
      "buffer": 0,
      "byteLength": 53696,
      "byteOffset": 457532,
      "target": 34962
    }
  ],
  "buffers": [
    {
      "byteLength": 511228,
      "uri": "19_W_GlidingDouble_v02.bin"
    }
  ],
  "images": [
    {
      "uri": "19_W_Exterior_baseColor.png"
    },
    {
      "uri": "19_W_Exterior_occlusionRoughnessMetallic.png"
    },
    {
      "uri": "19_W_Exterior_normal.png"
    },
    {
      "uri": "19_W_Exterior_emissive.png"
    },
    {
      "uri": "19_W_Glass_baseColor.png"
    },
    {
      "uri": "19_W_Glass_occlusionRoughnessMetallic.png"
    },
    {
      "uri": "19_W_Glass_normal.png"
    },
    {
      "uri": "19_W_Glass_emissive.png"
    },
    {
      "uri": "19_W_Hardware_baseColor.png"
    },
    {
      "uri": "19_W_Hardware_occlusionRoughnessMetallic.png"
    },
    {
      "uri": "19_W_Hardware_normal.png"
    },
    {
      "uri": "19_W_Interior_baseColor.png"
    },
    {
      "uri": "19_W_Interior_occlusionRoughnessMetallic.png"
    },
    {
      "uri": "19_W_Interior_normal.png"
    },
    {
      "uri": "19_W_Spacers_baseColor.png"
    },
    {
      "uri": "19_W_Spacers_occlusionRoughnessMetallic.png"
    },
    {
      "uri": "19_W_Spacers_normal.png"
    }
  ],
  "materials": [
    {
      "alphaMode": "OPAQUE",
      "emissiveFactor": [
        1.0,
        1.0,
        1.0
      ],
      "emissiveTexture": {
        "index": 3
      },
      "name": "19_W_Exterior",
      "normalTexture": {
        "index": 2
      },
      "occlusionTexture": {
        "index": 1
      },
      "pbrMetallicRoughness": {
        "baseColorTexture": {
          "index": 0
        },
        "metallicRoughnessTexture": {
          "index": 1
        }
      }
    },
    {
      "alphaMode": "BLEND",
      "emissiveFactor": [
        1.0,
        1.0,
        1.0
      ],
      "emissiveTexture": {
        "index": 7
      },
      "name": "19_W_Glass",
      "normalTexture": {
        "index": 6
      },
      "occlusionTexture": {
        "index": 5
      },
      "pbrMetallicRoughness": {
        "baseColorTexture": {
          "index": 4
        },
        "metallicRoughnessTexture": {
          "index": 5
        }
      }
    },
    {
      "alphaMode": "OPAQUE",
      "name": "19_W_Hardware",
      "normalTexture": {
        "index": 10
      },
      "occlusionTexture": {
        "index": 9
      },
      "pbrMetallicRoughness": {
        "baseColorTexture": {
          "index": 8
        },
        "metallicRoughnessTexture": {
          "index": 9
        }
      }
    },
    {
      "alphaMode": "OPAQUE",
      "name": "19_W_Interior",
      "normalTexture": {
        "index": 13
      },
      "occlusionTexture": {
        "index": 12
      },
      "pbrMetallicRoughness": {
        "baseColorTexture": {
          "index": 11
        },
        "metallicRoughnessTexture": {
          "index": 12
        }
      }
    },
    {
      "alphaMode": "OPAQUE",
      "name": "19_W_Spacers",
      "normalTexture": {
        "index": 16
      },
      "occlusionTexture": {
        "index": 15
      },
      "pbrMetallicRoughness": {
        "baseColorTexture": {
          "index": 14
        },
        "metallicRoughnessTexture": {
          "index": 15
        }
      }
    }
  ],
  "meshes": [
    {
      "name": "19_W_Glass",
      "primitives": [
        {
          "attributes": {
            "NORMAL": 2,
            "POSITION": 1,
            "TEXCOORD_0": 3
          },
          "indices": 0,
          "material": 1,
          "mode": 4
        }
      ]
    },
    {
      "name": "19_W_Spacers",
      "primitives": [
        {
          "attributes": {
            "NORMAL": 6,
            "POSITION": 5,
            "TEXCOORD_0": 7
          },
          "indices": 4,
          "material": 4,
          "mode": 4
        }
      ]
    },
    {
      "name": "19_W_Interior",
      "primitives": [
        {
          "attributes": {
            "NORMAL": 10,
            "POSITION": 9,
            "TEXCOORD_0": 11
          },
          "indices": 8,
          "material": 3,
          "mode": 4
        }
      ]
    },
    {
      "name": "19_W_Hardware",
      "primitives": [
        {
          "attributes": {
            "NORMAL": 14,
            "POSITION": 13,
            "TEXCOORD_0": 15
          },
          "indices": 12,
          "material": 2,
          "mode": 4
        }
      ]
    },
    {
      "name": "19_W_Exterior",
      "primitives": [
        {
          "attributes": {
            "NORMAL": 18,
            "POSITION": 17,
            "TEXCOORD_0": 19
          },
          "indices": 16,
          "material": 0,
          "mode": 4
        }
      ]
    }
  ],
  "nodes": [
    {
      "children": [
        1,
        3,
        5,
        7,
        9
      ],
      "name": "root",
      "scale": [
        0.61951470375061,
        0.61951470375061,
        0.61951470375061
      ],
      "translation": [
        3.57627868652344e-07,
        0.617142200469971,
        0.0862564295530319
      ]
    },
    {
      "children": [
        2
      ],
      "name": "19_W_Glass"
    },
    {
      "mesh": 0,
      "name": "19_W_Glass"
    },
    {
      "children": [
        4
      ],
      "name": "19_W_Spacers"
    },
    {
      "mesh": 1,
      "name": "19_W_Spacers"
    },
    {
      "children": [
        6
      ],
      "name": "19_W_Interior"
    },
    {
      "mesh": 2,
      "name": "19_W_Interior"
    },
    {
      "children": [
        8
      ],
      "name": "19_W_Hardware"
    },
    {
      "mesh": 3,
      "name": "19_W_Hardware"
    },
    {
      "children": [
        10
      ],
      "name": "19_W_Exterior"
    },
    {
      "mesh": 4,
      "name": "19_W_Exterior"
    }
  ],
  "samplers": [
    {
      "magFilter": 9729,
      "minFilter": 9985,
      "wrapS": 10497,
      "wrapT": 10497
    }
  ],
  "scene": 0,
  "scenes": [
    {
      "name": "Scene",
      "nodes": [
        0
      ]
    }
  ],
  "textures": [
    {
      "sampler": 0,
      "source": 0
    },
    {
      "sampler": 0,
      "source": 1
    },
    {
      "sampler": 0,
      "source": 2
    },
    {
      "sampler": 0,
      "source": 3
    },
    {
      "sampler": 0,
      "source": 4
    },
    {
      "sampler": 0,
      "source": 5
    },
    {
      "sampler": 0,
      "source": 6
    },
    {
      "sampler": 0,
      "source": 7
    },
    {
      "sampler": 0,
      "source": 8
    },
    {
      "sampler": 0,
      "source": 9
    },
    {
      "sampler": 0,
      "source": 10
    },
    {
      "sampler": 0,
      "source": 11
    },
    {
      "sampler": 0,
      "source": 12
    },
    {
      "sampler": 0,
      "source": 13
    },
    {
      "sampler": 0,
      "source": 14
    },
    {
      "sampler": 0,
      "source": 15
    },
    {
      "sampler": 0,
      "source": 16
    }
  ]
}