{
  "accessors": [
    {
      "bufferView": 0,
      "componentType": 5125,
      "count": 6927,
      "type": "SCALAR"
    },
    {
      "bufferView": 1,
      "componentType": 5126,
      "count": 3396,
      "max": [
        0.641527235507965,
        0.999834656715393,
        0.111240312457085
      ],
      "min": [
        -0.61415433883667,
        -1.0000011920929,
        -0.0587959922850132
      ],
      "type": "VEC3"
    },
    {
      "bufferView": 2,
      "componentType": 5126,
      "count": 3396,
      "type": "VEC3"
    },
    {
      "bufferView": 3,
      "componentType": 5126,
      "count": 3396,
      "type": "VEC2"
    },
    {
      "bufferView": 4,
      "componentType": 5125,
      "count": 1218,
      "type": "SCALAR"
    },
    {
      "bufferView": 5,
      "componentType": 5126,
      "count": 646,
      "max": [
        0.641527235507965,
        -0.882841825485229,
        0.111238531768322
      ],
      "min": [
        -0.611242473125458,
        -0.999997556209564,
        -0.111241303384304
      ],
      "type": "VEC3"
    },
    {
      "bufferView": 6,
      "componentType": 5126,
      "count": 646,
      "type": "VEC3"
    },
    {
      "bufferView": 7,
      "componentType": 5126,
      "count": 646,
      "type": "VEC2"
    },
    {
      "bufferView": 8,
      "componentType": 5125,
      "count": 17802,
      "type": "SCALAR"
    },
    {
      "bufferView": 9,
      "componentType": 5126,
      "count": 9196,
      "max": [
        0.641387641429901,
        0.983599543571472,
        0.0847702994942665
      ],
      "min": [
        -0.611103773117065,
        -0.999884366989136,
        -0.0922202691435814
      ],
      "type": "VEC3"
    },
    {
      "bufferView": 10,
      "componentType": 5126,
      "count": 9196,
      "type": "VEC3"
    },
    {
      "bufferView": 11,
      "componentType": 5126,
      "count": 9196,
      "type": "VEC2"
    },
    {
      "bufferView": 12,
      "componentType": 5125,
      "count": 720,
      "type": "SCALAR"
    },
    {
      "bufferView": 13,
      "componentType": 5126,
      "count": 459,
      "max": [
        0.524805843830109,
        0.87745475769043,
        0.0668948739767075
      ],
      "min": [
        -0.491002261638641,
        -0.842602372169495,
        -0.0506273955106735
      ],
      "type": "VEC3"
    },
    {
      "bufferView": 14,
      "componentType": 5126,
      "count": 459,
      "type": "VEC3"
    },
    {
      "bufferView": 15,
      "componentType": 5126,
      "count": 459,
      "type": "VEC2"
    },
    {
      "bufferView": 16,
      "componentType": 5125,
      "count": 24,
      "type": "SCALAR"
    },
    {
      "bufferView": 17,
      "componentType": 5126,
      "count": 16,
      "max": [
        0.502978980541229,
        0.845288157463074,
        0.0765286758542061
      ],
      "min": [
        -0.474651992321014,
        -0.821490228176117,
        -0.0586434900760651
      ],
      "type": "VEC3"
    },
    {
      "bufferView": 18,
      "componentType": 5126,
      "count": 16,
      "type": "VEC3"
    },
    {
      "bufferView": 19,
      "componentType": 5126,
      "count": 16,
      "type": "VEC2"
    },
    {
      "bufferView": 20,
      "componentType": 5125,
      "count": 36078,
      "type": "SCALAR"
    },
    {
      "bufferView": 21,
      "componentType": 5126,
      "count": 8307,
      "max": [
        0.079411119222641,
        0.0607219934463501,
        0.108637511730194
      ],
      "min": [
        -0.0527885034680367,
        -0.865696310997009,
        -0.0116963610053062
      ],
      "type": "VEC3"
    },
    {
      "bufferView": 22,
      "componentType": 5126,
      "count": 8307,
      "type": "VEC3"
    },
    {
      "bufferView": 23,
      "componentType": 5126,
      "count": 8307,
      "type": "VEC2"
    },
    {
      "bufferView": 24,
      "componentType": 5125,
      "count": 7914,
      "type": "SCALAR"
    },
    {
      "bufferView": 25,
      "componentType": 5126,
      "count": 5477,
      "max": [
        0.641528010368347,
        1.00000035762787,
        0.10558520257473
      ],
      "min": [
        -0.614425182342529,
        -0.999958395957947,
        -0.11124113202095
      ],
      "type": "VEC3"
    },
    {
      "bufferView": 26,
      "componentType": 5126,
      "count": 5477,
      "type": "VEC3"
    },
    {
      "bufferView": 27,
      "componentType": 5126,
      "count": 5477,
      "type": "VEC2"
    }
  ],
  "asset": {
    "generator": "Substance Painter 2019.3.0",
    "version": "2.0"
  },
  "bufferViews": [
    {
      "buffer": 0,
      "byteLength": 27708,
      "target": 34963
    },
    {
      "buffer": 0,
      "byteLength": 40752,
      "byteOffset": 27708,
      "target": 34962
    },
    {
      "buffer": 0,
      "byteLength": 40752,
      "byteOffset": 68460,
      "target": 34962
    },
    {
      "buffer": 0,
      "byteLength": 27168,
      "byteOffset": 109212,
      "target": 34962
    },
    {
      "buffer": 0,
      "byteLength": 4872,
      "byteOffset": 136380,
      "target": 34963
    },
    {
      "buffer": 0,
      "byteLength": 7752,
      "byteOffset": 141252,
      "target": 34962
    },
    {
      "buffer": 0,
      "byteLength": 7752,
      "byteOffset": 149004,
      "target": 34962
    },
    {
      "buffer": 0,
      "byteLength": 5168,
      "byteOffset": 156756,
      "target": 34962
    },
    {
      "buffer": 0,
      "byteLength": 71208,
      "byteOffset": 161924,
      "target": 34963
    },
    {
      "buffer": 0,
      "byteLength": 110352,
      "byteOffset": 233132,
      "target": 34962
    },
    {
      "buffer": 0,
      "byteLength": 110352,
      "byteOffset": 343484,
      "target": 34962
    },
    {
      "buffer": 0,
      "byteLength": 73568,
      "byteOffset": 453836,
      "target": 34962
    },
    {
      "buffer": 0,
      "byteLength": 2880,
      "byteOffset": 527404,
      "target": 34963
    },
    {
      "buffer": 0,
      "byteLength": 5508,
      "byteOffset": 530284,
      "target": 34962
    },
    {
      "buffer": 0,
      "byteLength": 5508,
      "byteOffset": 535792,
      "target": 34962
    },
    {
      "buffer": 0,
      "byteLength": 3672,
      "byteOffset": 541300,
      "target": 34962
    },
    {
      "buffer": 0,
      "byteLength": 96,
      "byteOffset": 544972,
      "target": 34963
    },
    {
      "buffer": 0,
      "byteLength": 192,
      "byteOffset": 545068,
      "target": 34962
    },
    {
      "buffer": 0,
      "byteLength": 192,
      "byteOffset": 545260,
      "target": 34962
    },
    {
      "buffer": 0,
      "byteLength": 128,
      "byteOffset": 545452,
      "target": 34962
    },
    {
      "buffer": 0,
      "byteLength": 144312,
      "byteOffset": 545580,
      "target": 34963
    },
    {
      "buffer": 0,
      "byteLength": 99684,
      "byteOffset": 689892,
      "target": 34962
    },
    {
      "buffer": 0,
      "byteLength": 99684,
      "byteOffset": 789576,
      "target": 34962
    },
    {
      "buffer": 0,
      "byteLength": 66456,
      "byteOffset": 889260,
      "target": 34962
    },
    {
      "buffer": 0,
      "byteLength": 31656,
      "byteOffset": 955716,
      "target": 34963
    },
    {
      "buffer": 0,
      "byteLength": 65724,
      "byteOffset": 987372,
      "target": 34962
    },
    {
      "buffer": 0,
      "byteLength": 65724,
      "byteOffset": 1053096,
      "target": 34962
    },
    {
      "buffer": 0,
      "byteLength": 43816,
      "byteOffset": 1118820,
      "target": 34962
    }
  ],
  "buffers": [
    {
      "byteLength": 1162636,
      "uri": "17_W_DoubleHungDG_v04.bin"
    }
  ],
  "images": [
    {
      "uri": "17_W_Exterior_baseColor.png"
    },
    {
      "uri": "17_W_Exterior_occlusionRoughnessMetallic.png"
    },
    {
      "uri": "17_W_Exterior_normal.png"
    },
    {
      "uri": "17_W_Exterior_emissive.png"
    },
    {
      "uri": "17_W_Fibrex_baseColor.png"
    },
    {
      "uri": "17_W_Fibrex_occlusionRoughnessMetallic.png"
    },
    {
      "uri": "17_W_Fibrex_normal.png"
    },
    {
      "uri": "17_W_Fibrex_emissive.png"
    },
    {
      "uri": "17_W_Glass_baseColor.png"
    },
    {
      "uri": "17_W_Glass_occlusionRoughnessMetallic.png"
    },
    {
      "uri": "17_W_Glass_normal.png"
    },
    {
      "uri": "17_W_Glass_emissive.png"
    },
    {
      "uri": "17_W_Gray_baseColor.png"
    },
    {
      "uri": "17_W_Gray_occlusionRoughnessMetallic.png"
    },
    {
      "uri": "17_W_Gray_normal.png"
    },
    {
      "uri": "17_W_Gray_emissive.png"
    },
    {
      "uri": "17_W_Hardware_baseColor.png"
    },
    {
      "uri": "17_W_Hardware_occlusionRoughnessMetallic.png"
    },
    {
      "uri": "17_W_Hardware_normal.png"
    },
    {
      "uri": "17_W_Hardware_emissive.png"
    },
    {
      "uri": "17_W_Interior_baseColor.png"
    },
    {
      "uri": "17_W_Interior_occlusionRoughnessMetallic.png"
    },
    {
      "uri": "17_W_Interior_normal.png"
    },
    {
      "uri": "17_W_Interior_emissive.png"
    },
    {
      "uri": "17_W_Spacers_baseColor.png"
    },
    {
      "uri": "17_W_Spacers_occlusionRoughnessMetallic.png"
    },
    {
      "uri": "17_W_Spacers_normal.png"
    },
    {
      "uri": "17_W_Spacers_emissive.png"
    }
  ],
  "materials": [
    {
      "alphaMode": "OPAQUE",
      "emissiveFactor": [
        1.0,
        1.0,
        1.0
      ],
      "emissiveTexture": {
        "index": 3
      },
      "name": "17_W_Exterior",
      "normalTexture": {
        "index": 2
      },
      "occlusionTexture": {
        "index": 1
      },
      "pbrMetallicRoughness": {
        "baseColorTexture": {
          "index": 0
        },
        "metallicRoughnessTexture": {
          "index": 1
        }
      }
    },
    {
      "alphaMode": "OPAQUE",
      "emissiveFactor": [
        1.0,
        1.0,
        1.0
      ],
      "emissiveTexture": {
        "index": 7
      },
      "name": "17_W_Fibrex",
      "normalTexture": {
        "index": 6
      },
      "occlusionTexture": {
        "index": 5
      },
      "pbrMetallicRoughness": {
        "baseColorTexture": {
          "index": 4
        },
        "metallicRoughnessTexture": {
          "index": 5
        }
      }
    },
    {
      "alphaMode": "BLEND",
      "emissiveFactor": [
        1.0,
        1.0,
        1.0
      ],
      "emissiveTexture": {
        "index": 11
      },
      "name": "17_W_Glass",
      "normalTexture": {
        "index": 10
      },
      "occlusionTexture": {
        "index": 9
      },
      "pbrMetallicRoughness": {
        "baseColorTexture": {
          "index": 8
        },
        "metallicRoughnessTexture": {
          "index": 9
        }
      }
    },
    {
      "alphaMode": "OPAQUE",
      "emissiveFactor": [
        1.0,
        1.0,
        1.0
      ],
      "emissiveTexture": {
        "index": 15
      },
      "name": "17_W_Gray",
      "normalTexture": {
        "index": 14
      },
      "occlusionTexture": {
        "index": 13
      },
      "pbrMetallicRoughness": {
        "baseColorTexture": {
          "index": 12
        },
        "metallicRoughnessTexture": {
          "index": 13
        }
      }
    },
    {
      "alphaMode": "OPAQUE",
      "emissiveFactor": [
        1.0,
        1.0,
        1.0
      ],
      "emissiveTexture": {
        "index": 19
      },
      "name": "17_W_Hardware",
      "normalTexture": {
        "index": 18
      },
      "occlusionTexture": {
        "index": 17
      },
      "pbrMetallicRoughness": {
        "baseColorTexture": {
          "index": 16
        },
        "metallicRoughnessTexture": {
          "index": 17
        }
      }
    },
    {
      "alphaMode": "OPAQUE",
      "emissiveFactor": [
        1.0,
        1.0,
        1.0
      ],
      "emissiveTexture": {
        "index": 23
      },
      "name": "17_W_Interior",
      "normalTexture": {
        "index": 22
      },
      "occlusionTexture": {
        "index": 21
      },
      "pbrMetallicRoughness": {
        "baseColorTexture": {
          "index": 20
        },
        "metallicRoughnessTexture": {
          "index": 21
        }
      }
    },
    {
      "alphaMode": "OPAQUE",
      "emissiveFactor": [
        1.0,
        1.0,
        1.0
      ],
      "emissiveTexture": {
        "index": 27
      },
      "name": "17_W_Spacers",
      "normalTexture": {
        "index": 26
      },
      "occlusionTexture": {
        "index": 25
      },
      "pbrMetallicRoughness": {
        "baseColorTexture": {
          "index": 24
        },
        "metallicRoughnessTexture": {
          "index": 25
        }
      }
    }
  ],
  "meshes": [
    {
      "name": "17_W_Interior",
      "primitives": [
        {
          "attributes": {
            "NORMAL": 2,
            "POSITION": 1,
            "TEXCOORD_0": 3
          },
          "indices": 0,
          "material": 5,
          "mode": 4
        }
      ]
    },
    {
      "name": "17_W_Fibrex",
      "primitives": [
        {
          "attributes": {
            "NORMAL": 6,
            "POSITION": 5,
            "TEXCOORD_0": 7
          },
          "indices": 4,
          "material": 1,
          "mode": 4
        }
      ]
    },
    {
      "name": "17_W_Gray",
      "primitives": [
        {
          "attributes": {
            "NORMAL": 10,
            "POSITION": 9,
            "TEXCOORD_0": 11
          },
          "indices": 8,
          "material": 3,
          "mode": 4
        }
      ]
    },
    {
      "name": "17_W_Spacers",
      "primitives": [
        {
          "attributes": {
            "NORMAL": 14,
            "POSITION": 13,
            "TEXCOORD_0": 15
          },
          "indices": 12,
          "material": 6,
          "mode": 4
        }
      ]
    },
    {
      "name": "17_W_Glass",
      "primitives": [
        {
          "attributes": {
            "NORMAL": 18,
            "POSITION": 17,
            "TEXCOORD_0": 19
          },
          "indices": 16,
          "material": 2,
          "mode": 4
        }
      ]
    },
    {
      "name": "17_W_Hardware",
      "primitives": [
        {
          "attributes": {
            "NORMAL": 22,
            "POSITION": 21,
            "TEXCOORD_0": 23
          },
          "indices": 20,
          "material": 4,
          "mode": 4
        }
      ]
    },
    {
      "name": "17_W_Exterior",
      "primitives": [
        {
          "attributes": {
            "NORMAL": 26,
            "POSITION": 25,
            "TEXCOORD_0": 27
          },
          "indices": 24,
          "material": 0,
          "mode": 4
        }
      ]
    }
  ],
  "nodes": [
    {
      "children": [
        1,
        3,
        5,
        7,
        9,
        11,
        13
      ],
      "name": "root",
      "scale": [
        0.679895222187042,
        0.679895222187042,
        0.679895222187042
      ],
      "translation": [
        0.0,
        0.679817259311676,
        0.00641585886478424
      ]
    },
    {
      "children": [
        2
      ],
      "name": "17_W_Interior"
    },
    {
      "mesh": 0,
      "name": "17_W_Interior"
    },
    {
      "children": [
        4
      ],
      "name": "17_W_Fibrex"
    },
    {
      "mesh": 1,
      "name": "17_W_Fibrex"
    },
    {
      "children": [
        6
      ],
      "name": "17_W_Gray"
    },
    {
      "mesh": 2,
      "name": "17_W_Gray"
    },
    {
      "children": [
        8
      ],
      "name": "17_W_Spacers"
    },
    {
      "mesh": 3,
      "name": "17_W_Spacers"
    },
    {
      "children": [
        10
      ],
      "name": "17_W_Glass"
    },
    {
      "mesh": 4,
      "name": "17_W_Glass"
    },
    {
      "children": [
        12
      ],
      "name": "17_W_Hardware"
    },
    {
      "mesh": 5,
      "name": "17_W_Hardware"
    },
    {
      "children": [
        14
      ],
      "name": "17_W_Exterior"
    },
    {
      "mesh": 6,
      "name": "17_W_Exterior"
    }
  ],
  "samplers": [
    {
      "magFilter": 9729,
      "minFilter": 9985,
      "wrapS": 10497,
      "wrapT": 10497
    }
  ],
  "scene": 0,
  "scenes": [
    {
      "name": "Scene",
      "nodes": [
        0
      ]
    }
  ],
  "textures": [
    {
      "sampler": 0,
      "source": 0
    },
    {
      "sampler": 0,
      "source": 1
    },
    {
      "sampler": 0,
      "source": 2
    },
    {
      "sampler": 0,
      "source": 3
    },
    {
      "sampler": 0,
      "source": 4
    },
    {
      "sampler": 0,
      "source": 5
    },
    {
      "sampler": 0,
      "source": 6
    },
    {
      "sampler": 0,
      "source": 7
    },
    {
      "sampler": 0,
      "source": 8
    },
    {
      "sampler": 0,
      "source": 9
    },
    {
      "sampler": 0,
      "source": 10
    },
    {
      "sampler": 0,
      "source": 11
    },
    {
      "sampler": 0,
      "source": 12
    },
    {
      "sampler": 0,
      "source": 13
    },
    {
      "sampler": 0,
      "source": 14
    },
    {
      "sampler": 0,
      "source": 15
    },
    {
      "sampler": 0,
      "source": 16
    },
    {
      "sampler": 0,
      "source": 17
    },
    {
      "sampler": 0,
      "source": 18
    },
    {
      "sampler": 0,
      "source": 19
    },
    {
      "sampler": 0,
      "source": 20
    },
    {
      "sampler": 0,
      "source": 21
    },
    {
      "sampler": 0,
      "source": 22
    },
    {
      "sampler": 0,
      "source": 23
    },
    {
      "sampler": 0,
      "source": 24
    },
    {
      "sampler": 0,
      "source": 25
    },
    {
      "sampler": 0,
      "source": 26
    },
    {
      "sampler": 0,
      "source": 27
    }
  ]
}