{
  "accessors": [
    {
      "bufferView": 0,
      "componentType": 5125,
      "count": 43047,
      "type": "SCALAR"
    },
    {
      "bufferView": 1,
      "componentType": 5126,
      "count": 11547,
      "max": [
        1.0,
        0.56883716583252,
        0.143235728144646
      ],
      "min": [
        -1.0,
        -0.56883716583252,
        -0.0958248674869537
      ],
      "type": "VEC3"
    },
    {
      "bufferView": 2,
      "componentType": 5126,
      "count": 11547,
      "type": "VEC3"
    },
    {
      "bufferView": 3,
      "componentType": 5126,
      "count": 11547,
      "type": "VEC2"
    },
    {
      "bufferView": 4,
      "componentType": 5125,
      "count": 37608,
      "type": "SCALAR"
    },
    {
      "bufferView": 5,
      "componentType": 5126,
      "count": 9716,
      "max": [
        1.0,
        0.56883716583252,
        -0.0510377883911133
      ],
      "min": [
        -1.0,
        -0.56883716583252,
        -0.143235728144646
      ],
      "type": "VEC3"
    },
    {
      "bufferView": 6,
      "componentType": 5126,
      "count": 9716,
      "type": "VEC3"
    },
    {
      "bufferView": 7,
      "componentType": 5126,
      "count": 9716,
      "type": "VEC2"
    },
    {
      "bufferView": 8,
      "componentType": 5125,
      "count": 336,
      "type": "SCALAR"
    },
    {
      "bufferView": 9,
      "componentType": 5126,
      "count": 116,
      "max": [
        0.829835951328278,
        0.396674990653992,
        -0.0352318771183491
      ],
      "min": [
        -0.829835951328278,
        -0.431181818246841,
        -0.0810854509472847
      ],
      "type": "VEC3"
    },
    {
      "bufferView": 10,
      "componentType": 5126,
      "count": 116,
      "type": "VEC3"
    },
    {
      "bufferView": 11,
      "componentType": 5126,
      "count": 116,
      "type": "VEC2"
    },
    {
      "bufferView": 12,
      "componentType": 5125,
      "count": 2994,
      "type": "SCALAR"
    },
    {
      "bufferView": 13,
      "componentType": 5126,
      "count": 1713,
      "max": [
        0.824056088924408,
        0.395093023777008,
        -0.0436816923320293
      ],
      "min": [
        -0.824056088924408,
        -0.423734664916992,
        -0.0837947949767113
      ],
      "type": "VEC3"
    },
    {
      "bufferView": 14,
      "componentType": 5126,
      "count": 1713,
      "type": "VEC3"
    },
    {
      "bufferView": 15,
      "componentType": 5126,
      "count": 1713,
      "type": "VEC2"
    }
  ],
  "asset": {
    "generator": "Substance Painter 2019.2.3",
    "version": "2.0"
  },
  "bufferViews": [
    {
      "buffer": 0,
      "byteLength": 172188,
      "target": 34963
    },
    {
      "buffer": 0,
      "byteLength": 138564,
      "byteOffset": 172188,
      "target": 34962
    },
    {
      "buffer": 0,
      "byteLength": 138564,
      "byteOffset": 310752,
      "target": 34962
    },
    {
      "buffer": 0,
      "byteLength": 92376,
      "byteOffset": 449316,
      "target": 34962
    },
    {
      "buffer": 0,
      "byteLength": 150432,
      "byteOffset": 541692,
      "target": 34963
    },
    {
      "buffer": 0,
      "byteLength": 116592,
      "byteOffset": 692124,
      "target": 34962
    },
    {
      "buffer": 0,
      "byteLength": 116592,
      "byteOffset": 808716,
      "target": 34962
    },
    {
      "buffer": 0,
      "byteLength": 77728,
      "byteOffset": 925308,
      "target": 34962
    },
    {
      "buffer": 0,
      "byteLength": 1344,
      "byteOffset": 1003036,
      "target": 34963
    },
    {
      "buffer": 0,
      "byteLength": 1392,
      "byteOffset": 1004380,
      "target": 34962
    },
    {
      "buffer": 0,
      "byteLength": 1392,
      "byteOffset": 1005772,
      "target": 34962
    },
    {
      "buffer": 0,
      "byteLength": 928,
      "byteOffset": 1007164,
      "target": 34962
    },
    {
      "buffer": 0,
      "byteLength": 11976,
      "byteOffset": 1008092,
      "target": 34963
    },
    {
      "buffer": 0,
      "byteLength": 20556,
      "byteOffset": 1020068,
      "target": 34962
    },
    {
      "buffer": 0,
      "byteLength": 20556,
      "byteOffset": 1040624,
      "target": 34962
    },
    {
      "buffer": 0,
      "byteLength": 13704,
      "byteOffset": 1061180,
      "target": 34962
    }
  ],
  "buffers": [
    {
      "byteLength": 1074884,
      "uri": "10_W_CircleTop_v02.bin"
    }
  ],
  "images": [
    {
      "uri": "10_W_Exterior_baseColor.png"
    },
    {
      "uri": "10_W_Exterior_occlusionRoughnessMetallic.png"
    },
    {
      "uri": "10_W_Exterior_normal.png"
    },
    {
      "uri": "10_W_Exterior_emissive.png"
    },
    {
      "uri": "10_W_Glass_baseColor.png"
    },
    {
      "uri": "10_W_Glass_occlusionRoughnessMetallic.png"
    },
    {
      "uri": "10_W_Glass_normal.png"
    },
    {
      "uri": "10_W_Glass_emissive.png"
    },
    {
      "uri": "10_W_Interior_baseColor.png"
    },
    {
      "uri": "10_W_Interior_occlusionRoughnessMetallic.png"
    },
    {
      "uri": "10_W_Interior_normal.png"
    },
    {
      "uri": "10_W_Interior_emissive.png"
    },
    {
      "uri": "10_W_Spacers_baseColor.png"
    },
    {
      "uri": "10_W_Spacers_occlusionRoughnessMetallic.png"
    },
    {
      "uri": "10_W_Spacers_normal.png"
    },
    {
      "uri": "10_W_Spacers_emissive.png"
    }
  ],
  "materials": [
    {
      "alphaMode": "OPAQUE",
      "emissiveFactor": [
        1.0,
        1.0,
        1.0
      ],
      "emissiveTexture": {
        "index": 3
      },
      "name": "10_W_Exterior",
      "normalTexture": {
        "index": 2
      },
      "occlusionTexture": {
        "index": 1
      },
      "pbrMetallicRoughness": {
        "baseColorTexture": {
          "index": 0
        },
        "metallicRoughnessTexture": {
          "index": 1
        }
      }
    },
    {
      "alphaMode": "BLEND",
      "emissiveFactor": [
        1.0,
        1.0,
        1.0
      ],
      "emissiveTexture": {
        "index": 7
      },
      "name": "10_W_Glass",
      "normalTexture": {
        "index": 6
      },
      "occlusionTexture": {
        "index": 5
      },
      "pbrMetallicRoughness": {
        "baseColorTexture": {
          "index": 4
        },
        "metallicRoughnessTexture": {
          "index": 5
        }
      }
    },
    {
      "alphaMode": "OPAQUE",
      "emissiveFactor": [
        1.0,
        1.0,
        1.0
      ],
      "emissiveTexture": {
        "index": 11
      },
      "name": "10_W_Interior",
      "normalTexture": {
        "index": 10
      },
      "occlusionTexture": {
        "index": 9
      },
      "pbrMetallicRoughness": {
        "baseColorTexture": {
          "index": 8
        },
        "metallicRoughnessTexture": {
          "index": 9
        }
      }
    },
    {
      "alphaMode": "OPAQUE",
      "emissiveFactor": [
        1.0,
        1.0,
        1.0
      ],
      "emissiveTexture": {
        "index": 15
      },
      "name": "10_W_Spacers",
      "normalTexture": {
        "index": 14
      },
      "occlusionTexture": {
        "index": 13
      },
      "pbrMetallicRoughness": {
        "baseColorTexture": {
          "index": 12
        },
        "metallicRoughnessTexture": {
          "index": 13
        }
      }
    }
  ],
  "meshes": [
    {
      "name": "10_W_Interior",
      "primitives": [
        {
          "attributes": {
            "NORMAL": 2,
            "POSITION": 1,
            "TEXCOORD_0": 3
          },
          "indices": 0,
          "material": 2,
          "mode": 4
        }
      ]
    },
    {
      "name": "10_W_Exterior",
      "primitives": [
        {
          "attributes": {
            "NORMAL": 6,
            "POSITION": 5,
            "TEXCOORD_0": 7
          },
          "indices": 4,
          "material": 0,
          "mode": 4
        }
      ]
    },
    {
      "name": "10_W_Glass",
      "primitives": [
        {
          "attributes": {
            "NORMAL": 10,
            "POSITION": 9,
            "TEXCOORD_0": 11
          },
          "indices": 8,
          "material": 1,
          "mode": 4
        }
      ]
    },
    {
      "name": "10_W_Spacers",
      "primitives": [
        {
          "attributes": {
            "NORMAL": 14,
            "POSITION": 13,
            "TEXCOORD_0": 15
          },
          "indices": 12,
          "material": 3,
          "mode": 4
        }
      ]
    }
  ],
  "nodes": [
    {
      "children": [
        1,
        3,
        5,
        7
      ],
      "name": "root",
      "scale": [
        0.638219118118286,
        0.638219118118286,
        0.638219118118286
      ],
      "translation": [
        -4.76837158203125e-07,
        0.363042265176773,
        9.68575477600098e-08
      ]
    },
    {
      "children": [
        2
      ],
      "name": "10_W_Interior"
    },
    {
      "mesh": 0,
      "name": "10_W_Interior"
    },
    {
      "children": [
        4
      ],
      "name": "10_W_Exterior"
    },
    {
      "mesh": 1,
      "name": "10_W_Exterior"
    },
    {
      "children": [
        6
      ],
      "name": "10_W_Glass"
    },
    {
      "mesh": 2,
      "name": "10_W_Glass"
    },
    {
      "children": [
        8
      ],
      "name": "10_W_Spacers"
    },
    {
      "mesh": 3,
      "name": "10_W_Spacers"
    }
  ],
  "samplers": [
    {
      "magFilter": 9729,
      "minFilter": 9985,
      "wrapS": 10497,
      "wrapT": 10497
    }
  ],
  "scene": 0,
  "scenes": [
    {
      "name": "Scene",
      "nodes": [
        0
      ]
    }
  ],
  "textures": [
    {
      "sampler": 0,
      "source": 0
    },
    {
      "sampler": 0,
      "source": 1
    },
    {
      "sampler": 0,
      "source": 2
    },
    {
      "sampler": 0,
      "source": 3
    },
    {
      "sampler": 0,
      "source": 4
    },
    {
      "sampler": 0,
      "source": 5
    },
    {
      "sampler": 0,
      "source": 6
    },
    {
      "sampler": 0,
      "source": 7
    },
    {
      "sampler": 0,
      "source": 8
    },
    {
      "sampler": 0,
      "source": 9
    },
    {
      "sampler": 0,
      "source": 10
    },
    {
      "sampler": 0,
      "source": 11
    },
    {
      "sampler": 0,
      "source": 12
    },
    {
      "sampler": 0,
      "source": 13
    },
    {
      "sampler": 0,
      "source": 14
    },
    {
      "sampler": 0,
      "source": 15
    }
  ]
}