{
  "accessors": [
    {
      "bufferView": 0,
      "componentType": 5125,
      "count": 210,
      "type": "SCALAR"
    },
    {
      "bufferView": 1,
      "componentType": 5126,
      "count": 140,
      "max": [
        2.3777277469635,
        2.42601680755615,
        -0.0385441072285175
      ],
      "min": [
        -2.37149667739868,
        -0.463150262832642,
        -0.0723610073328018
      ],
      "type": "VEC3"
    },
    {
      "bufferView": 2,
      "componentType": 5126,
      "count": 140,
      "type": "VEC3"
    },
    {
      "bufferView": 3,
      "componentType": 5126,
      "count": 140,
      "type": "VEC2"
    },
    {
      "bufferView": 4,
      "componentType": 5125,
      "count": 72,
      "type": "SCALAR"
    },
    {
      "bufferView": 5,
      "componentType": 5126,
      "count": 48,
      "max": [
        2.42939829826355,
        2.44564723968506,
        -0.0277095604687929
      ],
      "min": [
        -2.39694929122925,
        -0.507719755172729,
        -0.0771550759673119
      ],
      "type": "VEC3"
    },
    {
      "bufferView": 6,
      "componentType": 5126,
      "count": 48,
      "type": "VEC3"
    },
    {
      "bufferView": 7,
      "componentType": 5126,
      "count": 48,
      "type": "VEC2"
    },
    {
      "bufferView": 8,
      "componentType": 5125,
      "count": 17094,
      "type": "SCALAR"
    },
    {
      "bufferView": 9,
      "componentType": 5126,
      "count": 12529,
      "max": [
        2.51657772064209,
        2.608726978302,
        0.0758365616202354
      ],
      "min": [
        -2.51657795906067,
        -0.652426183223724,
        -0.13213674724102
      ],
      "type": "VEC3"
    },
    {
      "bufferView": 10,
      "componentType": 5126,
      "count": 12529,
      "type": "VEC3"
    },
    {
      "bufferView": 11,
      "componentType": 5126,
      "count": 12529,
      "type": "VEC2"
    },
    {
      "bufferView": 12,
      "componentType": 5125,
      "count": 67080,
      "type": "SCALAR"
    },
    {
      "bufferView": 13,
      "componentType": 5126,
      "count": 13548,
      "max": [
        2.12444639205933,
        -0.076151967048645,
        0.148578479886055
      ],
      "min": [
        -2.1239161491394,
        -0.573179006576538,
        0.0492732971906662
      ],
      "type": "VEC3"
    },
    {
      "bufferView": 14,
      "componentType": 5126,
      "count": 13548,
      "type": "VEC3"
    },
    {
      "bufferView": 15,
      "componentType": 5126,
      "count": 13548,
      "type": "VEC2"
    },
    {
      "bufferView": 16,
      "componentType": 5125,
      "count": 5988,
      "type": "SCALAR"
    },
    {
      "bufferView": 17,
      "componentType": 5126,
      "count": 4546,
      "max": [
        2.51657795906067,
        2.60983991622925,
        0.108782455325127
      ],
      "min": [
        -2.51015639305115,
        -0.647142648696899,
        -0.0796474292874336
      ],
      "type": "VEC3"
    },
    {
      "bufferView": 18,
      "componentType": 5126,
      "count": 4546,
      "type": "VEC3"
    },
    {
      "bufferView": 19,
      "componentType": 5126,
      "count": 4546,
      "type": "VEC2"
    },
    {
      "bufferView": 20,
      "componentType": 5125,
      "count": 558,
      "type": "SCALAR"
    },
    {
      "bufferView": 21,
      "componentType": 5126,
      "count": 370,
      "max": [
        2.51598501205444,
        2.60983991622925,
        0.108782120049
      ],
      "min": [
        -2.51015639305115,
        -0.647142648696899,
        -0.105272375047207
      ],
      "type": "VEC3"
    },
    {
      "bufferView": 22,
      "componentType": 5126,
      "count": 370,
      "type": "VEC3"
    },
    {
      "bufferView": 23,
      "componentType": 5126,
      "count": 370,
      "type": "VEC2"
    }
  ],
  "asset": {
    "generator": "Substance Painter 2019.3.0",
    "version": "2.0"
  },
  "bufferViews": [
    {
      "buffer": 0,
      "byteLength": 840,
      "target": 34963
    },
    {
      "buffer": 0,
      "byteLength": 1680,
      "byteOffset": 840,
      "target": 34962
    },
    {
      "buffer": 0,
      "byteLength": 1680,
      "byteOffset": 2520,
      "target": 34962
    },
    {
      "buffer": 0,
      "byteLength": 1120,
      "byteOffset": 4200,
      "target": 34962
    },
    {
      "buffer": 0,
      "byteLength": 288,
      "byteOffset": 5320,
      "target": 34963
    },
    {
      "buffer": 0,
      "byteLength": 576,
      "byteOffset": 5608,
      "target": 34962
    },
    {
      "buffer": 0,
      "byteLength": 576,
      "byteOffset": 6184,
      "target": 34962
    },
    {
      "buffer": 0,
      "byteLength": 384,
      "byteOffset": 6760,
      "target": 34962
    },
    {
      "buffer": 0,
      "byteLength": 68376,
      "byteOffset": 7144,
      "target": 34963
    },
    {
      "buffer": 0,
      "byteLength": 150348,
      "byteOffset": 75520,
      "target": 34962
    },
    {
      "buffer": 0,
      "byteLength": 150348,
      "byteOffset": 225868,
      "target": 34962
    },
    {
      "buffer": 0,
      "byteLength": 100232,
      "byteOffset": 376216,
      "target": 34962
    },
    {
      "buffer": 0,
      "byteLength": 268320,
      "byteOffset": 476448,
      "target": 34963
    },
    {
      "buffer": 0,
      "byteLength": 162576,
      "byteOffset": 744768,
      "target": 34962
    },
    {
      "buffer": 0,
      "byteLength": 162576,
      "byteOffset": 907344,
      "target": 34962
    },
    {
      "buffer": 0,
      "byteLength": 108384,
      "byteOffset": 1069920,
      "target": 34962
    },
    {
      "buffer": 0,
      "byteLength": 23952,
      "byteOffset": 1178304,
      "target": 34963
    },
    {
      "buffer": 0,
      "byteLength": 54552,
      "byteOffset": 1202256,
      "target": 34962
    },
    {
      "buffer": 0,
      "byteLength": 54552,
      "byteOffset": 1256808,
      "target": 34962
    },
    {
      "buffer": 0,
      "byteLength": 36368,
      "byteOffset": 1311360,
      "target": 34962
    },
    {
      "buffer": 0,
      "byteLength": 2232,
      "byteOffset": 1347728,
      "target": 34963
    },
    {
      "buffer": 0,
      "byteLength": 4440,
      "byteOffset": 1349960,
      "target": 34962
    },
    {
      "buffer": 0,
      "byteLength": 4440,
      "byteOffset": 1354400,
      "target": 34962
    },
    {
      "buffer": 0,
      "byteLength": 2960,
      "byteOffset": 1358840,
      "target": 34962
    }
  ],
  "buffers": [
    {
      "byteLength": 1361800,
      "uri": "21_W_CasementTriple121_v03.bin"
    }
  ],
  "images": [
    {
      "uri": "21_W_Exterior_baseColor.png"
    },
    {
      "uri": "21_W_Exterior_occlusionRoughnessMetallic.png"
    },
    {
      "uri": "21_W_Exterior_normal.png"
    },
    {
      "uri": "21_W_Exterior_emissive.png"
    },
    {
      "uri": "21_W_Fibrex_baseColor.png"
    },
    {
      "uri": "21_W_Fibrex_occlusionRoughnessMetallic.png"
    },
    {
      "uri": "21_W_Fibrex_normal.png"
    },
    {
      "uri": "21_W_Fibrex_emissive.png"
    },
    {
      "uri": "21_W_Glass_baseColor.png"
    },
    {
      "uri": "21_W_Glass_occlusionRoughnessMetallic.png"
    },
    {
      "uri": "21_W_Glass_normal.png"
    },
    {
      "uri": "21_W_Glass_emissive.png"
    },
    {
      "uri": "21_W_Hardware_baseColor.png"
    },
    {
      "uri": "21_W_Hardware_occlusionRoughnessMetallic.png"
    },
    {
      "uri": "21_W_Hardware_normal.png"
    },
    {
      "uri": "21_W_Hardware_emissive.png"
    },
    {
      "uri": "21_W_Interior_baseColor.png"
    },
    {
      "uri": "21_W_Interior_occlusionRoughnessMetallic.png"
    },
    {
      "uri": "21_W_Interior_normal.png"
    },
    {
      "uri": "21_W_Interior_emissive.png"
    },
    {
      "uri": "21_W_Spacer_baseColor.png"
    },
    {
      "uri": "21_W_Spacer_occlusionRoughnessMetallic.png"
    },
    {
      "uri": "21_W_Spacer_normal.png"
    },
    {
      "uri": "21_W_Spacer_emissive.png"
    }
  ],
  "materials": [
    {
      "alphaMode": "OPAQUE",
      "emissiveFactor": [
        1.0,
        1.0,
        1.0
      ],
      "emissiveTexture": {
        "index": 3
      },
      "name": "21_W_Exterior",
      "normalTexture": {
        "index": 2
      },
      "occlusionTexture": {
        "index": 1
      },
      "pbrMetallicRoughness": {
        "baseColorTexture": {
          "index": 0
        },
        "metallicRoughnessTexture": {
          "index": 1
        }
      }
    },
    {
      "alphaMode": "OPAQUE",
      "emissiveFactor": [
        1.0,
        1.0,
        1.0
      ],
      "emissiveTexture": {
        "index": 7
      },
      "name": "21_W_Fibrex",
      "normalTexture": {
        "index": 6
      },
      "occlusionTexture": {
        "index": 5
      },
      "pbrMetallicRoughness": {
        "baseColorTexture": {
          "index": 4
        },
        "metallicRoughnessTexture": {
          "index": 5
        }
      }
    },
    {
      "alphaMode": "BLEND",
      "emissiveFactor": [
        1.0,
        1.0,
        1.0
      ],
      "emissiveTexture": {
        "index": 11
      },
      "name": "21_W_Glass",
      "normalTexture": {
        "index": 10
      },
      "occlusionTexture": {
        "index": 9
      },
      "pbrMetallicRoughness": {
        "baseColorTexture": {
          "index": 8
        },
        "metallicRoughnessTexture": {
          "index": 9
        }
      }
    },
    {
      "alphaMode": "OPAQUE",
      "emissiveFactor": [
        1.0,
        1.0,
        1.0
      ],
      "emissiveTexture": {
        "index": 15
      },
      "name": "21_W_Hardware",
      "normalTexture": {
        "index": 14
      },
      "occlusionTexture": {
        "index": 13
      },
      "pbrMetallicRoughness": {
        "baseColorTexture": {
          "index": 12
        },
        "metallicRoughnessTexture": {
          "index": 13
        }
      }
    },
    {
      "alphaMode": "OPAQUE",
      "emissiveFactor": [
        1.0,
        1.0,
        1.0
      ],
      "emissiveTexture": {
        "index": 19
      },
      "name": "21_W_Interior",
      "normalTexture": {
        "index": 18
      },
      "occlusionTexture": {
        "index": 17
      },
      "pbrMetallicRoughness": {
        "baseColorTexture": {
          "index": 16
        },
        "metallicRoughnessTexture": {
          "index": 17
        }
      }
    },
    {
      "alphaMode": "OPAQUE",
      "emissiveFactor": [
        1.0,
        1.0,
        1.0
      ],
      "emissiveTexture": {
        "index": 23
      },
      "name": "21_W_Spacer",
      "normalTexture": {
        "index": 22
      },
      "occlusionTexture": {
        "index": 21
      },
      "pbrMetallicRoughness": {
        "baseColorTexture": {
          "index": 20
        },
        "metallicRoughnessTexture": {
          "index": 21
        }
      }
    }
  ],
  "meshes": [
    {
      "name": "21_W_Spacer",
      "primitives": [
        {
          "attributes": {
            "NORMAL": 2,
            "POSITION": 1,
            "TEXCOORD_0": 3
          },
          "indices": 0,
          "material": 5,
          "mode": 4
        }
      ]
    },
    {
      "name": "21_W_Glass",
      "primitives": [
        {
          "attributes": {
            "NORMAL": 6,
            "POSITION": 5,
            "TEXCOORD_0": 7
          },
          "indices": 4,
          "material": 2,
          "mode": 4
        }
      ]
    },
    {
      "name": "21_W_Exterior",
      "primitives": [
        {
          "attributes": {
            "NORMAL": 10,
            "POSITION": 9,
            "TEXCOORD_0": 11
          },
          "indices": 8,
          "material": 0,
          "mode": 4
        }
      ]
    },
    {
      "name": "21_W_Hardware",
      "primitives": [
        {
          "attributes": {
            "NORMAL": 14,
            "POSITION": 13,
            "TEXCOORD_0": 15
          },
          "indices": 12,
          "material": 3,
          "mode": 4
        }
      ]
    },
    {
      "name": "21_W_Interior",
      "primitives": [
        {
          "attributes": {
            "NORMAL": 18,
            "POSITION": 17,
            "TEXCOORD_0": 19
          },
          "indices": 16,
          "material": 4,
          "mode": 4
        }
      ]
    },
    {
      "name": "21_W_Fibrex",
      "primitives": [
        {
          "attributes": {
            "NORMAL": 22,
            "POSITION": 21,
            "TEXCOORD_0": 23
          },
          "indices": 20,
          "material": 1,
          "mode": 4
        }
      ]
    }
  ],
  "nodes": [
    {
      "children": [
        1,
        3,
        5,
        7,
        9,
        11
      ],
      "name": "root",
      "scale": [
        0.420684695243835,
        0.420684695243835,
        0.420684695243835
      ],
      "translation": [
        0.0,
        0.271484196186066,
        0.00240404345095158
      ]
    },
    {
      "children": [
        2
      ],
      "name": "21_W_Spacer"
    },
    {
      "mesh": 0,
      "name": "21_W_Spacer"
    },
    {
      "children": [
        4
      ],
      "name": "21_W_Glass"
    },
    {
      "mesh": 1,
      "name": "21_W_Glass"
    },
    {
      "children": [
        6
      ],
      "name": "21_W_Exterior"
    },
    {
      "mesh": 2,
      "name": "21_W_Exterior"
    },
    {
      "children": [
        8
      ],
      "name": "21_W_Hardware"
    },
    {
      "mesh": 3,
      "name": "21_W_Hardware"
    },
    {
      "children": [
        10
      ],
      "name": "21_W_Interior"
    },
    {
      "mesh": 4,
      "name": "21_W_Interior"
    },
    {
      "children": [
        12
      ],
      "name": "21_W_Fibrex"
    },
    {
      "mesh": 5,
      "name": "21_W_Fibrex"
    }
  ],
  "samplers": [
    {
      "magFilter": 9729,
      "minFilter": 9985,
      "wrapS": 10497,
      "wrapT": 10497
    }
  ],
  "scene": 0,
  "scenes": [
    {
      "name": "Scene",
      "nodes": [
        0
      ]
    }
  ],
  "textures": [
    {
      "sampler": 0,
      "source": 0
    },
    {
      "sampler": 0,
      "source": 1
    },
    {
      "sampler": 0,
      "source": 2
    },
    {
      "sampler": 0,
      "source": 3
    },
    {
      "sampler": 0,
      "source": 4
    },
    {
      "sampler": 0,
      "source": 5
    },
    {
      "sampler": 0,
      "source": 6
    },
    {
      "sampler": 0,
      "source": 7
    },
    {
      "sampler": 0,
      "source": 8
    },
    {
      "sampler": 0,
      "source": 9
    },
    {
      "sampler": 0,
      "source": 10
    },
    {
      "sampler": 0,
      "source": 11
    },
    {
      "sampler": 0,
      "source": 12
    },
    {
      "sampler": 0,
      "source": 13
    },
    {
      "sampler": 0,
      "source": 14
    },
    {
      "sampler": 0,
      "source": 15
    },
    {
      "sampler": 0,
      "source": 16
    },
    {
      "sampler": 0,
      "source": 17
    },
    {
      "sampler": 0,
      "source": 18
    },
    {
      "sampler": 0,
      "source": 19
    },
    {
      "sampler": 0,
      "source": 20
    },
    {
      "sampler": 0,
      "source": 21
    },
    {
      "sampler": 0,
      "source": 22
    },
    {
      "sampler": 0,
      "source": 23
    }
  ]
}