{
  "accessors": [
    {
      "bufferView": 0,
      "componentType": 5125,
      "count": 1962,
      "type": "SCALAR"
    },
    {
      "bufferView": 1,
      "componentType": 5126,
      "count": 1160,
      "max": [
        0.88915741443634,
        0.95997142791748,
        0.0639792904257774
      ],
      "min": [
        -0.889631569385529,
        -1.0,
        -0.0672542229294777
      ],
      "type": "VEC3"
    },
    {
      "bufferView": 2,
      "componentType": 5126,
      "count": 1160,
      "type": "VEC3"
    },
    {
      "bufferView": 3,
      "componentType": 5126,
      "count": 1160,
      "type": "VEC2"
    },
    {
      "bufferView": 4,
      "componentType": 5125,
      "count": 1536,
      "type": "SCALAR"
    },
    {
      "bufferView": 5,
      "componentType": 5126,
      "count": 941,
      "max": [
        0.788737773895264,
        0.878361821174622,
        0.0449685640633106
      ],
      "min": [
        -0.790120303630829,
        -0.868762075901031,
        -0.047438021749258
      ],
      "type": "VEC3"
    },
    {
      "bufferView": 6,
      "componentType": 5126,
      "count": 941,
      "type": "VEC3"
    },
    {
      "bufferView": 7,
      "componentType": 5126,
      "count": 941,
      "type": "VEC2"
    },
    {
      "bufferView": 8,
      "componentType": 5125,
      "count": 7065,
      "type": "SCALAR"
    },
    {
      "bufferView": 9,
      "componentType": 5126,
      "count": 5132,
      "max": [
        0.89171290397644,
        1.0,
        0.0884582027792931
      ],
      "min": [
        -0.89171290397644,
        -0.997262001037598,
        -0.104370169341564
      ],
      "type": "VEC3"
    },
    {
      "bufferView": 10,
      "componentType": 5126,
      "count": 5132,
      "type": "VEC3"
    },
    {
      "bufferView": 11,
      "componentType": 5126,
      "count": 5132,
      "type": "VEC2"
    },
    {
      "bufferView": 12,
      "componentType": 5125,
      "count": 3087,
      "type": "SCALAR"
    },
    {
      "bufferView": 13,
      "componentType": 5126,
      "count": 2069,
      "max": [
        0.86515736579895,
        0.968944728374481,
        0.0883717983961105
      ],
      "min": [
        -0.858146965503693,
        -0.983836889266968,
        -0.0622798800468445
      ],
      "type": "VEC3"
    },
    {
      "bufferView": 14,
      "componentType": 5126,
      "count": 2069,
      "type": "VEC3"
    },
    {
      "bufferView": 15,
      "componentType": 5126,
      "count": 2069,
      "type": "VEC2"
    },
    {
      "bufferView": 16,
      "componentType": 5125,
      "count": 144,
      "type": "SCALAR"
    },
    {
      "bufferView": 17,
      "componentType": 5126,
      "count": 96,
      "max": [
        0.802425503730774,
        0.895968198776245,
        0.0505560636520386
      ],
      "min": [
        -0.811017572879791,
        -0.886179327964783,
        -0.0520394258201122
      ],
      "type": "VEC3"
    },
    {
      "bufferView": 18,
      "componentType": 5126,
      "count": 96,
      "type": "VEC3"
    },
    {
      "bufferView": 19,
      "componentType": 5126,
      "count": 96,
      "type": "VEC2"
    },
    {
      "bufferView": 20,
      "componentType": 5125,
      "count": 50268,
      "type": "SCALAR"
    },
    {
      "bufferView": 21,
      "componentType": 5126,
      "count": 11176,
      "max": [
        0.834319651126862,
        0.221826985478401,
        0.111072383821011
      ],
      "min": [
        0.768811166286469,
        -0.134465903043747,
        -0.0317549481987953
      ],
      "type": "VEC3"
    },
    {
      "bufferView": 22,
      "componentType": 5126,
      "count": 11176,
      "type": "VEC3"
    },
    {
      "bufferView": 23,
      "componentType": 5126,
      "count": 11176,
      "type": "VEC2"
    },
    {
      "bufferView": 24,
      "componentType": 5125,
      "count": 4332,
      "type": "SCALAR"
    },
    {
      "bufferView": 25,
      "componentType": 5126,
      "count": 1918,
      "max": [
        0.889112532138824,
        -0.934234380722046,
        0.0664783492684364
      ],
      "min": [
        -0.889688611030579,
        -0.999997496604919,
        -0.111072383821011
      ],
      "type": "VEC3"
    },
    {
      "bufferView": 26,
      "componentType": 5126,
      "count": 1918,
      "type": "VEC3"
    },
    {
      "bufferView": 27,
      "componentType": 5126,
      "count": 1918,
      "type": "VEC2"
    }
  ],
  "asset": {
    "generator": "Substance Painter 2019.3.0",
    "version": "2.0"
  },
  "bufferViews": [
    {
      "buffer": 0,
      "byteLength": 7848,
      "target": 34963
    },
    {
      "buffer": 0,
      "byteLength": 13920,
      "byteOffset": 7848,
      "target": 34962
    },
    {
      "buffer": 0,
      "byteLength": 13920,
      "byteOffset": 21768,
      "target": 34962
    },
    {
      "buffer": 0,
      "byteLength": 9280,
      "byteOffset": 35688,
      "target": 34962
    },
    {
      "buffer": 0,
      "byteLength": 6144,
      "byteOffset": 44968,
      "target": 34963
    },
    {
      "buffer": 0,
      "byteLength": 11292,
      "byteOffset": 51112,
      "target": 34962
    },
    {
      "buffer": 0,
      "byteLength": 11292,
      "byteOffset": 62404,
      "target": 34962
    },
    {
      "buffer": 0,
      "byteLength": 7528,
      "byteOffset": 73696,
      "target": 34962
    },
    {
      "buffer": 0,
      "byteLength": 28260,
      "byteOffset": 81224,
      "target": 34963
    },
    {
      "buffer": 0,
      "byteLength": 61584,
      "byteOffset": 109484,
      "target": 34962
    },
    {
      "buffer": 0,
      "byteLength": 61584,
      "byteOffset": 171068,
      "target": 34962
    },
    {
      "buffer": 0,
      "byteLength": 41056,
      "byteOffset": 232652,
      "target": 34962
    },
    {
      "buffer": 0,
      "byteLength": 12348,
      "byteOffset": 273708,
      "target": 34963
    },
    {
      "buffer": 0,
      "byteLength": 24828,
      "byteOffset": 286056,
      "target": 34962
    },
    {
      "buffer": 0,
      "byteLength": 24828,
      "byteOffset": 310884,
      "target": 34962
    },
    {
      "buffer": 0,
      "byteLength": 16552,
      "byteOffset": 335712,
      "target": 34962
    },
    {
      "buffer": 0,
      "byteLength": 576,
      "byteOffset": 352264,
      "target": 34963
    },
    {
      "buffer": 0,
      "byteLength": 1152,
      "byteOffset": 352840,
      "target": 34962
    },
    {
      "buffer": 0,
      "byteLength": 1152,
      "byteOffset": 353992,
      "target": 34962
    },
    {
      "buffer": 0,
      "byteLength": 768,
      "byteOffset": 355144,
      "target": 34962
    },
    {
      "buffer": 0,
      "byteLength": 201072,
      "byteOffset": 355912,
      "target": 34963
    },
    {
      "buffer": 0,
      "byteLength": 134112,
      "byteOffset": 556984,
      "target": 34962
    },
    {
      "buffer": 0,
      "byteLength": 134112,
      "byteOffset": 691096,
      "target": 34962
    },
    {
      "buffer": 0,
      "byteLength": 89408,
      "byteOffset": 825208,
      "target": 34962
    },
    {
      "buffer": 0,
      "byteLength": 17328,
      "byteOffset": 914616,
      "target": 34963
    },
    {
      "buffer": 0,
      "byteLength": 23016,
      "byteOffset": 931944,
      "target": 34962
    },
    {
      "buffer": 0,
      "byteLength": 23016,
      "byteOffset": 954960,
      "target": 34962
    },
    {
      "buffer": 0,
      "byteLength": 15344,
      "byteOffset": 977976,
      "target": 34962
    }
  ],
  "buffers": [
    {
      "byteLength": 993320,
      "uri": "14_D_PS200Gliding_v03.bin"
    }
  ],
  "images": [
    {
      "uri": "14_D_Exterior_baseColor.png"
    },
    {
      "uri": "14_D_Exterior_occlusionRoughnessMetallic.png"
    },
    {
      "uri": "14_D_Exterior_normal.png"
    },
    {
      "uri": "14_D_Exterior_emissive.png"
    },
    {
      "uri": "14_D_Glass_baseColor.png"
    },
    {
      "uri": "14_D_Glass_occlusionRoughnessMetallic.png"
    },
    {
      "uri": "14_D_Glass_normal.png"
    },
    {
      "uri": "14_D_Glass_emissive.png"
    },
    {
      "uri": "14_D_Gray_baseColor.png"
    },
    {
      "uri": "14_D_Gray_occlusionRoughnessMetallic.png"
    },
    {
      "uri": "14_D_Gray_normal.png"
    },
    {
      "uri": "14_D_Gray_emissive.png"
    },
    {
      "uri": "14_D_Hardware_baseColor.png"
    },
    {
      "uri": "14_D_Hardware_occlusionRoughnessMetallic.png"
    },
    {
      "uri": "14_D_Hardware_normal.png"
    },
    {
      "uri": "14_D_Hardware_emissive.png"
    },
    {
      "uri": "14_D_Interior_baseColor.png"
    },
    {
      "uri": "14_D_Interior_occlusionRoughnessMetallic.png"
    },
    {
      "uri": "14_D_Interior_normal.png"
    },
    {
      "uri": "14_D_Interior_emissive.png"
    },
    {
      "uri": "14_D_Sill_baseColor.png"
    },
    {
      "uri": "14_D_Sill_occlusionRoughnessMetallic.png"
    },
    {
      "uri": "14_D_Sill_normal.png"
    },
    {
      "uri": "14_D_Sill_emissive.png"
    },
    {
      "uri": "14_D_Spacers_baseColor.png"
    },
    {
      "uri": "14_D_Spacers_occlusionRoughnessMetallic.png"
    },
    {
      "uri": "14_D_Spacers_normal.png"
    },
    {
      "uri": "14_D_Spacers_emissive.png"
    }
  ],
  "materials": [
    {
      "alphaMode": "OPAQUE",
      "emissiveFactor": [
        1.0,
        1.0,
        1.0
      ],
      "emissiveTexture": {
        "index": 3
      },
      "name": "14_D_Exterior",
      "normalTexture": {
        "index": 2
      },
      "occlusionTexture": {
        "index": 1
      },
      "pbrMetallicRoughness": {
        "baseColorTexture": {
          "index": 0
        },
        "metallicRoughnessTexture": {
          "index": 1
        }
      }
    },
    {
      "alphaMode": "BLEND",
      "emissiveFactor": [
        1.0,
        1.0,
        1.0
      ],
      "emissiveTexture": {
        "index": 7
      },
      "name": "14_D_Glass",
      "normalTexture": {
        "index": 6
      },
      "occlusionTexture": {
        "index": 5
      },
      "pbrMetallicRoughness": {
        "baseColorTexture": {
          "index": 4
        },
        "metallicRoughnessTexture": {
          "index": 5
        }
      }
    },
    {
      "alphaMode": "OPAQUE",
      "emissiveFactor": [
        1.0,
        1.0,
        1.0
      ],
      "emissiveTexture": {
        "index": 11
      },
      "name": "14_D_Gray",
      "normalTexture": {
        "index": 10
      },
      "occlusionTexture": {
        "index": 9
      },
      "pbrMetallicRoughness": {
        "baseColorTexture": {
          "index": 8
        },
        "metallicRoughnessTexture": {
          "index": 9
        }
      }
    },
    {
      "alphaMode": "OPAQUE",
      "emissiveFactor": [
        1.0,
        1.0,
        1.0
      ],
      "emissiveTexture": {
        "index": 15
      },
      "name": "14_D_Hardware",
      "normalTexture": {
        "index": 14
      },
      "occlusionTexture": {
        "index": 13
      },
      "pbrMetallicRoughness": {
        "baseColorTexture": {
          "index": 12
        },
        "metallicRoughnessTexture": {
          "index": 13
        }
      }
    },
    {
      "alphaMode": "OPAQUE",
      "emissiveFactor": [
        1.0,
        1.0,
        1.0
      ],
      "emissiveTexture": {
        "index": 19
      },
      "name": "14_D_Interior",
      "normalTexture": {
        "index": 18
      },
      "occlusionTexture": {
        "index": 17
      },
      "pbrMetallicRoughness": {
        "baseColorTexture": {
          "index": 16
        },
        "metallicRoughnessTexture": {
          "index": 17
        }
      }
    },
    {
      "alphaMode": "OPAQUE",
      "emissiveFactor": [
        1.0,
        1.0,
        1.0
      ],
      "emissiveTexture": {
        "index": 23
      },
      "name": "14_D_Sill",
      "normalTexture": {
        "index": 22
      },
      "occlusionTexture": {
        "index": 21
      },
      "pbrMetallicRoughness": {
        "baseColorTexture": {
          "index": 20
        },
        "metallicRoughnessTexture": {
          "index": 21
        }
      }
    },
    {
      "alphaMode": "OPAQUE",
      "emissiveFactor": [
        1.0,
        1.0,
        1.0
      ],
      "emissiveTexture": {
        "index": 27
      },
      "name": "14_D_Spacers",
      "normalTexture": {
        "index": 26
      },
      "occlusionTexture": {
        "index": 25
      },
      "pbrMetallicRoughness": {
        "baseColorTexture": {
          "index": 24
        },
        "metallicRoughnessTexture": {
          "index": 25
        }
      }
    }
  ],
  "meshes": [
    {
      "name": "14_D_Gray",
      "primitives": [
        {
          "attributes": {
            "NORMAL": 2,
            "POSITION": 1,
            "TEXCOORD_0": 3
          },
          "indices": 0,
          "material": 2,
          "mode": 4
        }
      ]
    },
    {
      "name": "14_D_Spacers",
      "primitives": [
        {
          "attributes": {
            "NORMAL": 6,
            "POSITION": 5,
            "TEXCOORD_0": 7
          },
          "indices": 4,
          "material": 6,
          "mode": 4
        }
      ]
    },
    {
      "name": "14_D_Exterior",
      "primitives": [
        {
          "attributes": {
            "NORMAL": 10,
            "POSITION": 9,
            "TEXCOORD_0": 11
          },
          "indices": 8,
          "material": 0,
          "mode": 4
        }
      ]
    },
    {
      "name": "14_D_Interior",
      "primitives": [
        {
          "attributes": {
            "NORMAL": 14,
            "POSITION": 13,
            "TEXCOORD_0": 15
          },
          "indices": 12,
          "material": 4,
          "mode": 4
        }
      ]
    },
    {
      "name": "14_D_Glass",
      "primitives": [
        {
          "attributes": {
            "NORMAL": 18,
            "POSITION": 17,
            "TEXCOORD_0": 19
          },
          "indices": 16,
          "material": 1,
          "mode": 4
        }
      ]
    },
    {
      "name": "14_D_Hardware",
      "primitives": [
        {
          "attributes": {
            "NORMAL": 22,
            "POSITION": 21,
            "TEXCOORD_0": 23
          },
          "indices": 20,
          "material": 3,
          "mode": 4
        }
      ]
    },
    {
      "name": "14_D_Sill",
      "primitives": [
        {
          "attributes": {
            "NORMAL": 26,
            "POSITION": 25,
            "TEXCOORD_0": 27
          },
          "indices": 24,
          "material": 5,
          "mode": 4
        }
      ]
    }
  ],
  "nodes": [
    {
      "children": [
        1,
        3,
        5,
        7,
        9,
        11,
        13
      ],
      "name": "root",
      "scale": [
        1.03479027748108,
        1.03479027748108,
        1.03479027748108
      ],
      "translation": [
        0.0202898383140564,
        1.03447389602661,
        -0.002867192029953
      ]
    },
    {
      "children": [
        2
      ],
      "name": "14_D_Gray"
    },
    {
      "mesh": 0,
      "name": "14_D_Gray"
    },
    {
      "children": [
        4
      ],
      "name": "14_D_Spacers"
    },
    {
      "mesh": 1,
      "name": "14_D_Spacers"
    },
    {
      "children": [
        6
      ],
      "name": "14_D_Exterior"
    },
    {
      "mesh": 2,
      "name": "14_D_Exterior"
    },
    {
      "children": [
        8
      ],
      "name": "14_D_Interior"
    },
    {
      "mesh": 3,
      "name": "14_D_Interior"
    },
    {
      "children": [
        10
      ],
      "name": "14_D_Glass"
    },
    {
      "mesh": 4,
      "name": "14_D_Glass"
    },
    {
      "children": [
        12
      ],
      "name": "14_D_Hardware"
    },
    {
      "mesh": 5,
      "name": "14_D_Hardware"
    },
    {
      "children": [
        14
      ],
      "name": "14_D_Sill"
    },
    {
      "mesh": 6,
      "name": "14_D_Sill"
    }
  ],
  "samplers": [
    {
      "magFilter": 9729,
      "minFilter": 9985,
      "wrapS": 10497,
      "wrapT": 10497
    }
  ],
  "scene": 0,
  "scenes": [
    {
      "name": "Scene",
      "nodes": [
        0
      ]
    }
  ],
  "textures": [
    {
      "sampler": 0,
      "source": 0
    },
    {
      "sampler": 0,
      "source": 1
    },
    {
      "sampler": 0,
      "source": 2
    },
    {
      "sampler": 0,
      "source": 3
    },
    {
      "sampler": 0,
      "source": 4
    },
    {
      "sampler": 0,
      "source": 5
    },
    {
      "sampler": 0,
      "source": 6
    },
    {
      "sampler": 0,
      "source": 7
    },
    {
      "sampler": 0,
      "source": 8
    },
    {
      "sampler": 0,
      "source": 9
    },
    {
      "sampler": 0,
      "source": 10
    },
    {
      "sampler": 0,
      "source": 11
    },
    {
      "sampler": 0,
      "source": 12
    },
    {
      "sampler": 0,
      "source": 13
    },
    {
      "sampler": 0,
      "source": 14
    },
    {
      "sampler": 0,
      "source": 15
    },
    {
      "sampler": 0,
      "source": 16
    },
    {
      "sampler": 0,
      "source": 17
    },
    {
      "sampler": 0,
      "source": 18
    },
    {
      "sampler": 0,
      "source": 19
    },
    {
      "sampler": 0,
      "source": 20
    },
    {
      "sampler": 0,
      "source": 21
    },
    {
      "sampler": 0,
      "source": 22
    },
    {
      "sampler": 0,
      "source": 23
    },
    {
      "sampler": 0,
      "source": 24
    },
    {
      "sampler": 0,
      "source": 25
    },
    {
      "sampler": 0,
      "source": 26
    },
    {
      "sampler": 0,
      "source": 27
    }
  ]
}