{
  "accessors": [
    {
      "bufferView": 0,
      "componentType": 5125,
      "count": 50268,
      "type": "SCALAR"
    },
    {
      "bufferView": 1,
      "componentType": 5126,
      "count": 33309,
      "max": [
        0.834319770336151,
        0.221826985478401,
        0.111072465777397
      ],
      "min": [
        0.768811285495758,
        -0.134465888142586,
        -0.0317548736929893
      ],
      "type": "VEC3"
    },
    {
      "bufferView": 2,
      "componentType": 5126,
      "count": 33309,
      "type": "VEC3"
    },
    {
      "bufferView": 3,
      "componentType": 5126,
      "count": 33309,
      "type": "VEC2"
    },
    {
      "bufferView": 4,
      "componentType": 5125,
      "count": 1962,
      "type": "SCALAR"
    },
    {
      "bufferView": 5,
      "componentType": 5126,
      "count": 1110,
      "max": [
        0.88915753364563,
        0.959971606731415,
        0.0639792159199715
      ],
      "min": [
        -0.889631688594818,
        -1.0,
        -0.0672539845108986
      ],
      "type": "VEC3"
    },
    {
      "bufferView": 6,
      "componentType": 5126,
      "count": 1110,
      "type": "VEC3"
    },
    {
      "bufferView": 7,
      "componentType": 5126,
      "count": 1110,
      "type": "VEC2"
    },
    {
      "bufferView": 8,
      "componentType": 5125,
      "count": 1536,
      "type": "SCALAR"
    },
    {
      "bufferView": 9,
      "componentType": 5126,
      "count": 950,
      "max": [
        0.788737833499908,
        0.878361940383911,
        0.04496880620718
      ],
      "min": [
        -0.790120363235474,
        -0.868762135505676,
        -0.0474380813539028
      ],
      "type": "VEC3"
    },
    {
      "bufferView": 10,
      "componentType": 5126,
      "count": 950,
      "type": "VEC3"
    },
    {
      "bufferView": 11,
      "componentType": 5126,
      "count": 950,
      "type": "VEC2"
    },
    {
      "bufferView": 12,
      "componentType": 5125,
      "count": 7065,
      "type": "SCALAR"
    },
    {
      "bufferView": 13,
      "componentType": 5126,
      "count": 4980,
      "max": [
        0.89171302318573,
        1.0,
        0.088458426296711
      ],
      "min": [
        -0.89171302318573,
        -0.997262120246887,
        -0.104369930922985
      ],
      "type": "VEC3"
    },
    {
      "bufferView": 14,
      "componentType": 5126,
      "count": 4980,
      "type": "VEC3"
    },
    {
      "bufferView": 15,
      "componentType": 5126,
      "count": 4980,
      "type": "VEC2"
    },
    {
      "bufferView": 16,
      "componentType": 5125,
      "count": 3087,
      "type": "SCALAR"
    },
    {
      "bufferView": 17,
      "componentType": 5126,
      "count": 1977,
      "max": [
        0.86515736579895,
        0.968944847583771,
        0.0883720591664314
      ],
      "min": [
        -0.858147025108337,
        -0.983837068080902,
        -0.0622799508273602
      ],
      "type": "VEC3"
    },
    {
      "bufferView": 18,
      "componentType": 5126,
      "count": 1977,
      "type": "VEC3"
    },
    {
      "bufferView": 19,
      "componentType": 5126,
      "count": 1977,
      "type": "VEC2"
    },
    {
      "bufferView": 20,
      "componentType": 5125,
      "count": 144,
      "type": "SCALAR"
    },
    {
      "bufferView": 21,
      "componentType": 5126,
      "count": 96,
      "max": [
        0.802425622940063,
        0.89596825838089,
        0.0505562983453274
      ],
      "min": [
        -0.811017692089081,
        -0.886179447174072,
        -0.0520394928753376
      ],
      "type": "VEC3"
    },
    {
      "bufferView": 22,
      "componentType": 5126,
      "count": 96,
      "type": "VEC3"
    },
    {
      "bufferView": 23,
      "componentType": 5126,
      "count": 96,
      "type": "VEC2"
    },
    {
      "bufferView": 24,
      "componentType": 5125,
      "count": 4332,
      "type": "SCALAR"
    },
    {
      "bufferView": 25,
      "componentType": 5126,
      "count": 2152,
      "max": [
        0.889112651348114,
        -0.934234440326691,
        0.0664782747626305
      ],
      "min": [
        -0.889688789844513,
        -0.999997556209564,
        -0.111072465777397
      ],
      "type": "VEC3"
    },
    {
      "bufferView": 26,
      "componentType": 5126,
      "count": 2152,
      "type": "VEC3"
    },
    {
      "bufferView": 27,
      "componentType": 5126,
      "count": 2152,
      "type": "VEC2"
    }
  ],
  "asset": {
    "generator": "Substance Painter 2019.2.3",
    "version": "2.0"
  },
  "bufferViews": [
    {
      "buffer": 0,
      "byteLength": 201072,
      "target": 34963
    },
    {
      "buffer": 0,
      "byteLength": 399708,
      "byteOffset": 201072,
      "target": 34962
    },
    {
      "buffer": 0,
      "byteLength": 399708,
      "byteOffset": 600780,
      "target": 34962
    },
    {
      "buffer": 0,
      "byteLength": 266472,
      "byteOffset": 1000488,
      "target": 34962
    },
    {
      "buffer": 0,
      "byteLength": 7848,
      "byteOffset": 1266960,
      "target": 34963
    },
    {
      "buffer": 0,
      "byteLength": 13320,
      "byteOffset": 1274808,
      "target": 34962
    },
    {
      "buffer": 0,
      "byteLength": 13320,
      "byteOffset": 1288128,
      "target": 34962
    },
    {
      "buffer": 0,
      "byteLength": 8880,
      "byteOffset": 1301448,
      "target": 34962
    },
    {
      "buffer": 0,
      "byteLength": 6144,
      "byteOffset": 1310328,
      "target": 34963
    },
    {
      "buffer": 0,
      "byteLength": 11400,
      "byteOffset": 1316472,
      "target": 34962
    },
    {
      "buffer": 0,
      "byteLength": 11400,
      "byteOffset": 1327872,
      "target": 34962
    },
    {
      "buffer": 0,
      "byteLength": 7600,
      "byteOffset": 1339272,
      "target": 34962
    },
    {
      "buffer": 0,
      "byteLength": 28260,
      "byteOffset": 1346872,
      "target": 34963
    },
    {
      "buffer": 0,
      "byteLength": 59760,
      "byteOffset": 1375132,
      "target": 34962
    },
    {
      "buffer": 0,
      "byteLength": 59760,
      "byteOffset": 1434892,
      "target": 34962
    },
    {
      "buffer": 0,
      "byteLength": 39840,
      "byteOffset": 1494652,
      "target": 34962
    },
    {
      "buffer": 0,
      "byteLength": 12348,
      "byteOffset": 1534492,
      "target": 34963
    },
    {
      "buffer": 0,
      "byteLength": 23724,
      "byteOffset": 1546840,
      "target": 34962
    },
    {
      "buffer": 0,
      "byteLength": 23724,
      "byteOffset": 1570564,
      "target": 34962
    },
    {
      "buffer": 0,
      "byteLength": 15816,
      "byteOffset": 1594288,
      "target": 34962
    },
    {
      "buffer": 0,
      "byteLength": 576,
      "byteOffset": 1610104,
      "target": 34963
    },
    {
      "buffer": 0,
      "byteLength": 1152,
      "byteOffset": 1610680,
      "target": 34962
    },
    {
      "buffer": 0,
      "byteLength": 1152,
      "byteOffset": 1611832,
      "target": 34962
    },
    {
      "buffer": 0,
      "byteLength": 768,
      "byteOffset": 1612984,
      "target": 34962
    },
    {
      "buffer": 0,
      "byteLength": 17328,
      "byteOffset": 1613752,
      "target": 34963
    },
    {
      "buffer": 0,
      "byteLength": 25824,
      "byteOffset": 1631080,
      "target": 34962
    },
    {
      "buffer": 0,
      "byteLength": 25824,
      "byteOffset": 1656904,
      "target": 34962
    },
    {
      "buffer": 0,
      "byteLength": 17216,
      "byteOffset": 1682728,
      "target": 34962
    }
  ],
  "buffers": [
    {
      "byteLength": 1699944,
      "uri": "14_D_PS200Gliding_v02.bin"
    }
  ],
  "images": [
    {
      "uri": "14_D_Exterior_baseColor.png"
    },
    {
      "uri": "14_D_Exterior_occlusionRoughnessMetallic.png"
    },
    {
      "uri": "14_D_Exterior_normal.png"
    },
    {
      "uri": "14_D_Exterior_emissive.png"
    },
    {
      "uri": "14_D_Glass_baseColor.png"
    },
    {
      "uri": "14_D_Glass_occlusionRoughnessMetallic.png"
    },
    {
      "uri": "14_D_Glass_normal.png"
    },
    {
      "uri": "14_D_Glass_emissive.png"
    },
    {
      "uri": "14_D_Gray_baseColor.png"
    },
    {
      "uri": "14_D_Gray_occlusionRoughnessMetallic.png"
    },
    {
      "uri": "14_D_Gray_normal.png"
    },
    {
      "uri": "14_D_Hardware_baseColor.png"
    },
    {
      "uri": "14_D_Hardware_occlusionRoughnessMetallic.png"
    },
    {
      "uri": "14_D_Hardware_normal.png"
    },
    {
      "uri": "14_D_Hardware_emissive.png"
    },
    {
      "uri": "14_D_Interior_baseColor.png"
    },
    {
      "uri": "14_D_Interior_occlusionRoughnessMetallic.png"
    },
    {
      "uri": "14_D_Interior_normal.png"
    },
    {
      "uri": "14_D_Interior_emissive.png"
    },
    {
      "uri": "14_D_Sill_baseColor.png"
    },
    {
      "uri": "14_D_Sill_occlusionRoughnessMetallic.png"
    },
    {
      "uri": "14_D_Sill_normal.png"
    },
    {
      "uri": "14_D_Sill_emissive.png"
    },
    {
      "uri": "14_D_Spacers_baseColor.png"
    },
    {
      "uri": "14_D_Spacers_occlusionRoughnessMetallic.png"
    },
    {
      "uri": "14_D_Spacers_normal.png"
    },
    {
      "uri": "14_D_Spacers_emissive.png"
    }
  ],
  "materials": [
    {
      "alphaMode": "OPAQUE",
      "emissiveFactor": [
        1.0,
        1.0,
        1.0
      ],
      "emissiveTexture": {
        "index": 3
      },
      "name": "14_D_Exterior",
      "normalTexture": {
        "index": 2
      },
      "occlusionTexture": {
        "index": 1
      },
      "pbrMetallicRoughness": {
        "baseColorTexture": {
          "index": 0
        },
        "metallicRoughnessTexture": {
          "index": 1
        }
      }
    },
    {
      "alphaMode": "BLEND",
      "emissiveFactor": [
        1.0,
        1.0,
        1.0
      ],
      "emissiveTexture": {
        "index": 7
      },
      "name": "14_D_Glass",
      "normalTexture": {
        "index": 6
      },
      "occlusionTexture": {
        "index": 5
      },
      "pbrMetallicRoughness": {
        "baseColorTexture": {
          "index": 4
        },
        "metallicRoughnessTexture": {
          "index": 5
        }
      }
    },
    {
      "alphaMode": "OPAQUE",
      "name": "14_D_Gray",
      "normalTexture": {
        "index": 10
      },
      "occlusionTexture": {
        "index": 9
      },
      "pbrMetallicRoughness": {
        "baseColorTexture": {
          "index": 8
        },
        "metallicRoughnessTexture": {
          "index": 9
        }
      }
    },
    {
      "alphaMode": "OPAQUE",
      "emissiveFactor": [
        1.0,
        1.0,
        1.0
      ],
      "emissiveTexture": {
        "index": 14
      },
      "name": "14_D_Hardware",
      "normalTexture": {
        "index": 13
      },
      "occlusionTexture": {
        "index": 12
      },
      "pbrMetallicRoughness": {
        "baseColorTexture": {
          "index": 11
        },
        "metallicRoughnessTexture": {
          "index": 12
        }
      }
    },
    {
      "alphaMode": "OPAQUE",
      "emissiveFactor": [
        1.0,
        1.0,
        1.0
      ],
      "emissiveTexture": {
        "index": 18
      },
      "name": "14_D_Interior",
      "normalTexture": {
        "index": 17
      },
      "occlusionTexture": {
        "index": 16
      },
      "pbrMetallicRoughness": {
        "baseColorTexture": {
          "index": 15
        },
        "metallicRoughnessTexture": {
          "index": 16
        }
      }
    },
    {
      "alphaMode": "OPAQUE",
      "emissiveFactor": [
        1.0,
        1.0,
        1.0
      ],
      "emissiveTexture": {
        "index": 22
      },
      "name": "14_D_Sill",
      "normalTexture": {
        "index": 21
      },
      "occlusionTexture": {
        "index": 20
      },
      "pbrMetallicRoughness": {
        "baseColorTexture": {
          "index": 19
        },
        "metallicRoughnessTexture": {
          "index": 20
        }
      }
    },
    {
      "alphaMode": "OPAQUE",
      "emissiveFactor": [
        1.0,
        1.0,
        1.0
      ],
      "emissiveTexture": {
        "index": 26
      },
      "name": "14_D_Spacers",
      "normalTexture": {
        "index": 25
      },
      "occlusionTexture": {
        "index": 24
      },
      "pbrMetallicRoughness": {
        "baseColorTexture": {
          "index": 23
        },
        "metallicRoughnessTexture": {
          "index": 24
        }
      }
    }
  ],
  "meshes": [
    {
      "name": "14_D_Harware",
      "primitives": [
        {
          "attributes": {
            "NORMAL": 2,
            "POSITION": 1,
            "TEXCOORD_0": 3
          },
          "indices": 0,
          "material": 3,
          "mode": 4
        }
      ]
    },
    {
      "name": "14_D_Gray",
      "primitives": [
        {
          "attributes": {
            "NORMAL": 6,
            "POSITION": 5,
            "TEXCOORD_0": 7
          },
          "indices": 4,
          "material": 2,
          "mode": 4
        }
      ]
    },
    {
      "name": "14_D_Spacers",
      "primitives": [
        {
          "attributes": {
            "NORMAL": 10,
            "POSITION": 9,
            "TEXCOORD_0": 11
          },
          "indices": 8,
          "material": 6,
          "mode": 4
        }
      ]
    },
    {
      "name": "14_D_Exterior",
      "primitives": [
        {
          "attributes": {
            "NORMAL": 14,
            "POSITION": 13,
            "TEXCOORD_0": 15
          },
          "indices": 12,
          "material": 0,
          "mode": 4
        }
      ]
    },
    {
      "name": "14_D_Interior",
      "primitives": [
        {
          "attributes": {
            "NORMAL": 18,
            "POSITION": 17,
            "TEXCOORD_0": 19
          },
          "indices": 16,
          "material": 4,
          "mode": 4
        }
      ]
    },
    {
      "name": "14_D_Glass",
      "primitives": [
        {
          "attributes": {
            "NORMAL": 22,
            "POSITION": 21,
            "TEXCOORD_0": 23
          },
          "indices": 20,
          "material": 1,
          "mode": 4
        }
      ]
    },
    {
      "name": "14_D_Sill",
      "primitives": [
        {
          "attributes": {
            "NORMAL": 26,
            "POSITION": 25,
            "TEXCOORD_0": 27
          },
          "indices": 24,
          "material": 5,
          "mode": 4
        }
      ]
    }
  ],
  "nodes": [
    {
      "children": [
        1,
        3,
        5,
        7,
        9,
        11,
        13
      ],
      "name": "root",
      "scale": [
        103.479019165039,
        103.479019165039,
        103.479019165039
      ],
      "translation": [
        2.02898406982422,
        103.447387695313,
        -0.286712646484375
      ]
    },
    {
      "children": [
        2
      ],
      "name": "14_D_Harware"
    },
    {
      "mesh": 0,
      "name": "14_D_Harware"
    },
    {
      "children": [
        4
      ],
      "name": "14_D_Gray"
    },
    {
      "mesh": 1,
      "name": "14_D_Gray"
    },
    {
      "children": [
        6
      ],
      "name": "14_D_Spacers"
    },
    {
      "mesh": 2,
      "name": "14_D_Spacers"
    },
    {
      "children": [
        8
      ],
      "name": "14_D_Exterior"
    },
    {
      "mesh": 3,
      "name": "14_D_Exterior"
    },
    {
      "children": [
        10
      ],
      "name": "14_D_Interior"
    },
    {
      "mesh": 4,
      "name": "14_D_Interior"
    },
    {
      "children": [
        12
      ],
      "name": "14_D_Glass"
    },
    {
      "mesh": 5,
      "name": "14_D_Glass"
    },
    {
      "children": [
        14
      ],
      "name": "14_D_Sill"
    },
    {
      "mesh": 6,
      "name": "14_D_Sill"
    }
  ],
  "samplers": [
    {
      "magFilter": 9729,
      "minFilter": 9985,
      "wrapS": 10497,
      "wrapT": 10497
    }
  ],
  "scene": 0,
  "scenes": [
    {
      "name": "Scene",
      "nodes": [
        0
      ]
    }
  ],
  "textures": [
    {
      "sampler": 0,
      "source": 0
    },
    {
      "sampler": 0,
      "source": 1
    },
    {
      "sampler": 0,
      "source": 2
    },
    {
      "sampler": 0,
      "source": 3
    },
    {
      "sampler": 0,
      "source": 4
    },
    {
      "sampler": 0,
      "source": 5
    },
    {
      "sampler": 0,
      "source": 6
    },
    {
      "sampler": 0,
      "source": 7
    },
    {
      "sampler": 0,
      "source": 8
    },
    {
      "sampler": 0,
      "source": 9
    },
    {
      "sampler": 0,
      "source": 10
    },
    {
      "sampler": 0,
      "source": 11
    },
    {
      "sampler": 0,
      "source": 12
    },
    {
      "sampler": 0,
      "source": 13
    },
    {
      "sampler": 0,
      "source": 14
    },
    {
      "sampler": 0,
      "source": 15
    },
    {
      "sampler": 0,
      "source": 16
    },
    {
      "sampler": 0,
      "source": 17
    },
    {
      "sampler": 0,
      "source": 18
    },
    {
      "sampler": 0,
      "source": 19
    },
    {
      "sampler": 0,
      "source": 20
    },
    {
      "sampler": 0,
      "source": 21
    },
    {
      "sampler": 0,
      "source": 22
    },
    {
      "sampler": 0,
      "source": 23
    },
    {
      "sampler": 0,
      "source": 24
    },
    {
      "sampler": 0,
      "source": 25
    },
    {
      "sampler": 0,
      "source": 26
    }
  ]
}