{
  "accessors": [
    {
      "bufferView": 0,
      "componentType": 5125,
      "count": 336,
      "type": "SCALAR"
    },
    {
      "bufferView": 1,
      "componentType": 5126,
      "count": 111,
      "max": [
        3.60333800315857,
        -0.829779148101807,
        22.8687229156494
      ],
      "min": [
        -10.2498655319214,
        -2.92934560775757,
        9.01552104949951
      ],
      "type": "VEC3"
    },
    {
      "bufferView": 2,
      "componentType": 5126,
      "count": 111,
      "type": "VEC3"
    },
    {
      "bufferView": 3,
      "componentType": 5126,
      "count": 111,
      "type": "VEC2"
    },
    {
      "bufferView": 4,
      "componentType": 5125,
      "count": 510,
      "type": "SCALAR"
    },
    {
      "bufferView": 5,
      "componentType": 5126,
      "count": 154,
      "max": [
        3.60334086418152,
        -0.829779148101807,
        22.8687229156494
      ],
      "min": [
        -10.2498655319214,
        -2.92934560775757,
        9.0155200958252
      ],
      "type": "VEC3"
    },
    {
      "bufferView": 6,
      "componentType": 5126,
      "count": 154,
      "type": "VEC3"
    },
    {
      "bufferView": 7,
      "componentType": 5126,
      "count": 154,
      "type": "VEC2"
    },
    {
      "bufferView": 8,
      "componentType": 5125,
      "count": 405672,
      "type": "SCALAR"
    },
    {
      "bufferView": 9,
      "componentType": 5126,
      "count": 114550,
      "max": [
        10.6151294708252,
        7.2237548828125,
        22.8687305450439
      ],
      "min": [
        -10.2538623809814,
        -4.89987087249756,
        -0.000790596008300781
      ],
      "type": "VEC3"
    },
    {
      "bufferView": 10,
      "componentType": 5126,
      "count": 114550,
      "type": "VEC3"
    },
    {
      "bufferView": 11,
      "componentType": 5126,
      "count": 114550,
      "type": "VEC2"
    },
    {
      "bufferView": 12,
      "componentType": 5125,
      "count": 1344,
      "type": "SCALAR"
    },
    {
      "bufferView": 13,
      "componentType": 5126,
      "count": 468,
      "max": [
        3.60333323478699,
        -1.16915643215179,
        22.8684940338135
      ],
      "min": [
        -10.24986743927,
        -2.59154891967773,
        9.01551818847656
      ],
      "type": "VEC3"
    },
    {
      "bufferView": 14,
      "componentType": 5126,
      "count": 468,
      "type": "VEC3"
    },
    {
      "bufferView": 15,
      "componentType": 5126,
      "count": 468,
      "type": "VEC2"
    },
    {
      "bufferView": 16,
      "componentType": 5125,
      "count": 2841,
      "type": "SCALAR"
    },
    {
      "bufferView": 17,
      "componentType": 5126,
      "count": 1769,
      "max": [
        0.92238461971283,
        -0.344763278961182,
        0.900745213031769
      ],
      "min": [
        -0.903184771537781,
        -0.345007419586182,
        -0.878611445426941
      ],
      "type": "VEC3"
    },
    {
      "bufferView": 18,
      "componentType": 5126,
      "count": 1769,
      "type": "VEC3"
    },
    {
      "bufferView": 19,
      "componentType": 5126,
      "count": 1769,
      "type": "VEC2"
    },
    {
      "bufferView": 20,
      "componentType": 5125,
      "count": 2841,
      "type": "SCALAR"
    },
    {
      "bufferView": 21,
      "componentType": 5126,
      "count": 1883,
      "max": [
        0.903184711933136,
        0.345007538795471,
        0.878611624240875
      ],
      "min": [
        -0.922384679317474,
        0.344763040542603,
        -0.900744915008545
      ],
      "type": "VEC3"
    },
    {
      "bufferView": 22,
      "componentType": 5126,
      "count": 1883,
      "type": "VEC3"
    },
    {
      "bufferView": 23,
      "componentType": 5126,
      "count": 1883,
      "type": "VEC2"
    }
  ],
  "asset": {
    "generator": "Substance Painter 6.2.2",
    "version": "2.0"
  },
  "bufferViews": [
    {
      "buffer": 0,
      "byteLength": 1344,
      "target": 34963
    },
    {
      "buffer": 0,
      "byteLength": 1332,
      "byteOffset": 1344,
      "target": 34962
    },
    {
      "buffer": 0,
      "byteLength": 1332,
      "byteOffset": 2676,
      "target": 34962
    },
    {
      "buffer": 0,
      "byteLength": 888,
      "byteOffset": 4008,
      "target": 34962
    },
    {
      "buffer": 0,
      "byteLength": 2040,
      "byteOffset": 4896,
      "target": 34963
    },
    {
      "buffer": 0,
      "byteLength": 1848,
      "byteOffset": 6936,
      "target": 34962
    },
    {
      "buffer": 0,
      "byteLength": 1848,
      "byteOffset": 8784,
      "target": 34962
    },
    {
      "buffer": 0,
      "byteLength": 1232,
      "byteOffset": 10632,
      "target": 34962
    },
    {
      "buffer": 0,
      "byteLength": 1622688,
      "byteOffset": 11864,
      "target": 34963
    },
    {
      "buffer": 0,
      "byteLength": 1374600,
      "byteOffset": 1634552,
      "target": 34962
    },
    {
      "buffer": 0,
      "byteLength": 1374600,
      "byteOffset": 3009152,
      "target": 34962
    },
    {
      "buffer": 0,
      "byteLength": 916400,
      "byteOffset": 4383752,
      "target": 34962
    },
    {
      "buffer": 0,
      "byteLength": 5376,
      "byteOffset": 5300152,
      "target": 34963
    },
    {
      "buffer": 0,
      "byteLength": 5616,
      "byteOffset": 5305528,
      "target": 34962
    },
    {
      "buffer": 0,
      "byteLength": 5616,
      "byteOffset": 5311144,
      "target": 34962
    },
    {
      "buffer": 0,
      "byteLength": 3744,
      "byteOffset": 5316760,
      "target": 34962
    },
    {
      "buffer": 0,
      "byteLength": 11364,
      "byteOffset": 5320504,
      "target": 34963
    },
    {
      "buffer": 0,
      "byteLength": 21228,
      "byteOffset": 5331868,
      "target": 34962
    },
    {
      "buffer": 0,
      "byteLength": 21228,
      "byteOffset": 5353096,
      "target": 34962
    },
    {
      "buffer": 0,
      "byteLength": 14152,
      "byteOffset": 5374324,
      "target": 34962
    },
    {
      "buffer": 0,
      "byteLength": 11364,
      "byteOffset": 5388476,
      "target": 34963
    },
    {
      "buffer": 0,
      "byteLength": 22596,
      "byteOffset": 5399840,
      "target": 34962
    },
    {
      "buffer": 0,
      "byteLength": 22596,
      "byteOffset": 5422436,
      "target": 34962
    },
    {
      "buffer": 0,
      "byteLength": 15064,
      "byteOffset": 5445032,
      "target": 34962
    }
  ],
  "buffers": [
    {
      "byteLength": 5460096,
      "uri": "DG_Corner_V2M.bin"
    }
  ],
  "images": [
    {
      "uri": "Decal_baseColor.png"
    },
    {
      "uri": "Decal_occlusionRoughnessMetallic.png"
    },
    {
      "uri": "Decal_normal.png"
    },
    {
      "uri": "Decal_emissive.png"
    },
    {
      "uri": "DG_Corner_Glass_baseColor.png"
    },
    {
      "uri": "DG_Corner_Glass_occlusionRoughnessMetallic.png"
    },
    {
      "uri": "DG_Corner_Glass_normal.png"
    },
    {
      "uri": "DG_Corner_Glass_emissive.png"
    },
    {
      "uri": "DG_Corner_V2_baseColor.png"
    },
    {
      "uri": "DG_Corner_V2_occlusionRoughnessMetallic.png"
    },
    {
      "uri": "DG_Corner_V2_normal.png"
    },
    {
      "uri": "DG_Glass_Edges_baseColor.png"
    },
    {
      "uri": "DG_Glass_Edges_occlusionRoughnessMetallic.png"
    },
    {
      "uri": "DG_Glass_Edges_normal.png"
    },
    {
      "uri": "DG_Glass_Edges_emissive.png"
    },
    {
      "uri": "DG_Spacer_baseColor.png"
    },
    {
      "uri": "DG_Spacer_occlusionRoughnessMetallic.png"
    },
    {
      "uri": "DG_Spacer_normal.png"
    }
  ],
  "materials": [
    {
      "alphaMode": "BLEND",
      "emissiveFactor": [
        1.0,
        1.0,
        1.0
      ],
      "emissiveTexture": {
        "index": 3
      },
      "name": "Decal",
      "normalTexture": {
        "index": 2
      },
      "occlusionTexture": {
        "index": 1
      },
      "pbrMetallicRoughness": {
        "baseColorTexture": {
          "index": 0
        },
        "metallicRoughnessTexture": {
          "index": 1
        }
      }
    },
    {
      "alphaMode": "BLEND",
      "emissiveFactor": [
        1.0,
        1.0,
        1.0
      ],
      "emissiveTexture": {
        "index": 7
      },
      "name": "DG_Corner_Glass",
      "normalTexture": {
        "index": 6
      },
      "occlusionTexture": {
        "index": 5
      },
      "pbrMetallicRoughness": {
        "baseColorTexture": {
          "index": 4
        },
        "metallicRoughnessTexture": {
          "index": 5
        }
      }
    },
    {
      "alphaMode": "OPAQUE",
      "name": "DG_Corner_V2",
      "normalTexture": {
        "index": 10
      },
      "occlusionTexture": {
        "index": 9
      },
      "pbrMetallicRoughness": {
        "baseColorTexture": {
          "index": 8
        },
        "metallicRoughnessTexture": {
          "index": 9
        }
      }
    },
    {
      "alphaMode": "BLEND",
      "emissiveFactor": [
        1.0,
        1.0,
        1.0
      ],
      "emissiveTexture": {
        "index": 14
      },
      "name": "DG_Glass_Edges",
      "normalTexture": {
        "index": 13
      },
      "occlusionTexture": {
        "index": 12
      },
      "pbrMetallicRoughness": {
        "baseColorTexture": {
          "index": 11
        },
        "metallicRoughnessTexture": {
          "index": 12
        }
      }
    },
    {
      "alphaMode": "OPAQUE",
      "name": "DG_Spacer",
      "normalTexture": {
        "index": 17
      },
      "occlusionTexture": {
        "index": 16
      },
      "pbrMetallicRoughness": {
        "baseColorTexture": {
          "index": 15
        },
        "metallicRoughnessTexture": {
          "index": 16
        }
      }
    }
  ],
  "meshes": [
    {
      "name": "Glass_Edges",
      "primitives": [
        {
          "attributes": {
            "NORMAL": 2,
            "POSITION": 1,
            "TEXCOORD_0": 3
          },
          "indices": 0,
          "material": 3,
          "mode": 4
        }
      ]
    },
    {
      "name": "Glass",
      "primitives": [
        {
          "attributes": {
            "NORMAL": 6,
            "POSITION": 5,
            "TEXCOORD_0": 7
          },
          "indices": 4,
          "material": 1,
          "mode": 4
        }
      ]
    },
    {
      "name": "Corner",
      "primitives": [
        {
          "attributes": {
            "NORMAL": 10,
            "POSITION": 9,
            "TEXCOORD_0": 11
          },
          "indices": 8,
          "material": 2,
          "mode": 4
        }
      ]
    },
    {
      "name": "DG_Spacer",
      "primitives": [
        {
          "attributes": {
            "NORMAL": 14,
            "POSITION": 13,
            "TEXCOORD_0": 15
          },
          "indices": 12,
          "material": 4,
          "mode": 4
        }
      ]
    },
    {
      "name": "Decal_Corner",
      "primitives": [
        {
          "attributes": {
            "NORMAL": 18,
            "POSITION": 17,
            "TEXCOORD_0": 19
          },
          "indices": 16,
          "material": 0,
          "mode": 4
        }
      ]
    },
    {
      "name": "Decal_Corner_Mirror<>001",
      "primitives": [
        {
          "attributes": {
            "NORMAL": 22,
            "POSITION": 21,
            "TEXCOORD_0": 23
          },
          "indices": 20,
          "material": 0,
          "mode": 4
        }
      ]
    }
  ],
  "nodes": [
    {
      "children": [
        1,
        7,
        9,
        11
      ],
      "name": "RootNode"
    },
    {
      "children": [
        2,
        3
      ],
      "name": "Corner",
      "rotation": [
        -0.70710676908493,
        0.0,
        0.0,
        0.70710676908493
      ],
      "scale": [
        0.00999999977648258,
        0.00999999977648258,
        0.00999999977648258
      ]
    },
    {
      "mesh": 2,
      "name": "Corner"
    },
    {
      "children": [
        4,
        5
      ],
      "name": "Glass",
      "rotation": [
        6.16297582203915e-33,
        0.0,
        0.0,
        1.0
      ]
    },
    {
      "mesh": 1,
      "name": "Glass"
    },
    {
      "children": [
        6
      ],
      "name": "Glass_Edges",
      "rotation": [
        6.16297582203915e-33,
        0.0,
        0.0,
        1.0
      ]
    },
    {
      "mesh": 0,
      "name": "Glass_Edges"
    },
    {
      "children": [
        8
      ],
      "name": "DG_Spacer",
      "rotation": [
        -0.70710676908493,
        0.0,
        0.0,
        0.70710676908493
      ],
      "scale": [
        0.00999999977648258,
        0.00999999977648258,
        0.00999999977648258
      ]
    },
    {
      "mesh": 3,
      "name": "DG_Spacer"
    },
    {
      "children": [
        10
      ],
      "name": "Decal_Corner",
      "rotation": [
        -0.70710676908493,
        0.0,
        0.0,
        0.70710676908493
      ],
      "scale": [
        0.00999999977648258,
        0.00999999977648258,
        0.00999999977648258
      ],
      "translation": [
        0.00282470695674419,
        0.123252809047699,
        0.0259124897420406
      ]
    },
    {
      "mesh": 4,
      "name": "Decal_Corner"
    },
    {
      "children": [
        12
      ],
      "name": "Decal_Corner_Mirror<>001",
      "rotation": [
        -1.37678753731052e-07,
        0.707106947898865,
        -0.707106590270996,
        -7.58615712470601e-08
      ],
      "scale": [
        0.00999999977648258,
        0.00999999977648258,
        0.00999999977648258
      ],
      "translation": [
        0.00282470695674419,
        0.123252809047699,
        0.0115387011319399
      ]
    },
    {
      "mesh": 5,
      "name": "Decal_Corner_Mirror<>001"
    }
  ],
  "samplers": [
    {
      "magFilter": 9729,
      "minFilter": 9985,
      "wrapS": 10497,
      "wrapT": 10497
    }
  ],
  "scene": 0,
  "scenes": [
    {
      "name": "Scene",
      "nodes": [
        0
      ]
    }
  ],
  "textures": [
    {
      "sampler": 0,
      "source": 0
    },
    {
      "sampler": 0,
      "source": 1
    },
    {
      "sampler": 0,
      "source": 2
    },
    {
      "sampler": 0,
      "source": 3
    },
    {
      "sampler": 0,
      "source": 4
    },
    {
      "sampler": 0,
      "source": 5
    },
    {
      "sampler": 0,
      "source": 6
    },
    {
      "sampler": 0,
      "source": 7
    },
    {
      "sampler": 0,
      "source": 8
    },
    {
      "sampler": 0,
      "source": 9
    },
    {
      "sampler": 0,
      "source": 10
    },
    {
      "sampler": 0,
      "source": 11
    },
    {
      "sampler": 0,
      "source": 12
    },
    {
      "sampler": 0,
      "source": 13
    },
    {
      "sampler": 0,
      "source": 14
    },
    {
      "sampler": 0,
      "source": 15
    },
    {
      "sampler": 0,
      "source": 16
    },
    {
      "sampler": 0,
      "source": 17
    }
  ]
}