{"asset":{"version":"2.0","generator":"babylon.js glTF exporter for 3dsmax 2021 v20201123.8"},"scene":0,"scenes":[{"nodes":[0]}],"nodes":[{"children":[1,2,4,5],"scale":[228.6,228.6,228.6],"name":"root"},{"translation":[-0.000140070057,4.36365954E-05,2.50995E-05],"rotation":[-0.5,-0.5,0.5,-0.5],"name":"PhysCamera001.Target"},{"children":[3],"mesh":0,"name":"Corner","extras":{"paramrenderwidth":2048,"paramrenderheight":2048,"paramfacecolor":[0.7058824,0.20784314,0.09019608],"paramedgecolor":[1.0,0.7764706,0.0],"paramedgewidth":1}},{"mesh":1,"name":"Glass"},{"name":"Default light"},{"camera":0,"translation":[-0.00334004,0.000445183949,3.98580924E-05],"rotation":[-0.0442073345,-0.7041006,-0.0440039039,0.70735544],"name":"PhysCamera001"}],"cameras":[{"perspective":{"yfov":0.00400989549,"zfar":10000.0,"znear":0.1},"type":"perspective","name":"PhysCamera001"}],"meshes":[{"primitives":[{"attributes":{"POSITION":1,"NORMAL":2,"TEXCOORD_0":3},"indices":0,"material":0},{"attributes":{"POSITION":5,"NORMAL":6,"TEXCOORD_0":7},"indices":4,"material":1},{"attributes":{"POSITION":9,"NORMAL":10,"TEXCOORD_0":11},"indices":8,"material":2},{"attributes":{"POSITION":13,"NORMAL":14,"TEXCOORD_0":15},"indices":12,"material":3},{"attributes":{"POSITION":17,"NORMAL":18,"TEXCOORD_0":19},"indices":16,"material":4},{"attributes":{"POSITION":21,"NORMAL":22,"TEXCOORD_0":23},"indices":20,"material":5},{"attributes":{"POSITION":25,"NORMAL":26,"TEXCOORD_0":27},"indices":24,"material":6},{"attributes":{"POSITION":29,"NORMAL":30,"TEXCOORD_0":31},"indices":28,"material":7}],"name":"Corner"},{"primitives":[{"attributes":{"POSITION":33,"NORMAL":34,"TEXCOORD_0":35},"indices":32,"material":8}],"name":"Glass"}],"accessors":[{"bufferView":0,"componentType":5125,"count":200604,"type":"SCALAR","name":"accessorIndices"},{"bufferView":1,"componentType":5126,"count":200604,"max":[24.24245,52.2779045,11.2010984],"min":[-23.44033,-0.0018075495,-16.513485],"type":"VEC3","name":"accessorPositions"},{"bufferView":1,"byteOffset":2407248,"componentType":5126,"count":200604,"type":"VEC3","name":"accessorNormals"},{"bufferView":2,"componentType":5126,"count":200604,"type":"VEC2","name":"accessorUVs"},{"bufferView":0,"byteOffset":802416,"componentType":5125,"count":48246,"type":"SCALAR","name":"accessorIndices"},{"bufferView":1,"byteOffset":4814496,"componentType":5126,"count":48246,"max":[24.2424469,52.27792,11.2011032],"min":[-23.44033,-0.0018075495,-16.5135021],"type":"VEC3","name":"accessorPositions"},{"bufferView":1,"byteOffset":5393448,"componentType":5126,"count":48246,"type":"VEC3","name":"accessorNormals"},{"bufferView":2,"byteOffset":1604832,"componentType":5126,"count":48246,"type":"VEC2","name":"accessorUVs"},{"bufferView":0,"byteOffset":995400,"componentType":5125,"count":49389,"type":"SCALAR","name":"accessorIndices"},{"bufferView":1,"byteOffset":5972400,"componentType":5126,"count":49389,"max":[24.2661839,14.6722622,10.5233831],"min":[-23.4312057,2.74200487,-15.5650578],"type":"VEC3","name":"accessorPositions"},{"bufferView":1,"byteOffset":6565068,"componentType":5126,"count":49389,"type":"VEC3","name":"accessorNormals"},{"bufferView":2,"byteOffset":1990800,"componentType":5126,"count":49389,"type":"VEC2","name":"accessorUVs"},{"bufferView":0,"byteOffset":1192956,"componentType":5125,"count":744,"type":"SCALAR","name":"accessorIndices"},{"bufferView":1,"byteOffset":7157736,"componentType":5126,"count":744,"max":[19.64418,48.53785,-5.83336544],"min":[16.9206944,5.64707,-8.873536],"type":"VEC3","name":"accessorPositions"},{"bufferView":1,"byteOffset":7166664,"componentType":5126,"count":744,"type":"VEC3","name":"accessorNormals"},{"bufferView":2,"byteOffset":2385912,"componentType":5126,"count":744,"type":"VEC2","name":"accessorUVs"},{"bufferView":0,"byteOffset":1195932,"componentType":5125,"count":58272,"type":"SCALAR","name":"accessorIndices"},{"bufferView":1,"byteOffset":7175592,"componentType":5126,"count":58272,"max":[22.2135715,20.35152,5.687311],"min":[16.7752972,0.19185558,-11.3248692],"type":"VEC3","name":"accessorPositions"},{"bufferView":1,"byteOffset":7874856,"componentType":5126,"count":58272,"type":"VEC3","name":"accessorNormals"},{"bufferView":2,"byteOffset":2391864,"componentType":5126,"count":58272,"type":"VEC2","name":"accessorUVs"},{"bufferView":0,"byteOffset":1429020,"componentType":5125,"count":4260,"type":"SCALAR","name":"accessorIndices"},{"bufferView":1,"byteOffset":8574120,"componentType":5126,"count":4260,"max":[15.5471058,22.9813366,7.78324747],"min":[-23.4311981,7.92121458,0.725138366],"type":"VEC3","name":"accessorPositions"},{"bufferView":1,"byteOffset":8625240,"componentType":5126,"count":4260,"type":"VEC3","name":"accessorNormals"},{"bufferView":2,"byteOffset":2858040,"componentType":5126,"count":4260,"type":"VEC2","name":"accessorUVs"},{"bufferView":0,"byteOffset":1446060,"componentType":5125,"count":44160,"type":"SCALAR","name":"accessorIndices"},{"bufferView":1,"byteOffset":8676360,"componentType":5126,"count":44160,"max":[21.0755939,7.65972853,-2.61267638],"min":[16.6198959,0.0143298879,-16.5087776],"type":"VEC3","name":"accessorPositions"},{"bufferView":1,"byteOffset":9206280,"componentType":5126,"count":44160,"type":"VEC3","name":"accessorNormals"},{"bufferView":2,"byteOffset":2892120,"componentType":5126,"count":44160,"type":"VEC2","name":"accessorUVs"},{"bufferView":0,"byteOffset":1622700,"componentType":5125,"count":1344,"type":"SCALAR","name":"accessorIndices"},{"bufferView":1,"byteOffset":9736200,"componentType":5126,"count":1344,"max":[8.237219,52.2773781,5.92428064],"min":[-23.4311981,20.6094742,2.67269158],"type":"VEC3","name":"accessorPositions"},{"bufferView":1,"byteOffset":9752328,"componentType":5126,"count":1344,"type":"VEC3","name":"accessorNormals"},{"bufferView":2,"byteOffset":3245400,"componentType":5126,"count":1344,"type":"VEC2","name":"accessorUVs"},{"bufferView":0,"byteOffset":1628076,"componentType":5123,"count":846,"type":"SCALAR","name":"accessorIndices"},{"bufferView":1,"byteOffset":9768456,"componentType":5126,"count":846,"max":[8.237237,52.2779,6.69648457],"min":[-23.43119,20.60948,1.89687479],"type":"VEC3","name":"accessorPositions"},{"bufferView":1,"byteOffset":9778608,"componentType":5126,"count":846,"type":"VEC3","name":"accessorNormals"},{"bufferView":2,"byteOffset":3256152,"componentType":5126,"count":846,"type":"VEC2","name":"accessorUVs"}],"bufferViews":[{"buffer":0,"byteLength":1629768,"name":"bufferViewScalar"},{"buffer":0,"byteOffset":1629768,"byteLength":9788760,"byteStride":12,"name":"bufferViewFloatVec3"},{"buffer":0,"byteOffset":11418528,"byteLength":3262920,"byteStride":8,"name":"bufferViewFloatVec2"}],"buffers":[{"uri":"DG_Corner_V2.bin","byteLength":14681448}],"materials":[{"pbrMetallicRoughness":{"baseColorFactor":[0.509803951,0.211764708,0.211764708,1.0],"metallicFactor":0.0},"name":"Fibrex"},{"pbrMetallicRoughness":{"baseColorFactor":[0.6,0.533333361,0.458823532,1.0],"metallicFactor":0.0},"name":"Sandtone"},{"pbrMetallicRoughness":{"baseColorFactor":[0.05755396,0.05755396,0.05755396,1.0],"metallicFactor":0.0},"name":"Black_Silicone_Rubber"},{"pbrMetallicRoughness":{"baseColorFactor":[0.396078438,0.7176471,0.8862745,1.0],"metallicFactor":0.0},"name":"Sandtone_Rubber"},{"pbrMetallicRoughness":{"baseColorFactor":[0.92086333,0.218622223,0.7523256,1.0],"metallicFactor":0.0},"name":"Metal_Screw"},{"pbrMetallicRoughness":{"baseColorFactor":[0.258992821,0.166575238,0.143470854,1.0],"metallicFactor":0.0},"name":"Stone"},{"pbrMetallicRoughness":{"baseColorFactor":[0.247058824,0.247058824,0.247058824,1.0],"metallicFactor":0.0,"roughnessFactor":0.0},"name":"Taupe_Gray"},{"pbrMetallicRoughness":{"baseColorFactor":[0.2627451,0.2627451,0.5647059,1.0],"metallicFactor":0.0},"name":"Aluminum_Shiny"},{"pbrMetallicRoughness":{"baseColorFactor":[0.3137255,0.5176471,0.768627465,1.0],"metallicFactor":0.0},"name":"Glass"}]}