{"asset":{"version":"2.0","generator":"babylon.js glTF exporter for 3dsmax 2021 v20201123.8"},"scene":0,"scenes":[{"nodes":[0]}],"nodes":[{"children":[1,2,3,4,5],"scale":[1.2,1.2,1.2],"name":"root"},{"mesh":0,"name":"Glass"},{"mesh":1,"name":"Corner"},{"translation":[0.03113556,0.117346711,0.05079362],"rotation":[-0.5,-0.5,0.5,-0.5],"name":"PhysCamera001.Target"},{"name":"Default light"},{"camera":0,"translation":[-0.174863562,0.392778784,0.6490547],"rotation":[-0.201048851,-0.1615831,-0.0336442366,0.965576768],"name":"PhysCamera001"}],"cameras":[{"perspective":{"yfov":0.468163162,"zfar":10000.0,"znear":0.1},"type":"perspective","name":"PhysCamera001"}],"meshes":[{"primitives":[{"attributes":{"POSITION":1,"NORMAL":2,"TEXCOORD_0":3},"indices":0,"material":0}],"name":"Glass"},{"primitives":[{"attributes":{"POSITION":5,"NORMAL":6,"TEXCOORD_0":7},"indices":4,"material":1}],"name":"Corner"}],"accessors":[{"bufferView":0,"componentType":5123,"count":846,"type":"SCALAR","name":"accessorIndices"},{"bufferView":1,"componentType":5126,"count":846,"max":[0.04324009,0.274424672,0.03515215],"min":[-0.122998379,0.108186245,0.009957348],"type":"VEC3","name":"accessorPositions"},{"bufferView":1,"byteOffset":10152,"componentType":5126,"count":846,"type":"VEC3","name":"accessorNormals"},{"bufferView":2,"componentType":5126,"count":846,"type":"VEC2","name":"accessorUVs"},{"bufferView":0,"byteOffset":1692,"componentType":5125,"count":407019,"type":"SCALAR","name":"accessorIndices"},{"bufferView":1,"byteOffset":20304,"componentType":5126,"count":407019,"max":[0.127381548,0.274424762,0.0587984435],"min":[-0.123046353,-9.488449E-06,-0.086685054],"type":"VEC3","name":"accessorPositions"},{"bufferView":1,"byteOffset":4904532,"componentType":5126,"count":407019,"type":"VEC3","name":"accessorNormals"},{"bufferView":2,"byteOffset":6768,"componentType":5126,"count":407019,"type":"VEC2","name":"accessorUVs"}],"bufferViews":[{"buffer":0,"byteLength":1629768,"name":"bufferViewScalar"},{"buffer":0,"byteOffset":1629768,"byteLength":9788760,"byteStride":12,"name":"bufferViewFloatVec3"},{"buffer":0,"byteOffset":11418528,"byteLength":3262920,"byteStride":8,"name":"bufferViewFloatVec2"}],"buffers":[{"uri":"DG_Corner_V2.bin","byteLength":14681448}],"materials":[{"pbrMetallicRoughness":{"baseColorFactor":[0.8,0.8,0.8,1.0],"metallicRoughnessTexture":{"index":1}},"emissiveTexture":{"index":0},"name":"Glass"},{"pbrMetallicRoughness":{"baseColorFactor":[0.8,0.8,0.8,1.0],"metallicRoughnessTexture":{"index":3}},"emissiveTexture":{"index":2},"name":"Material #1"}],"textures":[{"sampler":0,"source":0,"name":"DG_Corner_V2_Glass_Emissive.png"},{"sampler":0,"source":1,"name":"DG_Corner_V2_Glass_RoughnessDG_Corner_V2_Glass_Metallic.png"},{"sampler":0,"source":2,"name":"DG_Corner_V2_Emissive_Merged.png"},{"sampler":0,"source":3,"name":"DG_Corner_V2_Roughness_MergedDG_Corner_V2_Metallic_Merged.png"}],"images":[{"uri":"./DG_Corner_V2_Glass_Emissive.png"},{"uri":"./DG_Corner_V2_Glass_RoughnessDG_Corner_V2_Glass_Metallic.png"},{"uri":"./DG_Corner_V2_Emissive_Merged.png"},{"uri":"./DG_Corner_V2_Roughness_MergedDG_Corner_V2_Metallic_Merged.png"}],"samplers":[{"magFilter":9729,"minFilter":9987}]}