{"asset":{"version":"2.0","generator":"babylon.js glTF exporter for 3dsmax 2021 v20201123.8"},"scene":0,"scenes":[{"nodes":[0,1,2,3,4,5]}],"nodes":[{"mesh":0,"name":"Glass"},{"mesh":1,"name":"Corner"},{"translation":[0.03897203,0.119525574,0.0523796119],"rotation":[-0.5,-0.5,0.5,-0.5],"name":"PhysCamera001.Target"},{"translation":[0.451107055,0.0,-0.7917609],"name":"USD001"},{"name":"Default light"},{"camera":0,"translation":[-0.146483973,0.428844064,0.721106],"rotation":[-0.2062135,-0.131899476,-0.02806468,0.9691702],"scale":[1.0,0.99999994,0.99999994],"name":"PhysCamera001"}],"cameras":[{"perspective":{"yfov":0.470709443,"zfar":10000.0,"znear":0.1},"type":"perspective","name":"PhysCamera001"}],"meshes":[{"primitives":[{"attributes":{"POSITION":1,"NORMAL":2,"TEXCOORD_0":3},"indices":0,"material":0}],"name":"Glass"},{"primitives":[{"attributes":{"POSITION":5,"NORMAL":6,"TEXCOORD_0":7},"indices":4,"material":1}],"name":"Corner"}],"accessors":[{"bufferView":0,"componentType":5123,"count":846,"type":"SCALAR","name":"accessorIndices"},{"bufferView":1,"componentType":5126,"count":846,"max":[0.0360334069,0.228687227,0.029293457],"min":[-0.102498643,0.0901552,0.00829779],"type":"VEC3","name":"accessorPositions"},{"bufferView":1,"byteOffset":10152,"componentType":5126,"count":846,"type":"VEC3","name":"accessorNormals"},{"bufferView":2,"componentType":5126,"count":846,"type":"VEC2","name":"accessorUVs"},{"bufferView":0,"byteOffset":1692,"componentType":5125,"count":407019,"type":"SCALAR","name":"accessorIndices"},{"bufferView":1,"byteOffset":20304,"componentType":5126,"count":407019,"max":[0.106151283,0.2286873,0.0489987023],"min":[-0.102538623,-7.90704053E-06,-0.0722375438],"type":"VEC3","name":"accessorPositions"},{"bufferView":1,"byteOffset":4904532,"componentType":5126,"count":407019,"type":"VEC3","name":"accessorNormals"},{"bufferView":2,"byteOffset":6768,"componentType":5126,"count":407019,"type":"VEC2","name":"accessorUVs"}],"bufferViews":[{"buffer":0,"byteLength":1629768,"name":"bufferViewScalar"},{"buffer":0,"byteOffset":1629768,"byteLength":9788760,"byteStride":12,"name":"bufferViewFloatVec3"},{"buffer":0,"byteOffset":11418528,"byteLength":3262920,"byteStride":8,"name":"bufferViewFloatVec2"}],"buffers":[{"uri":"DG_Corner_V2.bin","byteLength":14681448}],"materials":[{"pbrMetallicRoughness":{"baseColorTexture":{"index":1},"metallicRoughnessTexture":{"index":0}},"occlusionTexture":{"index":0},"name":"DG_Corner_Glass"},{"pbrMetallicRoughness":{"baseColorTexture":{"index":4},"metallicRoughnessTexture":{"index":2}},"occlusionTexture":{"index":2},"emissiveTexture":{"index":3},"emissiveFactor":[1.0,1.0,1.0],"name":"DG_Corner_V2"}],"textures":[{"sampler":0,"source":0,"name":"DG_Corner_V2_Glass_Roughness0DG_Corner_V2_Glass_Metallic.png"},{"sampler":0,"source":1,"name":"DG_Corner_V2_Glass_BaseColor.png"},{"sampler":0,"source":2,"name":"DG_Corner_V2_Roughness_Merged255DG_Corner_V2_Metallic_Merged.png"},{"sampler":0,"source":3,"name":"DG_Corner_V2_Emissive_Merged.png"},{"sampler":0,"source":4,"name":"DG_Corner_V2_BaseColor_Merged.png"}],"images":[{"uri":"./DG_Corner_V2_Glass_Roughness0DG_Corner_V2_Glass_Metallic.png"},{"uri":"./DG_Corner_V2_Glass_BaseColor.png"},{"uri":"./DG_Corner_V2_Roughness_Merged255DG_Corner_V2_Metallic_Merged.png"},{"uri":"./DG_Corner_V2_Emissive_Merged.png"},{"uri":"./DG_Corner_V2_BaseColor_Merged.png"}],"samplers":[{"magFilter":9729,"minFilter":9987}]}