{"asset":{"version":"2.0","generator":"babylon.js glTF exporter for 3dsmax 2021 v20201123.8"},"scene":0,"scenes":[{"nodes":[0,1,2,3,4]}],"nodes":[{"translation":[-0.000140070057,4.36365954E-05,2.50995E-05],"rotation":[-0.5,-0.5,0.5,-0.5],"name":"PhysCamera001.Target"},{"mesh":0,"name":"Glass"},{"mesh":1,"name":"Corner"},{"name":"Default light"},{"camera":0,"translation":[-0.00334004,0.000445183949,3.98580924E-05],"rotation":[-0.0442073345,-0.7041006,-0.0440039039,0.70735544],"name":"PhysCamera001"}],"cameras":[{"perspective":{"yfov":0.00400989549,"zfar":10000.0,"znear":0.1},"type":"perspective","name":"PhysCamera001"}],"meshes":[{"primitives":[{"attributes":{"POSITION":1,"NORMAL":2,"TEXCOORD_0":3},"indices":0,"material":0}],"name":"Glass"},{"primitives":[{"attributes":{"POSITION":5,"NORMAL":6,"TEXCOORD_0":7},"indices":4,"material":1},{"attributes":{"POSITION":9,"NORMAL":10,"TEXCOORD_0":11},"indices":8,"material":2},{"attributes":{"POSITION":13,"NORMAL":14,"TEXCOORD_0":15},"indices":12,"material":3},{"attributes":{"POSITION":17,"NORMAL":18,"TEXCOORD_0":19},"indices":16,"material":4},{"attributes":{"POSITION":21,"NORMAL":22,"TEXCOORD_0":23},"indices":20,"material":5},{"attributes":{"POSITION":25,"NORMAL":26,"TEXCOORD_0":27},"indices":24,"material":6},{"attributes":{"POSITION":29,"NORMAL":30,"TEXCOORD_0":31},"indices":28,"material":7},{"attributes":{"POSITION":33,"NORMAL":34,"TEXCOORD_0":35},"indices":32,"material":8}],"name":"Corner"}],"accessors":[{"bufferView":0,"componentType":5123,"count":846,"type":"SCALAR","name":"accessorIndices"},{"bufferView":1,"componentType":5126,"count":846,"max":[0.0360334069,0.228687227,0.029293457],"min":[-0.102498643,0.0901552,0.00829779],"type":"VEC3","name":"accessorPositions"},{"bufferView":1,"byteOffset":10152,"componentType":5126,"count":846,"type":"VEC3","name":"accessorNormals"},{"bufferView":2,"componentType":5126,"count":846,"type":"VEC2","name":"accessorUVs"},{"bufferView":0,"byteOffset":1692,"componentType":5125,"count":200604,"type":"SCALAR","name":"accessorIndices"},{"bufferView":1,"byteOffset":20304,"componentType":5126,"count":200604,"max":[0.106047459,0.228687242,0.04899868],"min":[-0.102538623,-7.90704053E-06,-0.07223746],"type":"VEC3","name":"accessorPositions"},{"bufferView":1,"byteOffset":2427552,"componentType":5126,"count":200604,"type":"VEC3","name":"accessorNormals"},{"bufferView":2,"byteOffset":6768,"componentType":5126,"count":200604,"type":"VEC2","name":"accessorUVs"},{"bufferView":0,"byteOffset":804108,"componentType":5125,"count":48246,"type":"SCALAR","name":"accessorIndices"},{"bufferView":1,"byteOffset":4834800,"componentType":5126,"count":48246,"max":[0.106047444,0.2286873,0.0489987023],"min":[-0.102538623,-7.90704053E-06,-0.0722375438],"type":"VEC3","name":"accessorPositions"},{"bufferView":1,"byteOffset":5413752,"componentType":5126,"count":48246,"type":"VEC3","name":"accessorNormals"},{"bufferView":2,"byteOffset":1611600,"componentType":5126,"count":48246,"type":"VEC2","name":"accessorUVs"},{"bufferView":0,"byteOffset":997092,"componentType":5125,"count":49389,"type":"SCALAR","name":"accessorIndices"},{"bufferView":1,"byteOffset":5992704,"componentType":5126,"count":49389,"max":[0.106151283,0.06418312,0.0460340455],"min":[-0.10249871,0.0119947717,-0.06808861],"type":"VEC3","name":"accessorPositions"},{"bufferView":1,"byteOffset":6585372,"componentType":5126,"count":49389,"type":"VEC3","name":"accessorNormals"},{"bufferView":2,"byteOffset":1997568,"componentType":5126,"count":49389,"type":"VEC2","name":"accessorUVs"},{"bufferView":0,"byteOffset":1194648,"componentType":5125,"count":744,"type":"SCALAR","name":"accessorIndices"},{"bufferView":1,"byteOffset":7178040,"componentType":5126,"count":744,"max":[0.0859325454,0.212326542,-0.0255177841],"min":[0.0740187839,0.0247028414,-0.0388168655],"type":"VEC3","name":"accessorPositions"},{"bufferView":1,"byteOffset":7186968,"componentType":5126,"count":744,"type":"VEC3","name":"accessorNormals"},{"bufferView":2,"byteOffset":2392680,"componentType":5126,"count":744,"type":"VEC2","name":"accessorUVs"},{"bufferView":0,"byteOffset":1197624,"componentType":5125,"count":58272,"type":"SCALAR","name":"accessorIndices"},{"bufferView":1,"byteOffset":7195896,"componentType":5126,"count":58272,"max":[0.09717223,0.08902677,0.0248788763],"min":[0.07338275,0.000839263259,-0.04954011],"type":"VEC3","name":"accessorPositions"},{"bufferView":1,"byteOffset":7895160,"componentType":5126,"count":58272,"type":"VEC3","name":"accessorNormals"},{"bufferView":2,"byteOffset":2398632,"componentType":5126,"count":58272,"type":"VEC2","name":"accessorUVs"},{"bufferView":0,"byteOffset":1430712,"componentType":5125,"count":4260,"type":"SCALAR","name":"accessorIndices"},{"bufferView":1,"byteOffset":8594424,"componentType":5126,"count":4260,"max":[0.0680100843,0.100530781,0.03404745],"min":[-0.102498673,0.03465098,0.00317208376],"type":"VEC3","name":"accessorPositions"},{"bufferView":1,"byteOffset":8645544,"componentType":5126,"count":4260,"type":"VEC3","name":"accessorNormals"},{"bufferView":2,"byteOffset":2864808,"componentType":5126,"count":4260,"type":"VEC2","name":"accessorUVs"},{"bufferView":0,"byteOffset":1447752,"componentType":5125,"count":44160,"type":"SCALAR","name":"accessorIndices"},{"bufferView":1,"byteOffset":8696664,"componentType":5126,"count":44160,"max":[0.0921942,0.0335071236,-0.01142903],"min":[0.07270295,6.268542E-05,-0.0722168759],"type":"VEC3","name":"accessorPositions"},{"bufferView":1,"byteOffset":9226584,"componentType":5126,"count":44160,"type":"VEC3","name":"accessorNormals"},{"bufferView":2,"byteOffset":2898888,"componentType":5126,"count":44160,"type":"VEC2","name":"accessorUVs"},{"bufferView":0,"byteOffset":1624392,"componentType":5125,"count":1344,"type":"SCALAR","name":"accessorIndices"},{"bufferView":1,"byteOffset":9756504,"componentType":5126,"count":1344,"max":[0.03603333,0.228684932,0.0259154867],"min":[-0.102498673,0.09015518,0.0116915638],"type":"VEC3","name":"accessorPositions"},{"bufferView":1,"byteOffset":9772632,"componentType":5126,"count":1344,"type":"VEC3","name":"accessorNormals"},{"bufferView":2,"byteOffset":3252168,"componentType":5126,"count":1344,"type":"VEC2","name":"accessorUVs"}],"bufferViews":[{"buffer":0,"byteLength":1629768,"name":"bufferViewScalar"},{"buffer":0,"byteOffset":1629768,"byteLength":9788760,"byteStride":12,"name":"bufferViewFloatVec3"},{"buffer":0,"byteOffset":11418528,"byteLength":3262920,"byteStride":8,"name":"bufferViewFloatVec2"}],"buffers":[{"uri":"DG_Corner_V2.bin","byteLength":14681448}],"materials":[{"pbrMetallicRoughness":{"baseColorFactor":[0.3137255,0.5176471,0.768627465,1.0],"metallicFactor":0.0},"name":"Glass"},{"pbrMetallicRoughness":{"baseColorFactor":[0.509803951,0.211764708,0.211764708,1.0],"metallicFactor":0.0},"name":"Fibrex"},{"pbrMetallicRoughness":{"baseColorFactor":[0.6,0.533333361,0.458823532,1.0],"metallicFactor":0.0},"name":"Sandtone"},{"pbrMetallicRoughness":{"baseColorFactor":[0.05755396,0.05755396,0.05755396,1.0],"metallicFactor":0.0},"name":"Black_Silicone_Rubber"},{"pbrMetallicRoughness":{"baseColorFactor":[0.396078438,0.7176471,0.8862745,1.0],"metallicFactor":0.0},"name":"Sandtone_Rubber"},{"pbrMetallicRoughness":{"baseColorFactor":[0.92086333,0.218622223,0.7523256,1.0],"metallicFactor":0.0},"name":"Metal_Screw"},{"pbrMetallicRoughness":{"baseColorFactor":[0.258992821,0.166575238,0.143470854,1.0],"metallicFactor":0.0},"name":"Stone"},{"pbrMetallicRoughness":{"baseColorFactor":[0.247058824,0.247058824,0.247058824,1.0],"metallicFactor":0.0,"roughnessFactor":0.0},"name":"Taupe_Gray"},{"pbrMetallicRoughness":{"baseColorFactor":[0.2627451,0.2627451,0.5647059,1.0],"metallicFactor":0.0},"name":"Aluminum_Shiny"}]}