{
  "accessors": [
    {
      "bufferView": 0,
      "componentType": 5125,
      "count": 5106,
      "type": "SCALAR"
    },
    {
      "bufferView": 1,
      "componentType": 5126,
      "count": 3287,
      "max": [
        0.944082498550415,
        0.960442662239075,
        0.0652618557214737
      ],
      "min": [
        -0.934617042541504,
        -0.951981067657471,
        -0.0508731305599213
      ],
      "type": "VEC3"
    },
    {
      "bufferView": 2,
      "componentType": 5126,
      "count": 3287,
      "type": "VEC3"
    },
    {
      "bufferView": 3,
      "componentType": 5126,
      "count": 3287,
      "type": "VEC2"
    },
    {
      "bufferView": 4,
      "componentType": 5125,
      "count": 24,
      "type": "SCALAR"
    },
    {
      "bufferView": 5,
      "componentType": 5126,
      "count": 16,
      "max": [
        0.880938470363617,
        0.871448397636414,
        0.0613161474466324
      ],
      "min": [
        -0.866820216178894,
        -0.856906771659851,
        -0.0446775518357754
      ],
      "type": "VEC3"
    },
    {
      "bufferView": 6,
      "componentType": 5126,
      "count": 16,
      "type": "VEC3"
    },
    {
      "bufferView": 7,
      "componentType": 5126,
      "count": 16,
      "type": "VEC2"
    },
    {
      "bufferView": 8,
      "componentType": 5125,
      "count": 9540,
      "type": "SCALAR"
    },
    {
      "bufferView": 9,
      "componentType": 5126,
      "count": 4911,
      "max": [
        0.999853610992432,
        0.999749183654785,
        0.0861258581280708
      ],
      "min": [
        -0.999295115470886,
        -1.00000011920929,
        -0.0476871430873871
      ],
      "type": "VEC3"
    },
    {
      "bufferView": 10,
      "componentType": 5126,
      "count": 4911,
      "type": "VEC3"
    },
    {
      "bufferView": 11,
      "componentType": 5126,
      "count": 4911,
      "type": "VEC2"
    },
    {
      "bufferView": 12,
      "componentType": 5125,
      "count": 1896,
      "type": "SCALAR"
    },
    {
      "bufferView": 13,
      "componentType": 5126,
      "count": 1142,
      "max": [
        0.904064655303955,
        0.905101776123047,
        0.0579966567456722
      ],
      "min": [
        -0.912388324737549,
        -0.874411523342133,
        -0.0404495969414711
      ],
      "type": "VEC3"
    },
    {
      "bufferView": 14,
      "componentType": 5126,
      "count": 1142,
      "type": "VEC3"
    },
    {
      "bufferView": 15,
      "componentType": 5126,
      "count": 1142,
      "type": "VEC2"
    },
    {
      "bufferView": 16,
      "componentType": 5125,
      "count": 87,
      "type": "SCALAR"
    },
    {
      "bufferView": 17,
      "componentType": 5126,
      "count": 63,
      "max": [
        0.999848246574402,
        0.959009528160095,
        0.0813375487923622
      ],
      "min": [
        -0.999289631843567,
        -0.963006317615509,
        -0.0209832340478897
      ],
      "type": "VEC3"
    },
    {
      "bufferView": 18,
      "componentType": 5126,
      "count": 63,
      "type": "VEC3"
    },
    {
      "bufferView": 19,
      "componentType": 5126,
      "count": 63,
      "type": "VEC2"
    },
    {
      "bufferView": 20,
      "componentType": 5125,
      "count": 16929,
      "type": "SCALAR"
    },
    {
      "bufferView": 21,
      "componentType": 5126,
      "count": 9012,
      "max": [
        0.999341726303101,
        0.99999988079071,
        0.0801979154348373
      ],
      "min": [
        -0.999853491783142,
        -0.999796271324158,
        -0.0861258506774902
      ],
      "type": "VEC3"
    },
    {
      "bufferView": 22,
      "componentType": 5126,
      "count": 9012,
      "type": "VEC3"
    },
    {
      "bufferView": 23,
      "componentType": 5126,
      "count": 9012,
      "type": "VEC2"
    },
    {
      "bufferView": 24,
      "componentType": 5125,
      "count": 26148,
      "type": "SCALAR"
    },
    {
      "bufferView": 25,
      "componentType": 5126,
      "count": 6068,
      "max": [
        -0.0312020611017942,
        0.612903714179993,
        0.0544448047876358
      ],
      "min": [
        -0.0668208003044128,
        -0.609615206718445,
        -0.0127978548407555
      ],
      "type": "VEC3"
    },
    {
      "bufferView": 26,
      "componentType": 5126,
      "count": 6068,
      "type": "VEC3"
    },
    {
      "bufferView": 27,
      "componentType": 5126,
      "count": 6068,
      "type": "VEC2"
    },
    {
      "bufferView": 28,
      "componentType": 5125,
      "count": 708,
      "type": "SCALAR"
    },
    {
      "bufferView": 29,
      "componentType": 5126,
      "count": 542,
      "max": [
        -0.0510574914515018,
        -0.944373726844788,
        -0.0116905020549893
      ],
      "min": [
        -0.909810662269592,
        -0.961726546287537,
        -0.0584543533623219
      ],
      "type": "VEC3"
    },
    {
      "bufferView": 30,
      "componentType": 5126,
      "count": 542,
      "type": "VEC3"
    },
    {
      "bufferView": 31,
      "componentType": 5126,
      "count": 542,
      "type": "VEC2"
    }
  ],
  "asset": {
    "generator": "Substance Painter 2019.3.0",
    "version": "2.0"
  },
  "bufferViews": [
    {
      "buffer": 0,
      "byteLength": 20424,
      "target": 34963
    },
    {
      "buffer": 0,
      "byteLength": 39444,
      "byteOffset": 20424,
      "target": 34962
    },
    {
      "buffer": 0,
      "byteLength": 39444,
      "byteOffset": 59868,
      "target": 34962
    },
    {
      "buffer": 0,
      "byteLength": 26296,
      "byteOffset": 99312,
      "target": 34962
    },
    {
      "buffer": 0,
      "byteLength": 96,
      "byteOffset": 125608,
      "target": 34963
    },
    {
      "buffer": 0,
      "byteLength": 192,
      "byteOffset": 125704,
      "target": 34962
    },
    {
      "buffer": 0,
      "byteLength": 192,
      "byteOffset": 125896,
      "target": 34962
    },
    {
      "buffer": 0,
      "byteLength": 128,
      "byteOffset": 126088,
      "target": 34962
    },
    {
      "buffer": 0,
      "byteLength": 38160,
      "byteOffset": 126216,
      "target": 34963
    },
    {
      "buffer": 0,
      "byteLength": 58932,
      "byteOffset": 164376,
      "target": 34962
    },
    {
      "buffer": 0,
      "byteLength": 58932,
      "byteOffset": 223308,
      "target": 34962
    },
    {
      "buffer": 0,
      "byteLength": 39288,
      "byteOffset": 282240,
      "target": 34962
    },
    {
      "buffer": 0,
      "byteLength": 7584,
      "byteOffset": 321528,
      "target": 34963
    },
    {
      "buffer": 0,
      "byteLength": 13704,
      "byteOffset": 329112,
      "target": 34962
    },
    {
      "buffer": 0,
      "byteLength": 13704,
      "byteOffset": 342816,
      "target": 34962
    },
    {
      "buffer": 0,
      "byteLength": 9136,
      "byteOffset": 356520,
      "target": 34962
    },
    {
      "buffer": 0,
      "byteLength": 348,
      "byteOffset": 365656,
      "target": 34963
    },
    {
      "buffer": 0,
      "byteLength": 756,
      "byteOffset": 366004,
      "target": 34962
    },
    {
      "buffer": 0,
      "byteLength": 756,
      "byteOffset": 366760,
      "target": 34962
    },
    {
      "buffer": 0,
      "byteLength": 504,
      "byteOffset": 367516,
      "target": 34962
    },
    {
      "buffer": 0,
      "byteLength": 67716,
      "byteOffset": 368020,
      "target": 34963
    },
    {
      "buffer": 0,
      "byteLength": 108144,
      "byteOffset": 435736,
      "target": 34962
    },
    {
      "buffer": 0,
      "byteLength": 108144,
      "byteOffset": 543880,
      "target": 34962
    },
    {
      "buffer": 0,
      "byteLength": 72096,
      "byteOffset": 652024,
      "target": 34962
    },
    {
      "buffer": 0,
      "byteLength": 104592,
      "byteOffset": 724120,
      "target": 34963
    },
    {
      "buffer": 0,
      "byteLength": 72816,
      "byteOffset": 828712,
      "target": 34962
    },
    {
      "buffer": 0,
      "byteLength": 72816,
      "byteOffset": 901528,
      "target": 34962
    },
    {
      "buffer": 0,
      "byteLength": 48544,
      "byteOffset": 974344,
      "target": 34962
    },
    {
      "buffer": 0,
      "byteLength": 2832,
      "byteOffset": 1022888,
      "target": 34963
    },
    {
      "buffer": 0,
      "byteLength": 6504,
      "byteOffset": 1025720,
      "target": 34962
    },
    {
      "buffer": 0,
      "byteLength": 6504,
      "byteOffset": 1032224,
      "target": 34962
    },
    {
      "buffer": 0,
      "byteLength": 4336,
      "byteOffset": 1038728,
      "target": 34962
    }
  ],
  "buffers": [
    {
      "byteLength": 1043064,
      "uri": "07_W_GlidingDouble_v03.bin"
    }
  ],
  "images": [
    {
      "uri": "07_W_Drains_baseColor.png"
    },
    {
      "uri": "07_W_Drains_occlusionRoughnessMetallic.png"
    },
    {
      "uri": "07_W_Drains_normal.png"
    },
    {
      "uri": "07_W_Drains_emissive.png"
    },
    {
      "uri": "07_W_Exterior_baseColor.png"
    },
    {
      "uri": "07_W_Exterior_occlusionRoughnessMetallic.png"
    },
    {
      "uri": "07_W_Exterior_normal.png"
    },
    {
      "uri": "07_W_Exterior_emissive.png"
    },
    {
      "uri": "07_W_Glass_baseColor.png"
    },
    {
      "uri": "07_W_Glass_occlusionRoughnessMetallic.png"
    },
    {
      "uri": "07_W_Glass_normal.png"
    },
    {
      "uri": "07_W_Glass_emissive.png"
    },
    {
      "uri": "07_W_Gray_baseColor.png"
    },
    {
      "uri": "07_W_Gray_occlusionRoughnessMetallic.png"
    },
    {
      "uri": "07_W_Gray_normal.png"
    },
    {
      "uri": "07_W_Gray_emissive.png"
    },
    {
      "uri": "07_W_Hardware_baseColor.png"
    },
    {
      "uri": "07_W_Hardware_occlusionRoughnessMetallic.png"
    },
    {
      "uri": "07_W_Hardware_normal.png"
    },
    {
      "uri": "07_W_Hardware_emissive.png"
    },
    {
      "uri": "07_W_Interior_baseColor.png"
    },
    {
      "uri": "07_W_Interior_occlusionRoughnessMetallic.png"
    },
    {
      "uri": "07_W_Interior_normal.png"
    },
    {
      "uri": "07_W_Interior_emissive.png"
    },
    {
      "uri": "07_W_Spacers_baseColor.png"
    },
    {
      "uri": "07_W_Spacers_occlusionRoughnessMetallic.png"
    },
    {
      "uri": "07_W_Spacers_normal.png"
    },
    {
      "uri": "07_W_Spacers_emissive.png"
    },
    {
      "uri": "07_W_White_baseColor.png"
    },
    {
      "uri": "07_W_White_occlusionRoughnessMetallic.png"
    },
    {
      "uri": "07_W_White_normal.png"
    },
    {
      "uri": "07_W_White_emissive.png"
    }
  ],
  "materials": [
    {
      "alphaMode": "OPAQUE",
      "emissiveFactor": [
        1.0,
        1.0,
        1.0
      ],
      "emissiveTexture": {
        "index": 3
      },
      "name": "07_W_Drains",
      "normalTexture": {
        "index": 2
      },
      "occlusionTexture": {
        "index": 1
      },
      "pbrMetallicRoughness": {
        "baseColorTexture": {
          "index": 0
        },
        "metallicRoughnessTexture": {
          "index": 1
        }
      }
    },
    {
      "alphaMode": "OPAQUE",
      "emissiveFactor": [
        1.0,
        1.0,
        1.0
      ],
      "emissiveTexture": {
        "index": 7
      },
      "name": "07_W_Exterior",
      "normalTexture": {
        "index": 6
      },
      "occlusionTexture": {
        "index": 5
      },
      "pbrMetallicRoughness": {
        "baseColorTexture": {
          "index": 4
        },
        "metallicRoughnessTexture": {
          "index": 5
        }
      }
    },
    {
      "alphaMode": "BLEND",
      "emissiveFactor": [
        1.0,
        1.0,
        1.0
      ],
      "emissiveTexture": {
        "index": 11
      },
      "name": "07_W_Glass",
      "normalTexture": {
        "index": 10
      },
      "occlusionTexture": {
        "index": 9
      },
      "pbrMetallicRoughness": {
        "baseColorTexture": {
          "index": 8
        },
        "metallicRoughnessTexture": {
          "index": 9
        }
      }
    },
    {
      "alphaMode": "OPAQUE",
      "emissiveFactor": [
        1.0,
        1.0,
        1.0
      ],
      "emissiveTexture": {
        "index": 15
      },
      "name": "07_W_Gray",
      "normalTexture": {
        "index": 14
      },
      "occlusionTexture": {
        "index": 13
      },
      "pbrMetallicRoughness": {
        "baseColorTexture": {
          "index": 12
        },
        "metallicRoughnessTexture": {
          "index": 13
        }
      }
    },
    {
      "alphaMode": "OPAQUE",
      "emissiveFactor": [
        1.0,
        1.0,
        1.0
      ],
      "emissiveTexture": {
        "index": 19
      },
      "name": "07_W_Hardware",
      "normalTexture": {
        "index": 18
      },
      "occlusionTexture": {
        "index": 17
      },
      "pbrMetallicRoughness": {
        "baseColorTexture": {
          "index": 16
        },
        "metallicRoughnessTexture": {
          "index": 17
        }
      }
    },
    {
      "alphaMode": "OPAQUE",
      "emissiveFactor": [
        1.0,
        1.0,
        1.0
      ],
      "emissiveTexture": {
        "index": 23
      },
      "name": "07_W_Interior",
      "normalTexture": {
        "index": 22
      },
      "occlusionTexture": {
        "index": 21
      },
      "pbrMetallicRoughness": {
        "baseColorTexture": {
          "index": 20
        },
        "metallicRoughnessTexture": {
          "index": 21
        }
      }
    },
    {
      "alphaMode": "OPAQUE",
      "emissiveFactor": [
        1.0,
        1.0,
        1.0
      ],
      "emissiveTexture": {
        "index": 27
      },
      "name": "07_W_Spacers",
      "normalTexture": {
        "index": 26
      },
      "occlusionTexture": {
        "index": 25
      },
      "pbrMetallicRoughness": {
        "baseColorTexture": {
          "index": 24
        },
        "metallicRoughnessTexture": {
          "index": 25
        }
      }
    },
    {
      "alphaMode": "OPAQUE",
      "emissiveFactor": [
        1.0,
        1.0,
        1.0
      ],
      "emissiveTexture": {
        "index": 31
      },
      "name": "07_W_White",
      "normalTexture": {
        "index": 30
      },
      "occlusionTexture": {
        "index": 29
      },
      "pbrMetallicRoughness": {
        "baseColorTexture": {
          "index": 28
        },
        "metallicRoughnessTexture": {
          "index": 29
        }
      }
    }
  ],
  "meshes": [
    {
      "name": "07_W_Gray",
      "primitives": [
        {
          "attributes": {
            "NORMAL": 2,
            "POSITION": 1,
            "TEXCOORD_0": 3
          },
          "indices": 0,
          "material": 3,
          "mode": 4
        }
      ]
    },
    {
      "name": "07_W_Glass",
      "primitives": [
        {
          "attributes": {
            "NORMAL": 6,
            "POSITION": 5,
            "TEXCOORD_0": 7
          },
          "indices": 4,
          "material": 2,
          "mode": 4
        }
      ]
    },
    {
      "name": "07_W_Interior",
      "primitives": [
        {
          "attributes": {
            "NORMAL": 10,
            "POSITION": 9,
            "TEXCOORD_0": 11
          },
          "indices": 8,
          "material": 5,
          "mode": 4
        }
      ]
    },
    {
      "name": "07_W_Spacers",
      "primitives": [
        {
          "attributes": {
            "NORMAL": 14,
            "POSITION": 13,
            "TEXCOORD_0": 15
          },
          "indices": 12,
          "material": 6,
          "mode": 4
        }
      ]
    },
    {
      "name": "07_W_White",
      "primitives": [
        {
          "attributes": {
            "NORMAL": 18,
            "POSITION": 17,
            "TEXCOORD_0": 19
          },
          "indices": 16,
          "material": 7,
          "mode": 4
        }
      ]
    },
    {
      "name": "07_W_Exterior",
      "primitives": [
        {
          "attributes": {
            "NORMAL": 22,
            "POSITION": 21,
            "TEXCOORD_0": 23
          },
          "indices": 20,
          "material": 1,
          "mode": 4
        }
      ]
    },
    {
      "name": "07_W_Hardware",
      "primitives": [
        {
          "attributes": {
            "NORMAL": 26,
            "POSITION": 25,
            "TEXCOORD_0": 27
          },
          "indices": 24,
          "material": 4,
          "mode": 4
        }
      ]
    },
    {
      "name": "Object001",
      "primitives": [
        {
          "attributes": {
            "NORMAL": 30,
            "POSITION": 29,
            "TEXCOORD_0": 31
          },
          "indices": 28,
          "material": 0,
          "mode": 4
        }
      ]
    }
  ],
  "nodes": [
    {
      "children": [
        1,
        3,
        5,
        7,
        9,
        11,
        13,
        15
      ],
      "name": "root",
      "scale": [
        0.619296491146088,
        0.619296491146088,
        0.619296491146088
      ],
      "translation": [
        0.0304585099220276,
        0.619355738162994,
        -0.000375047326087952
      ]
    },
    {
      "children": [
        2
      ],
      "name": "07_W_Gray"
    },
    {
      "mesh": 0,
      "name": "07_W_Gray"
    },
    {
      "children": [
        4
      ],
      "name": "07_W_Glass"
    },
    {
      "mesh": 1,
      "name": "07_W_Glass"
    },
    {
      "children": [
        6
      ],
      "name": "07_W_Interior"
    },
    {
      "mesh": 2,
      "name": "07_W_Interior"
    },
    {
      "children": [
        8
      ],
      "name": "07_W_Spacers"
    },
    {
      "mesh": 3,
      "name": "07_W_Spacers"
    },
    {
      "children": [
        10
      ],
      "name": "07_W_White"
    },
    {
      "mesh": 4,
      "name": "07_W_White"
    },
    {
      "children": [
        12
      ],
      "name": "07_W_Exterior"
    },
    {
      "mesh": 5,
      "name": "07_W_Exterior"
    },
    {
      "children": [
        14
      ],
      "name": "07_W_Hardware"
    },
    {
      "mesh": 6,
      "name": "07_W_Hardware"
    },
    {
      "children": [
        16
      ],
      "name": "Object001"
    },
    {
      "mesh": 7,
      "name": "Object001"
    }
  ],
  "samplers": [
    {
      "magFilter": 9729,
      "minFilter": 9985,
      "wrapS": 10497,
      "wrapT": 10497
    }
  ],
  "scene": 0,
  "scenes": [
    {
      "name": "Scene",
      "nodes": [
        0
      ]
    }
  ],
  "textures": [
    {
      "sampler": 0,
      "source": 0
    },
    {
      "sampler": 0,
      "source": 1
    },
    {
      "sampler": 0,
      "source": 2
    },
    {
      "sampler": 0,
      "source": 3
    },
    {
      "sampler": 0,
      "source": 4
    },
    {
      "sampler": 0,
      "source": 5
    },
    {
      "sampler": 0,
      "source": 6
    },
    {
      "sampler": 0,
      "source": 7
    },
    {
      "sampler": 0,
      "source": 8
    },
    {
      "sampler": 0,
      "source": 9
    },
    {
      "sampler": 0,
      "source": 10
    },
    {
      "sampler": 0,
      "source": 11
    },
    {
      "sampler": 0,
      "source": 12
    },
    {
      "sampler": 0,
      "source": 13
    },
    {
      "sampler": 0,
      "source": 14
    },
    {
      "sampler": 0,
      "source": 15
    },
    {
      "sampler": 0,
      "source": 16
    },
    {
      "sampler": 0,
      "source": 17
    },
    {
      "sampler": 0,
      "source": 18
    },
    {
      "sampler": 0,
      "source": 19
    },
    {
      "sampler": 0,
      "source": 20
    },
    {
      "sampler": 0,
      "source": 21
    },
    {
      "sampler": 0,
      "source": 22
    },
    {
      "sampler": 0,
      "source": 23
    },
    {
      "sampler": 0,
      "source": 24
    },
    {
      "sampler": 0,
      "source": 25
    },
    {
      "sampler": 0,
      "source": 26
    },
    {
      "sampler": 0,
      "source": 27
    },
    {
      "sampler": 0,
      "source": 28
    },
    {
      "sampler": 0,
      "source": 29
    },
    {
      "sampler": 0,
      "source": 30
    },
    {
      "sampler": 0,
      "source": 31
    }
  ]
}