{
  "accessors": [
    {
      "bufferView": 0,
      "componentType": 5125,
      "count": 24,
      "type": "SCALAR"
    },
    {
      "bufferView": 1,
      "componentType": 5126,
      "count": 16,
      "max": [
        0.489428222179413,
        0.845286548137665,
        0.0765274986624718
      ],
      "min": [
        -0.488203942775726,
        -0.821493864059448,
        -0.0586448311805725
      ],
      "type": "VEC3"
    },
    {
      "bufferView": 2,
      "componentType": 5126,
      "count": 16,
      "type": "VEC3"
    },
    {
      "bufferView": 3,
      "componentType": 5126,
      "count": 16,
      "type": "VEC2"
    },
    {
      "bufferView": 4,
      "componentType": 5125,
      "count": 74604,
      "type": "SCALAR"
    },
    {
      "bufferView": 5,
      "componentType": 5126,
      "count": 17234,
      "max": [
        0.568246066570282,
        0.0652276873588562,
        0.109303936362267
      ],
      "min": [
        -0.56562215089798,
        -0.872606158256531,
        -0.0641200765967369
      ],
      "type": "VEC3"
    },
    {
      "bufferView": 6,
      "componentType": 5126,
      "count": 17234,
      "type": "VEC3"
    },
    {
      "bufferView": 7,
      "componentType": 5126,
      "count": 17234,
      "type": "VEC2"
    },
    {
      "bufferView": 8,
      "componentType": 5125,
      "count": 13062,
      "type": "SCALAR"
    },
    {
      "bufferView": 9,
      "componentType": 5126,
      "count": 5704,
      "max": [
        0.627977013587952,
        1.0,
        0.105584919452667
      ],
      "min": [
        -0.627922177314758,
        -0.999959945678711,
        -0.111241564154625
      ],
      "type": "VEC3"
    },
    {
      "bufferView": 10,
      "componentType": 5126,
      "count": 5704,
      "type": "VEC3"
    },
    {
      "bufferView": 11,
      "componentType": 5126,
      "count": 5704,
      "type": "VEC2"
    },
    {
      "bufferView": 12,
      "componentType": 5125,
      "count": 1212,
      "type": "SCALAR"
    },
    {
      "bufferView": 13,
      "componentType": 5126,
      "count": 692,
      "max": [
        0.627976715564728,
        -0.882842898368835,
        0.111238576471806
      ],
      "min": [
        -0.625444173812866,
        -0.99999874830246,
        -0.11117023229599
      ],
      "type": "VEC3"
    },
    {
      "bufferView": 14,
      "componentType": 5126,
      "count": 692,
      "type": "VEC3"
    },
    {
      "bufferView": 15,
      "componentType": 5126,
      "count": 692,
      "type": "VEC2"
    },
    {
      "bufferView": 16,
      "componentType": 5125,
      "count": 4500,
      "type": "SCALAR"
    },
    {
      "bufferView": 17,
      "componentType": 5126,
      "count": 2210,
      "max": [
        0.611905336380005,
        0.983600795269012,
        0.0580135881900787
      ],
      "min": [
        -0.610758721828461,
        -0.0626281499862671,
        -0.0373967662453651
      ],
      "type": "VEC3"
    },
    {
      "bufferView": 18,
      "componentType": 5126,
      "count": 2210,
      "type": "VEC3"
    },
    {
      "bufferView": 19,
      "componentType": 5126,
      "count": 2210,
      "type": "VEC2"
    },
    {
      "bufferView": 20,
      "componentType": 5125,
      "count": 21750,
      "type": "SCALAR"
    },
    {
      "bufferView": 21,
      "componentType": 5126,
      "count": 12716,
      "max": [
        0.625969052314758,
        0.999714374542236,
        0.111241810023785
      ],
      "min": [
        -0.625448644161224,
        -1.00012397766113,
        -0.0587946251034737
      ],
      "type": "VEC3"
    },
    {
      "bufferView": 22,
      "componentType": 5126,
      "count": 12716,
      "type": "VEC3"
    },
    {
      "bufferView": 23,
      "componentType": 5126,
      "count": 12716,
      "type": "VEC2"
    },
    {
      "bufferView": 24,
      "componentType": 5125,
      "count": 720,
      "type": "SCALAR"
    },
    {
      "bufferView": 25,
      "componentType": 5126,
      "count": 256,
      "max": [
        0.511255145072937,
        0.877455770969391,
        0.0668949782848358
      ],
      "min": [
        -0.504554152488708,
        -0.842603325843811,
        -0.0506274588406086
      ],
      "type": "VEC3"
    },
    {
      "bufferView": 26,
      "componentType": 5126,
      "count": 256,
      "type": "VEC3"
    },
    {
      "bufferView": 27,
      "componentType": 5126,
      "count": 256,
      "type": "VEC2"
    },
    {
      "bufferView": 28,
      "componentType": 5125,
      "count": 2316,
      "type": "SCALAR"
    },
    {
      "bufferView": 29,
      "componentType": 5126,
      "count": 1382,
      "max": [
        0.588703572750092,
        0.0263493657112122,
        0.0338052436709404
      ],
      "min": [
        -0.588878393173218,
        -0.9543496966362,
        -0.0498893670737743
      ],
      "type": "VEC3"
    },
    {
      "bufferView": 30,
      "componentType": 5126,
      "count": 1382,
      "type": "VEC3"
    },
    {
      "bufferView": 31,
      "componentType": 5126,
      "count": 1382,
      "type": "VEC2"
    }
  ],
  "asset": {
    "generator": "Substance Painter 2019.3.0",
    "version": "2.0"
  },
  "bufferViews": [
    {
      "buffer": 0,
      "byteLength": 96,
      "target": 34963
    },
    {
      "buffer": 0,
      "byteLength": 192,
      "byteOffset": 96,
      "target": 34962
    },
    {
      "buffer": 0,
      "byteLength": 192,
      "byteOffset": 288,
      "target": 34962
    },
    {
      "buffer": 0,
      "byteLength": 128,
      "byteOffset": 480,
      "target": 34962
    },
    {
      "buffer": 0,
      "byteLength": 298416,
      "byteOffset": 608,
      "target": 34963
    },
    {
      "buffer": 0,
      "byteLength": 206808,
      "byteOffset": 299024,
      "target": 34962
    },
    {
      "buffer": 0,
      "byteLength": 206808,
      "byteOffset": 505832,
      "target": 34962
    },
    {
      "buffer": 0,
      "byteLength": 137872,
      "byteOffset": 712640,
      "target": 34962
    },
    {
      "buffer": 0,
      "byteLength": 52248,
      "byteOffset": 850512,
      "target": 34963
    },
    {
      "buffer": 0,
      "byteLength": 68448,
      "byteOffset": 902760,
      "target": 34962
    },
    {
      "buffer": 0,
      "byteLength": 68448,
      "byteOffset": 971208,
      "target": 34962
    },
    {
      "buffer": 0,
      "byteLength": 45632,
      "byteOffset": 1039656,
      "target": 34962
    },
    {
      "buffer": 0,
      "byteLength": 4848,
      "byteOffset": 1085288,
      "target": 34963
    },
    {
      "buffer": 0,
      "byteLength": 8304,
      "byteOffset": 1090136,
      "target": 34962
    },
    {
      "buffer": 0,
      "byteLength": 8304,
      "byteOffset": 1098440,
      "target": 34962
    },
    {
      "buffer": 0,
      "byteLength": 5536,
      "byteOffset": 1106744,
      "target": 34962
    },
    {
      "buffer": 0,
      "byteLength": 18000,
      "byteOffset": 1112280,
      "target": 34963
    },
    {
      "buffer": 0,
      "byteLength": 26520,
      "byteOffset": 1130280,
      "target": 34962
    },
    {
      "buffer": 0,
      "byteLength": 26520,
      "byteOffset": 1156800,
      "target": 34962
    },
    {
      "buffer": 0,
      "byteLength": 17680,
      "byteOffset": 1183320,
      "target": 34962
    },
    {
      "buffer": 0,
      "byteLength": 87000,
      "byteOffset": 1201000,
      "target": 34963
    },
    {
      "buffer": 0,
      "byteLength": 152592,
      "byteOffset": 1288000,
      "target": 34962
    },
    {
      "buffer": 0,
      "byteLength": 152592,
      "byteOffset": 1440592,
      "target": 34962
    },
    {
      "buffer": 0,
      "byteLength": 101728,
      "byteOffset": 1593184,
      "target": 34962
    },
    {
      "buffer": 0,
      "byteLength": 2880,
      "byteOffset": 1694912,
      "target": 34963
    },
    {
      "buffer": 0,
      "byteLength": 3072,
      "byteOffset": 1697792,
      "target": 34962
    },
    {
      "buffer": 0,
      "byteLength": 3072,
      "byteOffset": 1700864,
      "target": 34962
    },
    {
      "buffer": 0,
      "byteLength": 2048,
      "byteOffset": 1703936,
      "target": 34962
    },
    {
      "buffer": 0,
      "byteLength": 9264,
      "byteOffset": 1705984,
      "target": 34963
    },
    {
      "buffer": 0,
      "byteLength": 16584,
      "byteOffset": 1715248,
      "target": 34962
    },
    {
      "buffer": 0,
      "byteLength": 16584,
      "byteOffset": 1731832,
      "target": 34962
    },
    {
      "buffer": 0,
      "byteLength": 11056,
      "byteOffset": 1748416,
      "target": 34962
    }
  ],
  "buffers": [
    {
      "byteLength": 1759472,
      "uri": "09_W_DoublehungDG_v04.bin"
    }
  ],
  "images": [
    {
      "uri": "09_W_Exterior_baseColor.png"
    },
    {
      "uri": "09_W_Exterior_occlusionRoughnessMetallic.png"
    },
    {
      "uri": "09_W_Exterior_normal.png"
    },
    {
      "uri": "09_W_Exterior_emissive.png"
    },
    {
      "uri": "09_W_Fibrex_baseColor.png"
    },
    {
      "uri": "09_W_Fibrex_occlusionRoughnessMetallic.png"
    },
    {
      "uri": "09_W_Fibrex_normal.png"
    },
    {
      "uri": "09_W_Fibrex_emissive.png"
    },
    {
      "uri": "09_W_Glass_baseColor.png"
    },
    {
      "uri": "09_W_Glass_occlusionRoughnessMetallic.png"
    },
    {
      "uri": "09_W_Glass_normal.png"
    },
    {
      "uri": "09_W_Glass_emissive.png"
    },
    {
      "uri": "09_W_Gray_baseColor.png"
    },
    {
      "uri": "09_W_Gray_occlusionRoughnessMetallic.png"
    },
    {
      "uri": "09_W_Gray_normal.png"
    },
    {
      "uri": "09_W_Gray_emissive.png"
    },
    {
      "uri": "09_W_Hardware_baseColor.png"
    },
    {
      "uri": "09_W_Hardware_occlusionRoughnessMetallic.png"
    },
    {
      "uri": "09_W_Hardware_normal.png"
    },
    {
      "uri": "09_W_Hardware_emissive.png"
    },
    {
      "uri": "09_W_Interior_baseColor.png"
    },
    {
      "uri": "09_W_Interior_occlusionRoughnessMetallic.png"
    },
    {
      "uri": "09_W_Interior_normal.png"
    },
    {
      "uri": "09_W_Interior_emissive.png"
    },
    {
      "uri": "09_W_Spacers_baseColor.png"
    },
    {
      "uri": "09_W_Spacers_occlusionRoughnessMetallic.png"
    },
    {
      "uri": "09_W_Spacers_normal.png"
    },
    {
      "uri": "09_W_Spacers_emissive.png"
    },
    {
      "uri": "09_W_White_baseColor.png"
    },
    {
      "uri": "09_W_White_occlusionRoughnessMetallic.png"
    },
    {
      "uri": "09_W_White_normal.png"
    },
    {
      "uri": "09_W_White_emissive.png"
    }
  ],
  "materials": [
    {
      "alphaMode": "OPAQUE",
      "emissiveFactor": [
        1.0,
        1.0,
        1.0
      ],
      "emissiveTexture": {
        "index": 3
      },
      "name": "09_W_Exterior",
      "normalTexture": {
        "index": 2
      },
      "occlusionTexture": {
        "index": 1
      },
      "pbrMetallicRoughness": {
        "baseColorTexture": {
          "index": 0
        },
        "metallicRoughnessTexture": {
          "index": 1
        }
      }
    },
    {
      "alphaMode": "OPAQUE",
      "emissiveFactor": [
        1.0,
        1.0,
        1.0
      ],
      "emissiveTexture": {
        "index": 7
      },
      "name": "09_W_Fibrex",
      "normalTexture": {
        "index": 6
      },
      "occlusionTexture": {
        "index": 5
      },
      "pbrMetallicRoughness": {
        "baseColorTexture": {
          "index": 4
        },
        "metallicRoughnessTexture": {
          "index": 5
        }
      }
    },
    {
      "alphaMode": "BLEND",
      "emissiveFactor": [
        1.0,
        1.0,
        1.0
      ],
      "emissiveTexture": {
        "index": 11
      },
      "name": "09_W_Glass",
      "normalTexture": {
        "index": 10
      },
      "occlusionTexture": {
        "index": 9
      },
      "pbrMetallicRoughness": {
        "baseColorTexture": {
          "index": 8
        },
        "metallicRoughnessTexture": {
          "index": 9
        }
      }
    },
    {
      "alphaMode": "OPAQUE",
      "emissiveFactor": [
        1.0,
        1.0,
        1.0
      ],
      "emissiveTexture": {
        "index": 15
      },
      "name": "09_W_Gray",
      "normalTexture": {
        "index": 14
      },
      "occlusionTexture": {
        "index": 13
      },
      "pbrMetallicRoughness": {
        "baseColorTexture": {
          "index": 12
        },
        "metallicRoughnessTexture": {
          "index": 13
        }
      }
    },
    {
      "alphaMode": "OPAQUE",
      "emissiveFactor": [
        1.0,
        1.0,
        1.0
      ],
      "emissiveTexture": {
        "index": 19
      },
      "name": "09_W_Hardware",
      "normalTexture": {
        "index": 18
      },
      "occlusionTexture": {
        "index": 17
      },
      "pbrMetallicRoughness": {
        "baseColorTexture": {
          "index": 16
        },
        "metallicRoughnessTexture": {
          "index": 17
        }
      }
    },
    {
      "alphaMode": "OPAQUE",
      "emissiveFactor": [
        1.0,
        1.0,
        1.0
      ],
      "emissiveTexture": {
        "index": 23
      },
      "name": "09_W_Interior",
      "normalTexture": {
        "index": 22
      },
      "occlusionTexture": {
        "index": 21
      },
      "pbrMetallicRoughness": {
        "baseColorTexture": {
          "index": 20
        },
        "metallicRoughnessTexture": {
          "index": 21
        }
      }
    },
    {
      "alphaMode": "OPAQUE",
      "emissiveFactor": [
        1.0,
        1.0,
        1.0
      ],
      "emissiveTexture": {
        "index": 27
      },
      "name": "09_W_Spacers",
      "normalTexture": {
        "index": 26
      },
      "occlusionTexture": {
        "index": 25
      },
      "pbrMetallicRoughness": {
        "baseColorTexture": {
          "index": 24
        },
        "metallicRoughnessTexture": {
          "index": 25
        }
      }
    },
    {
      "alphaMode": "OPAQUE",
      "emissiveFactor": [
        1.0,
        1.0,
        1.0
      ],
      "emissiveTexture": {
        "index": 31
      },
      "name": "09_W_White",
      "normalTexture": {
        "index": 30
      },
      "occlusionTexture": {
        "index": 29
      },
      "pbrMetallicRoughness": {
        "baseColorTexture": {
          "index": 28
        },
        "metallicRoughnessTexture": {
          "index": 29
        }
      }
    }
  ],
  "meshes": [
    {
      "name": "09_W_Glass",
      "primitives": [
        {
          "attributes": {
            "NORMAL": 2,
            "POSITION": 1,
            "TEXCOORD_0": 3
          },
          "indices": 0,
          "material": 2,
          "mode": 4
        }
      ]
    },
    {
      "name": "09_W_Hardware",
      "primitives": [
        {
          "attributes": {
            "NORMAL": 6,
            "POSITION": 5,
            "TEXCOORD_0": 7
          },
          "indices": 4,
          "material": 4,
          "mode": 4
        }
      ]
    },
    {
      "name": "09_W_Exterior",
      "primitives": [
        {
          "attributes": {
            "NORMAL": 10,
            "POSITION": 9,
            "TEXCOORD_0": 11
          },
          "indices": 8,
          "material": 0,
          "mode": 4
        }
      ]
    },
    {
      "name": "09_W_Fibrex",
      "primitives": [
        {
          "attributes": {
            "NORMAL": 14,
            "POSITION": 13,
            "TEXCOORD_0": 15
          },
          "indices": 12,
          "material": 1,
          "mode": 4
        }
      ]
    },
    {
      "name": "09_W_Gray",
      "primitives": [
        {
          "attributes": {
            "NORMAL": 18,
            "POSITION": 17,
            "TEXCOORD_0": 19
          },
          "indices": 16,
          "material": 3,
          "mode": 4
        }
      ]
    },
    {
      "name": "09_W_Interior",
      "primitives": [
        {
          "attributes": {
            "NORMAL": 22,
            "POSITION": 21,
            "TEXCOORD_0": 23
          },
          "indices": 20,
          "material": 5,
          "mode": 4
        }
      ]
    },
    {
      "name": "09_W_Spacers",
      "primitives": [
        {
          "attributes": {
            "NORMAL": 26,
            "POSITION": 25,
            "TEXCOORD_0": 27
          },
          "indices": 24,
          "material": 6,
          "mode": 4
        }
      ]
    },
    {
      "name": "09_W_White",
      "primitives": [
        {
          "attributes": {
            "NORMAL": 30,
            "POSITION": 29,
            "TEXCOORD_0": 31
          },
          "indices": 28,
          "material": 7,
          "mode": 4
        }
      ]
    }
  ],
  "nodes": [
    {
      "children": [
        1,
        3,
        5,
        7,
        9,
        11,
        13,
        15
      ],
      "name": "root",
      "scale": [
        0.689767003059387,
        0.689767003059387,
        0.689767003059387
      ],
      "translation": [
        -3.76105308532715e-05,
        0.689688801765442,
        0.00650898367166519
      ]
    },
    {
      "children": [
        2
      ],
      "name": "09_W_Glass"
    },
    {
      "mesh": 0,
      "name": "09_W_Glass"
    },
    {
      "children": [
        4
      ],
      "name": "09_W_Hardware"
    },
    {
      "mesh": 1,
      "name": "09_W_Hardware"
    },
    {
      "children": [
        6
      ],
      "name": "09_W_Exterior"
    },
    {
      "mesh": 2,
      "name": "09_W_Exterior"
    },
    {
      "children": [
        8
      ],
      "name": "09_W_Fibrex"
    },
    {
      "mesh": 3,
      "name": "09_W_Fibrex"
    },
    {
      "children": [
        10
      ],
      "name": "09_W_Gray"
    },
    {
      "mesh": 4,
      "name": "09_W_Gray"
    },
    {
      "children": [
        12
      ],
      "name": "09_W_Interior"
    },
    {
      "mesh": 5,
      "name": "09_W_Interior"
    },
    {
      "children": [
        14
      ],
      "name": "09_W_Spacers"
    },
    {
      "mesh": 6,
      "name": "09_W_Spacers"
    },
    {
      "children": [
        16
      ],
      "name": "09_W_White"
    },
    {
      "mesh": 7,
      "name": "09_W_White"
    }
  ],
  "samplers": [
    {
      "magFilter": 9729,
      "minFilter": 9985,
      "wrapS": 10497,
      "wrapT": 10497
    }
  ],
  "scene": 0,
  "scenes": [
    {
      "name": "Scene",
      "nodes": [
        0
      ]
    }
  ],
  "textures": [
    {
      "sampler": 0,
      "source": 0
    },
    {
      "sampler": 0,
      "source": 1
    },
    {
      "sampler": 0,
      "source": 2
    },
    {
      "sampler": 0,
      "source": 3
    },
    {
      "sampler": 0,
      "source": 4
    },
    {
      "sampler": 0,
      "source": 5
    },
    {
      "sampler": 0,
      "source": 6
    },
    {
      "sampler": 0,
      "source": 7
    },
    {
      "sampler": 0,
      "source": 8
    },
    {
      "sampler": 0,
      "source": 9
    },
    {
      "sampler": 0,
      "source": 10
    },
    {
      "sampler": 0,
      "source": 11
    },
    {
      "sampler": 0,
      "source": 12
    },
    {
      "sampler": 0,
      "source": 13
    },
    {
      "sampler": 0,
      "source": 14
    },
    {
      "sampler": 0,
      "source": 15
    },
    {
      "sampler": 0,
      "source": 16
    },
    {
      "sampler": 0,
      "source": 17
    },
    {
      "sampler": 0,
      "source": 18
    },
    {
      "sampler": 0,
      "source": 19
    },
    {
      "sampler": 0,
      "source": 20
    },
    {
      "sampler": 0,
      "source": 21
    },
    {
      "sampler": 0,
      "source": 22
    },
    {
      "sampler": 0,
      "source": 23
    },
    {
      "sampler": 0,
      "source": 24
    },
    {
      "sampler": 0,
      "source": 25
    },
    {
      "sampler": 0,
      "source": 26
    },
    {
      "sampler": 0,
      "source": 27
    },
    {
      "sampler": 0,
      "source": 28
    },
    {
      "sampler": 0,
      "source": 29
    },
    {
      "sampler": 0,
      "source": 30
    },
    {
      "sampler": 0,
      "source": 31
    }
  ]
}